<svg width="71" height="85" viewBox="0 0 71 85" fill="none" xmlns="http://www.w3.org/2000/svg">
<g clip-path="url(#clip0_3_3359)">
<path d="M54.6186 62.8077L38.46 53.5248C36.6589 52.4899 33.5178 52.6202 31.4383 53.8132L21.3193 59.6041L25.3232 60.9591L34.7703 72.8096L35.0327 85.0117C36.3334 84.9888 37.6091 84.6526 38.7503 84.0321L68.7455 66.829L69.2345 66.5486C69.7712 66.2407 70.2169 65.7979 70.5268 65.2647C70.8367 64.7315 70.9998 64.1266 70.9999 63.5109L70.7414 52.2805L54.6186 62.8077Z" fill="url(#paint0_linear_3_3359)"/>
<path d="M17.5303 61.7808L0.262418 52.4663L0 65.2017C0.0565273 65.5409 0.194433 65.8615 0.402054 66.1365C0.609675 66.4116 0.880906 66.6329 1.19281 66.7818L31.7248 84.3127C32.7425 84.8325 33.8826 85.07 35.0249 85L34.7624 72.7979L17.5303 61.7808Z" fill="#4B5DFD"/>
<path d="M32.007 72.1029L1.47502 54.576C-0.322142 53.541 -0.0994839 51.7476 1.98793 50.5626L31.9752 33.3437C34.0546 32.1587 37.1957 32.0204 38.9929 33.0554L69.5248 50.5823C71.326 51.6133 71.1152 53.4146 69.0199 54.6076L39.0247 71.8145C36.9492 73.0035 33.7962 73.1339 32.007 72.1029Z" fill="url(#paint1_linear_3_3359)"/>
<path opacity="0.3" d="M32.3451 70.2106L4.7713 54.3822C3.14511 53.4499 3.34788 51.8225 5.22457 50.7441L32.3173 35.208C34.1939 34.1296 37.0328 34.023 38.655 34.9473L66.2288 50.7757C67.851 51.7079 67.6483 53.3354 65.7716 54.4098L38.6829 69.9499C36.8062 71.0243 33.9713 71.1428 32.3451 70.2106Z" stroke="white" stroke-width="0.53" stroke-miterlimit="10"/>
<path opacity="0.8" d="M31.1089 37.3609L62.3168 55.2631C62.3998 55.3099 62.4937 55.3344 62.5891 55.3344C62.6846 55.3344 62.7784 55.3099 62.8615 55.2631C62.9439 55.215 63.0123 55.1464 63.0598 55.0639C63.1073 54.9814 63.1323 54.8881 63.1323 54.7931C63.1323 54.6981 63.1073 54.6047 63.0598 54.5222C63.0123 54.4398 62.9439 54.3711 62.8615 54.323L31.6536 36.4247C31.5712 36.376 31.4771 36.3503 31.3812 36.3503C31.2854 36.3503 31.1913 36.376 31.1089 36.4247C31.0253 36.4715 30.9558 36.5395 30.9074 36.6217C30.859 36.704 30.8335 36.7975 30.8335 36.8928C30.8335 36.9881 30.859 37.0817 30.9074 37.1639C30.9558 37.2462 31.0253 37.3142 31.1089 37.3609Z" fill="url(#paint2_linear_3_3359)"/>
<path d="M70.9085 57.5623L64.8569 61.2438V62.3973L70.9085 58.7157V57.5623Z" fill="url(#paint3_linear_3_3359)"/>
<path d="M70.9085 60.2876L64.8569 63.9652V65.1226L70.9085 61.4411V60.2876Z" fill="url(#paint4_linear_3_3359)"/>
<path d="M29.4228 29.5156L64.5312 49.6813C65.1792 50.0526 65.7041 49.6576 65.7041 48.8004L66.1017 22.5831C66.0971 22.147 65.9889 21.7183 65.7857 21.3318C65.5825 20.9453 65.2903 20.612 64.9327 20.3591L29.8204 0.19738C29.1723 -0.173937 28.6276 0.217131 28.6276 1.07432L28.23 27.2917C28.2395 27.7293 28.3524 28.1586 28.5596 28.5449C28.7668 28.9312 29.0624 29.2637 29.4228 29.5156Z" fill="url(#paint5_linear_3_3359)"/>
<g opacity="0.7">
<path opacity="0.7" d="M56.4839 15.5202L37.3035 4.55849L32.5323 1.81311L30.1467 0.442396C29.9488 0.316391 29.7366 0.214281 29.5145 0.138232C29.4135 0.107437 29.306 0.104781 29.2036 0.130555C29.1012 0.156329 29.008 0.209543 28.934 0.284389C28.7957 0.452907 28.7137 0.659999 28.6994 0.876916C28.6795 1.09813 28.6994 1.33119 28.6795 1.5603L28.5284 12.5497L28.3495 23.5391L28.3058 26.3042V26.9916C28.2886 27.2113 28.2926 27.4322 28.3177 27.6512C28.3897 28.0972 28.5623 28.5213 28.8226 28.8916C28.9499 29.0765 29.1055 29.2404 29.2839 29.3775C29.4628 29.5078 29.6815 29.6105 29.8723 29.729L31.0651 30.4203L33.4507 31.795L52.5794 42.8555L33.399 31.874L31.0134 30.4993L29.8206 29.8159C29.6218 29.6935 29.423 29.5987 29.2202 29.4565C29.035 29.3119 28.8716 29.1416 28.7352 28.9509C28.4716 28.5604 28.2991 28.1164 28.2302 27.6512C28.1973 27.421 28.188 27.1881 28.2024 26.956V26.2687L28.2421 23.5036L28.3972 12.5102L28.5761 1.5208C28.5761 1.29169 28.5761 1.06652 28.5761 0.829514C28.6005 0.59832 28.6964 0.380299 28.8505 0.205385C28.9388 0.116373 29.0498 0.0528336 29.1717 0.0215312C29.2935 -0.00977119 29.4216 -0.00766443 29.5423 0.0276271C29.7635 0.108116 29.9743 0.214184 30.1705 0.343642L32.5561 1.72225L37.3274 4.48738L56.4839 15.5202Z" fill="url(#paint6_linear_3_3359)"/>
</g>
<g opacity="0.7">
<path opacity="0.7" d="M65.8035 40.8289C65.8035 42.1403 65.8035 43.4557 65.8035 44.779L65.7678 48.7292C65.7873 49.0746 65.6969 49.4174 65.5093 49.7089C65.4537 49.7825 65.3808 49.8415 65.2969 49.8808C65.2131 49.92 65.1208 49.9383 65.0282 49.934C64.8536 49.9208 64.6847 49.8666 64.5352 49.776L62.8215 48.7569C61.6791 48.0985 60.5433 47.4283 59.4141 46.7462C60.5698 47.3783 61.7215 48.0221 62.8692 48.6779L64.5909 49.6496C64.7262 49.7268 64.8768 49.774 65.0322 49.7879C65.1047 49.7904 65.1768 49.7752 65.242 49.7435C65.3072 49.7118 65.3635 49.6646 65.4059 49.6062C65.5716 49.336 65.6481 49.021 65.6246 48.7055L65.7081 44.7553C65.724 43.4491 65.7558 42.1403 65.8035 40.8289Z" fill="url(#paint7_linear_3_3359)"/>
</g>
<path opacity="0.3" d="M62.9047 41.793L32.6392 24.4319V8.09399L32.7704 8.16905V24.3569L62.9047 41.6429V41.793Z" fill="#2A2284"/>
<path opacity="0.3" d="M62.9046 26.237L32.7861 8.9629V8.85229L62.9046 26.1264V26.237Z" fill="#2A2284"/>
<path opacity="0.3" d="M62.9046 29.271L32.7861 11.9968V11.8862L62.9046 29.1604V29.271Z" fill="#2A2284"/>
<path opacity="0.3" d="M62.9046 32.3044L32.7861 15.0303V14.9197L62.9046 32.1938V32.3044Z" fill="#2A2284"/>
<path opacity="0.3" d="M62.9046 35.3384L32.7861 18.0642V17.9536L62.9046 35.2278V35.3384Z" fill="#2A2284"/>
<path opacity="0.3" d="M62.9046 38.3721L32.7861 21.098V20.9834L62.9046 38.2615V38.3721Z" fill="#2A2284"/>
<path d="M31.2285 1.51744V3.4222L31.0194 3.30285V1.69864L30.598 1.63495V1.41768L31.1957 1.49873L31.2285 1.51744ZM31.5742 5.52151V5.81035C31.5742 5.96561 31.5621 6.0897 31.538 6.18262C31.5139 6.27555 31.4793 6.34163 31.4341 6.38088C31.3889 6.42013 31.3343 6.43622 31.2703 6.42915C31.207 6.42165 31.1354 6.39511 31.0556 6.34952C30.9923 6.31339 30.9339 6.27095 30.8805 6.2222C30.827 6.17345 30.7788 6.11687 30.7358 6.05245C30.6937 5.9876 30.6575 5.91405 30.6274 5.83179C30.5972 5.74954 30.5743 5.65749 30.5584 5.55565C30.5426 5.4538 30.5347 5.34087 30.5347 5.21683V4.928C30.5347 4.77274 30.5468 4.64951 30.5709 4.55832C30.5957 4.46756 30.6308 4.40343 30.676 4.36591C30.7211 4.32753 30.7754 4.31253 30.8387 4.3209C30.9027 4.3297 30.9742 4.35668 31.0533 4.40184C31.1173 4.43839 31.1761 4.48105 31.2296 4.5298C31.2838 4.57811 31.332 4.63383 31.3742 4.69694C31.4164 4.75919 31.4522 4.8308 31.4815 4.91175C31.5117 4.99228 31.5346 5.08302 31.5505 5.184C31.5663 5.28497 31.5742 5.39748 31.5742 5.52151ZM31.364 5.72938V5.36118C31.364 5.27618 31.3595 5.19901 31.3505 5.12966C31.3422 5.05988 31.3298 4.99727 31.3132 4.94183C31.2966 4.8864 31.2755 4.83706 31.2499 4.79382C31.2251 4.751 31.1961 4.71362 31.1629 4.68169C31.1305 4.64932 31.094 4.62152 31.0533 4.5983C31.0036 4.56991 30.9595 4.55559 30.9211 4.55534C30.8827 4.55423 30.8503 4.56913 30.824 4.60005C30.7984 4.63139 30.7788 4.68049 30.7652 4.74735C30.7517 4.8142 30.7449 4.90097 30.7449 5.00766V5.37586C30.7449 5.46086 30.749 5.53825 30.7573 5.60804C30.7663 5.67825 30.7795 5.74216 30.7968 5.79975C30.8142 5.85649 30.8353 5.90713 30.8601 5.95168C30.885 5.99623 30.9136 6.03512 30.946 6.06836C30.9791 6.10116 31.0157 6.12896 31.0556 6.15175C31.1068 6.181 31.1516 6.19531 31.19 6.1947C31.2285 6.19408 31.2605 6.17723 31.2861 6.14415C31.3124 6.11063 31.332 6.05979 31.3448 5.99164C31.3576 5.92262 31.364 5.8352 31.364 5.72938ZM31.5742 8.52151V8.81035C31.5742 8.96561 31.5621 9.0897 31.538 9.18262C31.5139 9.27555 31.4793 9.34163 31.4341 9.38088C31.3889 9.42013 31.3343 9.43622 31.2703 9.42915C31.207 9.42165 31.1354 9.39511 31.0556 9.34952C30.9923 9.31339 30.9339 9.27095 30.8805 9.2222C30.827 9.17345 30.7788 9.11687 30.7358 9.05245C30.6937 8.9876 30.6575 8.91405 30.6274 8.83179C30.5972 8.74954 30.5743 8.65749 30.5584 8.55565C30.5426 8.4538 30.5347 8.34087 30.5347 8.21683V7.928C30.5347 7.77274 30.5468 7.64951 30.5709 7.55832C30.5957 7.46756 30.6308 7.40343 30.676 7.36591C30.7211 7.32753 30.7754 7.31253 30.8387 7.3209C30.9027 7.3297 30.9742 7.35668 31.0533 7.40184C31.1173 7.43839 31.1761 7.48105 31.2296 7.5298C31.2838 7.57811 31.332 7.63383 31.3742 7.69694C31.4164 7.75919 31.4522 7.8308 31.4815 7.91175C31.5117 7.99228 31.5346 8.08302 31.5505 8.184C31.5663 8.28497 31.5742 8.39748 31.5742 8.52151ZM31.364 8.72938V8.36118C31.364 8.27618 31.3595 8.19901 31.3505 8.12966C31.3422 8.05988 31.3298 7.99727 31.3132 7.94183C31.2966 7.8864 31.2755 7.83706 31.2499 7.79382C31.2251 7.751 31.1961 7.71362 31.1629 7.68169C31.1305 7.64932 31.094 7.62152 31.0533 7.5983C31.0036 7.56991 30.9595 7.55559 30.9211 7.55534C30.8827 7.55423 30.8503 7.56913 30.824 7.60005C30.7984 7.63139 30.7788 7.68049 30.7652 7.74735C30.7517 7.8142 30.7449 7.90097 30.7449 8.00766V8.37586C30.7449 8.46086 30.749 8.53825 30.7573 8.60804C30.7663 8.67825 30.7795 8.74216 30.7968 8.79975C30.8142 8.85649 30.8353 8.90713 30.8601 8.95168C30.885 8.99623 30.9136 9.03512 30.946 9.06836C30.9791 9.10116 31.0157 9.12896 31.0556 9.15175C31.1068 9.181 31.1516 9.19531 31.19 9.1947C31.2285 9.19408 31.2605 9.17723 31.2861 9.14415C31.3124 9.11063 31.332 9.05979 31.3448 8.99164C31.3576 8.92262 31.364 8.8352 31.364 8.72938ZM31.5742 11.5215V11.8103C31.5742 11.9656 31.5621 12.0897 31.538 12.1826C31.5139 12.2755 31.4793 12.3416 31.4341 12.3809C31.3889 12.4201 31.3343 12.4362 31.2703 12.4292C31.207 12.4217 31.1354 12.3951 31.0556 12.3495C30.9923 12.3134 30.9339 12.271 30.8805 12.2222C30.827 12.1734 30.7788 12.1169 30.7358 12.0525C30.6937 11.9876 30.6575 11.914 30.6274 11.8318C30.5972 11.7495 30.5743 11.6575 30.5584 11.5556C30.5426 11.4538 30.5347 11.3409 30.5347 11.2168V10.928C30.5347 10.7727 30.5468 10.6495 30.5709 10.5583C30.5957 10.4676 30.6308 10.4034 30.676 10.3659C30.7211 10.3275 30.7754 10.3125 30.8387 10.3209C30.9027 10.3297 30.9742 10.3567 31.0533 10.4018C31.1173 10.4384 31.1761 10.481 31.2296 10.5298C31.2838 10.5781 31.332 10.6338 31.3742 10.6969C31.4164 10.7592 31.4522 10.8308 31.4815 10.9118C31.5117 10.9923 31.5346 11.083 31.5505 11.184C31.5663 11.285 31.5742 11.3975 31.5742 11.5215ZM31.364 11.7294V11.3612C31.364 11.2762 31.3595 11.199 31.3505 11.1297C31.3422 11.0599 31.3298 10.9973 31.3132 10.9418C31.2966 10.8864 31.2755 10.8371 31.2499 10.7938C31.2251 10.751 31.1961 10.7136 31.1629 10.6817C31.1305 10.6493 31.094 10.6215 31.0533 10.5983C31.0036 10.5699 30.9595 10.5556 30.9211 10.5553C30.8827 10.5542 30.8503 10.5691 30.824 10.6C30.7984 10.6314 30.7788 10.6805 30.7652 10.7473C30.7517 10.8142 30.7449 10.901 30.7449 11.0077V11.3759C30.7449 11.4609 30.749 11.5383 30.7573 11.608C30.7663 11.6783 30.7795 11.7422 30.7968 11.7998C30.8142 11.8565 30.8353 11.9071 30.8601 11.9517C30.885 11.9962 30.9136 12.0351 30.946 12.0684C30.9791 12.1012 31.0157 12.129 31.0556 12.1518C31.1068 12.181 31.1516 12.1953 31.19 12.1947C31.2285 12.1941 31.2605 12.1772 31.2861 12.1441C31.3124 12.1106 31.332 12.0598 31.3448 11.9916C31.3576 11.9226 31.364 11.8352 31.364 11.7294Z" fill="white"/>
<path d="M32.0778 5.12793V5.26324L31.3965 6.63327L31.1762 6.50747L31.8564 5.19925L30.9661 4.69089V4.49313L32.0778 5.12793ZM32.0473 8.90676V9.1956C32.0473 9.35086 32.0353 9.47495 32.0112 9.56788C31.9871 9.6608 31.9524 9.72689 31.9072 9.76614C31.862 9.80538 31.8074 9.82147 31.7434 9.81441C31.6801 9.8069 31.6086 9.78036 31.5287 9.73477C31.4655 9.69864 31.4071 9.6562 31.3536 9.60745C31.3001 9.5587 31.2519 9.50212 31.209 9.43771C31.1668 9.37286 31.1306 9.2993 31.1005 9.21705C31.0704 9.13479 31.0474 9.04274 31.0316 8.9409C31.0158 8.83906 31.0079 8.72612 31.0079 8.60209V8.31325C31.0079 8.15799 31.0199 8.03477 31.044 7.94358C31.0689 7.85282 31.1039 7.78868 31.1491 7.75117C31.1943 7.71278 31.2485 7.69778 31.3118 7.70615C31.3758 7.71495 31.4474 7.74193 31.5265 7.78709C31.5905 7.82365 31.6492 7.8663 31.7027 7.91505C31.757 7.96336 31.8052 8.01908 31.8473 8.0822C31.8895 8.14444 31.9253 8.21605 31.9547 8.29701C31.9848 8.37753 32.0078 8.46828 32.0236 8.56925C32.0394 8.67022 32.0473 8.78273 32.0473 8.90676ZM31.8372 9.11464V8.74644C31.8372 8.66143 31.8327 8.58426 31.8236 8.51491C31.8153 8.44513 31.8029 8.38252 31.7863 8.32709C31.7698 8.27166 31.7487 8.22232 31.7231 8.17907C31.6982 8.13625 31.6692 8.09888 31.6361 8.06694C31.6037 8.03457 31.5671 8.00677 31.5265 7.98355C31.4768 7.95516 31.4327 7.94085 31.3943 7.9406C31.3559 7.93948 31.3235 7.95438 31.2971 7.9853C31.2715 8.01665 31.2519 8.06575 31.2384 8.1326C31.2248 8.19945 31.218 8.28622 31.218 8.39291V8.76111C31.218 8.84611 31.2222 8.92351 31.2304 8.99329C31.2395 9.06351 31.2527 9.12741 31.27 9.18501C31.2873 9.24174 31.3084 9.29238 31.3333 9.33693C31.3581 9.38148 31.3867 9.42038 31.4191 9.45361C31.4523 9.48642 31.4888 9.51421 31.5287 9.53701C31.5799 9.56625 31.6248 9.58057 31.6632 9.57995C31.7016 9.57933 31.7336 9.56248 31.7592 9.5294C31.7856 9.49588 31.8052 9.44504 31.818 9.37689C31.8308 9.30788 31.8372 9.22046 31.8372 9.11464ZM32.0473 11.9068V12.1956C32.0473 12.3509 32.0353 12.475 32.0112 12.5679C31.9871 12.6608 31.9524 12.7269 31.9072 12.7661C31.862 12.8054 31.8074 12.8215 31.7434 12.8144C31.6801 12.8069 31.6086 12.7804 31.5287 12.7348C31.4655 12.6986 31.4071 12.6562 31.3536 12.6075C31.3001 12.5587 31.2519 12.5021 31.209 12.4377C31.1668 12.3729 31.1306 12.2993 31.1005 12.217C31.0704 12.1348 31.0474 12.0427 31.0316 11.9409C31.0158 11.8391 31.0079 11.7261 31.0079 11.6021V11.3133C31.0079 11.158 31.0199 11.0348 31.044 10.9436C31.0689 10.8528 31.1039 10.7887 31.1491 10.7512C31.1943 10.7128 31.2485 10.6978 31.3118 10.7062C31.3758 10.715 31.4474 10.7419 31.5265 10.7871C31.5905 10.8236 31.6492 10.8663 31.7027 10.9151C31.757 10.9634 31.8052 11.0191 31.8473 11.0822C31.8895 11.1444 31.9253 11.216 31.9547 11.297C31.9848 11.3775 32.0078 11.4683 32.0236 11.5693C32.0394 11.6702 32.0473 11.7827 32.0473 11.9068ZM31.8372 12.1146V11.7464C31.8372 11.6614 31.8327 11.5843 31.8236 11.5149C31.8153 11.4451 31.8029 11.3825 31.7863 11.3271C31.7698 11.2717 31.7487 11.2223 31.7231 11.1791C31.6982 11.1363 31.6692 11.0989 31.6361 11.0669C31.6037 11.0346 31.5671 11.0068 31.5265 10.9836C31.4768 10.9552 31.4327 10.9408 31.3943 10.9406C31.3559 10.9395 31.3235 10.9544 31.2971 10.9853C31.2715 11.0166 31.2519 11.0657 31.2384 11.1326C31.2248 11.1995 31.218 11.2862 31.218 11.3929V11.7611C31.218 11.8461 31.2222 11.9235 31.2304 11.9933C31.2395 12.0635 31.2527 12.1274 31.27 12.185C31.2873 12.2417 31.3084 12.2924 31.3333 12.3369C31.3581 12.3815 31.3867 12.4204 31.4191 12.4536C31.4523 12.4864 31.4888 12.5142 31.5287 12.537C31.5799 12.5663 31.6248 12.5806 31.6632 12.58C31.7016 12.5793 31.7336 12.5625 31.7592 12.5294C31.7856 12.4959 31.8052 12.445 31.818 12.3769C31.8308 12.3079 31.8372 12.2205 31.8372 12.1146Z" fill="white"/>
<path d="M31.279 8.77733L31.1118 8.63241L31.1943 7.73624L32.0383 8.21814V8.44063L31.3717 8.06L31.322 8.54684C31.3521 8.54409 31.3901 8.54716 31.4361 8.55605C31.4828 8.56537 31.5363 8.58723 31.5965 8.62164C31.6726 8.66508 31.7408 8.71918 31.801 8.78394C31.8613 8.84784 31.9125 8.91959 31.9547 8.99918C31.9976 9.07921 32.0304 9.16471 32.053 9.25567C32.0756 9.34664 32.0869 9.44026 32.0869 9.53654C32.0869 9.62761 32.076 9.70508 32.0541 9.76894C32.033 9.83322 32.001 9.88173 31.9581 9.91446C31.9151 9.94633 31.8609 9.95917 31.7954 9.95297C31.7306 9.94721 31.6541 9.91917 31.566 9.86885C31.4997 9.831 31.4368 9.78468 31.3773 9.72989C31.3186 9.67466 31.2658 9.61203 31.2191 9.54199C31.1732 9.47152 31.1355 9.39537 31.1062 9.31355C31.0775 9.23128 31.0595 9.14377 31.0519 9.05099L31.2508 9.16453C31.2598 9.24082 31.2779 9.31099 31.305 9.37505C31.3321 9.4391 31.3675 9.49618 31.4112 9.54628C31.4557 9.59594 31.5073 9.63754 31.566 9.67109C31.6157 9.69948 31.6598 9.71466 31.6982 9.71665C31.7366 9.71863 31.769 9.7085 31.7954 9.68626C31.8217 9.66401 31.8417 9.63031 31.8553 9.58514C31.8696 9.5404 31.8767 9.48507 31.8767 9.41915C31.8767 9.3593 31.8696 9.2997 31.8553 9.24035C31.8409 9.18101 31.8195 9.12408 31.7909 9.06957C31.763 9.0155 31.7287 8.96644 31.688 8.9224C31.6474 8.87749 31.6007 8.83998 31.5479 8.80987C31.4779 8.76988 31.4248 8.7504 31.3886 8.75144C31.3532 8.75291 31.3167 8.76154 31.279 8.77733ZM32.0473 12.0196V12.3084C32.0473 12.4637 32.0353 12.5877 32.0112 12.6807C31.9871 12.7736 31.9524 12.8397 31.9072 12.8789C31.862 12.9182 31.8074 12.9343 31.7434 12.9272C31.6801 12.9197 31.6086 12.8932 31.5287 12.8476C31.4655 12.8114 31.4071 12.769 31.3536 12.7202C31.3001 12.6715 31.2519 12.6149 31.209 12.5505C31.1668 12.4856 31.1306 12.4121 31.1005 12.3298C31.0704 12.2476 31.0474 12.1555 31.0316 12.0537C31.0158 11.9519 31.0079 11.8389 31.0079 11.7149V11.426C31.0079 11.2708 31.0199 11.1476 31.044 11.0564C31.0689 10.9656 31.1039 10.9015 31.1491 10.864C31.1943 10.8256 31.2485 10.8106 31.3118 10.8189C31.3758 10.8277 31.4474 10.8547 31.5265 10.8999C31.5905 10.9364 31.6492 10.9791 31.7027 11.0278C31.757 11.0762 31.8052 11.1319 31.8473 11.195C31.8895 11.2572 31.9253 11.3288 31.9547 11.4098C31.9848 11.4903 32.0078 11.5811 32.0236 11.682C32.0394 11.783 32.0473 11.8955 32.0473 12.0196ZM31.8372 12.2274V11.8592C31.8372 11.7742 31.8327 11.6971 31.8236 11.6277C31.8153 11.5579 31.8029 11.4953 31.7863 11.4399C31.7698 11.3844 31.7487 11.3351 31.7231 11.2919C31.6982 11.249 31.6692 11.2117 31.6361 11.1797C31.6037 11.1474 31.5671 11.1196 31.5265 11.0963C31.4768 11.068 31.4327 11.0536 31.3943 11.0534C31.3559 11.0523 31.3235 11.0672 31.2971 11.0981C31.2715 11.1294 31.2519 11.1785 31.2384 11.2454C31.2248 11.3122 31.218 11.399 31.218 11.5057V11.8739C31.218 11.9589 31.2222 12.0363 31.2304 12.1061C31.2395 12.1763 31.2527 12.2402 31.27 12.2978C31.2873 12.3545 31.3084 12.4052 31.3333 12.4497C31.3581 12.4943 31.3867 12.5332 31.4191 12.5664C31.4523 12.5992 31.4888 12.627 31.5287 12.6498C31.5799 12.679 31.6248 12.6934 31.6632 12.6927C31.7016 12.6921 31.7336 12.6753 31.7592 12.6422C31.7856 12.6087 31.8052 12.5578 31.818 12.4897C31.8308 12.4207 31.8372 12.3333 31.8372 12.2274ZM32.0473 15.0196V15.3084C32.0473 15.4637 32.0353 15.5877 32.0112 15.6807C31.9871 15.7736 31.9524 15.8397 31.9072 15.8789C31.862 15.9182 31.8074 15.9343 31.7434 15.9272C31.6801 15.9197 31.6086 15.8932 31.5287 15.8476C31.4655 15.8114 31.4071 15.769 31.3536 15.7202C31.3001 15.6715 31.2519 15.6149 31.209 15.5505C31.1668 15.4856 31.1306 15.4121 31.1005 15.3298C31.0704 15.2476 31.0474 15.1555 31.0316 15.0537C31.0158 14.9519 31.0079 14.8389 31.0079 14.7149V14.426C31.0079 14.2708 31.0199 14.1476 31.044 14.0564C31.0689 13.9656 31.1039 13.9015 31.1491 13.864C31.1943 13.8256 31.2485 13.8106 31.3118 13.8189C31.3758 13.8277 31.4474 13.8547 31.5265 13.8999C31.5905 13.9364 31.6492 13.9791 31.7027 14.0278C31.757 14.0762 31.8052 14.1319 31.8473 14.195C31.8895 14.2572 31.9253 14.3288 31.9547 14.4098C31.9848 14.4903 32.0078 14.5811 32.0236 14.682C32.0394 14.783 32.0473 14.8955 32.0473 15.0196ZM31.8372 15.2274V14.8592C31.8372 14.7742 31.8327 14.6971 31.8236 14.6277C31.8153 14.5579 31.8029 14.4953 31.7863 14.4399C31.7698 14.3844 31.7487 14.3351 31.7231 14.2919C31.6982 14.249 31.6692 14.2117 31.6361 14.1797C31.6037 14.1474 31.5671 14.1196 31.5265 14.0963C31.4768 14.068 31.4327 14.0536 31.3943 14.0534C31.3559 14.0523 31.3235 14.0672 31.2971 14.0981C31.2715 14.1294 31.2519 14.1785 31.2384 14.2454C31.2248 14.3122 31.218 14.399 31.218 14.5057V14.8739C31.218 14.9589 31.2222 15.0363 31.2304 15.1061C31.2395 15.1763 31.2527 15.2402 31.27 15.2978C31.2873 15.3545 31.3084 15.4052 31.3333 15.4497C31.3581 15.4943 31.3867 15.5332 31.4191 15.5664C31.4523 15.5992 31.4888 15.627 31.5287 15.6498C31.5799 15.679 31.6248 15.6934 31.6632 15.6927C31.7016 15.6921 31.7336 15.6753 31.7592 15.6422C31.7856 15.6087 31.8052 15.5578 31.818 15.4897C31.8308 15.4207 31.8372 15.3333 31.8372 15.2274Z" fill="white"/>
<path d="M31.3197 11.7453L31.4688 11.8304C31.5419 11.8721 31.6022 11.8927 31.6496 11.892C31.6978 11.8909 31.7336 11.8727 31.757 11.8375C31.7811 11.8018 31.7931 11.7532 31.7931 11.6916C31.7931 11.6187 31.7826 11.5516 31.7615 11.4901C31.7404 11.4286 31.7088 11.3733 31.6666 11.324C31.6244 11.2748 31.5709 11.2317 31.5061 11.1947C31.4474 11.1611 31.3954 11.1449 31.3502 11.146C31.3058 11.1466 31.2707 11.1639 31.2451 11.1979C31.2203 11.2323 31.2078 11.2824 31.2078 11.3483L30.9988 11.229C30.9988 11.1327 31.0199 11.0571 31.0621 11.0023C31.1043 10.9474 31.1634 10.9183 31.2395 10.9149C31.3163 10.912 31.4052 10.9393 31.5061 10.9969C31.6056 11.0537 31.6926 11.1237 31.7671 11.2071C31.8417 11.2896 31.8997 11.3825 31.9411 11.486C31.9826 11.5886 32.0033 11.6988 32.0033 11.8168C32.0033 11.8645 31.9935 11.9101 31.9739 11.9536C31.9551 11.9966 31.9253 12.0299 31.8846 12.0535C31.8447 12.0776 31.7927 12.0865 31.7287 12.0803C31.6647 12.0732 31.5879 12.0441 31.4982 11.9929L31.3197 11.891V11.7453ZM31.3197 11.943V11.7986L31.4982 11.9005C31.6029 11.9603 31.6895 12.0241 31.7581 12.0919C31.8266 12.1596 31.8805 12.2285 31.9197 12.2986C31.9596 12.3691 31.9875 12.4375 32.0033 12.5038C32.0198 12.5696 32.0281 12.6307 32.0281 12.6871C32.0281 12.7756 32.0149 12.8465 31.9886 12.9C31.963 12.9539 31.9264 12.9912 31.879 13.0118C31.8323 13.0328 31.7773 13.0374 31.714 13.0256C31.6508 13.0137 31.5818 12.9865 31.5073 12.9439C31.4357 12.9031 31.3683 12.8529 31.305 12.7933C31.2425 12.7342 31.1871 12.6688 31.1389 12.597C31.0907 12.5244 31.0531 12.4478 31.0259 12.3673C30.9988 12.2859 30.9853 12.2031 30.9853 12.119L31.1943 12.2383C31.1943 12.3042 31.2067 12.369 31.2316 12.4326C31.2572 12.4967 31.2933 12.556 31.34 12.6104C31.3875 12.6644 31.4432 12.7096 31.5073 12.7462C31.5713 12.7827 31.6263 12.8016 31.6722 12.8026C31.7189 12.8033 31.7547 12.7847 31.7796 12.7468C31.8052 12.7094 31.818 12.6512 31.818 12.5723C31.818 12.4934 31.8037 12.4206 31.775 12.3539C31.7464 12.2864 31.7057 12.2255 31.653 12.1711C31.601 12.1162 31.5397 12.0686 31.4688 12.0282L31.3197 11.943ZM32.0473 15.1282V15.417C32.0473 15.5723 32.0353 15.6964 32.0112 15.7893C31.9871 15.8822 31.9524 15.9483 31.9072 15.9876C31.862 16.0268 31.8074 16.0429 31.7434 16.0358C31.6801 16.0283 31.6086 16.0018 31.5287 15.9562C31.4655 15.9201 31.4071 15.8776 31.3536 15.8289C31.3001 15.7801 31.2519 15.7236 31.209 15.6591C31.1668 15.5943 31.1306 15.5207 31.1005 15.4385C31.0704 15.3562 31.0474 15.2642 31.0316 15.1623C31.0158 15.0605 31.0079 14.9476 31.0079 14.8235V14.5347C31.0079 14.3794 31.0199 14.2562 31.044 14.165C31.0689 14.0743 31.1039 14.0101 31.1491 13.9726C31.1943 13.9342 31.2485 13.9192 31.3118 13.9276C31.3758 13.9364 31.4474 13.9634 31.5265 14.0085C31.5905 14.0451 31.6492 14.0877 31.7027 14.1365C31.757 14.1848 31.8052 14.2405 31.8473 14.3036C31.8895 14.3659 31.9253 14.4375 31.9547 14.5184C31.9848 14.599 32.0078 14.6897 32.0236 14.7907C32.0394 14.8917 32.0473 15.0042 32.0473 15.1282ZM31.8372 15.3361V14.9679C31.8372 14.8829 31.8327 14.8057 31.8236 14.7363C31.8153 14.6666 31.8029 14.604 31.7863 14.5485C31.7698 14.4931 31.7487 14.4438 31.7231 14.4005C31.6982 14.3577 31.6692 14.3203 31.6361 14.2884C31.6037 14.256 31.5671 14.2282 31.5265 14.205C31.4768 14.1766 31.4327 14.1623 31.3943 14.162C31.3559 14.1609 31.3235 14.1758 31.2971 14.2067C31.2715 14.2381 31.2519 14.2872 31.2384 14.354C31.2248 14.4209 31.218 14.5077 31.218 14.6143V14.9825C31.218 15.0675 31.2222 15.1449 31.2304 15.2147C31.2395 15.2849 31.2527 15.3488 31.27 15.4064C31.2873 15.4632 31.3084 15.5138 31.3333 15.5584C31.3581 15.6029 31.3867 15.6418 31.4191 15.6751C31.4523 15.7079 31.4888 15.7356 31.5287 15.7584C31.5799 15.7877 31.6248 15.802 31.6632 15.8014C31.7016 15.8008 31.7336 15.7839 31.7592 15.7508C31.7856 15.7173 31.8052 15.6665 31.818 15.5983C31.8308 15.5293 31.8372 15.4419 31.8372 15.3361ZM32.0473 18.1282V18.417C32.0473 18.5723 32.0353 18.6964 32.0112 18.7893C31.9871 18.8822 31.9524 18.9483 31.9072 18.9876C31.862 19.0268 31.8074 19.0429 31.7434 19.0358C31.6801 19.0283 31.6086 19.0018 31.5287 18.9562C31.4655 18.9201 31.4071 18.8776 31.3536 18.8289C31.3001 18.7801 31.2519 18.7236 31.209 18.6591C31.1668 18.5943 31.1306 18.5207 31.1005 18.4385C31.0704 18.3562 31.0474 18.2642 31.0316 18.1623C31.0158 18.0605 31.0079 17.9476 31.0079 17.8235V17.5347C31.0079 17.3794 31.0199 17.2562 31.044 17.165C31.0689 17.0743 31.1039 17.0101 31.1491 16.9726C31.1943 16.9342 31.2485 16.9192 31.3118 16.9276C31.3758 16.9364 31.4474 16.9634 31.5265 17.0085C31.5905 17.0451 31.6492 17.0877 31.7027 17.1365C31.757 17.1848 31.8052 17.2405 31.8473 17.3036C31.8895 17.3659 31.9253 17.4375 31.9547 17.5184C31.9848 17.599 32.0078 17.6897 32.0236 17.7907C32.0394 17.8917 32.0473 18.0042 32.0473 18.1282ZM31.8372 18.3361V17.9679C31.8372 17.8829 31.8327 17.8057 31.8236 17.7363C31.8153 17.6666 31.8029 17.604 31.7863 17.5485C31.7698 17.4931 31.7487 17.4438 31.7231 17.4005C31.6982 17.3577 31.6692 17.3203 31.6361 17.2884C31.6037 17.256 31.5671 17.2282 31.5265 17.205C31.4768 17.1766 31.4327 17.1623 31.3943 17.162C31.3559 17.1609 31.3235 17.1758 31.2971 17.2067C31.2715 17.2381 31.2519 17.2872 31.2384 17.354C31.2248 17.4209 31.218 17.5077 31.218 17.6143V17.9825C31.218 18.0675 31.2222 18.1449 31.2304 18.2147C31.2395 18.2849 31.2527 18.3488 31.27 18.4064C31.2873 18.4632 31.3084 18.5138 31.3333 18.5584C31.3581 18.6029 31.3867 18.6418 31.4191 18.6751C31.4523 18.7079 31.4888 18.7356 31.5287 18.7584C31.5799 18.7877 31.6248 18.802 31.6632 18.8014C31.7016 18.8008 31.7336 18.7839 31.7592 18.7508C31.7856 18.7173 31.8052 18.6665 31.818 18.5983C31.8308 18.5293 31.8372 18.4419 31.8372 18.3361Z" fill="white"/>
<path d="M31.7016 14.2369V16.1417L31.4926 16.0223V14.4181L31.0711 14.3544V14.1372L31.6688 14.2182L31.7016 14.2369ZM32.0473 18.241V18.5298C32.0473 18.6851 32.0353 18.8092 32.0112 18.9021C31.9871 18.995 31.9524 19.0611 31.9072 19.1004C31.862 19.1396 31.8074 19.1557 31.7434 19.1486C31.6801 19.1411 31.6086 19.1146 31.5287 19.069C31.4655 19.0329 31.4071 18.9904 31.3536 18.9417C31.3001 18.8929 31.2519 18.8363 31.209 18.7719C31.1668 18.7071 31.1306 18.6335 31.1005 18.5513C31.0704 18.469 31.0474 18.377 31.0316 18.2751C31.0158 18.1733 31.0079 18.0603 31.0079 17.9363V17.6475C31.0079 17.4922 31.0199 17.369 31.044 17.2778C31.0689 17.187 31.1039 17.1229 31.1491 17.0854C31.1943 17.047 31.2485 17.032 31.3118 17.0404C31.3758 17.0492 31.4474 17.0762 31.5265 17.1213C31.5905 17.1579 31.6492 17.2005 31.7027 17.2493C31.757 17.2976 31.8052 17.3533 31.8473 17.4164C31.8895 17.4787 31.9253 17.5503 31.9547 17.6312C31.9848 17.7118 32.0078 17.8025 32.0236 17.9035C32.0394 18.0045 32.0473 18.117 32.0473 18.241ZM31.8372 18.4489V18.0807C31.8372 17.9957 31.8327 17.9185 31.8236 17.8491C31.8153 17.7794 31.8029 17.7167 31.7863 17.6613C31.7698 17.6059 31.7487 17.5565 31.7231 17.5133C31.6982 17.4705 31.6692 17.4331 31.6361 17.4012C31.6037 17.3688 31.5671 17.341 31.5265 17.3178C31.4768 17.2894 31.4327 17.2751 31.3943 17.2748C31.3559 17.2737 31.3235 17.2886 31.2971 17.3195C31.2715 17.3509 31.2519 17.4 31.2384 17.4668C31.2248 17.5337 31.218 17.6205 31.218 17.7271V18.0953C31.218 18.1803 31.2222 18.2577 31.2304 18.3275C31.2395 18.3977 31.2527 18.4616 31.27 18.5192C31.2873 18.576 31.3084 18.6266 31.3333 18.6712C31.3581 18.7157 31.3867 18.7546 31.4191 18.7878C31.4523 18.8206 31.4888 18.8484 31.5287 18.8712C31.5799 18.9005 31.6248 18.9148 31.6632 18.9142C31.7016 18.9136 31.7336 18.8967 31.7592 18.8636C31.7856 18.8301 31.8052 18.7793 31.818 18.7111C31.8308 18.6421 31.8372 18.5547 31.8372 18.4489ZM32.0473 21.241V21.5298C32.0473 21.6851 32.0353 21.8092 32.0112 21.9021C31.9871 21.995 31.9524 22.0611 31.9072 22.1004C31.862 22.1396 31.8074 22.1557 31.7434 22.1486C31.6801 22.1411 31.6086 22.1146 31.5287 22.069C31.4655 22.0329 31.4071 21.9904 31.3536 21.9417C31.3001 21.8929 31.2519 21.8363 31.209 21.7719C31.1668 21.7071 31.1306 21.6335 31.1005 21.5513C31.0704 21.469 31.0474 21.377 31.0316 21.2751C31.0158 21.1733 31.0079 21.0603 31.0079 20.9363V20.6475C31.0079 20.4922 31.0199 20.369 31.044 20.2778C31.0689 20.187 31.1039 20.1229 31.1491 20.0854C31.1943 20.047 31.2485 20.032 31.3118 20.0404C31.3758 20.0492 31.4474 20.0762 31.5265 20.1213C31.5905 20.1579 31.6492 20.2005 31.7027 20.2493C31.757 20.2976 31.8052 20.3533 31.8473 20.4164C31.8895 20.4787 31.9253 20.5503 31.9547 20.6312C31.9848 20.7118 32.0078 20.8025 32.0236 20.9035C32.0394 21.0045 32.0473 21.117 32.0473 21.241ZM31.8372 21.4489V21.0807C31.8372 20.9957 31.8327 20.9185 31.8236 20.8491C31.8153 20.7794 31.8029 20.7167 31.7863 20.6613C31.7698 20.6059 31.7487 20.5565 31.7231 20.5133C31.6982 20.4705 31.6692 20.4331 31.6361 20.4012C31.6037 20.3688 31.5671 20.341 31.5265 20.3178C31.4768 20.2894 31.4327 20.2751 31.3943 20.2748C31.3559 20.2737 31.3235 20.2886 31.2971 20.3195C31.2715 20.3509 31.2519 20.4 31.2384 20.4668C31.2248 20.5337 31.218 20.6205 31.218 20.7271V21.0953C31.218 21.1803 31.2222 21.2577 31.2304 21.3275C31.2395 21.3977 31.2527 21.4616 31.27 21.5192C31.2873 21.576 31.3084 21.6266 31.3333 21.6712C31.3581 21.7157 31.3867 21.7546 31.4191 21.7878C31.4523 21.8206 31.4888 21.8484 31.5287 21.8712C31.5799 21.9005 31.6248 21.9148 31.6632 21.9142C31.7016 21.9136 31.7336 21.8967 31.7592 21.8636C31.7856 21.8301 31.8052 21.7793 31.818 21.7111C31.8308 21.6421 31.8372 21.5547 31.8372 21.4489Z" fill="white"/>
<path d="M32.9936 18.895V19.1839C32.9936 19.3391 32.9816 19.4632 32.9575 19.5562C32.9334 19.6491 32.8987 19.7152 32.8535 19.7544C32.8083 19.7937 32.7537 19.8098 32.6897 19.8027C32.6264 19.7952 32.5549 19.7686 32.475 19.723C32.4117 19.6869 32.3534 19.6445 32.2999 19.5957C32.2464 19.547 32.1982 19.4904 32.1553 19.426C32.1131 19.3611 32.0769 19.2876 32.0468 19.2053C32.0167 19.1231 31.9937 19.031 31.9779 18.9292C31.9621 18.8273 31.9542 18.7144 31.9542 18.5904V18.3015C31.9542 18.1463 31.9662 18.023 31.9903 17.9319C32.0152 17.8411 32.0502 17.777 32.0954 17.7394C32.1406 17.7011 32.1948 17.6861 32.2581 17.6944C32.3221 17.7032 32.3937 17.7302 32.4728 17.7754C32.5368 17.8119 32.5955 17.8546 32.649 17.9033C32.7033 17.9516 32.7515 18.0074 32.7936 18.0705C32.8358 18.1327 32.8716 18.2043 32.901 18.2853C32.9311 18.3658 32.9541 18.4566 32.9699 18.5575C32.9857 18.6585 32.9936 18.771 32.9936 18.895ZM32.7835 19.1029V18.7347C32.7835 18.6497 32.779 18.5725 32.7699 18.5032C32.7616 18.4334 32.7492 18.3708 32.7326 18.3154C32.7161 18.2599 32.695 18.2106 32.6694 18.1673C32.6445 18.1245 32.6155 18.0872 32.5824 18.0552C32.55 18.0229 32.5134 17.9951 32.4728 17.9718C32.423 17.9434 32.379 17.9291 32.3406 17.9289C32.3021 17.9278 32.2698 17.9427 32.2434 17.9736C32.2178 18.0049 32.1982 18.054 32.1846 18.1209C32.1711 18.1877 32.1643 18.2745 32.1643 18.3812V18.7494C32.1643 18.8344 32.1684 18.9118 32.1767 18.9816C32.1858 19.0518 32.199 19.1157 32.2163 19.1733C32.2336 19.23 32.2547 19.2807 32.2796 19.3252C32.3044 19.3698 32.333 19.4087 32.3654 19.4419C32.3986 19.4747 32.4351 19.5025 32.475 19.5253C32.5262 19.5545 32.5711 19.5688 32.6095 19.5682C32.6479 19.5676 32.6799 19.5508 32.7055 19.5177C32.7319 19.4842 32.7515 19.4333 32.7643 19.3652C32.7771 19.2962 32.7835 19.2087 32.7835 19.1029Z" fill="white"/>
<path d="M34.433 20.7233V22.628L34.224 22.5087V20.9045L33.8026 20.8408V20.6235L34.4003 20.7045L34.433 20.7233ZM34.7788 24.7273V25.0162C34.7788 25.1714 34.7667 25.2955 34.7426 25.3884C34.7185 25.4814 34.6839 25.5474 34.6387 25.5867C34.5935 25.6259 34.5389 25.642 34.4748 25.635C34.4116 25.6275 34.34 25.6009 34.2602 25.5553C34.1969 25.5192 34.1385 25.4768 34.085 25.428C34.0316 25.3793 33.9834 25.3227 33.9404 25.2583C33.8982 25.1934 33.8621 25.1199 33.832 25.0376C33.8018 24.9553 33.7789 24.8633 33.763 24.7615C33.7472 24.6596 33.7393 24.5467 33.7393 24.4226V24.1338C33.7393 23.9785 33.7514 23.8553 33.7755 23.7641C33.8003 23.6734 33.8353 23.6092 33.8805 23.5717C33.9257 23.5333 33.98 23.5183 34.0432 23.5267C34.1073 23.5355 34.1788 23.5625 34.2579 23.6076C34.3219 23.6442 34.3807 23.6869 34.4342 23.7356C34.4884 23.7839 34.5366 23.8396 34.5788 23.9028C34.621 23.965 34.6568 24.0366 34.6861 24.1176C34.7163 24.1981 34.7392 24.2888 34.7551 24.3898C34.7709 24.4908 34.7788 24.6033 34.7788 24.7273ZM34.5686 24.9352V24.567C34.5686 24.482 34.5641 24.4048 34.5551 24.3355C34.5468 24.2657 34.5344 24.2031 34.5178 24.1476C34.5012 24.0922 34.4801 24.0429 34.4545 23.9996C34.4297 23.9568 34.4007 23.9194 34.3675 23.8875C34.3351 23.8551 34.2986 23.8273 34.2579 23.8041C34.2082 23.7757 34.1641 23.7614 34.1257 23.7612C34.0873 23.76 34.0549 23.7749 34.0286 23.8059C34.0029 23.8372 33.9834 23.8863 33.9698 23.9532C33.9562 24.02 33.9495 24.1068 33.9495 24.2135V24.5817C33.9495 24.6667 33.9536 24.7441 33.9619 24.8138C33.9709 24.8841 33.9841 24.948 34.0014 25.0056C34.0188 25.0623 34.0399 25.1129 34.0647 25.1575C34.0896 25.202 34.1182 25.2409 34.1506 25.2742C34.1837 25.307 34.2203 25.3348 34.2602 25.3576C34.3114 25.3868 34.3562 25.4011 34.3946 25.4005C34.433 25.3999 34.4651 25.383 34.4907 25.35C34.517 25.3164 34.5366 25.2656 34.5494 25.1975C34.5622 25.1284 34.5686 25.041 34.5686 24.9352ZM34.7788 27.7273V28.0162C34.7788 28.1714 34.7667 28.2955 34.7426 28.3884C34.7185 28.4814 34.6839 28.5474 34.6387 28.5867C34.5935 28.6259 34.5389 28.642 34.4748 28.635C34.4116 28.6275 34.34 28.6009 34.2602 28.5553C34.1969 28.5192 34.1385 28.4768 34.085 28.428C34.0316 28.3793 33.9834 28.3227 33.9404 28.2583C33.8982 28.1934 33.8621 28.1199 33.832 28.0376C33.8018 27.9553 33.7789 27.8633 33.763 27.7615C33.7472 27.6596 33.7393 27.5467 33.7393 27.4226V27.1338C33.7393 26.9785 33.7514 26.8553 33.7755 26.7641C33.8003 26.6734 33.8353 26.6092 33.8805 26.5717C33.9257 26.5333 33.98 26.5183 34.0432 26.5267C34.1073 26.5355 34.1788 26.5625 34.2579 26.6076C34.3219 26.6442 34.3807 26.6869 34.4342 26.7356C34.4884 26.7839 34.5366 26.8396 34.5788 26.9028C34.621 26.965 34.6568 27.0366 34.6861 27.1176C34.7163 27.1981 34.7392 27.2888 34.7551 27.3898C34.7709 27.4908 34.7788 27.6033 34.7788 27.7273ZM34.5686 27.9352V27.567C34.5686 27.482 34.5641 27.4048 34.5551 27.3355C34.5468 27.2657 34.5344 27.2031 34.5178 27.1476C34.5012 27.0922 34.4801 27.0429 34.4545 26.9996C34.4297 26.9568 34.4007 26.9194 34.3675 26.8875C34.3351 26.8551 34.2986 26.8273 34.2579 26.8041C34.2082 26.7757 34.1641 26.7614 34.1257 26.7612C34.0873 26.76 34.0549 26.7749 34.0286 26.8059C34.0029 26.8372 33.9834 26.8863 33.9698 26.9532C33.9562 27.02 33.9495 27.1068 33.9495 27.2135V27.5817C33.9495 27.6667 33.9536 27.7441 33.9619 27.8138C33.9709 27.8841 33.9841 27.948 34.0014 28.0056C34.0188 28.0623 34.0399 28.1129 34.0647 28.1575C34.0896 28.202 34.1182 28.2409 34.1506 28.2742C34.1837 28.307 34.2203 28.3348 34.2602 28.3576C34.3114 28.3868 34.3562 28.4011 34.3946 28.4005C34.433 28.3999 34.4651 28.383 34.4907 28.35C34.517 28.3164 34.5366 28.2656 34.5494 28.1975C34.5622 28.1284 34.5686 28.041 34.5686 27.9352Z" fill="white"/>
<path d="M37.6907 24.2965V24.4943L36.6139 23.8795V23.7064L37.1529 23.3233C37.2191 23.2761 37.2704 23.2334 37.3065 23.1951C37.3434 23.1563 37.369 23.1176 37.3834 23.0789C37.3984 23.0398 37.4059 22.9955 37.4059 22.9461C37.4059 22.8836 37.3946 22.8208 37.3721 22.7576C37.3502 22.6939 37.3178 22.6347 37.2749 22.5798C37.2319 22.5249 37.18 22.4801 37.119 22.4452C37.0459 22.4035 36.9849 22.3852 36.9359 22.3902C36.8877 22.3947 36.8516 22.4192 36.8275 22.4636C36.8034 22.5079 36.7913 22.5678 36.7913 22.6433L36.5823 22.5239C36.5823 22.4172 36.6026 22.3313 36.6433 22.266C36.684 22.2008 36.7442 22.1649 36.8241 22.1585C36.9039 22.1512 37.0022 22.1808 37.119 22.2475C37.2229 22.3068 37.3118 22.3788 37.3856 22.4635C37.4594 22.5473 37.5159 22.6385 37.5551 22.7372C37.595 22.8355 37.615 22.9353 37.615 23.0368C37.615 23.0923 37.6067 23.144 37.5901 23.1918C37.5743 23.2391 37.5521 23.2828 37.5235 23.3228C37.4956 23.3633 37.4628 23.4001 37.4252 23.4332C37.3882 23.4668 37.3487 23.498 37.3065 23.5268L36.8659 23.8256L37.6907 24.2965ZM37.6455 26.3704V26.6592C37.6455 26.8145 37.6334 26.9386 37.6093 27.0315C37.5852 27.1244 37.5506 27.1905 37.5054 27.2298C37.4602 27.269 37.4056 27.2851 37.3415 27.278C37.2783 27.2705 37.2067 27.244 37.1269 27.1984C37.0636 27.1623 37.0052 27.1198 36.9517 27.0711C36.8983 27.0223 36.8501 26.9657 36.8071 26.9013C36.7649 26.8365 36.7288 26.7629 36.6987 26.6807C36.6685 26.5984 36.6456 26.5064 36.6297 26.4045C36.6139 26.3027 36.606 26.1897 36.606 26.0657V25.7769C36.606 25.6216 36.6181 25.4984 36.6422 25.4072C36.667 25.3164 36.702 25.2523 36.7472 25.2148C36.7924 25.1764 36.8467 25.1614 36.9099 25.1698C36.974 25.1786 37.0455 25.2056 37.1246 25.2507C37.1886 25.2873 37.2474 25.3299 37.3009 25.3787C37.3551 25.427 37.4033 25.4827 37.4455 25.5458C37.4877 25.6081 37.5235 25.6797 37.5528 25.7606C37.583 25.8412 37.6059 25.9319 37.6218 26.0329C37.6376 26.1338 37.6455 26.2464 37.6455 26.3704ZM37.4353 26.5783V26.2101C37.4353 26.1251 37.4308 26.0479 37.4218 25.9785C37.4135 25.9088 37.4011 25.8461 37.3845 25.7907C37.3679 25.7353 37.3468 25.6859 37.3212 25.6427C37.2964 25.5999 37.2674 25.5625 37.2342 25.5306C37.2018 25.4982 37.1653 25.4704 37.1246 25.4472C37.0749 25.4188 37.0308 25.4045 36.9924 25.4042C36.954 25.4031 36.9216 25.418 36.8953 25.4489C36.8696 25.4803 36.8501 25.5294 36.8365 25.5962C36.8229 25.6631 36.8162 25.7498 36.8162 25.8565V26.2247C36.8162 26.3097 36.8203 26.3871 36.8286 26.4569C36.8376 26.5271 36.8508 26.591 36.8681 26.6486C36.8855 26.7054 36.9066 26.756 36.9314 26.8006C36.9563 26.8451 36.9849 26.884 37.0173 26.9172C37.0504 26.95 37.087 26.9778 37.1269 27.0006C37.1781 27.0299 37.2229 27.0442 37.2613 27.0436C37.2997 27.043 37.3318 27.0261 37.3574 26.993C37.3837 26.9595 37.4033 26.9087 37.4161 26.8405C37.4289 26.7715 37.4353 26.6841 37.4353 26.5783ZM37.6455 29.3704V29.6592C37.6455 29.8145 37.6334 29.9386 37.6093 30.0315C37.5852 30.1244 37.5506 30.1905 37.5054 30.2298C37.4602 30.269 37.4056 30.2851 37.3415 30.278C37.2783 30.2705 37.2067 30.244 37.1269 30.1984C37.0636 30.1623 37.0052 30.1198 36.9517 30.0711C36.8983 30.0223 36.8501 29.9657 36.8071 29.9013C36.7649 29.8365 36.7288 29.7629 36.6987 29.6807C36.6685 29.5984 36.6456 29.5064 36.6297 29.4045C36.6139 29.3027 36.606 29.1897 36.606 29.0657V28.7769C36.606 28.6216 36.6181 28.4984 36.6422 28.4072C36.667 28.3164 36.702 28.2523 36.7472 28.2148C36.7924 28.1764 36.8467 28.1614 36.9099 28.1698C36.974 28.1786 37.0455 28.2056 37.1246 28.2507C37.1886 28.2873 37.2474 28.3299 37.3009 28.3787C37.3551 28.427 37.4033 28.4827 37.4455 28.5458C37.4877 28.6081 37.5235 28.6797 37.5528 28.7606C37.583 28.8412 37.6059 28.9319 37.6218 29.0329C37.6376 29.1338 37.6455 29.2464 37.6455 29.3704ZM37.4353 29.5783V29.2101C37.4353 29.1251 37.4308 29.0479 37.4218 28.9785C37.4135 28.9088 37.4011 28.8461 37.3845 28.7907C37.3679 28.7353 37.3468 28.6859 37.3212 28.6427C37.2964 28.5999 37.2674 28.5625 37.2342 28.5306C37.2018 28.4982 37.1653 28.4704 37.1246 28.4472C37.0749 28.4188 37.0308 28.4045 36.9924 28.4042C36.954 28.4031 36.9216 28.418 36.8953 28.4489C36.8696 28.4803 36.8501 28.5294 36.8365 28.5962C36.8229 28.6631 36.8162 28.7498 36.8162 28.8565V29.2247C36.8162 29.3097 36.8203 29.3871 36.8286 29.4569C36.8376 29.5271 36.8508 29.591 36.8681 29.6486C36.8855 29.7054 36.9066 29.756 36.9314 29.8006C36.9563 29.8451 36.9849 29.884 37.0173 29.9172C37.0504 29.95 37.087 29.9778 37.1269 30.0006C37.1781 30.0299 37.2229 30.0442 37.2613 30.0436C37.2997 30.043 37.3318 30.0261 37.3574 29.993C37.3837 29.9595 37.4033 29.9087 37.4161 29.8405C37.4289 29.7715 37.4353 29.6841 37.4353 29.5783Z" fill="white"/>
<path d="M39.6693 24.5675L39.8185 24.6527C39.8915 24.6944 39.9518 24.7149 39.9992 24.7143C40.0474 24.7132 40.0832 24.695 40.1066 24.6598C40.1307 24.6241 40.1427 24.5755 40.1427 24.5139C40.1427 24.441 40.1322 24.3738 40.1111 24.3124C40.09 24.2509 40.0584 24.1955 40.0162 24.1463C39.974 24.097 39.9205 24.0539 39.8557 24.0169C39.797 23.9834 39.745 23.9672 39.6998 23.9682C39.6554 23.9689 39.6204 23.9862 39.5947 24.0201C39.5699 24.0545 39.5575 24.1047 39.5575 24.1706L39.3484 24.0512C39.3484 23.955 39.3695 23.8794 39.4117 23.8246C39.4539 23.7697 39.513 23.7406 39.5891 23.7372C39.6659 23.7342 39.7548 23.7615 39.8557 23.8192C39.9552 23.8759 40.0422 23.946 40.1167 24.0294C40.1913 24.1118 40.2493 24.2048 40.2907 24.3082C40.3322 24.4108 40.3529 24.5211 40.3529 24.6391C40.3529 24.6868 40.3431 24.7324 40.3235 24.7758C40.3047 24.8188 40.2749 24.8522 40.2342 24.8758C40.1943 24.8998 40.1423 24.9087 40.0783 24.9025C40.0143 24.8955 39.9375 24.8664 39.8478 24.8152L39.6693 24.7133V24.5675ZM39.6693 24.7653V24.6209L39.8478 24.7228C39.9525 24.7826 40.0392 24.8464 40.1077 24.9141C40.1762 24.9819 40.2301 25.0508 40.2693 25.1209C40.3092 25.1914 40.3371 25.2598 40.3529 25.326C40.3694 25.3919 40.3777 25.453 40.3777 25.5094C40.3777 25.5978 40.3646 25.6688 40.3382 25.7223C40.3126 25.7762 40.276 25.8134 40.2286 25.834C40.1819 25.8551 40.1269 25.8597 40.0636 25.8478C40.0004 25.836 39.9314 25.8088 39.8569 25.7662C39.7853 25.7254 39.7179 25.6752 39.6546 25.6156C39.5921 25.5565 39.5367 25.4911 39.4885 25.4193C39.4403 25.3467 39.4027 25.2701 39.3756 25.1895C39.3484 25.1081 39.3349 25.0254 39.3349 24.9412L39.5439 25.0606C39.5439 25.1265 39.5563 25.1913 39.5812 25.2549C39.6068 25.319 39.643 25.3782 39.6897 25.4326C39.7371 25.4866 39.7928 25.5319 39.8569 25.5685C39.9209 25.605 39.9759 25.6238 40.0218 25.6249C40.0685 25.6256 40.1043 25.607 40.1292 25.5691C40.1548 25.5317 40.1676 25.4735 40.1676 25.3946C40.1676 25.3156 40.1533 25.2429 40.1246 25.1762C40.096 25.1087 40.0553 25.0477 40.0026 24.9933C39.9506 24.9385 39.8893 24.8909 39.8185 24.8504L39.6693 24.7653ZM40.3969 27.9505V28.2393C40.3969 28.3946 40.3849 28.5187 40.3608 28.6116C40.3367 28.7045 40.302 28.7706 40.2568 28.8098C40.2116 28.8491 40.157 28.8652 40.093 28.8581C40.0297 28.8506 39.9582 28.8241 39.8783 28.7785C39.8151 28.7423 39.7567 28.6999 39.7032 28.6512C39.6497 28.6024 39.6015 28.5458 39.5586 28.4814C39.5164 28.4166 39.4803 28.343 39.4501 28.2607C39.42 28.1785 39.397 28.0864 39.3812 27.9846C39.3654 27.8828 39.3575 27.7698 39.3575 27.6458V27.357C39.3575 27.2017 39.3695 27.0785 39.3936 26.9873C39.4185 26.8965 39.4535 26.8324 39.4987 26.7949C39.5439 26.7565 39.5981 26.7415 39.6614 26.7499C39.7254 26.7587 39.797 26.7856 39.8761 26.8308C39.9401 26.8673 39.9989 26.91 40.0523 26.9588C40.1066 27.0071 40.1548 27.0628 40.197 27.1259C40.2391 27.1881 40.2749 27.2598 40.3043 27.3407C40.3344 27.4212 40.3574 27.512 40.3732 27.613C40.389 27.7139 40.3969 27.8264 40.3969 27.9505ZM40.1868 28.1583V27.7901C40.1868 27.7051 40.1823 27.628 40.1732 27.5586C40.1649 27.4888 40.1525 27.4262 40.1359 27.3708C40.1194 27.3154 40.0983 27.266 40.0727 27.2228C40.0478 27.18 40.0188 27.1426 39.9857 27.1106C39.9533 27.0783 39.9168 27.0505 39.8761 27.0273C39.8264 26.9989 39.7823 26.9845 39.7439 26.9843C39.7055 26.9832 39.6731 26.9981 39.6467 27.029C39.6211 27.0603 39.6015 27.1094 39.588 27.1763C39.5744 27.2432 39.5676 27.3299 39.5676 27.4366V27.8048C39.5676 27.8898 39.5718 27.9672 39.5801 28.037C39.5891 28.1072 39.6023 28.1711 39.6196 28.2287C39.6369 28.2854 39.658 28.3361 39.6829 28.3806C39.7077 28.4252 39.7364 28.4641 39.7687 28.4973C39.8019 28.5301 39.8384 28.5579 39.8783 28.5807C39.9296 28.61 39.9744 28.6243 40.0128 28.6237C40.0512 28.623 40.0832 28.6062 40.1088 28.5731C40.1352 28.5396 40.1548 28.4887 40.1676 28.4206C40.1804 28.3516 40.1868 28.2642 40.1868 28.1583ZM40.3969 30.9505V31.2393C40.3969 31.3946 40.3849 31.5187 40.3608 31.6116C40.3367 31.7045 40.302 31.7706 40.2568 31.8098C40.2116 31.8491 40.157 31.8652 40.093 31.8581C40.0297 31.8506 39.9582 31.8241 39.8783 31.7785C39.8151 31.7423 39.7567 31.6999 39.7032 31.6512C39.6497 31.6024 39.6015 31.5458 39.5586 31.4814C39.5164 31.4166 39.4803 31.343 39.4501 31.2607C39.42 31.1785 39.397 31.0864 39.3812 30.9846C39.3654 30.8828 39.3575 30.7698 39.3575 30.6458V30.357C39.3575 30.2017 39.3695 30.0785 39.3936 29.9873C39.4185 29.8965 39.4535 29.8324 39.4987 29.7949C39.5439 29.7565 39.5981 29.7415 39.6614 29.7499C39.7254 29.7587 39.797 29.7856 39.8761 29.8308C39.9401 29.8673 39.9989 29.91 40.0523 29.9588C40.1066 30.0071 40.1548 30.0628 40.197 30.1259C40.2391 30.1881 40.2749 30.2598 40.3043 30.3407C40.3344 30.4212 40.3574 30.512 40.3732 30.613C40.389 30.7139 40.3969 30.8264 40.3969 30.9505ZM40.1868 31.1583V30.7901C40.1868 30.7051 40.1823 30.628 40.1732 30.5586C40.1649 30.4888 40.1525 30.4262 40.1359 30.3708C40.1194 30.3154 40.0983 30.266 40.0727 30.2228C40.0478 30.18 40.0188 30.1426 39.9857 30.1106C39.9533 30.0783 39.9168 30.0505 39.8761 30.0273C39.8264 29.9989 39.7823 29.9845 39.7439 29.9843C39.7055 29.9832 39.6731 29.9981 39.6467 30.029C39.6211 30.0603 39.6015 30.1094 39.588 30.1763C39.5744 30.2432 39.5676 30.3299 39.5676 30.4366V30.8048C39.5676 30.8898 39.5718 30.9672 39.5801 31.037C39.5891 31.1072 39.6023 31.1711 39.6196 31.2287C39.6369 31.2854 39.658 31.3361 39.6829 31.3806C39.7077 31.4252 39.7364 31.4641 39.7687 31.4973C39.8019 31.5301 39.8384 31.5579 39.8783 31.5807C39.9296 31.61 39.9744 31.6243 40.0128 31.6237C40.0512 31.623 40.0832 31.6062 40.1088 31.5731C40.1352 31.5396 40.1548 31.4887 40.1676 31.4206C40.1804 31.3516 40.1868 31.2642 40.1868 31.1583Z" fill="white"/>
<path d="M43.2514 27.0487V27.2465L42.0628 26.5678V26.426L42.7995 25.5339L42.9701 25.6313L42.7871 25.9067L42.3001 26.5055L43.2514 27.0487ZM43.0221 25.6609V27.5553L42.813 27.4359V25.5416L43.0221 25.6609ZM43.1723 29.543V29.8318C43.1723 29.9871 43.1603 30.1112 43.1362 30.2041C43.1121 30.297 43.0774 30.3631 43.0322 30.4024C42.987 30.4416 42.9324 30.4577 42.8684 30.4506C42.8051 30.4431 42.7336 30.4166 42.6537 30.371C42.5905 30.3349 42.5321 30.2924 42.4786 30.2437C42.4251 30.1949 42.3769 30.1384 42.334 30.0739C42.2918 30.0091 42.2556 29.9355 42.2255 29.8533C42.1954 29.771 42.1724 29.679 42.1566 29.5771C42.1408 29.4753 42.1329 29.3624 42.1329 29.2383V28.9495C42.1329 28.7942 42.1449 28.671 42.169 28.5798C42.1939 28.489 42.2289 28.4249 42.2741 28.3874C42.3193 28.349 42.3735 28.334 42.4368 28.3424C42.5008 28.3512 42.5724 28.3782 42.6515 28.4233C42.7155 28.4599 42.7742 28.5025 42.8277 28.5513C42.882 28.5996 42.9302 28.6553 42.9723 28.7184C43.0145 28.7807 43.0503 28.8523 43.0797 28.9332C43.1098 29.0138 43.1328 29.1045 43.1486 29.2055C43.1644 29.3065 43.1723 29.419 43.1723 29.543ZM42.9622 29.7509V29.3827C42.9622 29.2977 42.9577 29.2205 42.9486 29.1511C42.9403 29.0814 42.9279 29.0188 42.9113 28.9633C42.8948 28.9079 42.8737 28.8585 42.8481 28.8153C42.8232 28.7725 42.7942 28.7351 42.7611 28.7032C42.7287 28.6708 42.6921 28.643 42.6515 28.6198C42.6018 28.5914 42.5577 28.5771 42.5193 28.5768C42.4809 28.5757 42.4485 28.5906 42.4221 28.6215C42.3965 28.6529 42.3769 28.702 42.3634 28.7688C42.3498 28.8357 42.343 28.9225 42.343 29.0291V29.3973C42.343 29.4823 42.3472 29.5597 42.3554 29.6295C42.3645 29.6997 42.3777 29.7636 42.395 29.8212C42.4123 29.878 42.4334 29.9286 42.4583 29.9732C42.4831 30.0177 42.5117 30.0566 42.5441 30.0898C42.5773 30.1226 42.6138 30.1504 42.6537 30.1732C42.7049 30.2025 42.7498 30.2168 42.7882 30.2162C42.8266 30.2156 42.8586 30.1987 42.8842 30.1656C42.9106 30.1321 42.9302 30.0813 42.943 30.0131C42.9558 29.9441 42.9622 29.8567 42.9622 29.7509ZM43.1723 32.543V32.8318C43.1723 32.9871 43.1603 33.1112 43.1362 33.2041C43.1121 33.297 43.0774 33.3631 43.0322 33.4024C42.987 33.4416 42.9324 33.4577 42.8684 33.4506C42.8051 33.4431 42.7336 33.4166 42.6537 33.371C42.5905 33.3349 42.5321 33.2924 42.4786 33.2437C42.4251 33.1949 42.3769 33.1384 42.334 33.0739C42.2918 33.0091 42.2556 32.9355 42.2255 32.8533C42.1954 32.771 42.1724 32.679 42.1566 32.5771C42.1408 32.4753 42.1329 32.3624 42.1329 32.2383V31.9495C42.1329 31.7942 42.1449 31.671 42.169 31.5798C42.1939 31.489 42.2289 31.4249 42.2741 31.3874C42.3193 31.349 42.3735 31.334 42.4368 31.3424C42.5008 31.3512 42.5724 31.3782 42.6515 31.4233C42.7155 31.4599 42.7742 31.5025 42.8277 31.5513C42.882 31.5996 42.9302 31.6553 42.9723 31.7184C43.0145 31.7807 43.0503 31.8523 43.0797 31.9332C43.1098 32.0138 43.1328 32.1045 43.1486 32.2055C43.1644 32.3065 43.1723 32.419 43.1723 32.543ZM42.9622 32.7509V32.3827C42.9622 32.2977 42.9577 32.2205 42.9486 32.1511C42.9403 32.0814 42.9279 32.0188 42.9113 31.9633C42.8948 31.9079 42.8737 31.8585 42.8481 31.8153C42.8232 31.7725 42.7942 31.7351 42.7611 31.7032C42.7287 31.6708 42.6921 31.643 42.6515 31.6198C42.6018 31.5914 42.5577 31.5771 42.5193 31.5768C42.4809 31.5757 42.4485 31.5906 42.4221 31.6215C42.3965 31.6529 42.3769 31.702 42.3634 31.7688C42.3498 31.8357 42.343 31.9225 42.343 32.0291V32.3973C42.343 32.4823 42.3472 32.5597 42.3554 32.6295C42.3645 32.6997 42.3777 32.7636 42.395 32.8212C42.4123 32.878 42.4334 32.9286 42.4583 32.9732C42.4831 33.0177 42.5117 33.0566 42.5441 33.0898C42.5773 33.1226 42.6138 33.1504 42.6537 33.1732C42.7049 33.2025 42.7498 33.2168 42.7882 33.2162C42.8266 33.2156 42.8586 33.1987 42.8842 33.1656C42.9106 33.1321 42.9302 33.0813 42.943 33.0131C42.9558 32.9441 42.9622 32.8567 42.9622 32.7509Z" fill="white"/>
<path d="M45.1516 27.8767L44.9844 27.7318L45.0668 26.8356L45.9109 27.3175V27.54L45.2442 27.1594L45.1945 27.6462C45.2247 27.6435 45.2627 27.6465 45.3086 27.6554C45.3553 27.6647 45.4088 27.6866 45.4691 27.721C45.5452 27.7644 45.6133 27.8185 45.6736 27.8833C45.7338 27.9472 45.7851 28.019 45.8272 28.0985C45.8702 28.1786 45.9029 28.2641 45.9255 28.355C45.9481 28.446 45.9594 28.5396 45.9594 28.6359C45.9594 28.727 45.9485 28.8044 45.9267 28.8683C45.9056 28.9326 45.8736 28.9811 45.8306 29.0138C45.7877 29.0457 45.7335 29.0585 45.6679 29.0523C45.6032 29.0466 45.5267 29.0185 45.4386 28.9682C45.3723 28.9304 45.3094 28.8841 45.2499 28.8293C45.1911 28.774 45.1384 28.7114 45.0917 28.6414C45.0458 28.5709 45.0081 28.4947 44.9787 28.4129C44.9501 28.3306 44.932 28.2431 44.9245 28.1504L45.1233 28.2639C45.1324 28.3402 45.1505 28.4104 45.1776 28.4744C45.2047 28.5385 45.2401 28.5955 45.2838 28.6456C45.3282 28.6953 45.3798 28.7369 45.4386 28.7705C45.4883 28.7988 45.5324 28.814 45.5708 28.816C45.6092 28.818 45.6416 28.8079 45.6679 28.7856C45.6943 28.7634 45.7143 28.7297 45.7278 28.6845C45.7421 28.6398 45.7493 28.5844 45.7493 28.5185C45.7493 28.4587 45.7421 28.3991 45.7278 28.3397C45.7135 28.2804 45.692 28.2234 45.6634 28.1689C45.6355 28.1149 45.6013 28.0658 45.5606 28.0218C45.5199 27.9769 45.4732 27.9393 45.4205 27.9092C45.3504 27.8692 45.2973 27.8498 45.2612 27.8508C45.2258 27.8523 45.1893 27.8609 45.1516 27.8767ZM45.9199 31.1189V31.4078C45.9199 31.563 45.9078 31.6871 45.8837 31.78C45.8596 31.873 45.825 31.939 45.7798 31.9783C45.7346 32.0175 45.68 32.0336 45.616 32.0266C45.5527 32.0191 45.4811 31.9925 45.4013 31.9469C45.338 31.9108 45.2796 31.8684 45.2262 31.8196C45.1727 31.7709 45.1245 31.7143 45.0815 31.6499C45.0394 31.585 45.0032 31.5115 44.9731 31.4292C44.9429 31.3469 44.92 31.2549 44.9041 31.1531C44.8883 31.0512 44.8804 30.9383 44.8804 30.8142V30.5254C44.8804 30.3701 44.8925 30.2469 44.9166 30.1557C44.9414 30.065 44.9765 30.0008 45.0217 29.9633C45.0668 29.9249 45.1211 29.9099 45.1844 29.9183C45.2484 29.9271 45.3199 29.9541 45.399 29.9992C45.4631 30.0358 45.5218 30.0785 45.5753 30.1272C45.6295 30.1755 45.6777 30.2312 45.7199 30.2944C45.7621 30.3566 45.7979 30.4282 45.8272 30.5092C45.8574 30.5897 45.8803 30.6804 45.8962 30.7814C45.912 30.8824 45.9199 30.9949 45.9199 31.1189ZM45.7097 31.3268V30.9586C45.7097 30.8736 45.7052 30.7964 45.6962 30.7271C45.6879 30.6573 45.6755 30.5947 45.6589 30.5392C45.6423 30.4838 45.6212 30.4345 45.5956 30.3912C45.5708 30.3484 45.5418 30.311 45.5086 30.2791C45.4762 30.2467 45.4397 30.2189 45.399 30.1957C45.3493 30.1673 45.3052 30.153 45.2668 30.1528C45.2284 30.1516 45.196 30.1665 45.1697 30.1975C45.1441 30.2288 45.1245 30.2779 45.1109 30.3448C45.0974 30.4116 45.0906 30.4984 45.0906 30.6051V30.9733C45.0906 31.0583 45.0947 31.1357 45.103 31.2054C45.112 31.2757 45.1252 31.3396 45.1425 31.3972C45.1599 31.4539 45.181 31.5045 45.2058 31.5491C45.2307 31.5936 45.2593 31.6325 45.2917 31.6658C45.3248 31.6986 45.3614 31.7264 45.4013 31.7492C45.4525 31.7784 45.4973 31.7927 45.5357 31.7921C45.5742 31.7915 45.6062 31.7746 45.6318 31.7416C45.6581 31.708 45.6777 31.6572 45.6905 31.5891C45.7033 31.52 45.7097 31.4326 45.7097 31.3268ZM45.9199 34.1189V34.4078C45.9199 34.563 45.9078 34.6871 45.8837 34.78C45.8596 34.873 45.825 34.939 45.7798 34.9783C45.7346 35.0175 45.68 35.0336 45.616 35.0266C45.5527 35.0191 45.4811 34.9925 45.4013 34.9469C45.338 34.9108 45.2796 34.8684 45.2262 34.8196C45.1727 34.7709 45.1245 34.7143 45.0815 34.6499C45.0394 34.585 45.0032 34.5115 44.9731 34.4292C44.9429 34.3469 44.92 34.2549 44.9041 34.1531C44.8883 34.0512 44.8804 33.9383 44.8804 33.8142V33.5254C44.8804 33.3701 44.8925 33.2469 44.9166 33.1557C44.9414 33.065 44.9765 33.0008 45.0217 32.9633C45.0668 32.9249 45.1211 32.9099 45.1844 32.9183C45.2484 32.9271 45.3199 32.9541 45.399 32.9992C45.4631 33.0358 45.5218 33.0785 45.5753 33.1272C45.6295 33.1755 45.6777 33.2312 45.7199 33.2944C45.7621 33.3566 45.7979 33.4282 45.8272 33.5092C45.8574 33.5897 45.8803 33.6804 45.8962 33.7814C45.912 33.8824 45.9199 33.9949 45.9199 34.1189ZM45.7097 34.3268V33.9586C45.7097 33.8736 45.7052 33.7964 45.6962 33.7271C45.6879 33.6573 45.6755 33.5947 45.6589 33.5392C45.6423 33.4838 45.6212 33.4345 45.5956 33.3912C45.5708 33.3484 45.5418 33.311 45.5086 33.2791C45.4762 33.2467 45.4397 33.2189 45.399 33.1957C45.3493 33.1673 45.3052 33.153 45.2668 33.1528C45.2284 33.1516 45.196 33.1665 45.1697 33.1975C45.1441 33.2288 45.1245 33.2779 45.1109 33.3448C45.0974 33.4116 45.0906 33.4984 45.0906 33.6051V33.9733C45.0906 34.0583 45.0947 34.1357 45.103 34.2054C45.112 34.2757 45.1252 34.3396 45.1425 34.3972C45.1599 34.4539 45.181 34.5045 45.2058 34.5491C45.2307 34.5936 45.2593 34.6325 45.2917 34.6658C45.3248 34.6986 45.3614 34.7264 45.4013 34.7492C45.4525 34.7784 45.4973 34.7927 45.5357 34.7921C45.5742 34.7915 45.6062 34.7746 45.6318 34.7416C45.6581 34.708 45.6777 34.6572 45.6905 34.5891C45.7033 34.52 45.7097 34.4326 45.7097 34.3268Z" fill="white"/>
<path d="M48.4565 28.7761L48.4746 28.7864V28.9907L48.4565 28.9804C48.3458 28.9172 48.2531 28.8851 48.1785 28.8841C48.104 28.8823 48.0448 28.9036 48.0012 28.9481C47.9575 28.9917 47.9258 29.0508 47.9062 29.1255C47.8874 29.2006 47.878 29.2824 47.878 29.3709V29.6493C47.878 29.7334 47.8867 29.813 47.904 29.8879C47.9213 29.962 47.945 30.0297 47.9752 30.0912C48.0053 30.1526 48.0392 30.2054 48.0769 30.2494C48.1153 30.2939 48.1552 30.328 48.1966 30.3516C48.2448 30.3792 48.2878 30.3933 48.3254 30.394C48.3631 30.3938 48.3947 30.3819 48.4203 30.3584C48.4467 30.3344 48.4667 30.2998 48.4802 30.2547C48.4938 30.2095 48.5006 30.1552 48.5006 30.0919C48.5006 30.0355 48.4945 29.9779 48.4825 29.919C48.4704 29.8592 48.452 29.8018 48.4271 29.7468C48.4023 29.691 48.371 29.6406 48.3333 29.5957C48.2964 29.5504 48.2524 29.5131 48.2011 29.4838C48.1431 29.4507 48.0889 29.4362 48.0384 29.4404C47.9887 29.4441 47.9477 29.4631 47.9153 29.4975C47.8837 29.5315 47.8656 29.578 47.8611 29.637L47.7503 29.5725C47.7609 29.4814 47.7805 29.4097 47.8091 29.3575C47.8385 29.3049 47.8746 29.2692 47.9175 29.2503C47.9612 29.231 48.0098 29.2267 48.0633 29.2373C48.1175 29.2474 48.1748 29.2697 48.235 29.3041C48.3171 29.351 48.3879 29.4092 48.4475 29.4787C48.507 29.5483 48.5559 29.6239 48.5943 29.7057C48.6327 29.7866 48.661 29.8695 48.6791 29.9545C48.6979 30.0389 48.7073 30.1202 48.7073 30.1983C48.7073 30.2876 48.6964 30.3651 48.6746 30.4307C48.6527 30.4963 48.6199 30.5461 48.5763 30.5801C48.5333 30.6146 48.4802 30.6302 48.4169 30.6271C48.3537 30.6239 48.2802 30.5984 48.1966 30.5507C48.1077 30.5 48.0302 30.4348 47.9639 30.3554C47.8976 30.275 47.8426 30.1872 47.7989 30.092C47.7552 29.9968 47.7225 29.9001 47.7006 29.8017C47.6788 29.7034 47.6678 29.61 47.6678 29.5215V29.4083C47.6678 29.2747 47.6795 29.1504 47.7029 29.0354C47.7262 28.9203 47.7665 28.8271 47.8238 28.7557C47.8818 28.6848 47.962 28.6477 48.0644 28.6446C48.1669 28.6415 48.2976 28.6854 48.4565 28.7761ZM48.687 32.7066V32.9954C48.687 33.1507 48.6749 33.2748 48.6508 33.3677C48.6267 33.4606 48.5921 33.5267 48.5469 33.5659C48.5017 33.6052 48.4471 33.6213 48.383 33.6142C48.3198 33.6067 48.2482 33.5802 48.1684 33.5346C48.1051 33.4984 48.0467 33.456 47.9932 33.4073C47.9398 33.3585 47.8916 33.3019 47.8486 33.2375C47.8064 33.1727 47.7703 33.0991 47.7402 33.0169C47.71 32.9346 47.6871 32.8425 47.6712 32.7407C47.6554 32.6389 47.6475 32.5259 47.6475 32.4019V32.1131C47.6475 31.9578 47.6596 31.8346 47.6837 31.7434C47.7085 31.6526 47.7435 31.5885 47.7887 31.551C47.8339 31.5126 47.8882 31.4976 47.9514 31.506C48.0155 31.5148 48.087 31.5417 48.1661 31.5869C48.2301 31.6235 48.2889 31.6661 48.3424 31.7149C48.3966 31.7632 48.4448 31.8189 48.487 31.882C48.5292 31.9443 48.565 32.0159 48.5943 32.0968C48.6245 32.1773 48.6474 32.2681 48.6633 32.3691C48.6791 32.47 48.687 32.5825 48.687 32.7066ZM48.4768 32.9144V32.5462C48.4768 32.4612 48.4723 32.3841 48.4633 32.3147C48.455 32.2449 48.4426 32.1823 48.426 32.1269C48.4094 32.0715 48.3883 32.0221 48.3627 31.9789C48.3379 31.9361 48.3089 31.8987 48.2757 31.8667C48.2433 31.8344 48.2068 31.8066 48.1661 31.7834C48.1164 31.755 48.0723 31.7407 48.0339 31.7404C47.9955 31.7393 47.9631 31.7542 47.9368 31.7851C47.9111 31.8165 47.8916 31.8656 47.878 31.9324C47.8644 31.9993 47.8577 32.086 47.8577 32.1927V32.5609C47.8577 32.6459 47.8618 32.7233 47.8701 32.7931C47.8791 32.8633 47.8923 32.9272 47.9096 32.9848C47.927 33.0415 47.9481 33.0922 47.9729 33.1367C47.9978 33.1813 48.0264 33.2202 48.0588 33.2534C48.0919 33.2862 48.1285 33.314 48.1684 33.3368C48.2196 33.3661 48.2644 33.3804 48.3028 33.3798C48.3412 33.3791 48.3733 33.3623 48.3989 33.3292C48.4252 33.2957 48.4448 33.2448 48.4576 33.1767C48.4704 33.1077 48.4768 33.0203 48.4768 32.9144ZM48.687 35.7066V35.9954C48.687 36.1507 48.6749 36.2748 48.6508 36.3677C48.6267 36.4606 48.5921 36.5267 48.5469 36.5659C48.5017 36.6052 48.4471 36.6213 48.383 36.6142C48.3198 36.6067 48.2482 36.5802 48.1684 36.5346C48.1051 36.4984 48.0467 36.456 47.9932 36.4073C47.9398 36.3585 47.8916 36.3019 47.8486 36.2375C47.8064 36.1727 47.7703 36.0991 47.7402 36.0169C47.71 35.9346 47.6871 35.8425 47.6712 35.7407C47.6554 35.6389 47.6475 35.5259 47.6475 35.4019V35.1131C47.6475 34.9578 47.6596 34.8346 47.6837 34.7434C47.7085 34.6526 47.7435 34.5885 47.7887 34.551C47.8339 34.5126 47.8882 34.4976 47.9514 34.506C48.0155 34.5148 48.087 34.5417 48.1661 34.5869C48.2301 34.6235 48.2889 34.6661 48.3424 34.7149C48.3966 34.7632 48.4448 34.8189 48.487 34.882C48.5292 34.9443 48.565 35.0159 48.5943 35.0968C48.6245 35.1773 48.6474 35.2681 48.6633 35.3691C48.6791 35.47 48.687 35.5825 48.687 35.7066ZM48.4768 35.9144V35.5462C48.4768 35.4612 48.4723 35.3841 48.4633 35.3147C48.455 35.2449 48.4426 35.1823 48.426 35.1269C48.4094 35.0715 48.3883 35.0221 48.3627 34.9789C48.3379 34.9361 48.3089 34.8987 48.2757 34.8667C48.2433 34.8344 48.2068 34.8066 48.1661 34.7834C48.1164 34.755 48.0723 34.7407 48.0339 34.7404C47.9955 34.7393 47.9631 34.7542 47.9368 34.7851C47.9111 34.8165 47.8916 34.8656 47.878 34.9324C47.8644 34.9993 47.8577 35.086 47.8577 35.1927V35.5609C47.8577 35.6459 47.8618 35.7233 47.8701 35.7931C47.8791 35.8633 47.8923 35.9272 47.9096 35.9848C47.927 36.0415 47.9481 36.0922 47.9729 36.1367C47.9978 36.1813 48.0264 36.2202 48.0588 36.2534C48.0919 36.2862 48.1285 36.314 48.1684 36.3368C48.2196 36.3661 48.2644 36.3804 48.3028 36.3798C48.3412 36.3791 48.3733 36.3623 48.3989 36.3292C48.4252 36.2957 48.4448 36.2448 48.4576 36.1767C48.4704 36.1077 48.4768 36.0203 48.4768 35.9144Z" fill="white"/>
<path d="M51.2158 30.3562L51.2338 30.3665V30.5708L51.2158 30.5605C51.105 30.4972 51.0124 30.4651 50.9378 30.4642C50.8633 30.4624 50.8041 30.4837 50.7604 30.5282C50.7167 30.5717 50.6851 30.6309 50.6655 30.7056C50.6467 30.7807 50.6373 30.8625 50.6373 30.9509V31.2294C50.6373 31.3135 50.6459 31.393 50.6633 31.468C50.6806 31.5421 50.7043 31.6098 50.7344 31.6713C50.7646 31.7327 50.7985 31.7855 50.8361 31.8295C50.8746 31.874 50.9145 31.9081 50.9559 31.9317C51.0041 31.9592 51.047 31.9733 51.0847 31.974C51.1224 31.9739 51.154 31.962 51.1796 31.9385C51.206 31.9145 51.2259 31.8799 51.2395 31.8347C51.2531 31.7896 51.2598 31.7353 51.2598 31.672C51.2598 31.6156 51.2538 31.558 51.2418 31.499C51.2297 31.4393 51.2112 31.3819 51.1864 31.3269C51.1615 31.2711 51.1303 31.2207 51.0926 31.1758C51.0557 31.1304 51.0116 31.0931 50.9604 31.0639C50.9024 31.0308 50.8482 31.0163 50.7977 31.0204C50.748 31.0241 50.707 31.0432 50.6746 31.0776C50.6429 31.1116 50.6249 31.1581 50.6203 31.2171L50.5096 31.1526C50.5202 31.0614 50.5397 30.9898 50.5684 30.9376C50.5977 30.885 50.6339 30.8493 50.6768 30.8304C50.7205 30.8111 50.7691 30.8068 50.8226 30.8173C50.8768 30.8275 50.9341 30.8498 50.9943 30.8842C51.0764 30.9311 51.1472 30.9893 51.2067 31.0588C51.2662 31.1283 51.3152 31.204 51.3536 31.2858C51.392 31.3667 51.4203 31.4496 51.4384 31.5345C51.4572 31.619 51.4666 31.7003 51.4666 31.7783C51.4666 31.8677 51.4557 31.9452 51.4338 32.0107C51.412 32.0763 51.3792 32.1262 51.3355 32.1602C51.2926 32.1947 51.2395 32.2103 51.1762 32.2071C51.113 32.204 51.0395 32.1785 50.9559 32.1308C50.867 32.08 50.7894 32.0149 50.7232 31.9354C50.6569 31.8551 50.6019 31.7673 50.5582 31.6721C50.5145 31.5769 50.4817 31.4801 50.4599 31.3818C50.438 31.2834 50.4271 31.19 50.4271 31.1016V30.9884C50.4271 30.8548 50.4388 30.7305 50.4622 30.6155C50.4855 30.5004 50.5258 30.4072 50.583 30.3358C50.641 30.2648 50.7213 30.2278 50.8237 30.2247C50.9261 30.2216 51.0568 30.2654 51.2158 30.3562ZM51.4463 34.2866V34.5755C51.4463 34.7307 51.4342 34.8548 51.4101 34.9478C51.386 35.0407 51.3514 35.1068 51.3062 35.146C51.261 35.1853 51.2064 35.2014 51.1423 35.1943C51.0791 35.1868 51.0075 35.1602 50.9277 35.1147C50.8644 35.0785 50.806 35.0361 50.7525 34.9873C50.699 34.9386 50.6508 34.882 50.6079 34.8176C50.5657 34.7527 50.5296 34.6792 50.4994 34.5969C50.4693 34.5147 50.4463 34.4226 50.4305 34.3208C50.4147 34.2189 50.4068 34.106 50.4068 33.982V33.6931C50.4068 33.5379 50.4188 33.4146 50.4429 33.3235C50.4678 33.2327 50.5028 33.1686 50.548 33.131C50.5932 33.0927 50.6474 33.0777 50.7107 33.086C50.7747 33.0948 50.8463 33.1218 50.9254 33.167C50.9894 33.2035 51.0482 33.2462 51.1017 33.2949C51.1559 33.3432 51.2041 33.399 51.2463 33.4621C51.2885 33.5243 51.3242 33.5959 51.3536 33.6769C51.3837 33.7574 51.4067 33.8482 51.4225 33.9491C51.4384 34.0501 51.4463 34.1626 51.4463 34.2866ZM51.2361 34.4945V34.1263C51.2361 34.0413 51.2316 33.9641 51.2225 33.8948C51.2143 33.825 51.2018 33.7624 51.1853 33.707C51.1687 33.6515 51.1476 33.6022 51.122 33.559C51.0971 33.5161 51.0681 33.4788 51.035 33.4468C51.0026 33.4145 50.9661 33.3867 50.9254 33.3634C50.8757 33.335 50.8316 33.3207 50.7932 33.3205C50.7548 33.3194 50.7224 33.3343 50.696 33.3652C50.6704 33.3965 50.6508 33.4456 50.6373 33.5125C50.6237 33.5793 50.6169 33.6661 50.6169 33.7728V34.141C50.6169 34.226 50.6211 34.3034 50.6294 34.3732C50.6384 34.4434 50.6516 34.5073 50.6689 34.5649C50.6862 34.6216 50.7073 34.6723 50.7322 34.7168C50.757 34.7614 50.7857 34.8003 50.8181 34.8335C50.8512 34.8663 50.8877 34.8941 50.9277 34.9169C50.9789 34.9461 51.0237 34.9604 51.0621 34.9598C51.1005 34.9592 51.1325 34.9424 51.1581 34.9093C51.1845 34.8758 51.2041 34.8249 51.2169 34.7568C51.2297 34.6878 51.2361 34.6003 51.2361 34.4945ZM51.4463 37.2866V37.5755C51.4463 37.7307 51.4342 37.8548 51.4101 37.9478C51.386 38.0407 51.3514 38.1068 51.3062 38.146C51.261 38.1853 51.2064 38.2014 51.1423 38.1943C51.0791 38.1868 51.0075 38.1602 50.9277 38.1147C50.8644 38.0785 50.806 38.0361 50.7525 37.9873C50.699 37.9386 50.6508 37.882 50.6079 37.8176C50.5657 37.7527 50.5296 37.6792 50.4994 37.5969C50.4693 37.5147 50.4463 37.4226 50.4305 37.3208C50.4147 37.2189 50.4068 37.106 50.4068 36.982V36.6931C50.4068 36.5379 50.4188 36.4146 50.4429 36.3235C50.4678 36.2327 50.5028 36.1686 50.548 36.131C50.5932 36.0927 50.6474 36.0777 50.7107 36.086C50.7747 36.0948 50.8463 36.1218 50.9254 36.167C50.9894 36.2035 51.0482 36.2462 51.1017 36.2949C51.1559 36.3432 51.2041 36.399 51.2463 36.4621C51.2885 36.5243 51.3242 36.5959 51.3536 36.6769C51.3837 36.7574 51.4067 36.8482 51.4225 36.9491C51.4384 37.0501 51.4463 37.1626 51.4463 37.2866ZM51.2361 37.4945V37.1263C51.2361 37.0413 51.2316 36.9641 51.2225 36.8948C51.2143 36.825 51.2018 36.7624 51.1853 36.707C51.1687 36.6515 51.1476 36.6022 51.122 36.559C51.0971 36.5161 51.0681 36.4788 51.035 36.4468C51.0026 36.4145 50.9661 36.3867 50.9254 36.3634C50.8757 36.335 50.8316 36.3207 50.7932 36.3205C50.7548 36.3194 50.7224 36.3343 50.696 36.3652C50.6704 36.3965 50.6508 36.4456 50.6373 36.5125C50.6237 36.5793 50.6169 36.6661 50.6169 36.7728V37.141C50.6169 37.226 50.6211 37.3034 50.6294 37.3732C50.6384 37.4434 50.6516 37.5073 50.6689 37.5649C50.6862 37.6216 50.7073 37.6723 50.7322 37.7168C50.757 37.7614 50.7857 37.8003 50.8181 37.8335C50.8512 37.8663 50.8877 37.8941 50.9277 37.9169C50.9789 37.9461 51.0237 37.9604 51.0621 37.9598C51.1005 37.9592 51.1325 37.9424 51.1581 37.9093C51.1845 37.8758 51.2041 37.8249 51.2169 37.7568C51.2297 37.6878 51.2361 37.6003 51.2361 37.4945Z" fill="white"/>
<path d="M54.2204 32.0845V32.2198L53.5391 33.5898L53.3188 33.464L53.999 32.1558L53.1086 31.6474V31.4497L54.2204 32.0845ZM54.1899 35.8633V36.1521C54.1899 36.3074 54.1779 36.4315 54.1538 36.5244C54.1297 36.6173 54.095 36.6834 54.0498 36.7227C54.0046 36.7619 53.95 36.778 53.886 36.771C53.8227 36.7634 53.7511 36.7369 53.6713 36.6913C53.608 36.6552 53.5497 36.6127 53.4962 36.564C53.4427 36.5152 53.3945 36.4587 53.3516 36.3943C53.3094 36.3294 53.2732 36.2558 53.2431 36.1736C53.213 36.0913 53.19 35.9993 53.1742 35.8974C53.1584 35.7956 53.1504 35.6827 53.1504 35.5586V35.2698C53.1504 35.1145 53.1625 34.9913 53.1866 34.9001C53.2115 34.8094 53.2465 34.7452 53.2917 34.7077C53.3369 34.6693 53.3911 34.6543 53.4544 34.6627C53.5184 34.6715 53.59 34.6985 53.669 34.7436C53.7331 34.7802 53.7918 34.8228 53.8453 34.8716C53.8995 34.9199 53.9477 34.9756 53.9899 35.0387C54.0321 35.101 54.0679 35.1726 54.0973 35.2536C54.1274 35.3341 54.1504 35.4248 54.1662 35.5258C54.182 35.6268 54.1899 35.7393 54.1899 35.8633ZM53.9798 36.0712V35.703C53.9798 35.618 53.9752 35.5408 53.9662 35.4715C53.9579 35.4017 53.9455 35.3391 53.9289 35.2836C53.9123 35.2282 53.8913 35.1789 53.8656 35.1356C53.8408 35.0928 53.8118 35.0554 53.7786 35.0235C53.7463 34.9911 53.7097 34.9633 53.669 34.9401C53.6193 34.9117 53.5753 34.8974 53.5369 34.8971C53.4984 34.896 53.466 34.9109 53.4397 34.9418C53.4141 34.9732 53.3945 35.0223 53.3809 35.0891C53.3674 35.156 53.3606 35.2428 53.3606 35.3495V35.7177C53.3606 35.8027 53.3647 35.8801 53.373 35.9498C53.3821 36.02 53.3952 36.084 53.4126 36.1416C53.4299 36.1983 53.451 36.2489 53.4758 36.2935C53.5007 36.338 53.5293 36.3769 53.5617 36.4102C53.5949 36.443 53.6314 36.4708 53.6713 36.4936C53.7225 36.5228 53.7673 36.5371 53.8058 36.5365C53.8442 36.5359 53.8762 36.519 53.9018 36.4859C53.9282 36.4524 53.9477 36.4016 53.9605 36.3334C53.9734 36.2644 53.9798 36.177 53.9798 36.0712ZM54.1899 38.8633V39.1521C54.1899 39.3074 54.1779 39.4315 54.1538 39.5244C54.1297 39.6173 54.095 39.6834 54.0498 39.7227C54.0046 39.7619 53.95 39.778 53.886 39.771C53.8227 39.7634 53.7511 39.7369 53.6713 39.6913C53.608 39.6552 53.5497 39.6127 53.4962 39.564C53.4427 39.5152 53.3945 39.4587 53.3516 39.3943C53.3094 39.3294 53.2732 39.2558 53.2431 39.1736C53.213 39.0913 53.19 38.9993 53.1742 38.8974C53.1584 38.7956 53.1504 38.6827 53.1504 38.5586V38.2698C53.1504 38.1145 53.1625 37.9913 53.1866 37.9001C53.2115 37.8094 53.2465 37.7452 53.2917 37.7077C53.3369 37.6693 53.3911 37.6543 53.4544 37.6627C53.5184 37.6715 53.59 37.6985 53.669 37.7436C53.7331 37.7802 53.7918 37.8228 53.8453 37.8716C53.8995 37.9199 53.9477 37.9756 53.9899 38.0387C54.0321 38.101 54.0679 38.1726 54.0973 38.2536C54.1274 38.3341 54.1504 38.4248 54.1662 38.5258C54.182 38.6268 54.1899 38.7393 54.1899 38.8633ZM53.9798 39.0712V38.703C53.9798 38.618 53.9752 38.5408 53.9662 38.4715C53.9579 38.4017 53.9455 38.3391 53.9289 38.2836C53.9123 38.2282 53.8913 38.1789 53.8656 38.1356C53.8408 38.0928 53.8118 38.0554 53.7786 38.0235C53.7463 37.9911 53.7097 37.9633 53.669 37.9401C53.6193 37.9117 53.5753 37.8974 53.5369 37.8971C53.4984 37.896 53.466 37.9109 53.4397 37.9418C53.4141 37.9732 53.3945 38.0223 53.3809 38.0891C53.3674 38.156 53.3606 38.2428 53.3606 38.3495V38.7177C53.3606 38.8027 53.3647 38.8801 53.373 38.9498C53.3821 39.02 53.3952 39.084 53.4126 39.1416C53.4299 39.1983 53.451 39.2489 53.4758 39.2935C53.5007 39.338 53.5293 39.3769 53.5617 39.4102C53.5949 39.443 53.6314 39.4708 53.6713 39.4936C53.7225 39.5228 53.7673 39.5371 53.8058 39.5365C53.8442 39.5359 53.8762 39.519 53.9018 39.4859C53.9282 39.4524 53.9477 39.4016 53.9605 39.3334C53.9734 39.2644 53.9798 39.177 53.9798 39.0712Z" fill="white"/>
<path d="M56.9576 35.0349C56.9576 35.1502 56.9343 35.2349 56.8876 35.2889C56.8416 35.3425 56.7791 35.3675 56.7 35.364C56.6217 35.3609 56.5332 35.3312 56.4345 35.2748C56.3358 35.2185 56.2469 35.1469 56.1678 35.0601C56.0888 34.9733 56.0262 34.8769 55.9803 34.7709C55.9343 34.664 55.9114 34.5528 55.9114 34.4375C55.9114 34.362 55.9238 34.3002 55.9487 34.2519C55.9743 34.2032 56.01 34.1686 56.056 34.1479C56.1027 34.1278 56.1577 34.1232 56.2209 34.1341C56.285 34.1447 56.3554 34.1719 56.4322 34.2158C56.5332 34.2734 56.6232 34.3473 56.7023 34.4376C56.7814 34.527 56.8435 34.6236 56.8887 34.7275C56.9346 34.8318 56.9576 34.9342 56.9576 35.0349ZM56.7475 34.9097C56.7475 34.8394 56.7343 34.7699 56.7079 34.701C56.6816 34.6313 56.6446 34.5678 56.5972 34.5103C56.5497 34.4529 56.4947 34.4063 56.4322 34.3706C56.3682 34.334 56.3128 34.3176 56.2661 34.3213C56.2202 34.3254 56.1844 34.3475 56.1588 34.3875C56.1332 34.4267 56.1204 34.4814 56.1204 34.5516C56.1204 34.6245 56.1328 34.694 56.1577 34.7603C56.1833 34.8261 56.2194 34.8862 56.2661 34.9406C56.3136 34.9946 56.3697 35.0401 56.4345 35.077C56.4993 35.114 56.555 35.1324 56.6017 35.1322C56.6484 35.1311 56.6842 35.1121 56.709 35.0751C56.7347 35.0377 56.7475 34.9825 56.7475 34.9097ZM56.9192 34.1243C56.9192 34.2162 56.8981 34.287 56.8559 34.3367C56.8137 34.3863 56.7561 34.4115 56.6831 34.4123C56.61 34.4131 56.5271 34.387 56.4345 34.3341C56.3403 34.2804 56.2563 34.2112 56.1825 34.1265C56.1095 34.0423 56.0522 33.9515 56.0108 33.8541C55.9694 33.7567 55.9487 33.6621 55.9487 33.5701C55.9487 33.46 55.9694 33.3781 56.0108 33.3246C56.053 33.2715 56.1106 33.2454 56.1837 33.2464C56.2567 33.2473 56.34 33.2744 56.4334 33.3278C56.5275 33.3815 56.6111 33.4497 56.6842 33.5321C56.7573 33.6146 56.8145 33.7063 56.8559 33.8071C56.8981 33.9084 56.9192 34.0141 56.9192 34.1243ZM56.7102 34.0089C56.7102 33.9455 56.6985 33.8829 56.6751 33.821C56.6518 33.7591 56.6194 33.7025 56.578 33.651C56.5366 33.5988 56.4883 33.5569 56.4334 33.5255C56.3784 33.4941 56.3302 33.4801 56.2887 33.4833C56.2481 33.4861 56.2161 33.5051 56.1927 33.5403C56.1701 33.576 56.1588 33.6272 56.1588 33.694C56.1588 33.7591 56.1701 33.8224 56.1927 33.8838C56.2161 33.9457 56.2484 34.002 56.2899 34.0525C56.3313 34.103 56.3795 34.144 56.4345 34.1754C56.4895 34.2068 56.5373 34.2207 56.578 34.217C56.6194 34.2138 56.6518 34.1945 56.6751 34.1593C56.6985 34.1241 56.7102 34.0739 56.7102 34.0089ZM56.9531 37.4468V37.7356C56.9531 37.8909 56.941 38.015 56.9169 38.1079C56.8928 38.2008 56.8582 38.2669 56.813 38.3062C56.7678 38.3454 56.7132 38.3615 56.6492 38.3544C56.5859 38.3469 56.5143 38.3204 56.4345 38.2748C56.3712 38.2387 56.3128 38.1962 56.2594 38.1475C56.2059 38.0987 56.1577 38.0422 56.1147 37.9777C56.0726 37.9129 56.0364 37.8393 56.0063 37.7571C55.9761 37.6748 55.9532 37.5828 55.9374 37.4809C55.9215 37.3791 55.9136 37.2662 55.9136 37.1421V36.8533C55.9136 36.698 55.9257 36.5748 55.9498 36.4836C55.9746 36.3929 56.0097 36.3287 56.0549 36.2912C56.1001 36.2528 56.1543 36.2378 56.2176 36.2462C56.2816 36.255 56.3531 36.282 56.4322 36.3271C56.4963 36.3637 56.555 36.4063 56.6085 36.4551C56.6627 36.5034 56.7109 36.5591 56.7531 36.6222C56.7953 36.6845 56.8311 36.7561 56.8604 36.837C56.8906 36.9176 56.9135 37.0083 56.9294 37.1093C56.9452 37.2103 56.9531 37.3228 56.9531 37.4468ZM56.7429 37.6547V37.2865C56.7429 37.2015 56.7384 37.1243 56.7294 37.055C56.7211 36.9852 56.7087 36.9226 56.6921 36.8671C56.6755 36.8117 56.6544 36.7624 56.6288 36.7191C56.604 36.6763 56.575 36.6389 56.5418 36.607C56.5094 36.5746 56.4729 36.5468 56.4322 36.5236C56.3825 36.4952 56.3385 36.4809 56.3 36.4806C56.2616 36.4795 56.2292 36.4944 56.2029 36.5253C56.1773 36.5567 56.1577 36.6058 56.1441 36.6726C56.1306 36.7395 56.1238 36.8263 56.1238 36.9329V37.3012C56.1238 37.3862 56.1279 37.4635 56.1362 37.5333C56.1452 37.6035 56.1584 37.6675 56.1758 37.725C56.1931 37.7818 56.2142 37.8324 56.239 37.877C56.2639 37.9215 56.2925 37.9604 56.3249 37.9937C56.358 38.0265 56.3946 38.0543 56.4345 38.077C56.4857 38.1063 56.5305 38.1206 56.5689 38.12C56.6074 38.1194 56.6394 38.1025 56.665 38.0694C56.6913 38.0359 56.7109 37.9851 56.7237 37.9169C56.7365 37.8479 56.7429 37.7605 56.7429 37.6547ZM56.9531 40.4468V40.7356C56.9531 40.8909 56.941 41.015 56.9169 41.1079C56.8928 41.2008 56.8582 41.2669 56.813 41.3062C56.7678 41.3454 56.7132 41.3615 56.6492 41.3544C56.5859 41.3469 56.5143 41.3204 56.4345 41.2748C56.3712 41.2387 56.3128 41.1962 56.2594 41.1475C56.2059 41.0987 56.1577 41.0422 56.1147 40.9777C56.0726 40.9129 56.0364 40.8393 56.0063 40.7571C55.9761 40.6748 55.9532 40.5828 55.9374 40.4809C55.9215 40.3791 55.9136 40.2662 55.9136 40.1421V39.8533C55.9136 39.698 55.9257 39.5748 55.9498 39.4836C55.9746 39.3929 56.0097 39.3287 56.0549 39.2912C56.1001 39.2528 56.1543 39.2378 56.2176 39.2462C56.2816 39.255 56.3531 39.282 56.4322 39.3271C56.4963 39.3637 56.555 39.4063 56.6085 39.4551C56.6627 39.5034 56.7109 39.5591 56.7531 39.6222C56.7953 39.6845 56.8311 39.7561 56.8604 39.837C56.8906 39.9176 56.9135 40.0083 56.9294 40.1093C56.9452 40.2103 56.9531 40.3228 56.9531 40.4468ZM56.7429 40.6547V40.2865C56.7429 40.2015 56.7384 40.1243 56.7294 40.055C56.7211 39.9852 56.7087 39.9226 56.6921 39.8671C56.6755 39.8117 56.6544 39.7624 56.6288 39.7191C56.604 39.6763 56.575 39.6389 56.5418 39.607C56.5094 39.5746 56.4729 39.5468 56.4322 39.5236C56.3825 39.4952 56.3385 39.4809 56.3 39.4806C56.2616 39.4795 56.2292 39.4944 56.2029 39.5253C56.1773 39.5567 56.1577 39.6058 56.1441 39.6726C56.1306 39.7395 56.1238 39.8263 56.1238 39.9329V40.3012C56.1238 40.3862 56.1279 40.4635 56.1362 40.5333C56.1452 40.6035 56.1584 40.6675 56.1758 40.725C56.1931 40.7818 56.2142 40.8324 56.239 40.877C56.2639 40.9215 56.2925 40.9604 56.3249 40.9937C56.358 41.0265 56.3946 41.0543 56.4345 41.077C56.4857 41.1063 56.5305 41.1206 56.5689 41.12C56.6074 41.1194 56.6394 41.1025 56.665 41.0694C56.6913 41.0359 56.7109 40.9851 56.7237 40.9169C56.7365 40.8479 56.7429 40.7605 56.7429 40.6547Z" fill="white"/>
<path d="M58.8915 36.4565L58.9129 36.4688C59.0335 36.5376 59.1314 36.574 59.2067 36.578C59.282 36.5819 59.34 36.5626 59.3807 36.5199C59.4214 36.4772 59.4493 36.4189 59.4643 36.3451C59.4794 36.2705 59.4869 36.1893 59.4869 36.1017V35.8116C59.4869 35.7257 59.4783 35.6445 59.4609 35.5678C59.4444 35.4915 59.421 35.4222 59.3909 35.3599C59.3615 35.2981 59.328 35.2447 59.2903 35.1997C59.2527 35.1548 59.2127 35.1203 59.1706 35.0962C59.1223 35.0687 59.079 35.0552 59.0406 35.0559C59.003 35.056 58.9709 35.0686 58.9446 35.0934C58.919 35.1187 58.8994 35.1543 58.8858 35.2004C58.8723 35.2464 58.8655 35.3011 58.8655 35.3644C58.8655 35.4208 58.8715 35.4789 58.8836 35.5387C58.8956 35.5985 58.9141 35.6567 58.9389 35.7134C58.9638 35.7701 58.9947 35.8215 59.0316 35.8678C59.0692 35.9136 59.1133 35.9509 59.1638 35.9797C59.2105 36.0063 59.2542 36.0209 59.2948 36.0233C59.3363 36.0253 59.3728 36.0171 59.4044 35.9987C59.4368 35.9799 59.4624 35.9524 59.4813 35.9164C59.5009 35.8807 59.5122 35.8382 59.5152 35.7887L59.6146 35.8455C59.6146 35.9175 59.6022 35.9815 59.5773 36.0376C59.5532 36.0932 59.5193 36.1371 59.4756 36.1694C59.4319 36.2017 59.3807 36.2185 59.322 36.2196C59.2632 36.2199 59.1992 36.2003 59.1299 36.1607C59.0485 36.1142 58.9781 36.0558 58.9186 35.9854C58.8591 35.915 58.8101 35.8385 58.7717 35.7558C58.7341 35.6736 58.7058 35.5898 58.687 35.5045C58.6689 35.4187 58.6599 35.3372 58.6599 35.26C58.6599 35.1698 58.6708 35.0915 58.6926 35.025C58.7145 34.9585 58.7469 34.9077 58.7898 34.8723C58.8327 34.8361 58.8858 34.8192 58.9491 34.8215C59.0131 34.8242 59.0869 34.8494 59.1706 34.8972C59.2647 34.9509 59.3449 35.0184 59.4112 35.0996C59.4775 35.1808 59.5314 35.2697 59.5728 35.3662C59.615 35.4632 59.6459 35.5628 59.6654 35.665C59.685 35.7673 59.6948 35.8666 59.6948 35.9628V36.05C59.6948 36.148 59.6892 36.2445 59.6779 36.3396C59.6673 36.4342 59.6466 36.5186 59.6157 36.5929C59.5856 36.6677 59.5415 36.7249 59.4835 36.7646C59.4255 36.8035 59.3498 36.8175 59.2564 36.8067C59.1638 36.7954 59.0493 36.7509 58.9129 36.673L58.8915 36.6608V36.4565ZM59.7163 39.031V39.3199C59.7163 39.4751 59.7042 39.5992 59.6801 39.6921C59.656 39.7851 59.6214 39.8512 59.5762 39.8904C59.531 39.9297 59.4764 39.9457 59.4123 39.9387C59.3491 39.9312 59.2775 39.9046 59.1977 39.859C59.1344 39.8229 59.076 39.7805 59.0225 39.7317C58.9691 39.683 58.9209 39.6264 58.8779 39.562C58.8357 39.4971 58.7996 39.4236 58.7695 39.3413C58.7393 39.2591 58.7164 39.167 58.7005 39.0652C58.6847 38.9633 58.6768 38.8504 58.6768 38.7264V38.4375C58.6768 38.2823 58.6889 38.159 58.713 38.0678C58.7378 37.9771 58.7728 37.9129 58.818 37.8754C58.8632 37.8371 58.9175 37.822 58.9807 37.8304C59.0448 37.8392 59.1163 37.8662 59.1954 37.9114C59.2594 37.9479 59.3182 37.9906 59.3717 38.0393C59.4259 38.0876 59.4741 38.1433 59.5163 38.2065C59.5585 38.2687 59.5943 38.3403 59.6236 38.4213C59.6538 38.5018 59.6767 38.5925 59.6926 38.6935C59.7084 38.7945 59.7163 38.907 59.7163 39.031ZM59.5061 39.2389V38.8707C59.5061 38.7857 59.5016 38.7085 59.4926 38.6392C59.4843 38.5694 59.4719 38.5068 59.4553 38.4514C59.4387 38.3959 59.4176 38.3466 59.392 38.3033C59.3672 38.2605 59.3382 38.2231 59.305 38.1912C59.2726 38.1588 59.2361 38.131 59.1954 38.1078C59.1457 38.0794 59.1016 38.0651 59.0632 38.0649C59.0248 38.0637 58.9924 38.0786 58.9661 38.1096C58.9404 38.1409 58.9209 38.19 58.9073 38.2569C58.8937 38.3237 58.887 38.4105 58.887 38.5172V38.8854C58.887 38.9704 58.8911 39.0478 58.8994 39.1176C58.9084 39.1878 58.9216 39.2517 58.9389 39.3093C58.9563 39.366 58.9774 39.4166 59.0022 39.4612C59.0271 39.5057 59.0557 39.5446 59.0881 39.5779C59.1212 39.6107 59.1578 39.6385 59.1977 39.6613C59.2489 39.6905 59.2937 39.7048 59.3321 39.7042C59.3705 39.7036 59.4026 39.6868 59.4282 39.6537C59.4545 39.6201 59.4741 39.5693 59.4869 39.5012C59.4997 39.4321 59.5061 39.3447 59.5061 39.2389ZM59.7163 42.031V42.3199C59.7163 42.4751 59.7042 42.5992 59.6801 42.6921C59.656 42.7851 59.6214 42.8512 59.5762 42.8904C59.531 42.9297 59.4764 42.9457 59.4123 42.9387C59.3491 42.9312 59.2775 42.9046 59.1977 42.859C59.1344 42.8229 59.076 42.7805 59.0225 42.7317C58.9691 42.683 58.9209 42.6264 58.8779 42.562C58.8357 42.4971 58.7996 42.4236 58.7695 42.3413C58.7393 42.2591 58.7164 42.167 58.7005 42.0652C58.6847 41.9633 58.6768 41.8504 58.6768 41.7264V41.4375C58.6768 41.2823 58.6889 41.159 58.713 41.0678C58.7378 40.9771 58.7728 40.9129 58.818 40.8754C58.8632 40.8371 58.9175 40.822 58.9807 40.8304C59.0448 40.8392 59.1163 40.8662 59.1954 40.9114C59.2594 40.9479 59.3182 40.9906 59.3717 41.0393C59.4259 41.0876 59.4741 41.1433 59.5163 41.2065C59.5585 41.2687 59.5943 41.3403 59.6236 41.4213C59.6538 41.5018 59.6767 41.5925 59.6926 41.6935C59.7084 41.7945 59.7163 41.907 59.7163 42.031ZM59.5061 42.2389V41.8707C59.5061 41.7857 59.5016 41.7085 59.4926 41.6392C59.4843 41.5694 59.4719 41.5068 59.4553 41.4514C59.4387 41.3959 59.4176 41.3466 59.392 41.3033C59.3672 41.2605 59.3382 41.2231 59.305 41.1912C59.2726 41.1588 59.2361 41.131 59.1954 41.1078C59.1457 41.0794 59.1016 41.0651 59.0632 41.0649C59.0248 41.0637 58.9924 41.0786 58.9661 41.1096C58.9404 41.1409 58.9209 41.19 58.9073 41.2569C58.8937 41.3237 58.887 41.4105 58.887 41.5172V41.8854C58.887 41.9704 58.8911 42.0478 58.8994 42.1176C58.9084 42.1878 58.9216 42.2517 58.9389 42.3093C58.9563 42.366 58.9774 42.4166 59.0022 42.4612C59.0271 42.5057 59.0557 42.5446 59.0881 42.5779C59.1212 42.6107 59.1578 42.6385 59.1977 42.6613C59.2489 42.6905 59.2937 42.7048 59.3321 42.7042C59.3705 42.7036 59.4026 42.6868 59.4282 42.6537C59.4545 42.6201 59.4741 42.5693 59.4869 42.5012C59.4997 42.4321 59.5061 42.3447 59.5061 42.2389Z" fill="white"/>
<path d="M61.8476 36.4491V38.3538L61.6386 38.2345V36.6303L61.2171 36.5666V36.3493L61.8148 36.4304L61.8476 36.4491ZM62.1933 40.4531V40.742C62.1933 40.8972 62.1813 41.0213 62.1572 41.1143C62.1331 41.2072 62.0984 41.2733 62.0532 41.3125C62.008 41.3518 61.9534 41.3679 61.8894 41.3608C61.8261 41.3533 61.7546 41.3267 61.6747 41.2812C61.6115 41.245 61.5531 41.2026 61.4996 41.1538C61.4461 41.1051 61.3979 41.0485 61.355 40.9841C61.3128 40.9192 61.2766 40.8457 61.2465 40.7634C61.2164 40.6812 61.1934 40.5891 61.1776 40.4873C61.1618 40.3854 61.1539 40.2725 61.1539 40.1485V39.8596C61.1539 39.7044 61.1659 39.5812 61.19 39.49C61.2149 39.3992 61.2499 39.3351 61.2951 39.2976C61.3403 39.2592 61.3945 39.2442 61.4578 39.2525C61.5218 39.2613 61.5934 39.2883 61.6725 39.3335C61.7365 39.37 61.7952 39.4127 61.8487 39.4614C61.903 39.5098 61.9512 39.5655 61.9933 39.6286C62.0355 39.6908 62.0713 39.7624 62.1007 39.8434C62.1308 39.9239 62.1538 40.0147 62.1696 40.1156C62.1854 40.2166 62.1933 40.3291 62.1933 40.4531ZM61.9832 40.661V40.2928C61.9832 40.2078 61.9787 40.1306 61.9696 40.0613C61.9613 39.9915 61.9489 39.9289 61.9323 39.8735C61.9158 39.818 61.8947 39.7687 61.8691 39.7255C61.8442 39.6826 61.8152 39.6453 61.7821 39.6133C61.7497 39.581 61.7131 39.5532 61.6725 39.5299C61.6228 39.5016 61.5787 39.4872 61.5403 39.487C61.5019 39.4859 61.4695 39.5008 61.4431 39.5317C61.4175 39.563 61.3979 39.6121 61.3844 39.679C61.3708 39.7458 61.364 39.8326 61.364 39.9393V40.3075C61.364 40.3925 61.3682 40.4699 61.3764 40.5397C61.3855 40.6099 61.3987 40.6738 61.416 40.7314C61.4333 40.7881 61.4544 40.8388 61.4793 40.8833C61.5041 40.9279 61.5327 40.9668 61.5651 41C61.5983 41.0328 61.6348 41.0606 61.6747 41.0834C61.7259 41.1126 61.7708 41.127 61.8092 41.1263C61.8476 41.1257 61.8796 41.1089 61.9052 41.0758C61.9316 41.0423 61.9512 40.9914 61.964 40.9233C61.9768 40.8543 61.9832 40.7668 61.9832 40.661ZM62.1933 43.4531V43.742C62.1933 43.8972 62.1813 44.0213 62.1572 44.1143C62.1331 44.2072 62.0984 44.2733 62.0532 44.3125C62.008 44.3518 61.9534 44.3679 61.8894 44.3608C61.8261 44.3533 61.7546 44.3267 61.6747 44.2812C61.6115 44.245 61.5531 44.2026 61.4996 44.1538C61.4461 44.1051 61.3979 44.0485 61.355 43.9841C61.3128 43.9192 61.2766 43.8457 61.2465 43.7634C61.2164 43.6812 61.1934 43.5891 61.1776 43.4873C61.1618 43.3854 61.1539 43.2725 61.1539 43.1485V42.8596C61.1539 42.7044 61.1659 42.5812 61.19 42.49C61.2149 42.3992 61.2499 42.3351 61.2951 42.2976C61.3403 42.2592 61.3945 42.2442 61.4578 42.2525C61.5218 42.2613 61.5934 42.2883 61.6725 42.3335C61.7365 42.37 61.7952 42.4127 61.8487 42.4614C61.903 42.5098 61.9512 42.5655 61.9933 42.6286C62.0355 42.6908 62.0713 42.7624 62.1007 42.8434C62.1308 42.9239 62.1538 43.0147 62.1696 43.1156C62.1854 43.2166 62.1933 43.3291 62.1933 43.4531ZM61.9832 43.661V43.2928C61.9832 43.2078 61.9787 43.1306 61.9696 43.0613C61.9613 42.9915 61.9489 42.9289 61.9323 42.8735C61.9158 42.818 61.8947 42.7687 61.8691 42.7255C61.8442 42.6826 61.8152 42.6453 61.7821 42.6133C61.7497 42.581 61.7131 42.5532 61.6725 42.5299C61.6228 42.5016 61.5787 42.4872 61.5403 42.487C61.5019 42.4859 61.4695 42.5008 61.4431 42.5317C61.4175 42.563 61.3979 42.6121 61.3844 42.679C61.3708 42.7458 61.364 42.8326 61.364 42.9393V43.3075C61.364 43.3925 61.3682 43.4699 61.3764 43.5397C61.3855 43.6099 61.3987 43.6738 61.416 43.7314C61.4333 43.7881 61.4544 43.8388 61.4793 43.8833C61.5041 43.9279 61.5327 43.9668 61.5651 44C61.5983 44.0328 61.6348 44.0606 61.6747 44.0834C61.7259 44.1126 61.7708 44.127 61.8092 44.1263C61.8476 44.1257 61.8796 44.1089 61.9052 44.0758C61.9316 44.0423 61.9512 43.9914 61.964 43.9233C61.9768 43.8543 61.9832 43.7668 61.9832 43.661ZM62.1933 46.4531V46.742C62.1933 46.8972 62.1813 47.0213 62.1572 47.1143C62.1331 47.2072 62.0984 47.2733 62.0532 47.3125C62.008 47.3518 61.9534 47.3679 61.8894 47.3608C61.8261 47.3533 61.7546 47.3267 61.6747 47.2812C61.6115 47.245 61.5531 47.2026 61.4996 47.1538C61.4461 47.1051 61.3979 47.0485 61.355 46.9841C61.3128 46.9192 61.2766 46.8457 61.2465 46.7634C61.2164 46.6812 61.1934 46.5891 61.1776 46.4873C61.1618 46.3854 61.1539 46.2725 61.1539 46.1485V45.8596C61.1539 45.7044 61.1659 45.5812 61.19 45.49C61.2149 45.3992 61.2499 45.3351 61.2951 45.2976C61.3403 45.2592 61.3945 45.2442 61.4578 45.2525C61.5218 45.2613 61.5934 45.2883 61.6725 45.3335C61.7365 45.37 61.7952 45.4127 61.8487 45.4614C61.903 45.5098 61.9512 45.5655 61.9933 45.6286C62.0355 45.6908 62.0713 45.7624 62.1007 45.8434C62.1308 45.9239 62.1538 46.0147 62.1696 46.1156C62.1854 46.2166 62.1933 46.3291 62.1933 46.4531ZM61.9832 46.661V46.2928C61.9832 46.2078 61.9787 46.1306 61.9696 46.0613C61.9613 45.9915 61.9489 45.9289 61.9323 45.8735C61.9158 45.818 61.8947 45.7687 61.8691 45.7255C61.8442 45.6826 61.8152 45.6453 61.7821 45.6133C61.7497 45.581 61.7131 45.5532 61.6725 45.5299C61.6228 45.5016 61.5787 45.4872 61.5403 45.487C61.5019 45.4859 61.4695 45.5008 61.4431 45.5317C61.4175 45.563 61.3979 45.6121 61.3844 45.679C61.3708 45.7458 61.364 45.8326 61.364 45.9393V46.3075C61.364 46.3925 61.3682 46.4699 61.3764 46.5397C61.3855 46.6099 61.3987 46.6738 61.416 46.7314C61.4333 46.7881 61.4544 46.8388 61.4793 46.8833C61.5041 46.9279 61.5327 46.9668 61.5651 47C61.5983 47.0328 61.6348 47.0606 61.6747 47.0834C61.7259 47.1126 61.7708 47.127 61.8092 47.1263C61.8476 47.1257 61.8796 47.1089 61.9052 47.0758C61.9316 47.0423 61.9512 46.9914 61.964 46.9233C61.9768 46.8543 61.9832 46.7668 61.9832 46.661Z" fill="white"/>
<path d="M34.2817 21.6863L36.6554 24.9768L39.5937 21.7692L42.4167 26.4818L45.2437 25.1387L50.5517 28.1843L53.3786 23.4915L56.2016 34.3901L58.6906 35.8161L62.9052 26.1105" stroke="url(#paint8_linear_3_3359)" stroke-width="0.75" stroke-miterlimit="10"/>
<path d="M33.9434 18.6565L36.655 20.2129L39.5933 15.844L42.4163 29.5709L45.2432 22.1761L48.5195 24.0564L50.5512 31.0206L53.3782 32.6402L56.2012 31.2971L58.6902 35.9425L62.9048 35.2275" stroke="url(#paint9_linear_3_3359)" stroke-width="0.75" stroke-linecap="round" stroke-linejoin="round"/>
<path d="M34.182 18.9466C34.2977 18.8794 34.2971 18.6647 34.1807 18.4669C34.0644 18.2692 33.8763 18.1633 33.7607 18.2304C33.645 18.2976 33.6456 18.5124 33.762 18.7101C33.8783 18.9079 34.0664 19.0138 34.182 18.9466Z" fill="#FFEA80"/>
<path d="M36.5333 20.5224C36.6485 20.4558 36.6484 20.2422 36.5331 20.0452C36.4178 19.8482 36.231 19.7424 36.1158 19.809C36.0006 19.8755 36.0007 20.0891 36.116 20.2861C36.2313 20.4831 36.4181 20.5889 36.5333 20.5224Z" fill="#FFEA80"/>
<path d="M39.8319 16.1382C39.9476 16.0711 39.947 15.8563 39.8306 15.6586C39.7143 15.4608 39.5262 15.3549 39.4106 15.4221C39.2949 15.4893 39.2955 15.704 39.4119 15.9018C39.5282 16.0995 39.7163 16.2054 39.8319 16.1382Z" fill="#FFEA80"/>
<path d="M42.621 29.9317C42.7366 29.8645 42.7361 29.6498 42.6197 29.452C42.5033 29.2543 42.3153 29.1484 42.1996 29.2155C42.084 29.2827 42.0846 29.4975 42.2009 29.6952C42.3173 29.893 42.5054 29.9989 42.621 29.9317Z" fill="#FFEA80"/>
<path d="M45.2188 22.6852C45.334 22.6187 45.334 22.405 45.2187 22.208C45.1034 22.011 44.9165 21.9053 44.8014 21.9718C44.6862 22.0383 44.6862 22.252 44.8015 22.449C44.9168 22.646 45.1036 22.7517 45.2188 22.6852Z" fill="#FFEA80"/>
<path d="M48.621 24.3543C48.7366 24.2871 48.7361 24.0724 48.6197 23.8746C48.5033 23.6769 48.3153 23.571 48.1996 23.6382C48.084 23.7053 48.0846 23.9201 48.2009 24.1178C48.3173 24.3156 48.5054 24.4215 48.621 24.3543Z" fill="#FFEA80"/>
<path d="M50.8017 31.3611C50.9173 31.294 50.9167 31.0792 50.8004 30.8815C50.684 30.6837 50.4959 30.5778 50.3803 30.645C50.2646 30.7122 50.2652 30.9269 50.3816 31.1247C50.498 31.3224 50.686 31.4283 50.8017 31.3611Z" fill="#FFEA80"/>
<path d="M53.6015 32.9693C53.7171 32.9021 53.7165 32.6874 53.6002 32.4896C53.4838 32.2919 53.2957 32.186 53.1801 32.2531C53.0644 32.3203 53.065 32.5351 53.1814 32.7328C53.2978 32.9306 53.4858 33.0365 53.6015 32.9693Z" fill="#FFEA80"/>
<path d="M56.4418 31.6751C56.5574 31.6079 56.5569 31.3932 56.4405 31.1954C56.3241 30.9977 56.1361 30.8918 56.0204 30.959C55.9048 31.0261 55.9054 31.2409 56.0217 31.4386C56.1381 31.6364 56.3262 31.7423 56.4418 31.6751Z" fill="#FFEA80"/>
<path d="M58.9296 36.2212C59.0452 36.1541 59.0447 35.9393 58.9283 35.7416C58.8119 35.5438 58.6238 35.4379 58.5082 35.5051C58.3926 35.5723 58.3932 35.787 58.5095 35.9848C58.6259 36.1825 58.814 36.2884 58.9296 36.2212Z" fill="#FFEA80"/>
<path d="M63.1503 26.6121C63.2659 26.545 63.2654 26.3302 63.149 26.1324C63.0326 25.9347 62.8446 25.8288 62.7289 25.896C62.6133 25.9631 62.6139 26.1779 62.7302 26.3757C62.8466 26.5734 63.0347 26.6793 63.1503 26.6121Z" fill="#A7F6EF"/>
<path d="M56.4106 34.826C56.5262 34.7588 56.5256 34.5441 56.4092 34.3463C56.2929 34.1485 56.1048 34.0427 55.9892 34.1098C55.8735 34.177 55.8741 34.3918 55.9905 34.5895C56.1068 34.7873 56.2949 34.8931 56.4106 34.826Z" fill="#A7F6EF"/>
<path d="M53.6171 23.7044C53.7327 23.6372 53.7321 23.4225 53.6158 23.2247C53.4994 23.027 53.3114 22.9211 53.1957 22.9883C53.0801 23.0554 53.0807 23.2702 53.197 23.4679C53.3134 23.6657 53.5015 23.7716 53.6171 23.7044Z" fill="#A7F6EF"/>
<path d="M50.7353 28.4268C50.8509 28.3597 50.8503 28.1449 50.734 27.9471C50.6176 27.7494 50.4295 27.6435 50.3139 27.7107C50.1982 27.7778 50.1988 27.9926 50.3152 28.1903C50.4316 28.3881 50.6196 28.494 50.7353 28.4268Z" fill="#A7F6EF"/>
<path d="M39.8046 22.159C39.9202 22.0918 39.9196 21.8771 39.8033 21.6793C39.6869 21.4816 39.4989 21.3757 39.3832 21.4428C39.2676 21.51 39.2682 21.7248 39.3845 21.9225C39.5009 22.1203 39.689 22.2262 39.8046 22.159Z" fill="#A7F6EF"/>
<path d="M45.4809 25.4131C45.5965 25.346 45.5959 25.1312 45.4796 24.9335C45.3632 24.7357 45.1751 24.6298 45.0595 24.697C44.9438 24.7642 44.9444 24.9789 45.0608 25.1767C45.1772 25.3744 45.3652 25.4803 45.4809 25.4131Z" fill="#A7F6EF"/>
<path d="M36.8778 25.3611C36.9935 25.294 36.9929 25.0792 36.8765 24.8815C36.7602 24.6837 36.5721 24.5778 36.4565 24.645C36.3408 24.7122 36.3414 24.9269 36.4578 25.1247C36.5741 25.3224 36.7622 25.4283 36.8778 25.3611Z" fill="#A7F6EF"/>
<path d="M34.4623 21.9913C34.578 21.9241 34.5774 21.7093 34.461 21.5116C34.3446 21.3138 34.1566 21.208 34.0409 21.2751C33.9253 21.3423 33.9259 21.557 34.0422 21.7548C34.1586 21.9526 34.3467 22.0584 34.4623 21.9913Z" fill="#A7F6EF"/>
<path d="M42.5585 26.7296C42.6741 26.6624 42.6736 26.4476 42.5572 26.2499C42.4408 26.0521 42.2528 25.9462 42.1371 26.0134C42.0215 26.0806 42.0221 26.2953 42.1384 26.4931C42.2548 26.6908 42.4429 26.7967 42.5585 26.7296Z" fill="#A7F6EF"/>
<path opacity="0.2" d="M52.1177 13.0159L31.8081 30.8351L38.1817 34.493L59.6443 17.3374L52.1177 13.0159Z" fill="url(#paint10_linear_3_3359)"/>
<path opacity="0.2" d="M61.0279 18.1235L39.0444 35.0027L42.5235 37.0133L64.0258 19.8221L61.0279 18.1235Z" fill="url(#paint11_linear_3_3359)"/>
<path opacity="0.8" d="M31.1083 36.4246L31.0288 25.3127L63.2824 42.3657L63.0955 54.9865L31.1083 36.4246Z" fill="url(#paint12_linear_3_3359)"/>
</g>
<defs>
<linearGradient id="paint0_linear_3_3359" x1="26.4166" y1="73.3389" x2="64.5536" y2="53.6228" gradientUnits="userSpaceOnUse">
<stop offset="0.01" stop-color="#4E60FD"/>
<stop offset="1" stop-color="#3447F8"/>
</linearGradient>
<linearGradient id="paint1_linear_3_3359" x1="7241.8" y1="8650.37" x2="6161.09" y2="-2551.3" gradientUnits="userSpaceOnUse">
<stop offset="0.01" stop-color="#4C5EFD"/>
<stop offset="1" stop-color="#2E41F7"/>
</linearGradient>
<linearGradient id="paint2_linear_3_3359" x1="35.0173" y1="36.6104" x2="76.964" y2="69.3973" gradientUnits="userSpaceOnUse">
<stop stop-color="#4C83FF"/>
<stop offset="1" stop-color="#2A87DF" stop-opacity="0"/>
</linearGradient>
<linearGradient id="paint3_linear_3_3359" x1="63.8271" y1="59.8771" x2="70.8209" y2="60.0572" gradientUnits="userSpaceOnUse">
<stop stop-color="#4C83FF"/>
<stop offset="1" stop-color="#2AFADF"/>
</linearGradient>
<linearGradient id="paint4_linear_3_3359" x1="1036.31" y1="826.494" x2="1142.71" y2="829.977" gradientUnits="userSpaceOnUse">
<stop stop-color="#4C83FF"/>
<stop offset="1" stop-color="#2AFADF"/>
</linearGradient>
<linearGradient id="paint5_linear_3_3359" x1="8.30609" y1="73.8248" x2="76.4685" y2="-13.0771" gradientUnits="userSpaceOnUse">
<stop offset="0.01" stop-color="#ABDCFF"/>
<stop offset="1" stop-color="#D6F4FF"/>
</linearGradient>
<linearGradient id="paint6_linear_3_3359" x1="42.3292" y1="42.895" x2="42.3292" y2="-0.0158242" gradientUnits="userSpaceOnUse">
<stop stop-color="#4C83FF"/>
<stop offset="0.53" stop-color="#2AFADF"/>
<stop offset="1" stop-color="white"/>
</linearGradient>
<linearGradient id="paint7_linear_3_3359" x1="1150.29" y1="1027.99" x2="1015.37" y2="1122.6" gradientUnits="userSpaceOnUse">
<stop stop-color="#4C83FF"/>
<stop offset="0.53" stop-color="#2AFADF"/>
<stop offset="1" stop-color="white"/>
</linearGradient>
<linearGradient id="paint8_linear_3_3359" x1="2493.61" y1="1050.9" x2="4572.53" y2="1050.9" gradientUnits="userSpaceOnUse">
<stop stop-color="#4C83FF"/>
<stop offset="1" stop-color="#2AFADF"/>
</linearGradient>
<linearGradient id="paint9_linear_3_3359" x1="48.4241" y1="36.0926" x2="48.4241" y2="15.6939" gradientUnits="userSpaceOnUse">
<stop stop-color="#FFD555"/>
<stop offset="1" stop-color="#FFBFDB"/>
</linearGradient>
<linearGradient id="paint10_linear_3_3359" x1="51.9427" y1="9.63451" x2="40.7984" y2="35.8807" gradientUnits="userSpaceOnUse">
<stop stop-color="white"/>
<stop offset="0.98" stop-color="white" stop-opacity="0"/>
</linearGradient>
<linearGradient id="paint11_linear_3_3359" x1="3655.35" y1="659.998" x2="3232.13" y2="1969.54" gradientUnits="userSpaceOnUse">
<stop stop-color="white"/>
<stop offset="0.98" stop-color="white" stop-opacity="0"/>
</linearGradient>
<linearGradient id="paint12_linear_3_3359" x1="43.0841" y1="47.6866" x2="49.2668" y2="35.8187" gradientUnits="userSpaceOnUse">
<stop stop-color="white"/>
<stop offset="1" stop-color="#CA87DF" stop-opacity="0"/>
</linearGradient>
<clipPath id="clip0_3_3359">
<rect width="71" height="85" fill="white"/>
</clipPath>
</defs>
</svg>
