<svg width="81" height="60" viewBox="0 0 81 60" fill="none" xmlns="http://www.w3.org/2000/svg">
<path d="M80.1227 20.7074V33.7949C80.1227 34.1498 79.8569 34.5047 79.4139 34.8153L38.2556 58.5947L37.3696 59.0827C36.3949 59.6594 34.8443 59.615 33.8696 59.0827L0.730344 39.8285C0.243003 39.5623 0.0214844 39.163 0.0214844 38.8081V25.7205L19.0278 24.5227L24.2113 24.2122L42.7303 13.4759C43.705 12.9436 45.2556 12.9436 46.2303 13.4759L60.7177 21.9052L80.1227 20.7074Z" fill="url(#paint0_linear_3_3325)"/>
<path d="M37.0595 39.9167H35.5088V59.5258C34.9329 59.5258 34.3126 59.3484 33.8696 59.1265L0.730344 39.828C0.243003 39.5618 0.0214844 39.1625 0.0214844 38.8076V25.7201L19.0278 24.5222L37.0595 39.9167Z" fill="url(#paint1_linear_3_3325)"/>
<path d="M0.731013 26.7407L33.8703 46.0393C34.8449 46.616 36.3956 46.616 37.3703 46.0393L79.4146 21.7275C80.3892 21.1508 80.3892 20.2635 79.4146 19.6868L46.231 0.432554C45.2563 -0.144185 43.7057 -0.144185 42.731 0.432554L0.731013 24.6999C-0.243671 25.2767 -0.243671 26.164 0.731013 26.7407Z" fill="url(#paint2_linear_3_3325)"/>
<path opacity="0.4" d="M55.7121 15.7384C55.6235 15.7828 55.5349 15.8715 55.4463 15.9159L29.6172 30.8667C28.3324 31.6209 26.2501 31.6653 24.8767 30.9554C24.8324 30.9111 24.7881 30.9111 24.6995 30.8667C23.3704 30.0682 23.3704 28.8259 24.6995 28.0274L50.5729 13.0765C51.9463 12.278 54.1172 12.3223 55.4463 13.0765C56.6868 13.7864 56.7754 14.9399 55.7121 15.7384Z" fill="url(#paint3_linear_3_3325)"/>
<path d="M55.7119 15.7382C55.6233 15.7826 55.5347 15.8713 55.4461 15.9157L29.617 30.8665C28.3322 31.6207 26.2499 31.6651 24.8765 30.9552C24.9651 30.9109 25.0537 30.8221 25.1423 30.7778L50.9714 15.8269C52.3005 15.0727 54.3385 15.0284 55.7119 15.7382Z" fill="url(#paint4_linear_3_3325)"/>
<path d="M4.49654 33.4841V33.8834C4.49654 34.5045 4.0535 34.7707 3.52186 34.4601L3.12312 34.2826C2.59147 33.9721 2.14844 33.2179 2.14844 32.5524V32.1531C2.14844 31.532 2.59147 31.2659 3.12312 31.5764L3.47755 31.7539C4.0535 32.1088 4.49654 32.863 4.49654 33.4841Z" fill="url(#paint5_linear_3_3325)"/>
<path d="M4.49654 38.4972V38.8965C4.49654 39.5176 4.0535 39.7838 3.52186 39.4732L3.12312 39.2514C2.59147 38.9408 2.14844 38.1866 2.14844 37.5212V37.1219C2.14844 36.5008 2.59147 36.2346 3.12312 36.5452L3.47755 36.7226C4.0535 37.0775 4.49654 37.8761 4.49654 38.4972Z" fill="url(#paint6_linear_3_3325)"/>
<path opacity="0.7" d="M51.5471 17.0245C51.5471 17.4238 51.237 17.7344 50.8383 17.7344C50.4395 17.7344 50.1294 17.4238 50.1294 17.0245C50.1294 16.6253 50.4395 16.3147 50.8383 16.3147C51.1927 16.3147 51.5471 16.6253 51.5471 17.0245Z" fill="url(#paint7_linear_3_3325)"/>
<path opacity="0.7" d="M30.7688 10.5916C30.7688 10.9466 30.503 11.2128 30.1486 11.2128C29.7941 11.2128 29.5283 10.9466 29.5283 10.5916C29.5283 10.2367 29.7941 9.97055 30.1486 9.97055C30.4587 9.92618 30.7688 10.2367 30.7688 10.5916Z" fill="url(#paint8_linear_3_3325)"/>
<path opacity="0.4" d="M43.7053 13.7865C43.7053 14.1858 43.3952 14.4963 42.9965 14.4963C42.5977 14.4963 42.2876 14.1858 42.2876 13.7865C42.2876 13.3872 42.5977 13.0767 42.9965 13.0767C43.3952 13.0767 43.7053 13.3872 43.7053 13.7865Z" fill="url(#paint9_linear_3_3325)"/>
<path opacity="0.7" d="M33.9143 22.7036C33.9143 23.1029 33.6042 23.4134 33.2054 23.4134C32.8067 23.4134 32.4966 23.1029 32.4966 22.7036C32.4966 22.3043 32.8067 21.9938 33.2054 21.9938C33.6042 21.9494 33.9143 22.3043 33.9143 22.7036Z" fill="url(#paint10_linear_3_3325)"/>
<defs>
<linearGradient id="paint0_linear_3_3325" x1="46.5" y1="66.9995" x2="92.0561" y2="15.5492" gradientUnits="userSpaceOnUse">
<stop offset="0.00537634" stop-color="#4B5EFD"/>
<stop offset="1" stop-color="#182DF3"/>
</linearGradient>
<linearGradient id="paint1_linear_3_3325" x1="-10" y1="37.4998" x2="64.0278" y2="61.9155" gradientUnits="userSpaceOnUse">
<stop stop-color="#4D60FD"/>
<stop offset="1" stop-color="#005BEA"/>
</linearGradient>
<linearGradient id="paint2_linear_3_3325" x1="93" y1="20.5" x2="-4" y2="23" gradientUnits="userSpaceOnUse">
<stop offset="0.00537634" stop-color="#596AFF"/>
<stop offset="1" stop-color="#182DF2"/>
</linearGradient>
<linearGradient id="paint3_linear_3_3325" x1="23.686" y1="21.9625" x2="56.446" y2="21.9625" gradientUnits="userSpaceOnUse">
<stop stop-color="#200E40"/>
<stop offset="1" stop-color="#1F0C42"/>
</linearGradient>
<linearGradient id="paint4_linear_3_3325" x1="24.8536" y1="23.3342" x2="55.7007" y2="23.3342" gradientUnits="userSpaceOnUse">
<stop stop-color="#4C82FF"/>
<stop offset="1" stop-color="#2AF9DE"/>
</linearGradient>
<linearGradient id="paint5_linear_3_3325" x1="0.177006" y1="33.0156" x2="2.49999" y2="33.0156" gradientUnits="userSpaceOnUse">
<stop stop-color="#200E40"/>
<stop offset="1" stop-color="#1F0C42"/>
</linearGradient>
<linearGradient id="paint6_linear_3_3325" x1="2.15805" y1="38.0189" x2="4.48219" y2="38.0189" gradientUnits="userSpaceOnUse">
<stop stop-color="#4C82FF"/>
<stop offset="1" stop-color="#2AF9DE"/>
</linearGradient>
<linearGradient id="paint7_linear_3_3325" x1="50.8084" y1="21.0082" x2="50.8084" y2="14.7883" gradientUnits="userSpaceOnUse">
<stop stop-color="#4C83FF"/>
<stop offset="0.4104" stop-color="#2AFADF"/>
<stop offset="1" stop-color="white" stop-opacity="0"/>
</linearGradient>
<linearGradient id="paint8_linear_3_3325" x1="30.1293" y1="14.0171" x2="30.1293" y2="8.64365" gradientUnits="userSpaceOnUse">
<stop stop-color="#4C83FF"/>
<stop offset="0.4104" stop-color="#2AFADF"/>
<stop offset="1" stop-color="white" stop-opacity="0"/>
</linearGradient>
<linearGradient id="paint9_linear_3_3325" x1="42.9927" y1="17.7807" x2="42.9927" y2="11.5657" gradientUnits="userSpaceOnUse">
<stop stop-color="#4C83FF"/>
<stop offset="0.4104" stop-color="#2AFADF"/>
<stop offset="1" stop-color="white" stop-opacity="0"/>
</linearGradient>
<linearGradient id="paint10_linear_3_3325" x1="33.1848" y1="26.6704" x2="33.1848" y2="20.4531" gradientUnits="userSpaceOnUse">
<stop stop-color="#4C83FF"/>
<stop offset="0.4104" stop-color="#2AFADF"/>
<stop offset="1" stop-color="white" stop-opacity="0"/>
</linearGradient>
</defs>
</svg>
