<svg width="16" height="12" viewBox="0 0 16 12" fill="none" xmlns="http://www.w3.org/2000/svg">
<path d="M1 5.25C0.585786 5.25 0.25 5.58579 0.25 6C0.25 6.41421 0.585786 6.75 1 6.75V5.25ZM15.5303 6.53033C15.8232 6.23744 15.8232 5.76256 15.5303 5.46967L10.7574 0.696699C10.4645 0.403806 9.98959 0.403806 9.6967 0.696699C9.40381 0.989592 9.40381 1.46447 9.6967 1.75736L13.9393 6L9.6967 10.2426C9.40381 10.5355 9.40381 11.0104 9.6967 11.3033C9.98959 11.5962 10.4645 11.5962 10.7574 11.3033L15.5303 6.53033ZM1 6.75H15V5.25H1V6.75Z" fill="#2685E3"/>
</svg>
