<svg width="26" height="36" viewBox="0 0 26 36" fill="none" xmlns="http://www.w3.org/2000/svg">
<path fill-rule="evenodd" clip-rule="evenodd" d="M15.716 6.99246C14.984 5.54497 12.7881 3.18452 8.20977 1.8583C10.4759 1.76986 14.0561 2.48851 17.3048 5.55722L15.716 6.99246ZM17.8977 5.15485C13.7946 1.20426 9.11906 0.844285 6.88242 1.30929C6.63974 1.35975 6.49406 1.56784 6.50299 1.78746C6.51152 1.99739 6.65868 2.18609 6.88354 2.23783C12.4002 3.50728 14.6579 6.25307 15.1877 7.51716C15.2042 7.55658 15.2254 7.59283 15.2502 7.62555L1.29671 20.6476C0.731125 21.1754 0.700518 22.0618 1.22835 22.6274L2.17884 23.6459C2.70667 24.2115 3.59306 24.2421 4.15865 23.7143L18.3803 10.4419C18.4222 10.4927 18.4745 10.5359 18.536 10.5675C19.7466 11.1911 22.2194 13.6352 23.0718 19.2269C23.1069 19.4569 23.2859 19.616 23.4928 19.6403C23.7083 19.6657 23.9284 19.5403 23.9996 19.3017C24.6536 17.1094 24.7827 12.44 21.0905 8.03341C21.0662 8.00437 21.0391 7.97884 21.01 7.95688C21.4066 7.42434 21.3786 6.66829 20.9095 6.16562L19.959 5.14715C19.4312 4.58156 18.5448 4.55095 17.9792 5.07878L17.8977 5.15485ZM16.2066 7.69102L18.457 5.59083C18.7398 5.32691 19.183 5.34221 19.447 5.62501L20.3974 6.64349C20.6614 6.92628 20.6461 7.36948 20.3633 7.63339L18.2859 9.57209L16.6521 9.02751L16.2066 7.69102ZM15.6796 8.1829L1.77458 21.1596C1.49178 21.4236 1.47648 21.8668 1.74039 22.1496L2.69088 23.168C2.9548 23.4508 3.398 23.4661 3.68079 23.2022L17.7403 10.0813L16.2893 9.59759L16.1339 9.54577L16.082 9.39029L15.6796 8.1829ZM23.5634 17.9939C22.6043 13.3104 20.4877 10.9334 19.1051 10.0853L20.6925 8.65133C23.5338 12.1432 23.8765 15.7593 23.5634 17.9939Z" fill="#F0F0F3"/>
<path d="M14.2643 9.2886L15.6834 9.99813L16.3929 11.4172" stroke="#F0F0F3" stroke-width="0.655556"/>
<path d="M12.8453 9.99796L14.2644 11.417L15.6834 12.8361" stroke="#F0F0F3" stroke-width="0.655556"/>
<path d="M15.1695 24.287H17.4818C17.8498 24.287 18.2027 24.4332 18.4629 24.6933C18.7231 24.9535 18.8692 25.3064 18.8692 25.6744C18.8692 26.0423 18.7231 26.3952 18.4629 26.6554C18.2027 26.9156 17.8498 27.0618 17.4818 27.0618H15.1695V24.287ZM15.1695 24.287V27.0618V24.287ZM15.1695 24.287H14.4758H15.1695ZM15.1695 24.287V23.5933V24.287ZM15.1695 27.0618H17.9443C18.3123 27.0618 18.6651 27.2079 18.9253 27.4681C19.1855 27.7283 19.3317 28.0812 19.3317 28.4491C19.3317 28.8171 19.1855 29.17 18.9253 29.4302C18.6651 29.6904 18.3123 29.8365 17.9443 29.8365H15.1695V27.0618ZM15.1695 27.0618V29.8365V27.0618ZM15.1695 27.0618H14.4758H15.1695ZM15.1695 29.8365H14.4758H15.1695ZM15.1695 29.8365V30.5302V29.8365ZM17.0194 23.5933V24.287V23.5933ZM17.0194 29.8365V30.5302V29.8365Z" fill="#0017EF" fill-opacity="0.1"/>
<path d="M17.0194 29.8365V30.5302M15.1695 24.287H17.4818C17.8498 24.287 18.2027 24.4332 18.4629 24.6933C18.7231 24.9535 18.8692 25.3064 18.8692 25.6744C18.8692 26.0423 18.7231 26.3952 18.4629 26.6554C18.2027 26.9156 17.8498 27.0618 17.4818 27.0618H15.1695V24.287ZM15.1695 24.287V27.0618V24.287ZM15.1695 24.287H14.4758H15.1695ZM15.1695 24.287V23.5933V24.287ZM15.1695 27.0618H17.9443C18.3123 27.0618 18.6651 27.2079 18.9253 27.4681C19.1855 27.7283 19.3317 28.0812 19.3317 28.4491C19.3317 28.8171 19.1855 29.17 18.9253 29.4302C18.6651 29.6904 18.3123 29.8365 17.9443 29.8365H15.1695V27.0618ZM15.1695 27.0618V29.8365V27.0618ZM15.1695 27.0618H14.4758H15.1695ZM15.1695 29.8365H14.4758H15.1695ZM15.1695 29.8365V30.5302V29.8365ZM17.0194 23.5933V24.287V23.5933Z" stroke="white" stroke-width="0.746325"/>
<path d="M24.8131 27.0926C24.8131 31.3562 21.3567 34.8126 17.0931 34.8126C12.8296 34.8126 9.37322 31.3562 9.37322 27.0926C9.37322 22.829 12.8296 19.3727 17.0931 19.3727C21.3567 19.3727 24.8131 22.829 24.8131 27.0926Z" fill="white" fill-opacity="0.3" stroke="#F0F0F3" stroke-width="0.746325"/>
</svg>
