<svg width="36" height="30" viewBox="0 0 36 30" fill="none" xmlns="http://www.w3.org/2000/svg">
<rect x="11.6989" y="8.44923" width="12.9144" height="13.6356" fill="#F0F0F3" fill-opacity="0.3" stroke="#F0F0F3" stroke-width="0.786667"/>
<path d="M19.6003 19.933C19.467 20.1531 19.2253 20.3001 18.9493 20.3001H18.3724C18.0964 20.3001 17.8547 20.1531 17.7215 19.933H19.6003Z" stroke="#F0F0F3" stroke-width="0.576891"/>
<mask id="path-3-inside-1_1_2059" fill="white">
<path fill-rule="evenodd" clip-rule="evenodd" d="M20.4144 16.8266C21.4395 16.1781 22.1222 15.0199 22.1222 13.699C22.1222 11.6679 20.5079 10.0213 18.5166 10.0213C16.5253 10.0213 14.9111 11.6679 14.9111 13.699C14.9111 15.1167 15.6975 16.347 16.8496 16.9609L17.2186 19.3959H20.103L20.4144 16.8266Z"/>
</mask>
<path d="M20.4144 16.8266L19.9939 16.1618L19.6784 16.3614L19.6335 16.732L20.4144 16.8266ZM16.8496 16.9609L17.6274 16.843L17.5682 16.4524L17.2195 16.2666L16.8496 16.9609ZM17.2186 19.3959L16.4408 19.5138L16.5421 20.1826H17.2186V19.3959ZM20.103 19.3959V20.1826H20.8001L20.884 19.4906L20.103 19.3959ZM21.3355 13.699C21.3355 14.7437 20.7965 15.654 19.9939 16.1618L20.835 17.4914C22.0825 16.7022 22.9089 15.296 22.9089 13.699H21.3355ZM18.5166 10.808C20.0589 10.808 21.3355 12.0876 21.3355 13.699H22.9089C22.9089 11.2482 20.957 9.23467 18.5166 9.23467V10.808ZM15.6977 13.699C15.6977 12.0876 16.9744 10.808 18.5166 10.808V9.23467C16.0763 9.23467 14.1244 11.2482 14.1244 13.699H15.6977ZM17.2195 16.2666C16.3189 15.7867 15.6977 14.8204 15.6977 13.699H14.1244C14.1244 15.413 15.0761 16.9073 16.4797 17.6551L17.2195 16.2666ZM17.9963 19.2781L17.6274 16.843L16.0718 17.0787L16.4408 19.5138L17.9963 19.2781ZM20.103 18.6093H17.2186V20.1826H20.103V18.6093ZM19.6335 16.732L19.3221 19.3013L20.884 19.4906L21.1954 16.9213L19.6335 16.732Z" fill="#F0F0F3" mask="url(#path-3-inside-1_1_2059)"/>
<path d="M18.1158 18.8361V13.2274" stroke="#F0F0F3" stroke-width="0.786667" stroke-linecap="round"/>
<path d="M18.9172 18.8344V15.6294" stroke="#F0F0F3" stroke-width="0.786667" stroke-linecap="round"/>
<path d="M25.0066 10.9405H30.7755V4.45052" stroke="#F0F0F3" stroke-width="0.786667" stroke-linecap="round"/>
<path d="M25.0066 13.825H34.381V11.6616" stroke="#F0F0F3" stroke-width="0.786667" stroke-linecap="round"/>
<path d="M25.0066 16.7114H34.381V21.0381" stroke="#F0F0F3" stroke-width="0.786667" stroke-linecap="round"/>
<path d="M25.0066 19.5949H31.136V24.6426H27.891V26.806" stroke="#F0F0F3" stroke-width="0.786667" stroke-linecap="round"/>
<circle cx="30.7755" cy="3.00932" r="1.04889" stroke="#F0F0F3" stroke-width="0.786667"/>
<circle cx="34.3811" cy="10.2204" r="1.04889" stroke="#F0F0F3" stroke-width="0.786667"/>
<circle cx="34.3811" cy="22.4788" r="1.04889" stroke="#F0F0F3" stroke-width="0.786667"/>
<circle cx="27.8911" cy="28.2482" r="1.04889" stroke="#F0F0F3" stroke-width="0.786667"/>
<path d="M11.3055 19.5936H5.53665V26.0836" stroke="#F0F0F3" stroke-width="0.786667" stroke-linecap="round"/>
<path d="M11.3055 16.7092H1.9311V18.8725" stroke="#F0F0F3" stroke-width="0.786667" stroke-linecap="round"/>
<path d="M11.3055 13.8227H1.9311V9.49603" stroke="#F0F0F3" stroke-width="0.786667" stroke-linecap="round"/>
<path d="M11.3055 10.9393H5.1761V5.89149H8.4211V3.72816" stroke="#F0F0F3" stroke-width="0.786667" stroke-linecap="round"/>
<circle cx="5.5366" cy="27.5248" r="1.04889" transform="rotate(180 5.5366 27.5248)" stroke="#F0F0F3" stroke-width="0.786667"/>
<circle cx="1.93107" cy="20.3137" r="1.04889" transform="rotate(180 1.93107 20.3137)" stroke="#F0F0F3" stroke-width="0.786667"/>
<circle cx="1.93107" cy="8.05534" r="1.04889" transform="rotate(180 1.93107 8.05534)" stroke="#F0F0F3" stroke-width="0.786667"/>
<circle cx="8.42112" cy="2.28593" r="1.04889" transform="rotate(180 8.42112 2.28593)" stroke="#F0F0F3" stroke-width="0.786667"/>
</svg>
