<svg width="32" height="32" viewBox="0 0 32 32" fill="none" xmlns="http://www.w3.org/2000/svg">
<path d="M9.28029 4.06011L9.0121 3.59688C7.92511 1.71935 5.4428 0.986796 3.88026 2.49184C-6.33835 12.3344 15.7537 28.7286 22.225 30.1666C26.3071 31.0738 28.7086 28.7297 29.9113 26.3881C30.6342 24.9807 29.9472 23.3561 28.6546 22.4437L26.9221 21.2208C25.3315 20.098 23.1636 20.2836 21.7869 21.6602L21.0583 22.3888C17.5583 25.1111 8.61388 16.1666 7.8361 13.0555C7.59427 12.0882 7.85371 11.1679 8.34503 10.3584C9.51201 8.43591 10.4071 6.00646 9.28029 4.06011Z" stroke="white" stroke-width="2"/>
<circle cx="18.5" cy="12.5" r="4.5" fill="white" fill-opacity="0.5" stroke="white" stroke-width="2"/>
</svg>
