<svg width="31" height="20" viewBox="0 0 31 20" fill="none" xmlns="http://www.w3.org/2000/svg">
<path d="M0.5 3.11467V1C0.5 0.723858 0.723858 0.5 1 0.5H29.4C29.6761 0.5 29.9 0.723857 29.9 0.999999V3.11467C29.9 3.30525 29.7917 3.47925 29.6206 3.56335L15.4206 10.5462C15.2815 10.6146 15.1185 10.6146 14.9794 10.5462L0.77936 3.56335C0.60834 3.47925 0.5 3.30525 0.5 3.11467ZM0.5 19V7.01119C0.5 6.63864 0.892806 6.39694 1.22537 6.56486L14.5239 13.2798C14.9491 13.4945 15.4509 13.4945 15.8761 13.2798L29.1746 6.56486C29.5072 6.39694 29.9 6.63864 29.9 7.01119V19C29.9 19.2761 29.6761 19.5 29.4 19.5H1C0.723858 19.5 0.5 19.2761 0.5 19Z" stroke="white"/>
</svg>
