<svg width="25" height="21" viewBox="0 0 25 21" fill="none" xmlns="http://www.w3.org/2000/svg">
<path d="M22.1251 1.85792C21.5445 1.27728 20.8551 0.816745 20.0964 0.502646C19.3377 0.188546 18.5245 0.0270358 17.7034 0.0273442C16.8822 0.0276525 16.0692 0.189774 15.3107 0.504443C14.5522 0.819112 13.8632 1.28016 13.283 1.86124L12.5256 2.62784L11.7745 1.8629L11.7697 1.85802C11.1893 1.27765 10.5003 0.81727 9.74201 0.503176C8.98372 0.189081 8.17099 0.0274181 7.35023 0.0274181C6.52946 0.0274181 5.71673 0.189081 4.95845 0.503176C4.20016 0.81727 3.51116 1.27765 2.93079 1.85802L2.59339 2.19542C1.42129 3.36752 0.762817 4.95723 0.762817 6.61483C0.762817 8.27243 1.42129 9.86214 2.59339 11.0342L11.4983 19.9391L12.5039 20.9927L12.5279 20.9687L12.5539 20.9947L13.4961 20.0006L22.4625 11.0341C23.6329 9.86106 24.2901 8.2717 24.2901 6.61468C24.2901 4.95767 23.6329 3.36831 22.4625 2.19527L22.1251 1.85792ZM21.3575 9.92926L12.5279 18.759L3.69818 9.92926C2.81911 9.05018 2.32525 7.8579 2.32525 6.61471C2.32525 5.37151 2.81911 4.17923 3.69818 3.30016L4.03563 2.96275C4.91427 2.08412 6.10583 1.5903 7.34842 1.58983C8.591 1.58936 9.78293 2.08229 10.6622 2.96026L12.5222 4.85416L14.3911 2.96275C14.8264 2.52748 15.3431 2.18219 15.9118 1.94662C16.4806 1.71105 17.0901 1.5898 17.7057 1.5898C18.3212 1.5898 18.9308 1.71105 19.4995 1.94662C20.0682 2.18219 20.585 2.52748 21.0202 2.96275L21.3576 3.30011C22.2354 4.17991 22.7283 5.37195 22.7283 6.61472C22.7282 7.8575 22.2352 9.04951 21.3575 9.92926Z" fill="white"/>
</svg>
