<svg width="25" height="25" viewBox="0 0 25 25" fill="none" xmlns="http://www.w3.org/2000/svg">
<g clip-path="url(#clip0_1_3206)">
<path d="M4.90254 0.00628662C2.20961 0.00628662 0.00561523 2.21024 0.00561523 4.90321V20.0992C0.00561523 22.7922 2.20956 24.9954 4.90254 24.9954H20.0986C22.7915 24.9954 24.9947 22.7922 24.9947 20.0992V4.90321C24.9947 2.21029 22.7915 0.00628662 20.0986 0.00628662H4.90254ZM6.13419 4.12999C7.42539 4.12999 8.22071 4.97764 8.24527 6.09186C8.24527 7.18149 7.42534 8.05296 6.10921 8.05296H6.08499C4.81837 8.05296 3.99969 7.18154 3.99969 6.09186C3.99969 4.97766 4.84314 4.12999 6.13416 4.12999H6.13419ZM17.2612 9.33774C19.7444 9.33774 21.6059 10.9608 21.6059 14.4486V20.9599H17.8321V14.8852C17.8321 13.3587 17.2859 12.3172 15.9202 12.3172C14.8776 12.3172 14.2562 13.0192 13.9833 13.6973C13.8836 13.9399 13.8591 14.2787 13.8591 14.6181V20.9599H10.0853C10.0853 20.9599 10.1348 10.6695 10.0853 9.60404H13.8599V11.2121C14.3614 10.4384 15.2585 9.33771 17.2612 9.33771V9.33774ZM4.22229 9.60486H7.99611V20.9599H4.22229V9.60486Z" fill="white"/>
</g>
<defs>
<clipPath id="clip0_1_3206">
<rect width="25" height="25" fill="white"/>
</clipPath>
</defs>
</svg>
