<svg width="13" height="12" viewBox="0 0 13 12" fill="none" xmlns="http://www.w3.org/2000/svg">
<path d="M12.0378 11.7623V11.7618H12.0406V7.62851C12.0406 5.60646 11.6031 4.04883 9.22746 4.04883C8.08541 4.04883 7.319 4.67244 7.00611 5.26366H6.97308V4.2376H4.72058V11.7618H7.06605V8.03612C7.06605 7.05514 7.25293 6.10657 8.4738 6.10657C9.67674 6.10657 9.69467 7.22607 9.69467 8.09904V11.7623H12.0378Z" fill="white"/>
<path d="M0.901062 4.25122H3.24936V11.7755H0.901062V4.25122Z" fill="white"/>
<path d="M2.0814 0.504883C1.33057 0.504883 0.721313 1.11112 0.721313 1.85824C0.721313 2.60536 1.33057 3.22428 2.0814 3.22428C2.83223 3.22428 3.44149 2.60536 3.44149 1.85824C3.44102 1.11112 2.83176 0.504883 2.0814 0.504883V0.504883Z" fill="white"/>
</svg>
