<svg width="28" height="28" viewBox="0 0 28 28" fill="none" xmlns="http://www.w3.org/2000/svg">
<path d="M9.53596 25.7544L9.36217 24.7697L9.53596 25.7544ZM10.0247 25.7875L9.72963 26.7429L10.0247 25.7875ZM3.21588 25.0052L3.90125 25.7334L3.21588 25.0052ZM4.49541 22.3145L3.76386 22.9963L4.49541 22.3145ZM25.4445 13.6749C25.4445 20.1228 20.2175 25.3498 13.7696 25.3498V27.3498C21.3221 27.3498 27.4445 21.2273 27.4445 13.6749H25.4445ZM13.7696 2C20.2175 2 25.4445 7.22703 25.4445 13.6749H27.4445C27.4445 6.12246 21.3221 0 13.7696 0V2ZM2.09473 13.6749C2.09473 7.22703 7.32176 2 13.7696 2V0C6.21719 0 0.0947266 6.12246 0.0947266 13.6749H2.09473ZM5.22696 21.6327C3.28281 19.5467 2.09473 16.7507 2.09473 13.6749H0.0947266C0.0947266 17.2765 1.48834 20.5547 3.76386 22.9963L5.22696 21.6327ZM3.90125 25.7334L5.16326 24.5456L3.79254 23.0892L2.53052 24.277L3.90125 25.7334ZM9.36217 24.7697L3.90125 25.7334L4.24882 27.7029L9.70975 26.7392L9.36217 24.7697ZM13.7696 25.3498C12.5671 25.3498 11.4089 25.1683 10.3198 24.832L9.72963 26.7429C11.0077 27.1376 12.3648 27.3498 13.7696 27.3498V25.3498ZM9.70975 26.7392C9.7065 26.7398 9.71321 26.7379 9.72963 26.7429L10.3198 24.832C10.0197 24.7393 9.69158 24.7115 9.36217 24.7697L9.70975 26.7392ZM2.53052 24.277C1.08384 25.6385 2.29239 28.0482 4.24882 27.7029L3.90125 25.7334H3.90125L2.53052 24.277ZM3.76386 22.9963C3.78593 23.02 3.79544 23.0491 3.79535 23.0724C3.79531 23.0829 3.79331 23.0882 3.79301 23.0889C3.79288 23.0892 3.79296 23.089 3.7933 23.0885C3.79369 23.0879 3.79366 23.0881 3.79254 23.0892L5.16326 24.5456C6.02846 23.7313 5.96237 22.4218 5.22696 21.6327L3.76386 22.9963Z" fill="white"/>
<circle cx="9.3329" cy="13.9999" r="1.55556" fill="white"/>
<circle cx="13.9999" cy="13.9999" r="1.55556" fill="white"/>
<circle cx="18.6669" cy="13.9999" r="1.55556" fill="white"/>
</svg>
