<svg width="194" height="41" viewBox="0 0 194 41" fill="none" xmlns="http://www.w3.org/2000/svg">
<path d="M52.8271 14.7146H57.1631V16.1794C58.2471 15.5154 59.3018 15.0564 60.3271 14.8025C61.3623 14.5388 62.373 14.407 63.3594 14.407C64.7363 14.407 66.001 14.6267 67.1533 15.0662C68.3057 15.5056 69.292 16.1697 70.1123 17.0583C70.7471 16.5701 71.3721 16.1599 71.9873 15.8279C72.6025 15.4861 73.2178 15.2126 73.833 15.0076C74.4482 14.7927 75.0732 14.6414 75.708 14.5535C76.3428 14.4558 76.9971 14.407 77.6709 14.407C79.0869 14.407 80.3711 14.6023 81.5234 14.9929C82.6758 15.3738 83.6572 15.9451 84.4678 16.7068C85.2881 17.4685 85.918 18.4207 86.3574 19.5632C86.8066 20.696 87.0312 22.0095 87.0312 23.5037V31.9998H82.71V24.2068C82.71 23.2595 82.5732 22.4148 82.2998 21.6726C82.0361 20.9207 81.6602 20.2908 81.1719 19.783C80.6934 19.2654 80.1172 18.8748 79.4434 18.6111C78.7793 18.3376 78.0469 18.2009 77.2461 18.2009C76.8066 18.2009 76.3574 18.2449 75.8984 18.3328C75.4395 18.4109 74.9902 18.5378 74.5508 18.7136C74.1211 18.8894 73.7158 19.114 73.335 19.3875C72.9541 19.6511 72.6221 19.9636 72.3389 20.325V31.9998H68.0176V24.2068C68.0176 23.2595 67.8809 22.4148 67.6074 21.6726C67.3438 20.9207 66.9678 20.2908 66.4795 19.783C66.001 19.2654 65.4199 18.8748 64.7363 18.6111C64.0625 18.3376 63.3203 18.2009 62.5098 18.2009C62.0117 18.2009 61.5088 18.2546 61.001 18.3621C60.5029 18.4597 60.0195 18.6013 59.5508 18.7869C59.0918 18.9724 58.6572 19.197 58.2471 19.4607C57.8467 19.7244 57.4854 20.0222 57.1631 20.3542V31.9998H52.8271V14.7146ZM94.7803 12.3562C94.3506 12.3562 93.96 12.2976 93.6084 12.1804C93.2666 12.0535 92.9736 11.8875 92.7295 11.6824C92.4854 11.4675 92.2949 11.2234 92.1582 10.95C92.0312 10.6667 91.9678 10.3689 91.9678 10.0564C91.9678 9.73413 92.0312 9.43628 92.1582 9.16284C92.2949 8.87964 92.4854 8.6355 92.7295 8.43042C92.9736 8.22534 93.2666 8.06421 93.6084 7.94702C93.96 7.82007 94.3506 7.75659 94.7803 7.75659C95.2197 7.75659 95.6104 7.82007 95.9521 7.94702C96.3037 8.06421 96.6016 8.22534 96.8457 8.43042C97.0898 8.6355 97.2754 8.87964 97.4023 9.16284C97.5391 9.43628 97.6074 9.73413 97.6074 10.0564C97.6074 10.3689 97.5391 10.6667 97.4023 10.95C97.2754 11.2234 97.0898 11.4675 96.8457 11.6824C96.6016 11.8875 96.3037 12.0535 95.9521 12.1804C95.6104 12.2976 95.2197 12.3562 94.7803 12.3562ZM92.6123 14.7146H96.9482V31.9998H92.6123V14.7146ZM102.515 14.7146H106.851V16.1794C108.003 15.5251 109.102 15.0662 110.146 14.8025C111.201 14.5388 112.231 14.407 113.237 14.407C114.556 14.407 115.776 14.6023 116.899 14.9929C118.022 15.3738 118.994 15.9451 119.814 16.7068C120.635 17.4685 121.274 18.4207 121.733 19.5632C122.202 20.696 122.437 22.0095 122.437 23.5037V31.9998H118.115V24.2068C118.115 23.2595 117.979 22.4148 117.705 21.6726C117.441 20.9207 117.056 20.2908 116.548 19.783C116.05 19.2654 115.439 18.8748 114.717 18.6111C114.004 18.3376 113.203 18.2009 112.314 18.2009C111.846 18.2009 111.362 18.2498 110.864 18.3474C110.376 18.4451 109.893 18.5867 109.414 18.7722C108.945 18.948 108.491 19.1726 108.052 19.446C107.612 19.7097 107.212 20.0125 106.851 20.3542V31.9998H102.515V14.7146ZM126.948 23.2986C126.948 22.1267 127.188 21.0085 127.666 19.9441C128.145 18.8699 128.833 17.9226 129.731 17.1023C130.63 16.282 131.729 15.6277 133.027 15.1394C134.336 14.6511 135.82 14.407 137.48 14.407C139.131 14.407 140.615 14.656 141.934 15.1541C143.262 15.6423 144.385 16.3162 145.303 17.1755C146.23 18.0349 146.938 19.0457 147.427 20.2078C147.925 21.3699 148.174 22.615 148.174 23.9431C148.174 24.1091 148.169 24.2898 148.159 24.4851C148.159 24.6707 148.149 24.8416 148.13 24.9978H131.782C131.968 25.5154 132.266 25.989 132.676 26.4187C133.096 26.8484 133.618 27.2195 134.243 27.532C134.868 27.8445 135.591 28.0886 136.411 28.2644C137.231 28.4304 138.14 28.5134 139.136 28.5134C140.132 28.5134 141.123 28.4109 142.109 28.2058C143.096 27.991 144.038 27.7224 144.937 27.4001L146.401 30.7107C145.835 30.9744 145.259 31.2087 144.673 31.4138C144.097 31.6091 143.491 31.7751 142.856 31.9119C142.231 32.0388 141.572 32.1365 140.879 32.2048C140.195 32.2732 139.473 32.3074 138.711 32.3074C136.768 32.3074 135.063 32.073 133.599 31.6042C132.134 31.1355 130.908 30.4958 129.922 29.6853C128.936 28.8748 128.193 27.9226 127.695 26.8289C127.197 25.7351 126.948 24.5583 126.948 23.2986ZM143.574 21.614C143.418 21.1355 143.174 20.6912 142.842 20.281C142.52 19.8611 142.114 19.4998 141.626 19.197C141.138 18.8845 140.571 18.6404 139.927 18.4646C139.282 18.2888 138.574 18.2009 137.803 18.2009C136.982 18.2009 136.235 18.2937 135.562 18.4792C134.888 18.6648 134.297 18.9138 133.789 19.2263C133.281 19.5388 132.856 19.9001 132.515 20.3103C132.183 20.7205 131.938 21.155 131.782 21.614H143.574ZM154.912 34.1677C155.361 34.4607 155.85 34.7195 156.377 34.9441C156.904 35.1687 157.451 35.3542 158.018 35.5007C158.594 35.6472 159.18 35.7546 159.775 35.823C160.371 35.9011 160.962 35.9402 161.548 35.9402C163.54 35.9402 165.073 35.5105 166.147 34.6511C167.231 33.8015 167.773 32.5222 167.773 30.8132V30.2273C167.393 30.491 166.963 30.7351 166.484 30.9597C166.016 31.1746 165.508 31.3601 164.961 31.5164C164.424 31.6726 163.853 31.7947 163.247 31.8826C162.651 31.9607 162.046 31.9998 161.431 31.9998C160.112 31.9998 158.931 31.8093 157.886 31.4285C156.851 31.0378 155.972 30.4714 155.249 29.7292C154.536 28.9773 153.989 28.0544 153.608 26.9607C153.228 25.8669 153.037 24.6169 153.037 23.2107V14.7146H157.358V22.0095C157.358 24.0994 157.754 25.6423 158.545 26.6384C159.346 27.6248 160.605 28.1179 162.324 28.1179C163.535 28.1179 164.604 27.908 165.532 27.488C166.47 27.0583 167.217 26.5115 167.773 25.8474V14.7146H172.109V30.0222C172.109 31.6726 171.875 33.1033 171.406 34.3142C170.938 35.5349 170.254 36.5457 169.355 37.3464C168.467 38.1472 167.373 38.7429 166.074 39.1335C164.775 39.5339 163.301 39.7341 161.65 39.7341C160.039 39.7341 158.535 39.5632 157.139 39.2214C155.742 38.8796 154.463 38.4158 153.301 37.8298L154.912 34.1677Z" fill="white"/>
<path d="M189.5 14.9355L185 22.5506H192.5L188 30.1656" stroke="#00FF47" stroke-width="3" stroke-miterlimit="10" stroke-linecap="round" stroke-linejoin="round"/>
<g filter="url(#filter0_i_1_1240)">
<circle cx="20.8691" cy="20.3572" r="20" fill="url(#paint0_linear_1_1240)"/>
</g>
<path d="M40.8691 20.3572C40.8691 31.4029 37.8945 9.85718 20.8691 9.85718C3.84383 9.85718 0.869141 31.4029 0.869141 20.3572C0.869141 9.31148 9.82345 0.357178 20.8691 0.357178C31.9148 0.357178 40.8691 9.31148 40.8691 20.3572Z" fill="url(#paint1_radial_1_1240)"/>
<g filter="url(#filter1_b_1_1240)">
<ellipse cx="20.8691" cy="23.8572" rx="17" ry="13.5" fill="#141414"/>
<path d="M37.3691 23.8572C37.3691 30.9355 30.0955 36.8572 20.8691 36.8572C11.6428 36.8572 4.36914 30.9355 4.36914 23.8572C4.36914 16.7788 11.6428 10.8572 20.8691 10.8572C30.0955 10.8572 37.3691 16.7788 37.3691 23.8572Z" stroke="url(#paint2_linear_1_1240)"/>
</g>
<g filter="url(#filter2_d_1_1240)">
<rect x="10.8691" y="19.0078" width="5" height="9" rx="2.5" fill="url(#paint3_linear_1_1240)"/>
</g>
<g filter="url(#filter3_d_1_1240)">
<rect x="25.1852" y="19.0078" width="5" height="9" rx="2.5" fill="url(#paint4_linear_1_1240)"/>
</g>
<defs>
<filter id="filter0_i_1_1240" x="0.869141" y="0.357178" width="40" height="42" filterUnits="userSpaceOnUse" color-interpolation-filters="sRGB">
<feFlood flood-opacity="0" result="BackgroundImageFix"/>
<feBlend mode="normal" in="SourceGraphic" in2="BackgroundImageFix" result="shape"/>
<feColorMatrix in="SourceAlpha" type="matrix" values="0 0 0 0 0 0 0 0 0 0 0 0 0 0 0 0 0 0 127 0" result="hardAlpha"/>
<feOffset dy="2"/>
<feGaussianBlur stdDeviation="2.5"/>
<feComposite in2="hardAlpha" operator="arithmetic" k2="-1" k3="1"/>
<feColorMatrix type="matrix" values="0 0 0 0 0.350747 0 0 0 0 0.350747 0 0 0 0 0.370833 0 0 0 0.4 0"/>
<feBlend mode="normal" in2="shape" result="effect1_innerShadow_1_1240"/>
</filter>
<filter id="filter1_b_1_1240" x="-6.13086" y="0.357178" width="54" height="47" filterUnits="userSpaceOnUse" color-interpolation-filters="sRGB">
<feFlood flood-opacity="0" result="BackgroundImageFix"/>
<feGaussianBlur in="BackgroundImageFix" stdDeviation="5"/>
<feComposite in2="SourceAlpha" operator="in" result="effect1_backgroundBlur_1_1240"/>
<feBlend mode="normal" in="SourceGraphic" in2="effect1_backgroundBlur_1_1240" result="shape"/>
</filter>
<filter id="filter2_d_1_1240" x="2.86914" y="11.0078" width="21" height="25" filterUnits="userSpaceOnUse" color-interpolation-filters="sRGB">
<feFlood flood-opacity="0" result="BackgroundImageFix"/>
<feColorMatrix in="SourceAlpha" type="matrix" values="0 0 0 0 0 0 0 0 0 0 0 0 0 0 0 0 0 0 127 0" result="hardAlpha"/>
<feOffset/>
<feGaussianBlur stdDeviation="4"/>
<feColorMatrix type="matrix" values="0 0 0 0 0.384314 0 0 0 0 0.478431 0 0 0 0 0.960784 0 0 0 0.5 0"/>
<feBlend mode="normal" in2="BackgroundImageFix" result="effect1_dropShadow_1_1240"/>
<feBlend mode="normal" in="SourceGraphic" in2="effect1_dropShadow_1_1240" result="shape"/>
</filter>
<filter id="filter3_d_1_1240" x="17.1852" y="11.0078" width="21" height="25" filterUnits="userSpaceOnUse" color-interpolation-filters="sRGB">
<feFlood flood-opacity="0" result="BackgroundImageFix"/>
<feColorMatrix in="SourceAlpha" type="matrix" values="0 0 0 0 0 0 0 0 0 0 0 0 0 0 0 0 0 0 127 0" result="hardAlpha"/>
<feOffset/>
<feGaussianBlur stdDeviation="4"/>
<feColorMatrix type="matrix" values="0 0 0 0 0.384314 0 0 0 0 0.478431 0 0 0 0 0.960784 0 0 0 0.5 0"/>
<feBlend mode="normal" in2="BackgroundImageFix" result="effect1_dropShadow_1_1240"/>
<feBlend mode="normal" in="SourceGraphic" in2="effect1_dropShadow_1_1240" result="shape"/>
</filter>
<linearGradient id="paint0_linear_1_1240" x1="20.8691" y1="0.357178" x2="20.8691" y2="40.3572" gradientUnits="userSpaceOnUse">
<stop stop-color="#313131"/>
<stop offset="1" stop-color="#111111"/>
</linearGradient>
<radialGradient id="paint1_radial_1_1240" cx="0" cy="0" r="1" gradientUnits="userSpaceOnUse" gradientTransform="translate(20.8691 12.3572) rotate(90) scale(22.5 34.6312)">
<stop stop-color="white" stop-opacity="0.63"/>
<stop offset="0.609375" stop-color="#111111" stop-opacity="0"/>
</radialGradient>
<linearGradient id="paint2_linear_1_1240" x1="20.8691" y1="10.3572" x2="20.8691" y2="37.3572" gradientUnits="userSpaceOnUse">
<stop stop-color="#151515"/>
<stop offset="1" stop-color="#2A2A2A"/>
</linearGradient>
<linearGradient id="paint3_linear_1_1240" x1="13.3691" y1="19.0078" x2="13.3691" y2="28.0078" gradientUnits="userSpaceOnUse">
<stop stop-color="#00FFCB"/>
<stop offset="1" stop-color="#7E2AC0"/>
<stop offset="1" stop-color="#7E2AC0"/>
</linearGradient>
<linearGradient id="paint4_linear_1_1240" x1="27.6852" y1="19.0078" x2="27.6852" y2="28.0078" gradientUnits="userSpaceOnUse">
<stop stop-color="#00FFCB"/>
<stop offset="1" stop-color="#7E2AC0"/>
<stop offset="1" stop-color="#7E2AC0"/>
</linearGradient>
</defs>
</svg>
