<svg width="28" height="23" viewBox="0 0 28 23" fill="none" xmlns="http://www.w3.org/2000/svg">
<path d="M1.36133 20.5555V7.22282C1.36133 6.39865 2.30233 5.9283 2.96154 6.42297L14.1947 14.8524C14.5692 15.1334 15.0886 15.117 15.4446 14.8128L25.0168 6.63204C25.6658 6.07742 26.6665 6.53857 26.6665 7.39224V20.5555C26.6665 21.1078 26.2188 21.5555 25.6665 21.5555H2.36133C1.80904 21.5555 1.36133 21.1078 1.36133 20.5555Z" stroke="white" stroke-width="2"/>
<path d="M14.1386 10.76L2.2134 1.90137C1.82674 1.61414 2.02989 1 2.51156 1H24.6083C25.0705 1 25.2852 1.57346 24.9367 1.87705L14.7652 10.7357C14.588 10.89 14.3272 10.9001 14.1386 10.76Z" fill="white" fill-opacity="0.3" stroke="white" stroke-width="2"/>
</svg>
