<svg width="90" height="108" viewBox="0 0 90 108" fill="none" xmlns="http://www.w3.org/2000/svg">
<g clip-path="url(#clip0_1_1453)">
<path d="M69.2349 79.8028L48.7522 68.008C46.4691 66.693 42.4874 66.8586 39.8515 68.3744L27.0246 75.7323L32.0999 77.4539L44.0751 92.511L44.4077 108.015C46.0565 107.986 47.6736 107.559 49.1201 106.77L87.1422 84.9122L87.7621 84.5558C88.4425 84.1646 89.0075 83.602 89.4003 82.9245C89.7931 82.247 89.9999 81.4785 89.9999 80.6962L89.6723 66.427L69.2349 79.8028Z" fill="url(#paint0_linear_1_1453)"/>
<path d="M22.2215 78.4979L0.332643 66.663L0 82.8445C0.0716543 83.2754 0.246464 83.6828 0.509645 84.0323C0.772827 84.3817 1.11664 84.6629 1.51201 84.8521L40.2145 107.127C41.5046 107.787 42.9498 108.089 44.3977 108L44.0651 92.4961L22.2215 78.4979Z" fill="#4B5DFD"/>
<path d="M40.5725 91.6129L1.87002 69.3434C-0.408073 68.0284 -0.125831 65.7497 2.52019 64.244L40.5322 42.3659C43.1681 40.8602 47.1497 40.6846 49.4278 41.9996L88.1303 64.2691C90.4134 65.5791 90.1463 67.8678 87.4902 69.3835L49.4682 91.2465C46.8373 92.7572 42.8405 92.9229 40.5725 91.6129Z" fill="url(#paint1_linear_1_1453)"/>
<path opacity="0.3" d="M41.0008 89.2086L6.0481 69.0973C3.98673 67.9128 4.24377 65.8449 6.62267 64.4747L40.9655 44.7348C43.3444 43.3646 46.943 43.2291 48.9993 44.4035L83.952 64.5149C86.0084 65.6994 85.7513 67.7672 83.3724 69.1324L49.0346 88.8774C46.6557 90.2425 43.0622 90.3931 41.0008 89.2086Z" stroke="white" stroke-width="0.53" stroke-miterlimit="10"/>
<path opacity="0.8" d="M39.4336 47.4707L78.9929 70.217C79.0982 70.2764 79.2171 70.3076 79.3381 70.3076C79.4591 70.3076 79.5781 70.2764 79.6834 70.217C79.7879 70.1559 79.8746 70.0686 79.9348 69.9639C79.995 69.8591 80.0267 69.7405 80.0267 69.6198C80.0267 69.4991 79.995 69.3804 79.9348 69.2757C79.8746 69.1709 79.7879 69.0836 79.6834 69.0225L40.1241 46.2812C40.0197 46.2193 39.9004 46.1866 39.7789 46.1866C39.6573 46.1866 39.5381 46.2193 39.4336 46.2812C39.3277 46.3406 39.2396 46.427 39.1782 46.5315C39.1169 46.636 39.0845 46.7549 39.0845 46.8759C39.0845 46.997 39.1169 47.1159 39.1782 47.2204C39.2396 47.3249 39.3277 47.4113 39.4336 47.4707Z" fill="url(#paint2_linear_1_1453)"/>
<path d="M89.884 73.1379L82.213 77.8157V79.2813L89.884 74.6035V73.1379Z" fill="url(#paint3_linear_1_1453)"/>
<path d="M89.884 76.6011L82.213 81.2738V82.7444L89.884 78.0666V76.6011Z" fill="url(#paint4_linear_1_1453)"/>
<path d="M37.2963 37.5018L81.7999 63.1241C82.6214 63.5959 83.2867 63.094 83.2867 62.0048L83.7907 28.6934C83.7849 28.1394 83.6477 27.5946 83.3902 27.1035C83.1326 26.6124 82.7621 26.189 82.3089 25.8677L37.8003 0.250406C36.9788 -0.221385 36.2883 0.275501 36.2883 1.36464L35.7843 34.6761C35.7963 35.2321 35.9394 35.7776 36.2021 36.2684C36.4647 36.7593 36.8395 37.1818 37.2963 37.5018Z" fill="url(#paint5_linear_1_1453)"/>
<g opacity="0.7">
<path opacity="0.7" d="M71.5991 19.7198L47.2859 5.79197L41.2379 2.30373L38.2139 0.562113C37.9631 0.402012 37.6941 0.272273 37.4125 0.175646C37.2845 0.136518 37.1482 0.133144 37.0185 0.165892C36.8887 0.19864 36.7705 0.266253 36.6767 0.361351C36.5014 0.575468 36.3975 0.838597 36.3793 1.11421C36.3541 1.39528 36.3793 1.6914 36.3541 1.98251L36.1626 15.9455L35.9358 29.9085L35.8803 33.4219V34.2952C35.8586 34.5744 35.8637 34.8551 35.8955 35.1334C35.9867 35.7 36.2055 36.2388 36.5355 36.7093C36.6969 36.9443 36.8941 37.1526 37.1202 37.3267C37.347 37.4923 37.6242 37.6228 37.8661 37.7734L39.3781 38.6517L42.4021 40.3983L66.6498 54.4517L42.3366 40.4987L39.3126 38.7521L37.8006 37.8838C37.5486 37.7282 37.2966 37.6077 37.0395 37.4271C36.8047 37.2434 36.5976 37.027 36.4247 36.7846C36.0906 36.2885 35.8719 35.7243 35.7846 35.1334C35.7428 34.8409 35.731 34.5449 35.7493 34.25V33.3767L35.7997 29.8633L35.9963 15.8953L36.2231 1.93231C36.2231 1.64121 36.2231 1.35512 36.2231 1.05398C36.254 0.760229 36.3755 0.483213 36.5708 0.26097C36.6828 0.147873 36.8235 0.0671397 36.978 0.0273673C37.1324 -0.0124051 37.2948 -0.00972829 37.4478 0.0351128C37.7281 0.137381 37.9954 0.272149 38.2441 0.436637L41.2681 2.18829L47.3162 5.70162L71.5991 19.7198Z" fill="url(#paint6_linear_1_1453)"/>
</g>
<g opacity="0.7">
<path opacity="0.7" d="M83.4129 51.877C83.4129 53.5433 83.4129 55.2146 83.4129 56.896L83.3675 61.9151C83.3923 62.3539 83.2777 62.7894 83.0399 63.1598C82.9694 63.2534 82.877 63.3283 82.7707 63.3782C82.6644 63.4281 82.5475 63.4513 82.4301 63.4459C82.2088 63.429 81.9946 63.3602 81.8051 63.2451L79.6329 61.9502C78.1847 61.1137 76.7449 60.2621 75.3135 59.3955C76.7785 60.1985 78.2384 61.0167 79.6933 61.8498L81.8757 63.0845C82.0472 63.1826 82.2381 63.2425 82.4351 63.2602C82.5271 63.2634 82.6184 63.2441 82.701 63.2038C82.7837 63.1635 82.8551 63.1036 82.9089 63.0293C83.1189 62.686 83.2158 62.2859 83.1861 61.8849L83.2919 56.8659C83.3121 55.2063 83.3524 53.5433 83.4129 51.877Z" fill="url(#paint7_linear_1_1453)"/>
</g>
<path opacity="0.3" d="M79.7386 53.1014L41.3738 31.0426V10.2838L41.5401 10.3792V30.9473L79.7386 52.9106V53.1014Z" fill="#2A2284"/>
<path opacity="0.3" d="M79.7385 33.3367L41.5602 11.3884V11.2479L79.7385 33.1962V33.3367Z" fill="#2A2284"/>
<path opacity="0.3" d="M79.7385 37.1914L41.5602 15.2431V15.1025L79.7385 37.0509V37.1914Z" fill="#2A2284"/>
<path opacity="0.3" d="M79.7385 41.0455L41.5602 19.0972V18.9567L79.7385 40.905V41.0455Z" fill="#2A2284"/>
<path opacity="0.3" d="M79.7385 44.9002L41.5602 22.9519V22.8113L79.7385 44.7597V44.9002Z" fill="#2A2284"/>
<path opacity="0.3" d="M79.7385 48.7552L41.5602 26.8069V26.6614L79.7385 48.6147V48.7552Z" fill="#2A2284"/>
<path d="M39.3646 1.77615V3.68091L39.1557 3.56135V1.95714L38.7345 1.89302V1.67575L39.3318 1.75741L39.3646 1.77615ZM41.011 3.52507V3.8139C41.011 3.96916 40.9989 4.09324 40.9748 4.18614C40.9507 4.27904 40.9161 4.34509 40.8709 4.3843C40.8258 4.4235 40.7712 4.43953 40.7072 4.4324C40.644 4.42484 40.5724 4.39822 40.4926 4.35255C40.4294 4.31636 40.3711 4.27386 40.3176 4.22505C40.2642 4.17625 40.216 4.11962 40.1731 4.05516C40.1309 3.99027 40.0948 3.91668 40.0647 3.83439C40.0346 3.7521 40.0116 3.66003 39.9958 3.55817C39.98 3.45632 39.9721 3.34337 39.9721 3.21934V2.9305C39.9721 2.77524 39.9841 2.65203 40.0082 2.56086C40.0331 2.47013 40.0681 2.40603 40.1132 2.36856C40.1584 2.33022 40.2126 2.31527 40.2758 2.32371C40.3398 2.33257 40.4113 2.35963 40.4904 2.40487C40.5544 2.44149 40.6131 2.4842 40.6665 2.53301C40.7207 2.58137 40.7689 2.63714 40.8111 2.7003C40.8532 2.76259 40.889 2.83423 40.9184 2.91522C40.9485 2.99577 40.9714 3.08654 40.9872 3.18753C41.003 3.28852 41.011 3.40103 41.011 3.52507ZM40.8009 3.73273V3.36453C40.8009 3.27953 40.7964 3.20235 40.7874 3.13299C40.7791 3.0632 40.7667 3.00058 40.7501 2.94513C40.7335 2.88968 40.7125 2.84032 40.6869 2.79704C40.662 2.7542 40.633 2.7168 40.5999 2.68483C40.5676 2.65243 40.531 2.62459 40.4904 2.60133C40.4407 2.57289 40.3967 2.55853 40.3583 2.55824C40.3199 2.55708 40.2875 2.57195 40.2612 2.60284C40.2356 2.63416 40.216 2.68325 40.2024 2.75008C40.1889 2.81692 40.1821 2.90369 40.1821 3.01037V3.37857C40.1821 3.46358 40.1863 3.54097 40.1945 3.61077C40.2036 3.68099 40.2167 3.74491 40.2341 3.80252C40.2514 3.85927 40.2725 3.90993 40.2973 3.95451C40.3221 3.99909 40.3507 4.03801 40.3831 4.07128C40.4162 4.10412 40.4527 4.13195 40.4926 4.15479C40.5438 4.18408 40.5886 4.19844 40.627 4.19786C40.6654 4.19729 40.6974 4.18047 40.723 4.14741C40.7494 4.11392 40.7689 4.0631 40.7817 3.99497C40.7945 3.92596 40.8009 3.83855 40.8009 3.73273ZM39.7101 5.78057V6.0694C39.7101 6.22466 39.6981 6.34874 39.674 6.44164C39.6499 6.53454 39.6153 6.60059 39.5701 6.6398C39.5249 6.679 39.4703 6.69504 39.4064 6.6879C39.3431 6.68034 39.2716 6.65372 39.1918 6.60805C39.1286 6.57186 39.0702 6.52936 39.0168 6.48056C38.9633 6.43175 38.9151 6.37512 38.8722 6.31066C38.8301 6.24577 38.7939 6.17218 38.7638 6.08989C38.7337 6.0076 38.7108 5.91553 38.695 5.81367C38.6791 5.71182 38.6712 5.59887 38.6712 5.47484V5.186C38.6712 5.03074 38.6833 4.90753 38.7074 4.81636C38.7322 4.72563 38.7672 4.66153 38.8124 4.62406C38.8576 4.58572 38.9118 4.57077 38.975 4.57921C39.039 4.58808 39.1105 4.61513 39.1895 4.66037C39.2535 4.69699 39.3123 4.7397 39.3657 4.78851C39.4199 4.83687 39.4681 4.89264 39.5102 4.9558C39.5524 5.01809 39.5882 5.08973 39.6175 5.17072C39.6476 5.25127 39.6706 5.34204 39.6864 5.44303C39.7022 5.54402 39.7101 5.65653 39.7101 5.78057ZM39.5001 5.98823V5.62003C39.5001 5.53503 39.4956 5.45785 39.4865 5.38849C39.4782 5.3187 39.4658 5.25608 39.4493 5.20063C39.4327 5.14518 39.4116 5.09582 39.386 5.05255C39.3612 5.0097 39.3322 4.9723 39.2991 4.94033C39.2667 4.90793 39.2302 4.88009 39.1895 4.85683C39.1399 4.82839 39.0958 4.81403 39.0574 4.81374C39.019 4.81258 38.9867 4.82745 38.9603 4.85834C38.9347 4.88967 38.9151 4.93875 38.9016 5.00558C38.888 5.07242 38.8813 5.15919 38.8813 5.26587V5.63407C38.8813 5.71908 38.8854 5.79648 38.8937 5.86627C38.9027 5.93649 38.9159 6.00041 38.9332 6.05803C38.9505 6.11477 38.9716 6.16543 38.9965 6.21001C39.0213 6.25459 39.0499 6.29351 39.0823 6.32678C39.1154 6.35962 39.1519 6.38745 39.1918 6.41029C39.243 6.43958 39.2878 6.45394 39.3262 6.45337C39.3646 6.45279 39.3966 6.43597 39.4222 6.40291C39.4485 6.36942 39.4681 6.3186 39.4809 6.25047C39.4937 6.18146 39.5001 6.09405 39.5001 5.98823ZM41.011 6.52507V6.8139C41.011 6.96916 40.9989 7.09324 40.9748 7.18614C40.9507 7.27904 40.9161 7.34509 40.8709 7.3843C40.8258 7.4235 40.7712 7.43953 40.7072 7.4324C40.644 7.42484 40.5724 7.39822 40.4926 7.35255C40.4294 7.31636 40.3711 7.27386 40.3176 7.22505C40.2642 7.17625 40.216 7.11962 40.1731 7.05516C40.1309 6.99027 40.0948 6.91668 40.0647 6.83439C40.0346 6.7521 40.0116 6.66003 39.9958 6.55817C39.98 6.45632 39.9721 6.34337 39.9721 6.21934V5.9305C39.9721 5.77524 39.9841 5.65203 40.0082 5.56086C40.0331 5.47013 40.0681 5.40603 40.1132 5.36856C40.1584 5.33022 40.2126 5.31527 40.2758 5.32371C40.3398 5.33257 40.4113 5.35963 40.4904 5.40487C40.5544 5.44149 40.6131 5.4842 40.6665 5.53301C40.7207 5.58137 40.7689 5.63714 40.8111 5.7003C40.8532 5.76259 40.889 5.83423 40.9184 5.91522C40.9485 5.99577 40.9714 6.08654 40.9872 6.18753C41.003 6.28852 41.011 6.40103 41.011 6.52507ZM40.8009 6.73273V6.36453C40.8009 6.27953 40.7964 6.20235 40.7874 6.13299C40.7791 6.0632 40.7667 6.00058 40.7501 5.94513C40.7335 5.88968 40.7125 5.84032 40.6869 5.79704C40.662 5.7542 40.633 5.7168 40.5999 5.68483C40.5676 5.65243 40.531 5.62459 40.4904 5.60133C40.4407 5.57289 40.3967 5.55853 40.3583 5.55824C40.3199 5.55708 40.2875 5.57195 40.2612 5.60284C40.2356 5.63416 40.216 5.68325 40.2024 5.75008C40.1889 5.81692 40.1821 5.90369 40.1821 6.01037V6.37857C40.1821 6.46358 40.1863 6.54097 40.1945 6.61077C40.2036 6.68099 40.2167 6.74491 40.2341 6.80252C40.2514 6.85927 40.2725 6.90993 40.2973 6.95451C40.3221 6.99909 40.3507 7.03801 40.3831 7.07128C40.4162 7.10412 40.4527 7.13195 40.4926 7.15479C40.5438 7.18408 40.5886 7.19844 40.627 7.19786C40.6654 7.19729 40.6974 7.18047 40.723 7.14741C40.7494 7.11392 40.7689 7.0631 40.7817 6.99497C40.7945 6.92596 40.8009 6.83855 40.8009 6.73273Z" fill="white"/>
<path d="M40.3401 6.30273V6.43804L39.6592 7.80738L39.439 7.68136L40.1188 6.37382L39.2289 5.86456V5.6668L40.3401 6.30273ZM40.3096 10.0815V10.3704C40.3096 10.5256 40.2976 10.6497 40.2735 10.7426C40.2494 10.8355 40.2147 10.9016 40.1696 10.9408C40.1244 10.98 40.0698 10.996 40.0058 10.9889C39.9426 10.9813 39.8711 10.9547 39.7913 10.909C39.7281 10.8728 39.6697 10.8303 39.6163 10.7815C39.5628 10.7327 39.5146 10.6761 39.4717 10.6116C39.4296 10.5467 39.3934 10.4731 39.3633 10.3909C39.3332 10.3086 39.3102 10.2165 39.2944 10.1146C39.2786 10.0128 39.2707 9.89984 39.2707 9.7758V9.48697C39.2707 9.33171 39.2828 9.20849 39.3069 9.11733C39.3317 9.02659 39.3667 8.96249 39.4119 8.92502C39.457 8.88669 39.5112 8.87174 39.5745 8.88017C39.6385 8.88904 39.71 8.91609 39.789 8.96133C39.853 8.99795 39.9117 9.04067 39.9652 9.08947C40.0194 9.13784 40.0676 9.1936 40.1097 9.25676C40.1519 9.31905 40.1876 9.39069 40.217 9.47168C40.2471 9.55223 40.2701 9.643 40.2859 9.74399C40.3017 9.84498 40.3096 9.9575 40.3096 10.0815ZM40.0996 10.2892V9.92099C40.0996 9.83599 40.095 9.75881 40.086 9.68945C40.0777 9.61966 40.0653 9.55704 40.0488 9.50159C40.0322 9.44614 40.0111 9.39678 39.9855 9.35351C39.9607 9.31067 39.9317 9.27326 39.8986 9.2413C39.8662 9.20889 39.8297 9.18106 39.789 9.15779C39.7393 9.12935 39.6953 9.11499 39.6569 9.1147C39.6185 9.11355 39.5862 9.12842 39.5598 9.15931C39.5342 9.19063 39.5146 9.23971 39.5011 9.30655C39.4875 9.37339 39.4808 9.46015 39.4808 9.56684V9.93504C39.4808 10.02 39.4849 10.0974 39.4932 10.1672C39.5022 10.2375 39.5154 10.3014 39.5327 10.359C39.55 10.4157 39.5711 10.4664 39.5959 10.511C39.6208 10.5556 39.6494 10.5945 39.6818 10.6277C39.7149 10.6606 39.7514 10.6884 39.7913 10.7113C39.8425 10.7405 39.8873 10.7549 39.9257 10.7543C39.9641 10.7538 39.9961 10.7369 40.0216 10.7039C40.048 10.6704 40.0676 10.6196 40.0804 10.5514C40.0932 10.4824 40.0996 10.395 40.0996 10.2892ZM40.3096 13.0815V13.3704C40.3096 13.5256 40.2976 13.6497 40.2735 13.7426C40.2494 13.8355 40.2147 13.9016 40.1696 13.9408C40.1244 13.98 40.0698 13.996 40.0058 13.9889C39.9426 13.9813 39.8711 13.9547 39.7913 13.909C39.7281 13.8728 39.6697 13.8303 39.6163 13.7815C39.5628 13.7327 39.5146 13.6761 39.4717 13.6116C39.4296 13.5467 39.3934 13.4731 39.3633 13.3909C39.3332 13.3086 39.3102 13.2165 39.2944 13.1146C39.2786 13.0128 39.2707 12.8998 39.2707 12.7758V12.487C39.2707 12.3317 39.2828 12.2085 39.3069 12.1173C39.3317 12.0266 39.3667 11.9625 39.4119 11.925C39.457 11.8867 39.5112 11.8717 39.5745 11.8802C39.6385 11.889 39.71 11.9161 39.789 11.9613C39.853 11.998 39.9117 12.0407 39.9652 12.0895C40.0194 12.1378 40.0676 12.1936 40.1097 12.2568C40.1519 12.3191 40.1876 12.3907 40.217 12.4717C40.2471 12.5522 40.2701 12.643 40.2859 12.744C40.3017 12.845 40.3096 12.9575 40.3096 13.0815ZM40.0996 13.2892V12.921C40.0996 12.836 40.095 12.7588 40.086 12.6895C40.0777 12.6197 40.0653 12.557 40.0488 12.5016C40.0322 12.4461 40.0111 12.3968 39.9855 12.3535C39.9607 12.3107 39.9317 12.2733 39.8986 12.2413C39.8662 12.2089 39.8297 12.1811 39.789 12.1578C39.7393 12.1294 39.6953 12.115 39.6569 12.1147C39.6185 12.1135 39.5862 12.1284 39.5598 12.1593C39.5342 12.1906 39.5146 12.2397 39.5011 12.3065C39.4875 12.3734 39.4808 12.4602 39.4808 12.5668V12.935C39.4808 13.02 39.4849 13.0974 39.4932 13.1672C39.5022 13.2375 39.5154 13.3014 39.5327 13.359C39.55 13.4157 39.5711 13.4664 39.5959 13.511C39.6208 13.5556 39.6494 13.5945 39.6818 13.6277C39.7149 13.6606 39.7514 13.6884 39.7913 13.7113C39.8425 13.7405 39.8873 13.7549 39.9257 13.7543C39.9641 13.7538 39.9961 13.7369 40.0216 13.7039C40.048 13.6704 40.0676 13.6196 40.0804 13.5514C40.0932 13.4824 40.0996 13.395 40.0996 13.2892Z" fill="white"/>
<path d="M39.5417 10.7938L39.3746 10.6487L39.457 9.75261L40.3006 10.2354V10.4579L39.6343 10.0766L39.5846 10.5633C39.6148 10.5606 39.6528 10.5637 39.6987 10.5727C39.7454 10.582 39.7988 10.6039 39.859 10.6384C39.9351 10.6819 40.0032 10.7361 40.0634 10.8009C40.1237 10.8649 40.1748 10.9367 40.217 11.0163C40.2599 11.0964 40.2927 11.1819 40.3152 11.2729C40.3378 11.3639 40.3491 11.4575 40.3491 11.5538C40.3491 11.6449 40.3382 11.7223 40.3164 11.7862C40.2953 11.8504 40.2633 11.8989 40.2204 11.9316C40.1775 11.9634 40.1233 11.9762 40.0578 11.97C39.993 11.9641 39.9166 11.936 39.8286 11.8856C39.7623 11.8477 39.6994 11.8013 39.64 11.7464C39.5813 11.6912 39.5286 11.6285 39.4819 11.5584C39.436 11.4879 39.3983 11.4117 39.369 11.3298C39.3404 11.2475 39.3223 11.16 39.3148 11.0672L39.5135 11.181C39.5225 11.2573 39.5406 11.3274 39.5677 11.3915C39.5948 11.4556 39.6302 11.5127 39.6739 11.5629C39.7183 11.6126 39.7698 11.6542 39.8286 11.6878C39.8782 11.7163 39.9223 11.7315 39.9607 11.7335C39.9991 11.7356 40.0314 11.7255 40.0578 11.7032C40.0841 11.681 40.1041 11.6473 40.1176 11.6022C40.1319 11.5575 40.1391 11.5021 40.1391 11.4362C40.1391 11.3764 40.1319 11.3168 40.1176 11.2574C40.1033 11.198 40.0819 11.1411 40.0533 11.0865C40.0254 11.0324 39.9912 10.9834 39.9505 10.9393C39.9099 10.8943 39.8632 10.8568 39.8105 10.8266C39.7405 10.7865 39.6874 10.767 39.6513 10.768C39.6159 10.7694 39.5794 10.778 39.5417 10.7938ZM40.3096 14.0368V14.3256C40.3096 14.4809 40.2976 14.605 40.2735 14.6979C40.2494 14.7908 40.2147 14.8568 40.1696 14.896C40.1244 14.9352 40.0698 14.9513 40.0058 14.9441C39.9426 14.9366 39.8711 14.9099 39.7913 14.8643C39.7281 14.8281 39.6697 14.7856 39.6163 14.7368C39.5628 14.688 39.5146 14.6313 39.4717 14.5669C39.4296 14.502 39.3934 14.4284 39.3633 14.3461C39.3332 14.2638 39.3102 14.1718 39.2944 14.0699C39.2786 13.968 39.2707 13.8551 39.2707 13.7311V13.4422C39.2707 13.287 39.2828 13.1638 39.3069 13.0726C39.3317 12.9819 39.3667 12.9178 39.4119 12.8803C39.457 12.842 39.5112 12.827 39.5745 12.8354C39.6385 12.8443 39.71 12.8714 39.789 12.9166C39.853 12.9532 39.9117 12.9959 39.9652 13.0447C40.0194 13.0931 40.0676 13.1489 40.1097 13.212C40.1519 13.2743 40.1876 13.346 40.217 13.4269C40.2471 13.5075 40.2701 13.5983 40.2859 13.6993C40.3017 13.8002 40.3096 13.9128 40.3096 14.0368ZM40.0996 14.2445V13.8763C40.0996 13.7913 40.095 13.7141 40.086 13.6447C40.0777 13.5749 40.0653 13.5123 40.0488 13.4569C40.0322 13.4014 40.0111 13.352 39.9855 13.3088C39.9607 13.2659 39.9317 13.2285 39.8986 13.1966C39.8662 13.1642 39.8297 13.1363 39.789 13.1131C39.7393 13.0846 39.6953 13.0703 39.6569 13.07C39.6185 13.0688 39.5862 13.0837 39.5598 13.1146C39.5342 13.1459 39.5146 13.195 39.5011 13.2618C39.4875 13.3286 39.4808 13.4154 39.4808 13.5221V13.8903C39.4808 13.9753 39.4849 14.0527 39.4932 14.1225C39.5022 14.1927 39.5154 14.2566 39.5327 14.3143C39.55 14.371 39.5711 14.4217 39.5959 14.4662C39.6208 14.5108 39.6494 14.5497 39.6818 14.583C39.7149 14.6158 39.7514 14.6437 39.7913 14.6665C39.8425 14.6958 39.8873 14.7102 39.9257 14.7096C39.9641 14.709 39.9961 14.6922 40.0216 14.6591C40.048 14.6256 40.0676 14.5748 40.0804 14.5067C40.0932 14.4377 40.0996 14.3503 40.0996 14.2445ZM40.3096 17.0368V17.3256C40.3096 17.4809 40.2976 17.605 40.2735 17.6979C40.2494 17.7908 40.2147 17.8568 40.1696 17.896C40.1244 17.9352 40.0698 17.9513 40.0058 17.9441C39.9426 17.9366 39.8711 17.9099 39.7913 17.8643C39.7281 17.8281 39.6697 17.7856 39.6163 17.7368C39.5628 17.688 39.5146 17.6313 39.4717 17.5669C39.4296 17.502 39.3934 17.4284 39.3633 17.3461C39.3332 17.2638 39.3102 17.1718 39.2944 17.0699C39.2786 16.968 39.2707 16.8551 39.2707 16.7311V16.4422C39.2707 16.287 39.2828 16.1638 39.3069 16.0726C39.3317 15.9819 39.3667 15.9178 39.4119 15.8803C39.457 15.842 39.5112 15.827 39.5745 15.8354C39.6385 15.8443 39.71 15.8714 39.789 15.9166C39.853 15.9532 39.9117 15.9959 39.9652 16.0447C40.0194 16.0931 40.0676 16.1489 40.1097 16.212C40.1519 16.2743 40.1876 16.346 40.217 16.4269C40.2471 16.5075 40.2701 16.5983 40.2859 16.6993C40.3017 16.8002 40.3096 16.9128 40.3096 17.0368ZM40.0996 17.2445V16.8763C40.0996 16.7913 40.095 16.7141 40.086 16.6447C40.0777 16.5749 40.0653 16.5123 40.0488 16.4569C40.0322 16.4014 40.0111 16.352 39.9855 16.3088C39.9607 16.2659 39.9317 16.2285 39.8986 16.1966C39.8662 16.1642 39.8297 16.1363 39.789 16.1131C39.7393 16.0846 39.6953 16.0703 39.6569 16.07C39.6185 16.0688 39.5862 16.0837 39.5598 16.1146C39.5342 16.1459 39.5146 16.195 39.5011 16.2618C39.4875 16.3286 39.4808 16.4154 39.4808 16.5221V16.8903C39.4808 16.9753 39.4849 17.0527 39.4932 17.1225C39.5022 17.1927 39.5154 17.2566 39.5327 17.3143C39.55 17.371 39.5711 17.4217 39.5959 17.4662C39.6208 17.5108 39.6494 17.5497 39.6818 17.583C39.7149 17.6158 39.7514 17.6437 39.7913 17.6665C39.8425 17.6958 39.8873 17.7102 39.9257 17.7096C39.9641 17.709 39.9961 17.6922 40.0216 17.6591C40.048 17.6256 40.0676 17.5748 40.0804 17.5067C40.0932 17.4377 40.0996 17.3503 40.0996 17.2445Z" fill="white"/>
<path d="M39.5824 14.6026L39.7314 14.688C39.8045 14.7297 39.8647 14.7503 39.9121 14.7497C39.9603 14.7487 39.9961 14.7305 40.0194 14.6953C40.0435 14.6597 40.0555 14.6111 40.0555 14.5495C40.0555 14.4766 40.045 14.4094 40.0239 14.3479C40.0028 14.2864 39.9712 14.231 39.9291 14.1817C39.8869 14.1325 39.8334 14.0893 39.7687 14.0522C39.71 14.0186 39.658 14.0024 39.6129 14.0034C39.5685 14.004 39.5335 14.0213 39.5079 14.0552C39.483 14.0895 39.4706 14.1397 39.4706 14.2056L39.2617 14.086C39.2617 13.9898 39.2828 13.9142 39.3249 13.8594C39.3671 13.8046 39.4262 13.7755 39.5022 13.7722C39.579 13.7693 39.6678 13.7967 39.7687 13.8545C39.8681 13.9114 39.955 13.9815 40.0296 14.0649C40.1041 14.1475 40.162 14.2405 40.2035 14.344C40.2449 14.4466 40.2656 14.5569 40.2656 14.6749C40.2656 14.7226 40.2558 14.7682 40.2362 14.8116C40.2174 14.8546 40.1876 14.8879 40.147 14.9115C40.1071 14.9355 40.0551 14.9443 39.9912 14.9381C39.9272 14.9309 39.8504 14.9017 39.7608 14.8505L39.5824 14.7484V14.6026ZM39.5824 14.8004V14.656L39.7608 14.7581C39.8654 14.818 39.952 14.8818 40.0205 14.9497C40.089 15.0175 40.1429 15.0865 40.182 15.1566C40.2219 15.2271 40.2497 15.2955 40.2656 15.3618C40.2821 15.4277 40.2904 15.4888 40.2904 15.5452C40.2904 15.6337 40.2772 15.7046 40.2509 15.7581C40.2253 15.8119 40.1888 15.8492 40.1413 15.8697C40.0947 15.8907 40.0397 15.8953 39.9765 15.8834C39.9132 15.8715 39.8444 15.8442 39.7698 15.8015C39.6983 15.7606 39.6309 15.7103 39.5677 15.6507C39.5052 15.5915 39.4499 15.526 39.4017 15.4542C39.3535 15.3815 39.3159 15.3049 39.2888 15.2244C39.2617 15.1429 39.2481 15.0601 39.2481 14.976L39.457 15.0956C39.457 15.1615 39.4695 15.2263 39.4943 15.2899C39.5199 15.354 39.556 15.4133 39.6027 15.4678C39.6501 15.5218 39.7058 15.5671 39.7698 15.6038C39.8338 15.6404 39.8888 15.6593 39.9347 15.6604C39.9814 15.6611 40.0171 15.6425 40.042 15.6047C40.0676 15.5673 40.0804 15.5091 40.0804 15.4302C40.0804 15.3513 40.0661 15.2785 40.0375 15.2118C40.0089 15.1442 39.9682 15.0832 39.9155 15.0288C39.8636 14.9739 39.8022 14.9262 39.7314 14.8857L39.5824 14.8004ZM40.3096 17.9863V18.2752C40.3096 18.4304 40.2976 18.5545 40.2735 18.6474C40.2494 18.7403 40.2147 18.8063 40.1696 18.8455C40.1244 18.8847 40.0698 18.9008 40.0058 18.8937C39.9426 18.8861 39.8711 18.8595 39.7913 18.8138C39.7281 18.7776 39.6697 18.7351 39.6163 18.6863C39.5628 18.6375 39.5146 18.5809 39.4717 18.5164C39.4296 18.4515 39.3934 18.3779 39.3633 18.2956C39.3332 18.2134 39.3102 18.1213 39.2944 18.0194C39.2786 17.9176 39.2707 17.8046 39.2707 17.6806V17.3918C39.2707 17.2365 39.2828 17.1133 39.3069 17.0221C39.3317 16.9314 39.3667 16.8673 39.4119 16.8298C39.457 16.7915 39.5112 16.7765 39.5745 16.785C39.6385 16.7938 39.71 16.8209 39.789 16.8661C39.853 16.9027 39.9117 16.9455 39.9652 16.9943C40.0194 17.0426 40.0676 17.0984 40.1097 17.1615C40.1519 17.2238 40.1876 17.2955 40.217 17.3765C40.2471 17.457 40.2701 17.5478 40.2859 17.6488C40.3017 17.7498 40.3096 17.8623 40.3096 17.9863ZM40.0996 18.194V17.8258C40.0996 17.7408 40.095 17.6636 40.086 17.5942C40.0777 17.5244 40.0653 17.4618 40.0488 17.4064C40.0322 17.3509 40.0111 17.3016 39.9855 17.2583C39.9607 17.2155 39.9317 17.178 39.8986 17.1461C39.8662 17.1137 39.8297 17.0858 39.789 17.0626C39.7393 17.0341 39.6953 17.0198 39.6569 17.0195C39.6185 17.0183 39.5862 17.0332 39.5598 17.0641C39.5342 17.0954 39.5146 17.1445 39.5011 17.2113C39.4875 17.2782 39.4808 17.3649 39.4808 17.4716V17.8398C39.4808 17.9248 39.4849 18.0022 39.4932 18.072C39.5022 18.1422 39.5154 18.2062 39.5327 18.2638C39.55 18.3205 39.5711 18.3712 39.5959 18.4158C39.6208 18.4603 39.6494 18.4993 39.6818 18.5325C39.7149 18.5654 39.7514 18.5932 39.7913 18.616C39.8425 18.6453 39.8873 18.6597 39.9257 18.6591C39.9641 18.6585 39.9961 18.6417 40.0216 18.6087C40.048 18.5752 40.0676 18.5244 40.0804 18.4562C40.0932 18.3872 40.0996 18.2998 40.0996 18.194ZM40.3096 20.9863V21.2752C40.3096 21.4304 40.2976 21.5545 40.2735 21.6474C40.2494 21.7403 40.2147 21.8063 40.1696 21.8455C40.1244 21.8847 40.0698 21.9008 40.0058 21.8937C39.9426 21.8861 39.8711 21.8595 39.7913 21.8138C39.7281 21.7776 39.6697 21.7351 39.6163 21.6863C39.5628 21.6375 39.5146 21.5809 39.4717 21.5164C39.4296 21.4515 39.3934 21.3779 39.3633 21.2956C39.3332 21.2134 39.3102 21.1213 39.2944 21.0194C39.2786 20.9176 39.2707 20.8046 39.2707 20.6806V20.3918C39.2707 20.2365 39.2828 20.1133 39.3069 20.0221C39.3317 19.9314 39.3667 19.8673 39.4119 19.8298C39.457 19.7915 39.5112 19.7765 39.5745 19.785C39.6385 19.7938 39.71 19.8209 39.789 19.8661C39.853 19.9027 39.9117 19.9455 39.9652 19.9943C40.0194 20.0426 40.0676 20.0984 40.1097 20.1615C40.1519 20.2238 40.1876 20.2955 40.217 20.3765C40.2471 20.457 40.2701 20.5478 40.2859 20.6488C40.3017 20.7498 40.3096 20.8623 40.3096 20.9863ZM40.0996 21.194V20.8258C40.0996 20.7408 40.095 20.6636 40.086 20.5942C40.0777 20.5244 40.0653 20.4618 40.0488 20.4064C40.0322 20.3509 40.0111 20.3016 39.9855 20.2583C39.9607 20.2155 39.9317 20.178 39.8986 20.1461C39.8662 20.1137 39.8297 20.0858 39.789 20.0626C39.7393 20.0341 39.6953 20.0198 39.6569 20.0195C39.6185 20.0183 39.5862 20.0332 39.5598 20.0641C39.5342 20.0954 39.5146 20.1445 39.5011 20.2113C39.4875 20.2782 39.4808 20.3649 39.4808 20.4716V20.8398C39.4808 20.9248 39.4849 21.0022 39.4932 21.072C39.5022 21.1422 39.5154 21.2062 39.5327 21.2638C39.55 21.3205 39.5711 21.3712 39.5959 21.4158C39.6208 21.4603 39.6494 21.4993 39.6818 21.5325C39.7149 21.5654 39.7514 21.5932 39.7913 21.616C39.8425 21.6453 39.8873 21.6597 39.9257 21.6591C39.9641 21.6585 39.9961 21.6417 40.0216 21.6087C40.048 21.5752 40.0676 21.5244 40.0804 21.4562C40.0932 21.3872 40.0996 21.2998 40.0996 21.194Z" fill="white"/>
<path d="M39.9641 17.9372V19.8419L39.7552 19.7224V18.1181L39.334 18.054V17.8368L39.9313 17.9184L39.9641 17.9372ZM40.3096 21.9416V22.2304C40.3096 22.3857 40.2976 22.5098 40.2735 22.6027C40.2494 22.6956 40.2147 22.7616 40.1696 22.8008C40.1244 22.84 40.0698 22.856 40.0058 22.8489C39.9426 22.8413 39.8711 22.8147 39.7913 22.7691C39.7281 22.7329 39.6697 22.6904 39.6163 22.6416C39.5628 22.5928 39.5146 22.5361 39.4717 22.4717C39.4296 22.4068 39.3934 22.3332 39.3633 22.2509C39.3332 22.1686 39.3102 22.0765 39.2944 21.9747C39.2786 21.8728 39.2707 21.7599 39.2707 21.6358V21.347C39.2707 21.1918 39.2828 21.0685 39.3069 20.9774C39.3317 20.8866 39.3667 20.8225 39.4119 20.7851C39.457 20.7467 39.5112 20.7318 39.5745 20.7402C39.6385 20.7491 39.71 20.7761 39.789 20.8214C39.853 20.858 39.9117 20.9007 39.9652 20.9495C40.0194 20.9979 40.0676 21.0536 40.1097 21.1168C40.1519 21.1791 40.1876 21.2507 40.217 21.3317C40.2471 21.4123 40.2701 21.5031 40.2859 21.604C40.3017 21.705 40.3096 21.8175 40.3096 21.9416ZM40.0996 22.1492V21.781C40.0996 21.696 40.095 21.6189 40.086 21.5495C40.0777 21.4797 40.0653 21.4171 40.0488 21.3616C40.0322 21.3062 40.0111 21.2568 39.9855 21.2136C39.9607 21.1707 39.9317 21.1333 39.8986 21.1013C39.8662 21.0689 39.8297 21.0411 39.789 21.0178C39.7393 20.9894 39.6953 20.975 39.6569 20.9748C39.6185 20.9736 39.5862 20.9885 39.5598 21.0194C39.5342 21.0507 39.5146 21.0998 39.5011 21.1666C39.4875 21.2334 39.4808 21.3202 39.4808 21.4269V21.7951C39.4808 21.8801 39.4849 21.9575 39.4932 22.0273C39.5022 22.0975 39.5154 22.1614 39.5327 22.219C39.55 22.2758 39.5711 22.3264 39.5959 22.371C39.6208 22.4156 39.6494 22.4545 39.6818 22.4878C39.7149 22.5206 39.7514 22.5485 39.7913 22.5713C39.8425 22.6006 39.8873 22.615 39.9257 22.6144C39.9641 22.6138 39.9961 22.597 40.0216 22.5639C40.048 22.5304 40.0676 22.4796 40.0804 22.4115C40.0932 22.3425 40.0996 22.2551 40.0996 22.1492ZM40.3096 24.9416V25.2304C40.3096 25.3857 40.2976 25.5098 40.2735 25.6027C40.2494 25.6956 40.2147 25.7616 40.1696 25.8008C40.1244 25.84 40.0698 25.856 40.0058 25.8489C39.9426 25.8413 39.8711 25.8147 39.7913 25.7691C39.7281 25.7329 39.6697 25.6904 39.6163 25.6416C39.5628 25.5928 39.5146 25.5361 39.4717 25.4717C39.4296 25.4068 39.3934 25.3332 39.3633 25.2509C39.3332 25.1686 39.3102 25.0765 39.2944 24.9747C39.2786 24.8728 39.2707 24.7599 39.2707 24.6358V24.347C39.2707 24.1918 39.2828 24.0685 39.3069 23.9774C39.3317 23.8866 39.3667 23.8225 39.4119 23.7851C39.457 23.7467 39.5112 23.7318 39.5745 23.7402C39.6385 23.7491 39.71 23.7761 39.789 23.8214C39.853 23.858 39.9117 23.9007 39.9652 23.9495C40.0194 23.9979 40.0676 24.0536 40.1097 24.1168C40.1519 24.1791 40.1876 24.2507 40.217 24.3317C40.2471 24.4123 40.2701 24.5031 40.2859 24.604C40.3017 24.705 40.3096 24.8175 40.3096 24.9416ZM40.0996 25.1492V24.781C40.0996 24.696 40.095 24.6189 40.086 24.5495C40.0777 24.4797 40.0653 24.4171 40.0488 24.3616C40.0322 24.3062 40.0111 24.2568 39.9855 24.2136C39.9607 24.1707 39.9317 24.1333 39.8986 24.1013C39.8662 24.0689 39.8297 24.0411 39.789 24.0178C39.7393 23.9894 39.6953 23.975 39.6569 23.9748C39.6185 23.9736 39.5862 23.9885 39.5598 24.0194C39.5342 24.0507 39.5146 24.0998 39.5011 24.1666C39.4875 24.2334 39.4808 24.3202 39.4808 24.4269V24.7951C39.4808 24.8801 39.4849 24.9575 39.4932 25.0273C39.5022 25.0975 39.5154 25.1614 39.5327 25.219C39.55 25.2758 39.5711 25.3264 39.5959 25.371C39.6208 25.4156 39.6494 25.4545 39.6818 25.4878C39.7149 25.5206 39.7514 25.5485 39.7913 25.5713C39.8425 25.6006 39.8873 25.615 39.9257 25.6144C39.9641 25.6138 39.9961 25.597 40.0216 25.5639C40.048 25.5304 40.0676 25.4796 40.0804 25.4115C40.0932 25.3425 40.0996 25.2551 40.0996 25.1492Z" fill="white"/>
<path d="M41.5092 23.5843V23.8731C41.5092 24.0284 41.4971 24.1525 41.473 24.2454C41.449 24.3383 41.4143 24.4043 41.3692 24.4435C41.324 24.4827 41.2694 24.4987 41.2054 24.4916C41.1422 24.484 41.0707 24.4574 40.9909 24.4118C40.9276 24.3756 40.8693 24.3331 40.8159 24.2843C40.7624 24.2355 40.7142 24.1788 40.6713 24.1144C40.6292 24.0495 40.593 23.9759 40.5629 23.8936C40.5328 23.8113 40.5098 23.7192 40.494 23.6174C40.4782 23.5155 40.4703 23.4026 40.4703 23.2785V22.9897C40.4703 22.8345 40.4824 22.7112 40.5064 22.6201C40.5313 22.5293 40.5663 22.4652 40.6115 22.4278C40.6566 22.3894 40.7108 22.3745 40.7741 22.3829C40.8381 22.3918 40.9096 22.4188 40.9886 22.4641C41.0526 22.5007 41.1113 22.5434 41.1648 22.5922C41.219 22.6406 41.2672 22.6963 41.3093 22.7595C41.3515 22.8218 41.3872 22.8934 41.4166 22.9744C41.4467 23.055 41.4697 23.1457 41.4855 23.2467C41.5013 23.3477 41.5092 23.4602 41.5092 23.5843ZM41.2992 23.7919V23.4237C41.2992 23.3387 41.2946 23.2616 41.2856 23.1922C41.2773 23.1224 41.2649 23.0598 41.2483 23.0043C41.2318 22.9489 41.2107 22.8995 41.1851 22.8563C41.1603 22.8134 41.1313 22.776 41.0982 22.744C41.0658 22.7116 41.0293 22.6838 40.9886 22.6605C40.9389 22.6321 40.8949 22.6177 40.8565 22.6174C40.8181 22.6163 40.7857 22.6312 40.7594 22.6621C40.7338 22.6934 40.7142 22.7425 40.7007 22.8093C40.6871 22.8761 40.6803 22.9629 40.6803 23.0696V23.4378C40.6803 23.5228 40.6845 23.6002 40.6928 23.67C40.7018 23.7402 40.715 23.8041 40.7323 23.8617C40.7496 23.9185 40.7707 23.9691 40.7955 24.0137C40.8204 24.0583 40.849 24.0972 40.8813 24.1305C40.9145 24.1633 40.951 24.1912 40.9909 24.214C41.0421 24.2433 41.0869 24.2577 41.1253 24.2571C41.1636 24.2565 41.1956 24.2397 41.2212 24.2066C41.2476 24.1731 41.2672 24.1223 41.28 24.0542C41.2928 23.9852 41.2992 23.8978 41.2992 23.7919Z" fill="white"/>
<path d="M43.4265 28.0833L43.2164 27.9631V26.3589L42.7952 26.2961V26.0775L43.3937 26.1611L43.4265 26.1799V28.0833ZM43.7709 30.4725C43.7709 30.7544 43.7291 30.9399 43.6455 31.0291C43.562 31.1184 43.4314 31.1121 43.2537 31.0105C43.0783 30.9101 42.9484 30.769 42.8641 30.5871C42.7798 30.4044 42.7361 30.1791 42.7331 29.9111V29.5897C42.7331 29.3113 42.7749 29.1283 42.8585 29.0408C42.942 28.9533 43.073 28.9607 43.2514 29.0628C43.4283 29.164 43.5586 29.304 43.6421 29.4828C43.7257 29.6608 43.7686 29.8866 43.7709 30.1602V30.4725ZM43.562 30.0237C43.562 29.8199 43.5371 29.6574 43.4874 29.5361C43.4378 29.414 43.3591 29.3221 43.2514 29.2605C43.1445 29.1994 43.0666 29.2012 43.0177 29.266C42.9688 29.3308 42.9435 29.459 42.942 29.6507V30.0358C42.942 30.2405 42.9676 30.4065 43.0188 30.5339C43.0708 30.6607 43.1491 30.7541 43.2537 30.814C43.3568 30.873 43.4332 30.8708 43.4829 30.8073C43.5334 30.7442 43.5597 30.6144 43.562 30.418V30.0237ZM43.7709 33.4725C43.7709 33.7544 43.7291 33.9399 43.6455 34.0291C43.562 34.1184 43.4314 34.1121 43.2537 34.0105C43.0783 33.9101 42.9484 33.769 42.8641 33.5871C42.7798 33.4044 42.7361 33.1791 42.7331 32.9111V32.5897C42.7331 32.3113 42.7749 32.1283 42.8585 32.0408C42.942 31.9533 43.073 31.9607 43.2514 32.0628C43.4283 32.164 43.5586 32.304 43.6421 32.4828C43.7257 32.6608 43.7686 32.8866 43.7709 33.1602V33.4725ZM43.562 33.0237C43.562 32.8199 43.5371 32.6574 43.4874 32.5361C43.4378 32.414 43.3591 32.3221 43.2514 32.2605C43.1445 32.1994 43.0666 32.2012 43.0177 32.266C42.9688 32.3308 42.9435 32.459 42.942 32.6507V33.0358C42.942 33.2405 42.9676 33.4065 43.0188 33.5339C43.0708 33.6607 43.1491 33.7541 43.2537 33.814C43.3568 33.873 43.4332 33.8708 43.4829 33.8073C43.5334 33.7442 43.5597 33.6144 43.562 33.418V33.0237Z" fill="white"/>
<path d="M47.451 30.1968V30.3946L46.3749 29.7787V29.6056L46.9135 29.223C46.9798 29.1759 47.031 29.1333 47.0671 29.095C47.104 29.0562 47.1296 29.0175 47.1439 28.9789C47.1589 28.9398 47.1665 28.8955 47.1665 28.8461C47.1665 28.7836 47.1552 28.7208 47.1326 28.6575C47.1107 28.5939 47.0784 28.5346 47.0355 28.4797C46.9926 28.4248 46.9406 28.3798 46.8796 28.3449C46.8066 28.3032 46.7456 28.2847 46.6967 28.2897C46.6485 28.2942 46.6124 28.3186 46.5883 28.363C46.5642 28.4073 46.5522 28.4672 46.5522 28.5426L46.3433 28.4231C46.3433 28.3164 46.3636 28.2305 46.4042 28.1652C46.4449 28.1 46.5051 28.0642 46.5849 28.0579C46.6647 28.0506 46.763 28.0804 46.8796 28.1472C46.9835 28.2066 47.0724 28.2787 47.1461 28.3635C47.2199 28.4473 47.2764 28.5386 47.3155 28.6373C47.3554 28.7356 47.3754 28.8355 47.3754 28.937C47.3754 28.9925 47.3671 29.0442 47.3505 29.0919C47.3347 29.1393 47.3125 29.1829 47.2839 29.2229C47.256 29.2634 47.2233 29.3001 47.1857 29.3333C47.1488 29.3668 47.1092 29.3979 47.0671 29.4267L46.6267 29.725L47.451 30.1968ZM47.4058 32.2706V32.5595C47.4058 32.7147 47.3938 32.8388 47.3697 32.9317C47.3456 33.0246 47.311 33.0906 47.2658 33.1298C47.2207 33.1691 47.1661 33.1851 47.1021 33.178C47.0389 33.1704 46.9673 33.1438 46.8875 33.0981C46.8243 33.0619 46.766 33.0194 46.7125 32.9706C46.6591 32.9218 46.6109 32.8652 46.568 32.8007C46.5258 32.7358 46.4897 32.6622 46.4596 32.5799C46.4295 32.4977 46.4065 32.4056 46.3907 32.3037C46.3749 32.2019 46.367 32.0889 46.367 31.9649V31.6761C46.367 31.5208 46.379 31.3976 46.4031 31.3064C46.428 31.2157 46.463 31.1516 46.5081 31.1141C46.5533 31.0758 46.6075 31.0608 46.6707 31.0693C46.7347 31.0781 46.8062 31.1052 46.8853 31.1504C46.9493 31.187 47.008 31.2298 47.0614 31.2786C47.1156 31.3269 47.1638 31.3827 47.206 31.4458C47.2481 31.5081 47.2839 31.5798 47.3133 31.6608C47.3434 31.7413 47.3663 31.8321 47.3821 31.9331C47.3979 32.0341 47.4058 32.1466 47.4058 32.2706ZM47.1958 32.4783V32.1101C47.1958 32.0251 47.1913 31.9479 47.1823 31.8785C47.174 31.8087 47.1616 31.7461 47.145 31.6907C47.1284 31.6352 47.1074 31.5859 47.0818 31.5426C47.0569 31.4998 47.0279 31.4624 46.9948 31.4304C46.9624 31.398 46.9259 31.3701 46.8853 31.3469C46.8356 31.3184 46.7916 31.3041 46.7532 31.3038C46.7148 31.3026 46.6824 31.3175 46.6561 31.3484C46.6305 31.3797 46.6109 31.4288 46.5973 31.4956C46.5838 31.5625 46.577 31.6492 46.577 31.7559V32.1241C46.577 32.2091 46.5812 32.2865 46.5894 32.3563C46.5985 32.4265 46.6116 32.4905 46.629 32.5481C46.6463 32.6048 46.6673 32.6555 46.6922 32.7001C46.717 32.7446 46.7456 32.7836 46.778 32.8168C46.8111 32.8497 46.8476 32.8775 46.8875 32.9003C46.9387 32.9296 46.9835 32.944 47.0219 32.9434C47.0603 32.9428 47.0923 32.926 47.1179 32.893C47.1442 32.8595 47.1638 32.8087 47.1766 32.7405C47.1894 32.6715 47.1958 32.5841 47.1958 32.4783ZM47.4058 35.2706V35.5595C47.4058 35.7147 47.3938 35.8388 47.3697 35.9317C47.3456 36.0246 47.311 36.0906 47.2658 36.1298C47.2207 36.1691 47.1661 36.1851 47.1021 36.178C47.0389 36.1704 46.9673 36.1438 46.8875 36.0981C46.8243 36.0619 46.766 36.0194 46.7125 35.9706C46.6591 35.9218 46.6109 35.8652 46.568 35.8007C46.5258 35.7358 46.4897 35.6622 46.4596 35.5799C46.4295 35.4977 46.4065 35.4056 46.3907 35.3037C46.3749 35.2019 46.367 35.0889 46.367 34.9649V34.6761C46.367 34.5208 46.379 34.3976 46.4031 34.3064C46.428 34.2157 46.463 34.1516 46.5081 34.1141C46.5533 34.0758 46.6075 34.0608 46.6707 34.0693C46.7347 34.0781 46.8062 34.1052 46.8853 34.1504C46.9493 34.187 47.008 34.2298 47.0614 34.2786C47.1156 34.3269 47.1638 34.3827 47.206 34.4458C47.2481 34.5081 47.2839 34.5798 47.3133 34.6608C47.3434 34.7413 47.3663 34.8321 47.3821 34.9331C47.3979 35.0341 47.4058 35.1466 47.4058 35.2706ZM47.1958 35.4783V35.1101C47.1958 35.0251 47.1913 34.9479 47.1823 34.8785C47.174 34.8087 47.1616 34.7461 47.145 34.6907C47.1284 34.6352 47.1074 34.5859 47.0818 34.5426C47.0569 34.4998 47.0279 34.4624 46.9948 34.4304C46.9624 34.398 46.9259 34.3701 46.8853 34.3469C46.8356 34.3184 46.7916 34.3041 46.7532 34.3038C46.7148 34.3026 46.6824 34.3175 46.6561 34.3484C46.6305 34.3797 46.6109 34.4288 46.5973 34.4956C46.5838 34.5625 46.577 34.6492 46.577 34.7559V35.1241C46.577 35.2091 46.5812 35.2865 46.5894 35.3563C46.5985 35.4265 46.6116 35.4905 46.629 35.5481C46.6463 35.6048 46.6673 35.6555 46.6922 35.7001C46.717 35.7446 46.7456 35.7836 46.778 35.8168C46.8111 35.8497 46.8476 35.8775 46.8875 35.9003C46.9387 35.9296 46.9835 35.944 47.0219 35.9434C47.0603 35.9428 47.0923 35.926 47.1179 35.893C47.1442 35.8595 47.1638 35.8087 47.1766 35.7405C47.1894 35.6715 47.1958 35.5841 47.1958 35.4783Z" fill="white"/>
<path d="M50.1664 30.8945L50.3155 30.9798C50.3885 31.0216 50.4487 31.0422 50.4962 31.0416C50.5443 31.0405 50.5801 31.0224 50.6034 30.9872C50.6275 30.9515 50.6396 30.9029 50.6396 30.8413C50.6396 30.7685 50.629 30.7013 50.608 30.6398C50.5869 30.5783 50.5553 30.5229 50.5131 30.4736C50.4709 30.4243 50.4175 30.3812 50.3528 30.3441C50.294 30.3105 50.2421 30.2942 50.1969 30.2953C50.1525 30.2959 50.1175 30.3131 50.0919 30.3471C50.0671 30.3814 50.0546 30.4315 50.0546 30.4975L49.8457 30.3779C49.8457 30.2816 49.8668 30.2061 49.909 30.1513C49.9511 30.0965 50.0102 30.0674 50.0863 30.0641C50.163 30.0612 50.2519 30.0886 50.3528 30.1464C50.4521 30.2032 50.5391 30.2734 50.6136 30.3568C50.6881 30.4393 50.7461 30.5324 50.7875 30.6359C50.8289 30.7385 50.8496 30.8488 50.8496 30.9667C50.8496 31.0145 50.8398 31.06 50.8202 31.1035C50.8014 31.1465 50.7717 31.1798 50.731 31.2033C50.6911 31.2273 50.6392 31.2362 50.5752 31.2299C50.5112 31.2228 50.4344 31.1936 50.3448 31.1423L50.1664 31.0402V30.8945ZM50.1664 31.0923V30.9479L50.3448 31.05C50.4495 31.1099 50.5361 31.1737 50.6046 31.2415C50.6731 31.3094 50.7269 31.3783 50.766 31.4485C50.8059 31.519 50.8338 31.5874 50.8496 31.6537C50.8662 31.7196 50.8744 31.7807 50.8744 31.8371C50.8744 31.9255 50.8613 31.9965 50.8349 32.0499C50.8093 32.1038 50.7728 32.141 50.7254 32.1616C50.6787 32.1826 50.6238 32.1871 50.5605 32.1752C50.4973 32.1633 50.4284 32.136 50.3539 32.0934C50.2824 32.0525 50.215 32.0022 50.1518 31.9426C50.0893 31.8834 50.0339 31.8179 49.9858 31.7461C49.9376 31.6734 49.8999 31.5968 49.8728 31.5162C49.8457 31.4348 49.8322 31.352 49.8322 31.2679L50.0411 31.3874C50.0411 31.4534 50.0535 31.5182 50.0784 31.5818C50.104 31.6459 50.1401 31.7052 50.1868 31.7596C50.2342 31.8137 50.2899 31.859 50.3539 31.8956C50.4179 31.9322 50.4728 31.9511 50.5187 31.9523C50.5654 31.9529 50.6012 31.9344 50.626 31.8966C50.6516 31.8592 50.6644 31.801 50.6644 31.7221C50.6644 31.6431 50.6501 31.5703 50.6215 31.5036C50.5929 31.4361 50.5522 31.3751 50.4995 31.3207C50.4476 31.2658 50.3863 31.2181 50.3155 31.1776L50.1664 31.0923ZM50.8936 34.2782V34.567C50.8936 34.7223 50.8816 34.8464 50.8575 34.9393C50.8334 35.0322 50.7988 35.0982 50.7536 35.1374C50.7085 35.1766 50.6539 35.1927 50.5899 35.1855C50.5267 35.178 50.4551 35.1513 50.3753 35.1057C50.3121 35.0695 50.2538 35.027 50.2003 34.9782C50.1469 34.9294 50.0987 34.8727 50.0558 34.8083C50.0136 34.7434 49.9775 34.6698 49.9474 34.5875C49.9173 34.5052 49.8943 34.4132 49.8785 34.3113C49.8627 34.2094 49.8548 34.0965 49.8548 33.9725V33.6836C49.8548 33.5284 49.8668 33.4051 49.8909 33.314C49.9158 33.2232 49.9508 33.1591 49.9959 33.1217C50.0411 33.0833 50.0953 33.0684 50.1585 33.0768C50.2225 33.0857 50.294 33.1127 50.3731 33.158C50.4371 33.1946 50.4958 33.2373 50.5492 33.2861C50.6034 33.3345 50.6516 33.3903 50.6938 33.4534C50.7359 33.5157 50.7717 33.5873 50.801 33.6683C50.8312 33.7489 50.8541 33.8397 50.8699 33.9406C50.8857 34.0416 50.8936 34.1542 50.8936 34.2782ZM50.6836 34.4858V34.1176C50.6836 34.0326 50.6791 33.9555 50.6701 33.8861C50.6618 33.8163 50.6494 33.7537 50.6328 33.6982C50.6162 33.6428 50.5952 33.5934 50.5696 33.5502C50.5447 33.5073 50.5157 33.4699 50.4826 33.438C50.4502 33.4055 50.4137 33.3777 50.3731 33.3544C50.3234 33.326 50.2794 33.3116 50.241 33.3114C50.2026 33.3102 50.1702 33.3251 50.1438 33.356C50.1183 33.3873 50.0987 33.4364 50.0851 33.5032C50.0716 33.57 50.0648 33.6568 50.0648 33.7635V34.1317C50.0648 34.2167 50.0689 34.2941 50.0772 34.3639C50.0863 34.4341 50.0994 34.498 50.1167 34.5556C50.1341 34.6124 50.1551 34.6631 50.18 34.7076C50.2048 34.7522 50.2334 34.7911 50.2658 34.8244C50.2989 34.8572 50.3354 34.8851 50.3753 34.9079C50.4265 34.9372 50.4713 34.9516 50.5097 34.951C50.5481 34.9504 50.5801 34.9336 50.6057 34.9005C50.632 34.867 50.6516 34.8162 50.6644 34.7481C50.6772 34.6791 50.6836 34.5917 50.6836 34.4858ZM50.8936 37.2782V37.567C50.8936 37.7223 50.8816 37.8464 50.8575 37.9393C50.8334 38.0322 50.7988 38.0982 50.7536 38.1374C50.7085 38.1766 50.6539 38.1927 50.5899 38.1855C50.5267 38.178 50.4551 38.1513 50.3753 38.1057C50.3121 38.0695 50.2538 38.027 50.2003 37.9782C50.1469 37.9294 50.0987 37.8727 50.0558 37.8083C50.0136 37.7434 49.9775 37.6698 49.9474 37.5875C49.9173 37.5052 49.8943 37.4132 49.8785 37.3113C49.8627 37.2094 49.8548 37.0965 49.8548 36.9725V36.6836C49.8548 36.5284 49.8668 36.4051 49.8909 36.314C49.9158 36.2232 49.9508 36.1591 49.9959 36.1217C50.0411 36.0833 50.0953 36.0684 50.1585 36.0768C50.2225 36.0857 50.294 36.1127 50.3731 36.158C50.4371 36.1946 50.4958 36.2373 50.5492 36.2861C50.6034 36.3345 50.6516 36.3903 50.6938 36.4534C50.7359 36.5157 50.7717 36.5873 50.801 36.6683C50.8312 36.7489 50.8541 36.8397 50.8699 36.9406C50.8857 37.0416 50.8936 37.1542 50.8936 37.2782ZM50.6836 37.4858V37.1176C50.6836 37.0326 50.6791 36.9555 50.6701 36.8861C50.6618 36.8163 50.6494 36.7537 50.6328 36.6982C50.6162 36.6428 50.5952 36.5934 50.5696 36.5502C50.5447 36.5073 50.5157 36.4699 50.4826 36.438C50.4502 36.4055 50.4137 36.3777 50.3731 36.3544C50.3234 36.326 50.2794 36.3116 50.241 36.3114C50.2026 36.3102 50.1702 36.3251 50.1438 36.356C50.1183 36.3873 50.0987 36.4364 50.0851 36.5032C50.0716 36.57 50.0648 36.6568 50.0648 36.7635V37.1317C50.0648 37.2167 50.0689 37.2941 50.0772 37.3639C50.0863 37.4341 50.0994 37.498 50.1167 37.5556C50.1341 37.6124 50.1551 37.6631 50.18 37.7076C50.2048 37.7522 50.2334 37.7911 50.2658 37.8244C50.2989 37.8572 50.3354 37.8851 50.3753 37.9079C50.4265 37.9372 50.4713 37.9516 50.5097 37.951C50.5481 37.9504 50.5801 37.9336 50.6057 37.9005C50.632 37.867 50.6516 37.8162 50.6644 37.7481C50.6772 37.6791 50.6836 37.5917 50.6836 37.4858Z" fill="white"/>
<path d="M54.491 33.8076V34.0054L53.3031 33.3255V33.1837L54.0393 32.2923L54.2098 32.3899L54.0269 32.6651L53.5402 33.2635L54.491 33.8076ZM54.2618 32.4196V34.314L54.0529 34.1944V32.3L54.2618 32.4196ZM54.412 36.3018V36.5906C54.412 36.7459 54.3999 36.87 54.3758 36.9629C54.3517 37.0558 54.3171 37.1218 54.2719 37.161C54.2268 37.2002 54.1722 37.2163 54.1082 37.2091C54.045 37.2016 53.9734 37.175 53.8936 37.1293C53.8304 37.0931 53.7721 37.0506 53.7186 37.0018C53.6652 36.953 53.617 36.8964 53.5741 36.8319C53.5319 36.767 53.4958 36.6934 53.4657 36.6111C53.4356 36.5288 53.4126 36.4368 53.3968 36.3349C53.381 36.2331 53.3731 36.1201 53.3731 35.9961V35.7072C53.3731 35.552 53.3851 35.4288 53.4092 35.3376C53.4341 35.2469 53.4691 35.1828 53.5142 35.1453C53.5594 35.107 53.6136 35.092 53.6768 35.1004C53.7408 35.1093 53.8123 35.1364 53.8914 35.1816C53.9554 35.2182 54.0141 35.2609 54.0675 35.3097C54.1217 35.3581 54.1699 35.4139 54.2121 35.477C54.2542 35.5393 54.29 35.611 54.3194 35.692C54.3495 35.7725 54.3724 35.8633 54.3882 35.9643C54.404 36.0653 54.412 36.1778 54.412 36.3018ZM54.2019 36.5095V36.1413C54.2019 36.0563 54.1974 35.9791 54.1884 35.9097C54.1801 35.8399 54.1677 35.7773 54.1511 35.7219C54.1345 35.6664 54.1135 35.6171 54.0879 35.5738C54.063 35.5309 54.034 35.4935 54.0009 35.4616C53.9686 35.4292 53.932 35.4013 53.8914 35.3781C53.8417 35.3496 53.7977 35.3353 53.7593 35.335C53.7209 35.3338 53.6885 35.3487 53.6622 35.3796C53.6366 35.4109 53.617 35.46 53.6034 35.5268C53.5899 35.5937 53.5831 35.6804 53.5831 35.7871V36.1553C53.5831 36.2403 53.5873 36.3177 53.5955 36.3875C53.6046 36.4577 53.6177 36.5217 53.6351 36.5793C53.6524 36.636 53.6735 36.6867 53.6983 36.7313C53.7231 36.7758 53.7517 36.8148 53.7841 36.848C53.8172 36.8809 53.8537 36.9087 53.8936 36.9315C53.9448 36.9608 53.9896 36.9752 54.028 36.9746C54.0664 36.974 54.0984 36.9572 54.124 36.9242C54.1504 36.8907 54.1699 36.8398 54.1827 36.7717C54.1955 36.7027 54.2019 36.6153 54.2019 36.5095ZM54.412 39.3018V39.5906C54.412 39.7459 54.3999 39.87 54.3758 39.9629C54.3517 40.0558 54.3171 40.1218 54.2719 40.161C54.2268 40.2002 54.1722 40.2163 54.1082 40.2091C54.045 40.2016 53.9734 40.175 53.8936 40.1293C53.8304 40.0931 53.7721 40.0506 53.7186 40.0018C53.6652 39.953 53.617 39.8964 53.5741 39.8319C53.5319 39.767 53.4958 39.6934 53.4657 39.6111C53.4356 39.5288 53.4126 39.4368 53.3968 39.3349C53.381 39.2331 53.3731 39.1201 53.3731 38.9961V38.7072C53.3731 38.552 53.3851 38.4288 53.4092 38.3376C53.4341 38.2469 53.4691 38.1828 53.5142 38.1453C53.5594 38.107 53.6136 38.092 53.6768 38.1004C53.7408 38.1093 53.8123 38.1364 53.8914 38.1816C53.9554 38.2182 54.0141 38.2609 54.0675 38.3097C54.1217 38.3581 54.1699 38.4139 54.2121 38.477C54.2542 38.5393 54.29 38.611 54.3194 38.692C54.3495 38.7725 54.3724 38.8633 54.3882 38.9643C54.404 39.0653 54.412 39.1778 54.412 39.3018ZM54.2019 39.5095V39.1413C54.2019 39.0563 54.1974 38.9791 54.1884 38.9097C54.1801 38.8399 54.1677 38.7773 54.1511 38.7219C54.1345 38.6664 54.1135 38.6171 54.0879 38.5738C54.063 38.5309 54.034 38.4935 54.0009 38.4616C53.9686 38.4292 53.932 38.4013 53.8914 38.3781C53.8417 38.3496 53.7977 38.3353 53.7593 38.335C53.7209 38.3338 53.6885 38.3487 53.6622 38.3796C53.6366 38.4109 53.617 38.46 53.6034 38.5268C53.5899 38.5937 53.5831 38.6804 53.5831 38.7871V39.1553C53.5831 39.2403 53.5873 39.3177 53.5955 39.3875C53.6046 39.4577 53.6177 39.5217 53.6351 39.5793C53.6524 39.636 53.6735 39.6867 53.6983 39.7313C53.7231 39.7758 53.7517 39.8148 53.7841 39.848C53.8172 39.8809 53.8537 39.9087 53.8936 39.9315C53.9448 39.9608 53.9896 39.9752 54.028 39.9746C54.0664 39.974 54.0984 39.9572 54.124 39.9242C54.1504 39.8907 54.1699 39.8398 54.1827 39.7717C54.1955 39.7027 54.2019 39.6153 54.2019 39.5095Z" fill="white"/>
<path d="M57.1267 35.0608L56.9596 34.9157L57.042 34.0196L57.8855 34.5023V34.7248L57.2193 34.3435L57.1696 34.8303C57.1997 34.8276 57.2377 34.8307 57.2837 34.8396C57.3303 34.849 57.3838 34.8709 57.444 34.9054C57.52 34.9489 57.5882 35.0031 57.6484 35.0679C57.7086 35.1319 57.7598 35.2037 57.802 35.2833C57.8449 35.3634 57.8776 35.4489 57.9002 35.5399C57.9228 35.6309 57.9341 35.7245 57.9341 35.8208C57.9341 35.9119 57.9232 35.9893 57.9013 36.0531C57.8803 36.1174 57.8483 36.1659 57.8053 36.1986C57.7624 36.2304 57.7082 36.2432 57.6427 36.2369C57.578 36.2311 57.5016 36.203 57.4135 36.1526C57.3473 36.1147 57.2844 36.0683 57.2249 36.0134C57.1662 35.9581 57.1135 35.8954 57.0668 35.8254C57.0209 35.7548 56.9833 35.6787 56.9539 35.5968C56.9253 35.5145 56.9073 35.427 56.8997 35.3342L57.0985 35.4479C57.1075 35.5242 57.1256 35.5944 57.1527 35.6585C57.1798 35.7226 57.2152 35.7797 57.2588 35.8298C57.3032 35.8795 57.3548 35.9212 57.4135 35.9548C57.4632 35.9832 57.5072 35.9985 57.5456 36.0005C57.584 36.0025 57.6164 35.9924 57.6427 35.9702C57.6691 35.948 57.689 35.9143 57.7026 35.8691C57.7169 35.8244 57.724 35.7691 57.724 35.7032C57.724 35.6433 57.7169 35.5837 57.7026 35.5244C57.6883 35.465 57.6668 35.4081 57.6382 35.3535C57.6104 35.2994 57.5761 35.2503 57.5355 35.2062C57.4948 35.1613 57.4481 35.1237 57.3954 35.0936C57.3254 35.0535 57.2724 35.034 57.2362 35.035C57.2008 35.0364 57.1643 35.045 57.1267 35.0608ZM57.8946 38.3038V38.5926C57.8946 38.7479 57.8825 38.8719 57.8584 38.9648C57.8343 39.0577 57.7997 39.1238 57.7545 39.163C57.7094 39.2022 57.6548 39.2182 57.5908 39.2111C57.5276 39.2035 57.456 39.1769 57.3763 39.1312C57.313 39.0951 57.2547 39.0526 57.2012 39.0037C57.1478 38.9549 57.0996 38.8983 57.0567 38.8339C57.0145 38.769 56.9784 38.6954 56.9483 38.6131C56.9182 38.5308 56.8952 38.4387 56.8794 38.3369C56.8636 38.235 56.8557 38.1221 56.8557 37.998V37.7092C56.8557 37.5539 56.8677 37.4307 56.8918 37.3396C56.9167 37.2488 56.9517 37.1847 56.9968 37.1473C57.042 37.1089 57.0962 37.094 57.1594 37.1024C57.2234 37.1113 57.2949 37.1383 57.374 37.1836C57.438 37.2202 57.4967 37.2629 57.5501 37.3117C57.6044 37.3601 57.6525 37.4158 57.6947 37.479C57.7368 37.5413 57.7726 37.6129 57.802 37.6939C57.8321 37.7745 57.855 37.8652 57.8708 37.9662C57.8867 38.0672 57.8946 38.1797 57.8946 38.3038ZM57.6845 38.5114V38.1432C57.6845 38.0582 57.68 37.981 57.671 37.9117C57.6627 37.8419 57.6503 37.7793 57.6337 37.7238C57.6171 37.6684 57.5961 37.619 57.5705 37.5757C57.5456 37.5329 57.5166 37.4955 57.4835 37.4635C57.4512 37.4311 57.4146 37.4033 57.374 37.38C57.3243 37.3516 57.2803 37.3372 57.2419 37.3369C57.2035 37.3358 57.1711 37.3506 57.1448 37.3815C57.1192 37.4129 57.0996 37.4619 57.086 37.5288C57.0725 37.5956 57.0657 37.6824 57.0657 37.7891V38.1573C57.0657 38.2423 57.0699 38.3197 57.0781 38.3895C57.0872 38.4597 57.1003 38.5236 57.1177 38.5812C57.135 38.638 57.1561 38.6886 57.1809 38.7332C57.2057 38.7778 57.2343 38.8167 57.2667 38.85C57.2998 38.8828 57.3364 38.9106 57.3763 38.9335C57.4274 38.9628 57.4722 38.9771 57.5106 38.9766C57.549 38.976 57.581 38.9592 57.6066 38.9261C57.633 38.8926 57.6525 38.8418 57.6653 38.7737C57.6781 38.7047 57.6845 38.6172 57.6845 38.5114ZM57.8946 41.3038V41.5926C57.8946 41.7479 57.8825 41.8719 57.8584 41.9648C57.8343 42.0577 57.7997 42.1238 57.7545 42.163C57.7094 42.2022 57.6548 42.2182 57.5908 42.2111C57.5276 42.2035 57.456 42.1769 57.3763 42.1312C57.313 42.0951 57.2547 42.0526 57.2012 42.0037C57.1478 41.9549 57.0996 41.8983 57.0567 41.8339C57.0145 41.769 56.9784 41.6954 56.9483 41.6131C56.9182 41.5308 56.8952 41.4387 56.8794 41.3369C56.8636 41.235 56.8557 41.1221 56.8557 40.998V40.7092C56.8557 40.5539 56.8677 40.4307 56.8918 40.3396C56.9167 40.2488 56.9517 40.1847 56.9968 40.1473C57.042 40.1089 57.0962 40.094 57.1594 40.1024C57.2234 40.1113 57.2949 40.1383 57.374 40.1836C57.438 40.2202 57.4967 40.2629 57.5501 40.3117C57.6044 40.3601 57.6525 40.4158 57.6947 40.479C57.7368 40.5413 57.7726 40.6129 57.802 40.6939C57.8321 40.7745 57.855 40.8652 57.8708 40.9662C57.8867 41.0672 57.8946 41.1797 57.8946 41.3038ZM57.6845 41.5114V41.1432C57.6845 41.0582 57.68 40.981 57.671 40.9117C57.6627 40.8419 57.6503 40.7793 57.6337 40.7238C57.6171 40.6684 57.5961 40.619 57.5705 40.5757C57.5456 40.5329 57.5166 40.4955 57.4835 40.4635C57.4512 40.4311 57.4146 40.4033 57.374 40.38C57.3243 40.3516 57.2803 40.3372 57.2419 40.3369C57.2035 40.3358 57.1711 40.3506 57.1448 40.3815C57.1192 40.4129 57.0996 40.4619 57.086 40.5288C57.0725 40.5956 57.0657 40.6824 57.0657 40.7891V41.1573C57.0657 41.2423 57.0699 41.3197 57.0781 41.3895C57.0872 41.4597 57.1003 41.5236 57.1177 41.5812C57.135 41.638 57.1561 41.6886 57.1809 41.7332C57.2057 41.7778 57.2343 41.8167 57.2667 41.85C57.2998 41.8828 57.3364 41.9106 57.3763 41.9335C57.4274 41.9628 57.4722 41.9771 57.5106 41.9766C57.549 41.976 57.581 41.9592 57.6066 41.9261C57.633 41.8926 57.6525 41.8418 57.6653 41.7737C57.6781 41.7047 57.6845 41.6172 57.6845 41.5114Z" fill="white"/>
<path d="M61.1721 36.3904L61.1901 36.4007V36.605L61.1721 36.5947C61.0614 36.5313 60.9688 36.4992 60.8943 36.4981C60.8198 36.4963 60.7607 36.5175 60.717 36.5619C60.6733 36.6054 60.6417 36.6645 60.6222 36.7392C60.6033 36.8143 60.5939 36.8961 60.5939 36.9846V37.263C60.5939 37.3471 60.6026 37.4267 60.6199 37.5016C60.6372 37.5757 60.6609 37.6435 60.691 37.705C60.7211 37.7665 60.755 37.8192 60.7927 37.8633C60.8311 37.9079 60.871 37.942 60.9124 37.9657C60.9605 37.9932 61.0034 38.0074 61.0411 38.0081C61.0787 38.008 61.1103 37.9961 61.1359 37.9726C61.1623 37.9487 61.1822 37.9141 61.1958 37.869C61.2093 37.8238 61.2161 37.7696 61.2161 37.7063C61.2161 37.6499 61.2101 37.5922 61.198 37.5333C61.186 37.4735 61.1676 37.4161 61.1427 37.3611C61.1179 37.3053 61.0866 37.2548 61.049 37.2099C61.0121 37.1645 60.9681 37.1271 60.9169 37.0978C60.8589 37.0647 60.8047 37.0501 60.7543 37.0542C60.7046 37.0579 60.6636 37.0769 60.6312 37.1113C60.5996 37.1452 60.5815 37.1917 60.577 37.2507L60.4663 37.1861C60.4769 37.095 60.4964 37.0233 60.525 36.9712C60.5544 36.9186 60.5905 36.8829 60.6334 36.8641C60.6771 36.8448 60.7257 36.8405 60.7791 36.8512C60.8333 36.8614 60.8905 36.8837 60.9507 36.9182C61.0328 36.9651 61.1036 37.0234 61.163 37.093C61.2225 37.1626 61.2714 37.2383 61.3098 37.3201C61.3482 37.4011 61.3765 37.484 61.3945 37.569C61.4133 37.6535 61.4228 37.7348 61.4228 37.8128C61.4228 37.9022 61.4118 37.9796 61.39 38.0452C61.3682 38.1108 61.3354 38.1605 61.2918 38.1945C61.2489 38.2289 61.1958 38.2445 61.1326 38.2413C61.0693 38.2381 60.9959 38.2126 60.9124 38.1647C60.8235 38.1139 60.746 38.0487 60.6797 37.9692C60.6135 37.8887 60.5585 37.8009 60.5149 37.7057C60.4712 37.6104 60.4385 37.5136 60.4166 37.4152C60.3948 37.3169 60.3839 37.2235 60.3839 37.135V37.0218C60.3839 36.8882 60.3956 36.7639 60.4189 36.6489C60.4422 36.5339 60.4825 36.4407 60.5397 36.3694C60.5977 36.2985 60.6779 36.2615 60.7802 36.2585C60.8826 36.2555 61.0132 36.2995 61.1721 36.3904ZM61.4024 40.3211V40.6099C61.4024 40.7652 61.3904 40.8893 61.3663 40.9822C61.3422 41.0751 61.3076 41.1411 61.2624 41.1803C61.2172 41.2195 61.1627 41.2356 61.0987 41.2284C61.0354 41.2209 60.9639 41.1942 60.8841 41.1486C60.8209 41.1124 60.7625 41.0699 60.7091 41.0211C60.6556 40.9723 60.6075 40.9156 60.5646 40.8512C60.5224 40.7863 60.4863 40.7127 60.4562 40.6304C60.426 40.5481 60.4031 40.4561 60.3873 40.3542C60.3715 40.2523 60.3636 40.1394 60.3636 40.0154V39.7265C60.3636 39.5713 60.3756 39.4481 60.3997 39.3569C60.4245 39.2662 60.4595 39.2021 60.5047 39.1646C60.5499 39.1263 60.6041 39.1113 60.6673 39.1197C60.7313 39.1286 60.8028 39.1557 60.8819 39.2009C60.9459 39.2375 61.0046 39.2802 61.058 39.329C61.1122 39.3774 61.1604 39.4332 61.2026 39.4963C61.2447 39.5586 61.2805 39.6303 61.3098 39.7112C61.3399 39.7918 61.3629 39.8826 61.3787 39.9836C61.3945 40.0845 61.4024 40.1971 61.4024 40.3211ZM61.1924 40.5288V40.1606C61.1924 40.0756 61.1879 39.9984 61.1788 39.929C61.1706 39.8592 61.1581 39.7966 61.1416 39.7412C61.125 39.6857 61.1039 39.6363 61.0783 39.5931C61.0535 39.5502 61.0245 39.5128 60.9914 39.4809C60.959 39.4485 60.9225 39.4206 60.8819 39.3974C60.8322 39.3689 60.7881 39.3546 60.7498 39.3543C60.7114 39.3531 60.679 39.368 60.6526 39.3989C60.627 39.4302 60.6075 39.4793 60.5939 39.5461C60.5804 39.613 60.5736 39.6997 60.5736 39.8064V40.1746C60.5736 40.2596 60.5777 40.337 60.586 40.4068C60.595 40.477 60.6082 40.5409 60.6255 40.5986C60.6429 40.6553 60.6639 40.706 60.6888 40.7505C60.7136 40.7951 60.7422 40.834 60.7746 40.8673C60.8077 40.9001 60.8442 40.928 60.8841 40.9508C60.9353 40.9801 60.9801 40.9945 61.0185 40.9939C61.0569 40.9933 61.0889 40.9765 61.1145 40.9434C61.1408 40.9099 61.1604 40.8591 61.1732 40.791C61.186 40.722 61.1924 40.6346 61.1924 40.5288ZM61.4024 43.3211V43.6099C61.4024 43.7652 61.3904 43.8893 61.3663 43.9822C61.3422 44.0751 61.3076 44.1411 61.2624 44.1803C61.2172 44.2195 61.1627 44.2356 61.0987 44.2284C61.0354 44.2209 60.9639 44.1942 60.8841 44.1486C60.8209 44.1124 60.7625 44.0699 60.7091 44.0211C60.6556 43.9723 60.6075 43.9156 60.5646 43.8512C60.5224 43.7863 60.4863 43.7127 60.4562 43.6304C60.426 43.5481 60.4031 43.4561 60.3873 43.3542C60.3715 43.2523 60.3636 43.1394 60.3636 43.0154V42.7265C60.3636 42.5713 60.3756 42.4481 60.3997 42.3569C60.4245 42.2662 60.4595 42.2021 60.5047 42.1646C60.5499 42.1263 60.6041 42.1113 60.6673 42.1197C60.7313 42.1286 60.8028 42.1557 60.8819 42.2009C60.9459 42.2375 61.0046 42.2802 61.058 42.329C61.1122 42.3774 61.1604 42.4332 61.2026 42.4963C61.2447 42.5586 61.2805 42.6303 61.3098 42.7112C61.3399 42.7918 61.3629 42.8826 61.3787 42.9836C61.3945 43.0845 61.4024 43.1971 61.4024 43.3211ZM61.1924 43.5288V43.1606C61.1924 43.0756 61.1879 42.9984 61.1788 42.929C61.1706 42.8592 61.1581 42.7966 61.1416 42.7412C61.125 42.6857 61.1039 42.6363 61.0783 42.5931C61.0535 42.5502 61.0245 42.5128 60.9914 42.4809C60.959 42.4485 60.9225 42.4206 60.8819 42.3974C60.8322 42.3689 60.7881 42.3546 60.7498 42.3543C60.7114 42.3531 60.679 42.368 60.6526 42.3989C60.627 42.4302 60.6075 42.4793 60.5939 42.5461C60.5804 42.613 60.5736 42.6997 60.5736 42.8064V43.1746C60.5736 43.2596 60.5777 43.337 60.586 43.4068C60.595 43.477 60.6082 43.5409 60.6255 43.5986C60.6429 43.6553 60.6639 43.706 60.6888 43.7505C60.7136 43.7951 60.7422 43.834 60.7746 43.8673C60.8077 43.9001 60.8442 43.928 60.8841 43.9508C60.9353 43.9801 60.9801 43.9945 61.0185 43.9939C61.0569 43.9933 61.0889 43.9765 61.1145 43.9434C61.1408 43.9099 61.1604 43.8591 61.1732 43.791C61.186 43.722 61.1924 43.6346 61.1924 43.5288Z" fill="white"/>
<path d="M64.6696 38.398L64.6876 38.4084V38.6126L64.6696 38.6023C64.5589 38.539 64.4663 38.5068 64.3918 38.5058C64.3173 38.5039 64.2582 38.5251 64.2145 38.5695C64.1708 38.6131 64.1392 38.6722 64.1196 38.7468C64.1008 38.8219 64.0914 38.9037 64.0914 38.9922V39.2706C64.0914 39.3548 64.1001 39.4343 64.1174 39.5093C64.1347 39.5834 64.1584 39.6512 64.1885 39.7126C64.2186 39.7741 64.2525 39.8269 64.2902 39.871C64.3286 39.9155 64.3685 39.9496 64.4099 39.9733C64.458 40.0009 64.5009 40.015 64.5386 40.0157C64.5762 40.0156 64.6078 40.0038 64.6334 39.9803C64.6598 39.9563 64.6797 39.9218 64.6933 39.8766C64.7068 39.8314 64.7136 39.7772 64.7136 39.7139C64.7136 39.6575 64.7076 39.5999 64.6955 39.5409C64.6835 39.4811 64.6651 39.4237 64.6402 39.3687C64.6154 39.3129 64.5841 39.2625 64.5465 39.2175C64.5096 39.1721 64.4656 39.1348 64.4144 39.1055C64.3564 39.0723 64.3022 39.0578 64.2518 39.0619C64.2021 39.0655 64.1611 39.0845 64.1287 39.1189C64.0971 39.1529 64.079 39.1993 64.0745 39.2583L63.9638 39.1937C63.9744 39.1026 63.9939 39.0309 64.0225 38.9788C64.0519 38.9262 64.088 38.8905 64.1309 38.8717C64.1746 38.8525 64.2232 38.8482 64.2766 38.8588C64.3308 38.869 64.388 38.8913 64.4482 38.9258C64.5303 38.9728 64.6011 39.031 64.6605 39.1006C64.72 39.1702 64.7689 39.2459 64.8073 39.3278C64.8457 39.4087 64.874 39.4917 64.892 39.5766C64.9108 39.6611 64.9203 39.7424 64.9203 39.8204C64.9203 39.9098 64.9093 39.9872 64.8875 40.0528C64.8657 40.1184 64.8329 40.1682 64.7893 40.2022C64.7464 40.2366 64.6933 40.2522 64.63 40.2489C64.5668 40.2457 64.4934 40.2202 64.4099 40.1724C64.321 40.1215 64.2435 40.0563 64.1772 39.9768C64.111 39.8964 64.056 39.8085 64.0124 39.7133C63.9687 39.618 63.936 39.5212 63.9141 39.4229C63.8923 39.3245 63.8814 39.2311 63.8814 39.1426V39.0294C63.8814 38.8958 63.8931 38.7716 63.9164 38.6565C63.9397 38.5415 63.98 38.4483 64.0372 38.377C64.0952 38.3061 64.1754 38.2691 64.2777 38.2662C64.3801 38.2632 64.5107 38.3071 64.6696 38.398ZM64.8999 42.3287V42.6176C64.8999 42.7728 64.8879 42.8969 64.8638 42.9898C64.8397 43.0827 64.8051 43.1487 64.7599 43.188C64.7147 43.2272 64.6602 43.2432 64.5962 43.2361C64.5329 43.2285 64.4614 43.2019 64.3816 43.1562C64.3184 43.12 64.26 43.0775 64.2066 43.0287C64.1531 42.9799 64.105 42.9233 64.0621 42.8588C64.0199 42.7939 63.9838 42.7203 63.9537 42.638C63.9235 42.5558 63.9006 42.4637 63.8848 42.3618C63.869 42.26 63.8611 42.147 63.8611 42.023V41.7342C63.8611 41.5789 63.8731 41.4557 63.8972 41.3645C63.922 41.2738 63.957 41.2097 64.0022 41.1722C64.0474 41.1339 64.1016 41.1189 64.1648 41.1274C64.2288 41.1362 64.3003 41.1633 64.3794 41.2085C64.4434 41.2451 64.5021 41.2879 64.5555 41.3367C64.6097 41.385 64.6579 41.4408 64.7001 41.504C64.7422 41.5662 64.778 41.6379 64.8073 41.7189C64.8374 41.7994 64.8604 41.8902 64.8762 41.9912C64.892 42.0922 64.8999 42.2047 64.8999 42.3287ZM64.6899 42.5364V42.1682C64.6899 42.0832 64.6854 42.006 64.6763 41.9366C64.6681 41.8669 64.6556 41.8042 64.6391 41.7488C64.6225 41.6933 64.6014 41.644 64.5758 41.6007C64.551 41.5579 64.522 41.5205 64.4889 41.4885C64.4565 41.4561 64.42 41.4282 64.3794 41.405C64.3297 41.3765 64.2856 41.3622 64.2472 41.3619C64.2089 41.3607 64.1765 41.3756 64.1501 41.4065C64.1245 41.4378 64.105 41.4869 64.0914 41.5537C64.0779 41.6206 64.0711 41.7073 64.0711 41.814V42.1822C64.0711 42.2672 64.0752 42.3446 64.0835 42.4144C64.0925 42.4846 64.1057 42.5486 64.123 42.6062C64.1404 42.6629 64.1614 42.7136 64.1863 42.7582C64.2111 42.8027 64.2397 42.8417 64.2721 42.8749C64.3052 42.9078 64.3417 42.9356 64.3816 42.9584C64.4328 42.9877 64.4776 43.0021 64.516 43.0015C64.5544 43.0009 64.5864 42.9841 64.612 42.9511C64.6383 42.9176 64.6579 42.8668 64.6707 42.7986C64.6835 42.7296 64.6899 42.6422 64.6899 42.5364ZM64.8999 45.3287V45.6176C64.8999 45.7728 64.8879 45.8969 64.8638 45.9898C64.8397 46.0827 64.8051 46.1487 64.7599 46.188C64.7147 46.2272 64.6602 46.2432 64.5962 46.2361C64.5329 46.2285 64.4614 46.2019 64.3816 46.1562C64.3184 46.12 64.26 46.0775 64.2066 46.0287C64.1531 45.9799 64.105 45.9233 64.0621 45.8588C64.0199 45.7939 63.9838 45.7203 63.9537 45.638C63.9235 45.5558 63.9006 45.4637 63.8848 45.3618C63.869 45.26 63.8611 45.147 63.8611 45.023V44.7342C63.8611 44.5789 63.8731 44.4557 63.8972 44.3645C63.922 44.2738 63.957 44.2097 64.0022 44.1722C64.0474 44.1339 64.1016 44.1189 64.1648 44.1274C64.2288 44.1362 64.3003 44.1633 64.3794 44.2085C64.4434 44.2451 64.5021 44.2879 64.5555 44.3367C64.6097 44.385 64.6579 44.4408 64.7001 44.504C64.7422 44.5662 64.778 44.6379 64.8073 44.7189C64.8374 44.7994 64.8604 44.8902 64.8762 44.9912C64.892 45.0922 64.8999 45.2047 64.8999 45.3287ZM64.6899 45.5364V45.1682C64.6899 45.0832 64.6854 45.006 64.6763 44.9366C64.6681 44.8669 64.6556 44.8042 64.6391 44.7488C64.6225 44.6933 64.6014 44.644 64.5758 44.6007C64.551 44.5579 64.522 44.5205 64.4889 44.4885C64.4565 44.4561 64.42 44.4282 64.3794 44.405C64.3297 44.3765 64.2856 44.3622 64.2472 44.3619C64.2089 44.3607 64.1765 44.3756 64.1501 44.4065C64.1245 44.4378 64.105 44.4869 64.0914 44.5537C64.0779 44.6206 64.0711 44.7073 64.0711 44.814V45.1822C64.0711 45.2672 64.0752 45.3446 64.0835 45.4144C64.0925 45.4846 64.1057 45.5486 64.123 45.6062C64.1404 45.6629 64.1614 45.7136 64.1863 45.7582C64.2111 45.8027 64.2397 45.8417 64.2721 45.8749C64.3052 45.9078 64.3417 45.9356 64.3816 45.9584C64.4328 45.9877 64.4776 46.0021 64.516 46.0015C64.5544 46.0009 64.5864 45.9841 64.612 45.9511C64.6383 45.9176 64.6579 45.8668 64.6707 45.7986C64.6835 45.7296 64.6899 45.6422 64.6899 45.5364Z" fill="white"/>
<path d="M68.4084 40.5535V40.6888L67.7275 42.0582L67.5073 41.9322L68.1871 40.6246L67.2973 40.1154V39.9176L68.4084 40.5535ZM68.378 44.3323V44.6212C68.378 44.7764 68.3659 44.9005 68.3418 44.9934C68.3177 45.0863 68.2831 45.1524 68.2379 45.1916C68.1928 45.2308 68.1382 45.2468 68.0742 45.2397C68.011 45.2321 67.9394 45.2055 67.8596 45.1598C67.7964 45.1236 67.7381 45.0811 67.6846 45.0323C67.6312 44.9835 67.583 44.9269 67.5401 44.8624C67.4979 44.7975 67.4618 44.7239 67.4317 44.6416C67.4016 44.5594 67.3786 44.4673 67.3628 44.3654C67.347 44.2636 67.3391 44.1506 67.3391 44.0266V43.7378C67.3391 43.5825 67.3511 43.4593 67.3752 43.3681C67.4001 43.2774 67.4351 43.2133 67.4802 43.1758C67.5254 43.1375 67.5796 43.1225 67.6428 43.131C67.7068 43.1398 67.7783 43.1669 67.8574 43.2121C67.9214 43.2487 67.9801 43.2915 68.0335 43.3403C68.0877 43.3886 68.1359 43.4444 68.1781 43.5076C68.2202 43.5698 68.256 43.6415 68.2854 43.7225C68.3155 43.803 68.3384 43.8938 68.3542 43.9948C68.37 44.0958 68.378 44.2083 68.378 44.3323ZM68.1679 44.54V44.1718C68.1679 44.0868 68.1634 44.0096 68.1544 43.9403C68.1461 43.8705 68.1337 43.8078 68.1171 43.7524C68.1005 43.6969 68.0795 43.6476 68.0539 43.6043C68.029 43.5615 68 43.5241 67.9669 43.4921C67.9346 43.4597 67.898 43.4319 67.8574 43.4086C67.8077 43.3802 67.7637 43.3658 67.7253 43.3655C67.6869 43.3643 67.6545 43.3792 67.6282 43.4101C67.6026 43.4414 67.583 43.4905 67.5694 43.5573C67.5559 43.6242 67.5491 43.7109 67.5491 43.8176V44.1858C67.5491 44.2708 67.5533 44.3482 67.5615 44.418C67.5706 44.4882 67.5837 44.5522 67.6011 44.6098C67.6184 44.6665 67.6395 44.7172 67.6643 44.7618C67.6891 44.8063 67.7177 44.8453 67.7501 44.8785C67.7832 44.9114 67.8198 44.9392 67.8596 44.962C67.9108 44.9913 67.9556 45.0057 67.994 45.0051C68.0324 45.0045 68.0644 44.9877 68.09 44.9547C68.1164 44.9212 68.1359 44.8704 68.1487 44.8022C68.1615 44.7332 68.1679 44.6458 68.1679 44.54ZM68.378 47.3323V47.6212C68.378 47.7764 68.3659 47.9005 68.3418 47.9934C68.3177 48.0863 68.2831 48.1524 68.2379 48.1916C68.1928 48.2308 68.1382 48.2468 68.0742 48.2397C68.011 48.2321 67.9394 48.2055 67.8596 48.1598C67.7964 48.1236 67.7381 48.0811 67.6846 48.0323C67.6312 47.9835 67.583 47.9269 67.5401 47.8624C67.4979 47.7975 67.4618 47.7239 67.4317 47.6416C67.4016 47.5594 67.3786 47.4673 67.3628 47.3654C67.347 47.2636 67.3391 47.1506 67.3391 47.0266V46.7378C67.3391 46.5825 67.3511 46.4593 67.3752 46.3681C67.4001 46.2774 67.4351 46.2133 67.4802 46.1758C67.5254 46.1375 67.5796 46.1225 67.6428 46.131C67.7068 46.1398 67.7783 46.1669 67.8574 46.2121C67.9214 46.2487 67.9801 46.2915 68.0335 46.3403C68.0877 46.3886 68.1359 46.4444 68.1781 46.5076C68.2202 46.5698 68.256 46.6415 68.2854 46.7225C68.3155 46.803 68.3384 46.8938 68.3542 46.9948C68.37 47.0958 68.378 47.2083 68.378 47.3323ZM68.1679 47.54V47.1718C68.1679 47.0868 68.1634 47.0096 68.1544 46.9403C68.1461 46.8705 68.1337 46.8078 68.1171 46.7524C68.1005 46.6969 68.0795 46.6476 68.0539 46.6043C68.029 46.5615 68 46.5241 67.9669 46.4921C67.9346 46.4597 67.898 46.4319 67.8574 46.4086C67.8077 46.3802 67.7637 46.3658 67.7253 46.3655C67.6869 46.3643 67.6545 46.3792 67.6282 46.4101C67.6026 46.4414 67.583 46.4905 67.5694 46.5573C67.5559 46.6242 67.5491 46.7109 67.5491 46.8176V47.1858C67.5491 47.2708 67.5533 47.3482 67.5615 47.418C67.5706 47.4882 67.5837 47.5522 67.6011 47.6098C67.6184 47.6665 67.6395 47.7172 67.6643 47.7618C67.6891 47.8063 67.7177 47.8453 67.7501 47.8785C67.7832 47.9114 67.8198 47.9392 67.8596 47.962C67.9108 47.9913 67.9556 48.0057 67.994 48.0051C68.0324 48.0045 68.0644 47.9877 68.09 47.9547C68.1164 47.9212 68.1359 47.8704 68.1487 47.8022C68.1615 47.7332 68.1679 47.6458 68.1679 47.54Z" fill="white"/>
<path d="M71.8852 43.932C71.8852 44.0474 71.8618 44.1321 71.8151 44.186C71.7692 44.2395 71.7067 44.2645 71.6277 44.2609C71.5494 44.2577 71.461 44.2279 71.3623 44.1715C71.2637 44.115 71.1749 44.0434 71.0958 43.9565C71.0168 43.8696 70.9543 43.7731 70.9084 43.6671C70.8625 43.5601 70.8395 43.449 70.8395 43.3336C70.8395 43.2581 70.8519 43.1963 70.8768 43.1481C70.9024 43.0994 70.9381 43.0648 70.9841 43.0442C71.0307 43.0241 71.0857 43.0196 71.1489 43.0306C71.2129 43.0412 71.2833 43.0685 71.3601 43.1124C71.461 43.1701 71.5509 43.2442 71.63 43.3345C71.709 43.424 71.7711 43.5207 71.8163 43.6246C71.8622 43.729 71.8852 43.8314 71.8852 43.932ZM71.6751 43.8066C71.6751 43.7364 71.662 43.6668 71.6356 43.598C71.6093 43.5282 71.5724 43.4646 71.5249 43.4071C71.4775 43.3496 71.4226 43.303 71.3601 43.2672C71.2961 43.2306 71.2408 43.2141 71.1941 43.2178C71.1482 43.2218 71.1124 43.2439 71.0868 43.2839C71.0612 43.323 71.0484 43.3777 71.0484 43.448C71.0484 43.5208 71.0608 43.5904 71.0857 43.6566C71.1113 43.7225 71.1474 43.7826 71.1941 43.8371C71.2415 43.8911 71.2976 43.9367 71.3623 43.9737C71.4271 44.0108 71.4828 44.0292 71.5295 44.029C71.5761 44.028 71.6119 44.009 71.6367 43.972C71.6623 43.9346 71.6751 43.8795 71.6751 43.8066ZM71.8468 43.0215C71.8468 43.1134 71.8257 43.1842 71.7835 43.2338C71.7414 43.2834 71.6838 43.3085 71.6108 43.3092C71.5377 43.3099 71.4549 43.2838 71.3623 43.2308C71.2682 43.1769 71.1843 43.1077 71.1105 43.0229C71.0375 42.9386 70.9803 42.8478 70.9389 42.7504C70.8975 42.6529 70.8768 42.5582 70.8768 42.4663C70.8768 42.3561 70.8975 42.2743 70.9389 42.2208C70.981 42.1678 71.0386 42.1417 71.1117 42.1428C71.1847 42.1438 71.2679 42.171 71.3612 42.2244C71.4553 42.2783 71.5389 42.3465 71.6119 42.4291C71.6849 42.5116 71.7421 42.6033 71.7835 42.7042C71.8257 42.8056 71.8468 42.9113 71.8468 43.0215ZM71.6379 42.9058C71.6379 42.8425 71.6262 42.7799 71.6029 42.7179C71.5795 42.656 71.5471 42.5993 71.5057 42.5478C71.4643 42.4955 71.4162 42.4536 71.3612 42.4222C71.3063 42.3907 71.2581 42.3766 71.2167 42.3798C71.176 42.3826 71.144 42.4015 71.1207 42.4368C71.0981 42.4724 71.0868 42.5236 71.0868 42.5904C71.0868 42.6555 71.0981 42.7187 71.1207 42.7802C71.144 42.8422 71.1764 42.8984 71.2178 42.949C71.2592 42.9996 71.3074 43.0406 71.3623 43.0721C71.4173 43.1035 71.4651 43.1174 71.5057 43.1138C71.5471 43.1106 71.5795 43.0914 71.6029 43.0562C71.6262 43.021 71.6379 42.9708 71.6379 42.9058ZM71.8806 46.344V46.6328C71.8806 46.7881 71.8686 46.9122 71.8445 47.0051C71.8204 47.098 71.7858 47.164 71.7406 47.2032C71.6954 47.2424 71.6409 47.2585 71.5769 47.2513C71.5136 47.2438 71.4421 47.2171 71.3623 47.1715C71.2991 47.1353 71.2408 47.0928 71.1873 47.044C71.1339 46.9952 71.0857 46.9385 71.0428 46.8741C71.0006 46.8092 70.9645 46.7356 70.9344 46.6533C70.9043 46.571 70.8813 46.4789 70.8655 46.3771C70.8497 46.2752 70.8418 46.1623 70.8418 46.0383V45.7494C70.8418 45.5942 70.8538 45.4709 70.8779 45.3798C70.9027 45.289 70.9378 45.2249 70.9829 45.1875C71.0281 45.1491 71.0823 45.1342 71.1455 45.1426C71.2095 45.1515 71.281 45.1785 71.3601 45.2238C71.4241 45.2604 71.4828 45.3031 71.5362 45.3519C71.5904 45.4003 71.6386 45.4561 71.6808 45.5192C71.7229 45.5815 71.7587 45.6531 71.788 45.7341C71.8182 45.8147 71.8411 45.9055 71.8569 46.0064C71.8727 46.1074 71.8806 46.22 71.8806 46.344ZM71.6706 46.5516V46.1834C71.6706 46.0984 71.6661 46.0213 71.6571 45.9519C71.6488 45.8821 71.6364 45.8195 71.6198 45.764C71.6032 45.7086 71.5822 45.6592 71.5566 45.616C71.5317 45.5731 71.5027 45.5357 71.4696 45.5037C71.4372 45.4713 71.4007 45.4435 71.3601 45.4202C71.3104 45.3918 71.2664 45.3774 71.228 45.3772C71.1896 45.376 71.1572 45.3909 71.1308 45.4218C71.1053 45.4531 71.0857 45.5022 71.0721 45.569C71.0586 45.6358 71.0518 45.7226 71.0518 45.8293V46.1975C71.0518 46.2825 71.0559 46.3599 71.0642 46.4297C71.0733 46.4999 71.0864 46.5638 71.1037 46.6214C71.1211 46.6782 71.1421 46.7289 71.167 46.7734C71.1918 46.818 71.2204 46.8569 71.2528 46.8902C71.2859 46.923 71.3224 46.9509 71.3623 46.9737C71.4135 47.003 71.4583 47.0174 71.4967 47.0168C71.5351 47.0162 71.5671 46.9994 71.5927 46.9663C71.619 46.9328 71.6386 46.882 71.6514 46.8139C71.6642 46.7449 71.6706 46.6575 71.6706 46.5516ZM71.8806 49.344V49.6328C71.8806 49.7881 71.8686 49.9122 71.8445 50.0051C71.8204 50.098 71.7858 50.164 71.7406 50.2032C71.6954 50.2424 71.6409 50.2585 71.5769 50.2513C71.5136 50.2438 71.4421 50.2171 71.3623 50.1715C71.2991 50.1353 71.2408 50.0928 71.1873 50.044C71.1339 49.9952 71.0857 49.9385 71.0428 49.8741C71.0006 49.8092 70.9645 49.7356 70.9344 49.6533C70.9043 49.571 70.8813 49.4789 70.8655 49.3771C70.8497 49.2752 70.8418 49.1623 70.8418 49.0383V48.7494C70.8418 48.5942 70.8538 48.4709 70.8779 48.3798C70.9027 48.289 70.9378 48.2249 70.9829 48.1875C71.0281 48.1491 71.0823 48.1342 71.1455 48.1426C71.2095 48.1515 71.281 48.1785 71.3601 48.2238C71.4241 48.2604 71.4828 48.3031 71.5362 48.3519C71.5904 48.4003 71.6386 48.4561 71.6808 48.5192C71.7229 48.5815 71.7587 48.6531 71.788 48.7341C71.8182 48.8147 71.8411 48.9055 71.8569 49.0064C71.8727 49.1074 71.8806 49.22 71.8806 49.344ZM71.6706 49.5516V49.1834C71.6706 49.0984 71.6661 49.0213 71.6571 48.9519C71.6488 48.8821 71.6364 48.8195 71.6198 48.764C71.6032 48.7086 71.5822 48.6592 71.5566 48.616C71.5317 48.5731 71.5027 48.5357 71.4696 48.5037C71.4372 48.4713 71.4007 48.4435 71.3601 48.4202C71.3104 48.3918 71.2664 48.3774 71.228 48.3772C71.1896 48.376 71.1572 48.3909 71.1308 48.4218C71.1053 48.4531 71.0857 48.5022 71.0721 48.569C71.0586 48.6358 71.0518 48.7226 71.0518 48.8293V49.1975C71.0518 49.2825 71.0559 49.3599 71.0642 49.4297C71.0733 49.4999 71.0864 49.5638 71.1037 49.6214C71.1211 49.6782 71.1421 49.7289 71.167 49.7734C71.1918 49.818 71.2204 49.8569 71.2528 49.8902C71.2859 49.923 71.3224 49.9509 71.3623 49.9737C71.4135 50.003 71.4583 50.0174 71.4967 50.0168C71.5351 50.0162 71.5671 49.9994 71.5927 49.9663C71.619 49.9328 71.6386 49.882 71.6514 49.8139C71.6642 49.7449 71.6706 49.6575 71.6706 49.5516Z" fill="white"/>
<path d="M74.559 45.7814L74.5805 45.7937C74.7009 45.8626 74.7988 45.8991 74.8741 45.9032C74.9493 45.9072 75.0073 45.8879 75.048 45.8453C75.0886 45.8026 75.1165 45.7444 75.1315 45.6706C75.1466 45.5959 75.1541 45.5148 75.1541 45.4272V45.1371C75.1541 45.0512 75.1454 44.9699 75.1281 44.8932C75.1116 44.817 75.0882 44.7477 75.0581 44.6853C75.0288 44.6234 74.9953 44.57 74.9576 44.525C74.92 44.4801 74.8801 44.4455 74.8379 44.4214C74.7897 44.3938 74.7465 44.3803 74.7081 44.3809C74.6704 44.381 74.6384 44.3935 74.6121 44.4183C74.5865 44.4436 74.5669 44.4792 74.5534 44.5252C74.5398 44.5713 74.533 44.6259 74.533 44.6893C74.533 44.7456 74.5391 44.8037 74.5511 44.8635C74.5631 44.9233 74.5816 44.9816 74.6064 45.0383C74.6313 45.095 74.6621 45.1465 74.699 45.1928C74.7367 45.2386 74.7807 45.276 74.8311 45.3048C74.8778 45.3315 74.9215 45.3461 74.9621 45.3486C75.0035 45.3506 75.04 45.3424 75.0717 45.3241C75.104 45.3053 75.1296 45.2779 75.1485 45.2418C75.168 45.2062 75.1793 45.1637 75.1823 45.1142L75.2817 45.1711C75.2817 45.2431 75.2693 45.3071 75.2444 45.3631C75.2203 45.4187 75.1865 45.4627 75.1428 45.4949C75.0991 45.5272 75.048 45.5438 74.9892 45.5449C74.9305 45.5452 74.8665 45.5254 74.7973 45.4858C74.716 45.4393 74.6456 45.3808 74.5861 45.3103C74.5266 45.2398 74.4777 45.1633 74.4393 45.0806C74.4017 44.9983 74.3734 44.9145 74.3546 44.8291C74.3366 44.7433 74.3275 44.6618 74.3275 44.5846C74.3275 44.4944 74.3384 44.4161 74.3603 44.3497C74.3821 44.2832 74.4145 44.2324 74.4574 44.1971C74.5003 44.1609 74.5534 44.144 74.6166 44.1464C74.6806 44.1492 74.7544 44.1745 74.8379 44.2223C74.932 44.2762 75.0122 44.3437 75.0784 44.425C75.1447 44.5063 75.1985 44.5952 75.2399 44.6918C75.2821 44.7888 75.3129 44.8884 75.3325 44.9907C75.3521 45.093 75.3619 45.1922 75.3619 45.2885V45.3757C75.3619 45.4737 75.3562 45.5702 75.3449 45.6652C75.3344 45.7598 75.3137 45.8443 75.2828 45.9185C75.2527 45.9932 75.2087 46.0504 75.1507 46.0901C75.0927 46.1289 75.0171 46.1429 74.9237 46.132C74.8311 46.1206 74.7167 46.0759 74.5805 45.9979L74.559 45.9857V45.7814ZM75.3833 48.3567V48.6456C75.3833 48.8008 75.3713 48.9249 75.3472 49.0178C75.3231 49.1107 75.2885 49.1768 75.2433 49.216C75.1981 49.2552 75.1436 49.2712 75.0796 49.2641C75.0163 49.2565 74.9448 49.2299 74.865 49.1842C74.8018 49.148 74.7434 49.1055 74.69 49.0567C74.6365 49.0079 74.5884 48.9513 74.5455 48.8868C74.5033 48.8219 74.4672 48.7483 74.4371 48.6661C74.4069 48.5838 74.384 48.4917 74.3682 48.3898C74.3524 48.288 74.3445 48.175 74.3445 48.051V47.7622C74.3445 47.6069 74.3565 47.4837 74.3806 47.3925C74.4054 47.3018 74.4404 47.2377 74.4856 47.2002C74.5308 47.1619 74.585 47.1469 74.6482 47.1554C74.7122 47.1642 74.7837 47.1913 74.8628 47.2365C74.9268 47.2732 74.9855 47.3159 75.0389 47.3647C75.0931 47.413 75.1413 47.4688 75.1835 47.532C75.2256 47.5943 75.2614 47.6659 75.2907 47.7469C75.3208 47.8274 75.3438 47.9182 75.3596 48.0192C75.3754 48.1202 75.3833 48.2327 75.3833 48.3567ZM75.1733 48.5644V48.1962C75.1733 48.1112 75.1688 48.034 75.1597 47.9647C75.1515 47.8949 75.139 47.8323 75.1225 47.7768C75.1059 47.7214 75.0848 47.672 75.0592 47.6287C75.0344 47.5859 75.0054 47.5485 74.9723 47.5165C74.9399 47.4841 74.9034 47.4563 74.8628 47.433C74.8131 47.4046 74.769 47.3902 74.7306 47.3899C74.6923 47.3888 74.6599 47.4036 74.6335 47.4345C74.6079 47.4658 74.5884 47.5149 74.5748 47.5818C74.5613 47.6486 74.5545 47.7354 74.5545 47.842V48.2102C74.5545 48.2953 74.5586 48.3726 74.5669 48.4424C74.5759 48.5127 74.5891 48.5766 74.6064 48.6342C74.6237 48.6909 74.6448 48.7416 74.6697 48.7862C74.6945 48.8308 74.7231 48.8697 74.7555 48.903C74.7886 48.9358 74.8251 48.9636 74.865 48.9865C74.9162 49.0158 74.961 49.0301 74.9994 49.0295C75.0378 49.029 75.0698 49.0121 75.0954 48.9791C75.1217 48.9456 75.1413 48.8948 75.1541 48.8266C75.1669 48.7576 75.1733 48.6702 75.1733 48.5644ZM75.3833 51.3567V51.6456C75.3833 51.8008 75.3713 51.9249 75.3472 52.0178C75.3231 52.1107 75.2885 52.1768 75.2433 52.216C75.1981 52.2552 75.1436 52.2712 75.0796 52.2641C75.0163 52.2565 74.9448 52.2299 74.865 52.1842C74.8018 52.148 74.7434 52.1055 74.69 52.0567C74.6365 52.0079 74.5884 51.9513 74.5455 51.8868C74.5033 51.8219 74.4672 51.7483 74.4371 51.6661C74.4069 51.5838 74.384 51.4917 74.3682 51.3898C74.3524 51.288 74.3445 51.175 74.3445 51.051V50.7622C74.3445 50.6069 74.3565 50.4837 74.3806 50.3925C74.4054 50.3018 74.4404 50.2377 74.4856 50.2002C74.5308 50.1619 74.585 50.1469 74.6482 50.1554C74.7122 50.1642 74.7837 50.1913 74.8628 50.2365C74.9268 50.2732 74.9855 50.3159 75.0389 50.3647C75.0931 50.413 75.1413 50.4688 75.1835 50.532C75.2256 50.5943 75.2614 50.6659 75.2907 50.7469C75.3208 50.8274 75.3438 50.9182 75.3596 51.0192C75.3754 51.1202 75.3833 51.2327 75.3833 51.3567ZM75.1733 51.5644V51.1962C75.1733 51.1112 75.1688 51.034 75.1597 50.9647C75.1515 50.8949 75.139 50.8323 75.1225 50.7768C75.1059 50.7214 75.0848 50.672 75.0592 50.6287C75.0344 50.5859 75.0054 50.5485 74.9723 50.5165C74.9399 50.4841 74.9034 50.4563 74.8628 50.433C74.8131 50.4046 74.769 50.3902 74.7306 50.3899C74.6923 50.3888 74.6599 50.4036 74.6335 50.4345C74.6079 50.4658 74.5884 50.5149 74.5748 50.5818C74.5613 50.6486 74.5545 50.7354 74.5545 50.842V51.2102C74.5545 51.2953 74.5586 51.3726 74.5669 51.4424C74.5759 51.5127 74.5891 51.5766 74.6064 51.6342C74.6237 51.6909 74.6448 51.7416 74.6697 51.7862C74.6945 51.8308 74.7231 51.8697 74.7555 51.903C74.7886 51.9358 74.8251 51.9636 74.865 51.9865C74.9162 52.0158 74.961 52.0301 74.9994 52.0295C75.0378 52.029 75.0698 52.0121 75.0954 51.9791C75.1217 51.9456 75.1413 51.8948 75.1541 51.8266C75.1669 51.7576 75.1733 51.6702 75.1733 51.5644Z" fill="white"/>
<path d="M78.1774 46.1599V48.0646L77.9685 47.9451V46.3409L77.5473 46.2768V46.0595L78.1446 46.1411L78.1774 46.1599ZM79.8238 47.9088V48.1976C79.8238 48.3529 79.8117 48.477 79.7876 48.5699C79.7635 48.6628 79.7289 48.7288 79.6837 48.768C79.6386 48.8072 79.584 48.8233 79.52 48.8161C79.4568 48.8086 79.3853 48.7819 79.3055 48.7363C79.2422 48.7001 79.1839 48.6576 79.1304 48.6088C79.077 48.56 79.0288 48.5033 78.9859 48.4389C78.9437 48.374 78.9076 48.3004 78.8775 48.2181C78.8474 48.1358 78.8244 48.0438 78.8086 47.9419C78.7928 47.84 78.7849 47.7271 78.7849 47.6031V47.3142C78.7849 47.159 78.7969 47.0358 78.821 46.9446C78.8459 46.8539 78.8809 46.7898 78.926 46.7523C78.9712 46.714 79.0254 46.699 79.0886 46.7074C79.1526 46.7163 79.2242 46.7434 79.3032 46.7886C79.3672 46.8252 79.4259 46.8679 79.4794 46.9167C79.5336 46.9651 79.5817 47.0209 79.6239 47.084C79.666 47.1463 79.7018 47.218 79.7312 47.2989C79.7613 47.3795 79.7842 47.4703 79.8 47.5713C79.8159 47.6722 79.8238 47.7848 79.8238 47.9088ZM79.6137 48.1165V47.7483C79.6137 47.6633 79.6092 47.5861 79.6002 47.5167C79.5919 47.4469 79.5795 47.3843 79.5629 47.3289C79.5464 47.2734 79.5253 47.224 79.4997 47.1808C79.4748 47.1379 79.4459 47.1005 79.4127 47.0686C79.3804 47.0362 79.3438 47.0083 79.3032 46.9851C79.2535 46.9566 79.2095 46.9423 79.1711 46.942C79.1327 46.9408 79.1003 46.9557 79.074 46.9866C79.0484 47.0179 79.0288 47.067 79.0152 47.1338C79.0017 47.2007 78.9949 47.2874 78.9949 47.3941V47.7623C78.9949 47.8473 78.9991 47.9247 79.0073 47.9945C79.0164 48.0647 79.0296 48.1286 79.0469 48.1863C79.0642 48.243 79.0853 48.2937 79.1101 48.3382C79.1349 48.3828 79.1636 48.4217 79.1959 48.455C79.229 48.4878 79.2656 48.5157 79.3055 48.5385C79.3566 48.5678 79.4014 48.5822 79.4398 48.5816C79.4782 48.581 79.5102 48.5642 79.5358 48.5311C79.5622 48.4976 79.5817 48.4468 79.5945 48.3787C79.6073 48.3097 79.6137 48.2223 79.6137 48.1165ZM78.5229 50.1643V50.4531C78.5229 50.6084 78.5109 50.7325 78.4868 50.8254C78.4627 50.9183 78.4281 50.9843 78.3829 51.0235C78.3377 51.0627 78.2831 51.0788 78.2192 51.0716C78.1559 51.0641 78.0844 51.0374 78.0046 50.9918C77.9414 50.9556 77.883 50.9131 77.8296 50.8643C77.7761 50.8155 77.728 50.7588 77.685 50.6944C77.6429 50.6295 77.6068 50.5559 77.5766 50.4736C77.5465 50.3913 77.5236 50.2993 77.5078 50.1974C77.492 50.0955 77.484 49.9826 77.484 49.8586V49.5697C77.484 49.4145 77.4961 49.2913 77.5202 49.2001C77.545 49.1094 77.58 49.0453 77.6252 49.0078C77.6704 48.9695 77.7246 48.9545 77.7878 48.9629C77.8518 48.9718 77.9233 48.9989 78.0024 49.0441C78.0663 49.0807 78.1251 49.1234 78.1785 49.1722C78.2327 49.2206 78.2809 49.2764 78.323 49.3395C78.3652 49.4018 78.401 49.4735 78.4303 49.5544C78.4604 49.635 78.4834 49.7258 78.4992 49.8268C78.515 49.9277 78.5229 50.0403 78.5229 50.1643ZM78.3129 50.372V50.0038C78.3129 49.9188 78.3084 49.8416 78.2993 49.7722C78.2911 49.7024 78.2786 49.6398 78.2621 49.5844C78.2455 49.5289 78.2244 49.4795 78.1988 49.4363C78.174 49.3934 78.145 49.356 78.1119 49.3241C78.0795 49.2917 78.043 49.2638 78.0024 49.2406C77.9527 49.2121 77.9086 49.1978 77.8702 49.1975C77.8318 49.1963 77.7995 49.2112 77.7731 49.2421C77.7475 49.2734 77.728 49.3225 77.7144 49.3893C77.7009 49.4562 77.6941 49.5429 77.6941 49.6496V50.0178C77.6941 50.1028 77.6982 50.1802 77.7065 50.25C77.7155 50.3202 77.7287 50.3841 77.746 50.4418C77.7633 50.4985 77.7844 50.5492 77.8093 50.5937C77.8341 50.6383 77.8627 50.6772 77.8951 50.7105C77.9282 50.7433 77.9647 50.7712 78.0046 50.794C78.0558 50.8233 78.1006 50.8377 78.139 50.8371C78.1774 50.8365 78.2094 50.8197 78.235 50.7866C78.2613 50.7531 78.2809 50.7023 78.2937 50.6342C78.3065 50.5652 78.3129 50.4778 78.3129 50.372ZM79.8238 50.9088V51.1976C79.8238 51.3529 79.8117 51.477 79.7876 51.5699C79.7635 51.6628 79.7289 51.7288 79.6837 51.768C79.6386 51.8072 79.584 51.8233 79.52 51.8161C79.4568 51.8086 79.3853 51.7819 79.3055 51.7363C79.2422 51.7001 79.1839 51.6576 79.1304 51.6088C79.077 51.56 79.0288 51.5033 78.9859 51.4389C78.9437 51.374 78.9076 51.3004 78.8775 51.2181C78.8474 51.1358 78.8244 51.0438 78.8086 50.9419C78.7928 50.84 78.7849 50.7271 78.7849 50.6031V50.3142C78.7849 50.159 78.7969 50.0358 78.821 49.9446C78.8459 49.8539 78.8809 49.7898 78.926 49.7523C78.9712 49.714 79.0254 49.699 79.0886 49.7074C79.1526 49.7163 79.2242 49.7434 79.3032 49.7886C79.3672 49.8252 79.4259 49.8679 79.4794 49.9167C79.5336 49.9651 79.5817 50.0209 79.6239 50.084C79.666 50.1463 79.7018 50.218 79.7312 50.2989C79.7613 50.3795 79.7842 50.4703 79.8 50.5713C79.8159 50.6722 79.8238 50.7848 79.8238 50.9088ZM79.6137 51.1165V50.7483C79.6137 50.6633 79.6092 50.5861 79.6002 50.5167C79.5919 50.4469 79.5795 50.3843 79.5629 50.3289C79.5464 50.2734 79.5253 50.224 79.4997 50.1808C79.4748 50.1379 79.4459 50.1005 79.4127 50.0686C79.3804 50.0362 79.3438 50.0083 79.3032 49.9851C79.2535 49.9566 79.2095 49.9423 79.1711 49.942C79.1327 49.9408 79.1003 49.9557 79.074 49.9866C79.0484 50.0179 79.0288 50.067 79.0152 50.1338C79.0017 50.2007 78.9949 50.2874 78.9949 50.3941V50.7623C78.9949 50.8473 78.9991 50.9247 79.0073 50.9945C79.0164 51.0647 79.0296 51.1286 79.0469 51.1863C79.0642 51.243 79.0853 51.2937 79.1101 51.3382C79.1349 51.3828 79.1636 51.4217 79.1959 51.455C79.229 51.4878 79.2656 51.5157 79.3055 51.5385C79.3566 51.5678 79.4014 51.5822 79.4398 51.5816C79.4782 51.581 79.5102 51.5642 79.5358 51.5311C79.5622 51.4976 79.5817 51.4468 79.5945 51.3787C79.6073 51.3097 79.6137 51.2223 79.6137 51.1165Z" fill="white"/>
<path d="M43.4554 27.5546L46.4643 31.7355L50.1889 27.66L53.7674 33.6478L57.3508 31.9413L64.0793 35.811L67.6628 29.8483L71.2412 43.6959L74.3963 45.5078L79.7387 33.176" stroke="url(#paint8_linear_1_1453)" stroke-width="0.75" stroke-miterlimit="10"/>
<path d="M43.0267 23.7046L46.464 25.6821L50.1886 20.131L53.7671 37.5723L57.3505 28.1766L61.5035 30.5657L64.079 39.4143L67.6625 41.4721L71.2409 39.7656L74.3959 45.668L79.7384 44.7595" stroke="url(#paint9_linear_1_1453)" stroke-width="0.75" stroke-linecap="round" stroke-linejoin="round"/>
<path d="M43.3297 24.0737C43.4763 23.9884 43.4755 23.7155 43.328 23.4642C43.1805 23.213 42.9421 23.0784 42.7955 23.1638C42.6489 23.2491 42.6497 23.522 42.7972 23.7733C42.9447 24.0245 43.1831 24.159 43.3297 24.0737Z" fill="#FFEA80"/>
<path d="M46.3098 26.0754C46.4558 25.9909 46.4557 25.7194 46.3096 25.4691C46.1634 25.2188 45.9266 25.0845 45.7806 25.169C45.6346 25.2535 45.6346 25.525 45.7808 25.7753C45.9269 26.0256 46.1638 26.16 46.3098 26.0754Z" fill="#FFEA80"/>
<path d="M50.4915 20.5052C50.6381 20.4198 50.6373 20.147 50.4898 19.8957C50.3423 19.6444 50.1039 19.5099 49.9573 19.5952C49.8107 19.6806 49.8115 19.9534 49.959 20.2047C50.1065 20.456 50.3449 20.5905 50.4915 20.5052Z" fill="#FFEA80"/>
<path d="M54.0268 38.031C54.1734 37.9457 54.1726 37.6728 54.0251 37.4215C53.8776 37.1702 53.6392 37.0357 53.4927 37.1211C53.3461 37.2064 53.3468 37.4793 53.4943 37.7305C53.6418 37.9818 53.8802 38.1163 54.0268 38.031Z" fill="#FFEA80"/>
<path d="M57.3194 28.8232C57.4654 28.7387 57.4653 28.4673 57.3192 28.2169C57.1731 27.9666 56.9362 27.8323 56.7902 27.9168C56.6442 28.0014 56.6443 28.2728 56.7904 28.5231C56.9366 28.7734 57.1734 28.9078 57.3194 28.8232Z" fill="#FFEA80"/>
<path d="M61.6322 30.9441C61.7787 30.8587 61.778 30.5859 61.6305 30.3346C61.483 30.0833 61.2446 29.9488 61.098 30.0341C60.9514 30.1195 60.9522 30.3924 61.0997 30.6436C61.2472 30.8949 61.4856 31.0294 61.6322 30.9441Z" fill="#FFEA80"/>
<path d="M64.3965 39.8472C64.5431 39.7619 64.5423 39.489 64.3948 39.2377C64.2473 38.9865 64.0089 38.8519 63.8623 38.9373C63.7158 39.0226 63.7165 39.2955 63.864 39.5468C64.0115 39.798 64.2499 39.9325 64.3965 39.8472Z" fill="#FFEA80"/>
<path d="M67.9453 41.8904C68.0919 41.8051 68.0912 41.5322 67.9437 41.2809C67.7962 41.0297 67.5578 40.8952 67.4112 40.9805C67.2646 41.0658 67.2653 41.3387 67.4128 41.59C67.5603 41.8412 67.7987 41.9758 67.9453 41.8904Z" fill="#FFEA80"/>
<path d="M71.5459 40.2458C71.6925 40.1604 71.6917 39.8876 71.5442 39.6363C71.3967 39.385 71.1583 39.2505 71.0118 39.3358C70.8652 39.4212 70.8659 39.6941 71.0134 39.9453C71.1609 40.1966 71.3993 40.3311 71.5459 40.2458Z" fill="#FFEA80"/>
<path d="M74.6995 46.0222C74.8461 45.9369 74.8454 45.664 74.6979 45.4127C74.5504 45.1615 74.312 45.0269 74.1654 45.1123C74.0188 45.1976 74.0195 45.4705 74.167 45.7217C74.3145 45.973 74.5529 46.1075 74.6995 46.0222Z" fill="#FFEA80"/>
<path d="M80.0495 33.813C80.1961 33.7277 80.1953 33.4548 80.0478 33.2036C79.9003 32.9523 79.6619 32.8178 79.5154 32.9031C79.3688 32.9884 79.3695 33.2613 79.517 33.5126C79.6645 33.7638 79.9029 33.8984 80.0495 33.813Z" fill="#A7F6EF"/>
<path d="M71.5065 44.2496C71.6531 44.1642 71.6524 43.8913 71.5049 43.6401C71.3574 43.3888 71.119 43.2543 70.9724 43.3396C70.8258 43.425 70.8265 43.6978 70.974 43.9491C71.1215 44.2004 71.36 44.3349 71.5065 44.2496Z" fill="#A7F6EF"/>
<path d="M67.9652 30.1189C68.1118 30.0336 68.1111 29.7607 67.9636 29.5095C67.8161 29.2582 67.5777 29.1237 67.4311 29.209C67.2845 29.2943 67.2852 29.5672 67.4327 29.8185C67.5802 30.0698 67.8186 30.2043 67.9652 30.1189Z" fill="#A7F6EF"/>
<path d="M64.3122 36.1186C64.4588 36.0332 64.458 35.7604 64.3105 35.5091C64.163 35.2578 63.9246 35.1233 63.778 35.2086C63.6314 35.294 63.6321 35.5669 63.7797 35.8181C63.9272 36.0694 64.1656 36.2039 64.3122 36.1186Z" fill="#A7F6EF"/>
<path d="M50.4568 28.1549C50.6034 28.0696 50.6026 27.7967 50.4551 27.5454C50.3076 27.2941 50.0692 27.1596 49.9226 27.245C49.7761 27.3303 49.7768 27.6032 49.9243 27.8544C50.0718 28.1057 50.3102 28.2402 50.4568 28.1549Z" fill="#A7F6EF"/>
<path d="M57.6517 32.2893C57.7983 32.204 57.7975 31.9311 57.65 31.6799C57.5025 31.4286 57.2641 31.2941 57.1175 31.3794C56.9709 31.4648 56.9717 31.7376 57.1192 31.9889C57.2667 32.2402 57.5051 32.3747 57.6517 32.2893Z" fill="#A7F6EF"/>
<path d="M46.7463 32.2238C46.8929 32.1385 46.8921 31.8656 46.7446 31.6143C46.5971 31.3631 46.3587 31.2285 46.2121 31.3139C46.0655 31.3992 46.0663 31.6721 46.2138 31.9233C46.3613 32.1746 46.5997 32.3091 46.7463 32.2238Z" fill="#A7F6EF"/>
<path d="M43.6844 27.9417C43.831 27.8564 43.8302 27.5835 43.6827 27.3322C43.5352 27.0809 43.2968 26.9464 43.1502 27.0318C43.0037 27.1171 43.0044 27.39 43.1519 27.6412C43.2994 27.8925 43.5378 28.027 43.6844 27.9417Z" fill="#A7F6EF"/>
<path d="M53.9473 33.962C54.0939 33.8767 54.0932 33.6038 53.9457 33.3525C53.7982 33.1013 53.5598 32.9668 53.4132 33.0521C53.2666 33.1374 53.2673 33.4103 53.4148 33.6616C53.5623 33.9128 53.8008 34.0474 53.9473 33.962Z" fill="#A7F6EF"/>
<path opacity="0.2" d="M66.0648 16.5376L40.3203 39.1786L48.3995 43.8262L75.6056 22.0284L66.0648 16.5376Z" fill="url(#paint10_linear_1_1453)"/>
<path opacity="0.2" d="M77.3594 23.0279L49.493 44.4743L53.9031 47.029L81.1596 25.1861L77.3594 23.0279Z" fill="url(#paint11_linear_1_1453)"/>
<path opacity="0.8" d="M39.4333 46.2805L39.3325 32.1619L80.2173 53.8292L79.9804 69.8651L39.4333 46.2805Z" fill="url(#paint12_linear_1_1453)"/>
</g>
<defs>
<linearGradient id="paint0_linear_1_1453" x1="33.4859" y1="93.1836" x2="81.8764" y2="68.2253" gradientUnits="userSpaceOnUse">
<stop offset="0.01" stop-color="#4E60FD"/>
<stop offset="1" stop-color="#3447F8"/>
</linearGradient>
<linearGradient id="paint1_linear_1_1453" x1="9179.75" y1="10991.1" x2="7803.44" y2="-3241.03" gradientUnits="userSpaceOnUse">
<stop offset="0.01" stop-color="#4C5EFD"/>
<stop offset="1" stop-color="#2E41F7"/>
</linearGradient>
<linearGradient id="paint2_linear_1_1453" x1="44.388" y1="46.5171" x2="97.6546" y2="88.0543" gradientUnits="userSpaceOnUse">
<stop stop-color="#4C83FF"/>
<stop offset="1" stop-color="#2A87DF" stop-opacity="0"/>
</linearGradient>
<linearGradient id="paint3_linear_1_1453" x1="80.9076" y1="76.0791" x2="89.773" y2="76.3069" gradientUnits="userSpaceOnUse">
<stop stop-color="#4C83FF"/>
<stop offset="1" stop-color="#2AFADF"/>
</linearGradient>
<linearGradient id="paint4_linear_1_1453" x1="1313.63" y1="1050.13" x2="1448.51" y2="1054.54" gradientUnits="userSpaceOnUse">
<stop stop-color="#4C83FF"/>
<stop offset="1" stop-color="#2AFADF"/>
</linearGradient>
<linearGradient id="paint5_linear_1_1453" x1="43.5" y1="145.5" x2="68.3745" y2="-8.60102" gradientUnits="userSpaceOnUse">
<stop offset="0.01" stop-color="#00FF47"/>
<stop offset="1" stop-color="#D6F4FF"/>
</linearGradient>
<linearGradient id="paint6_linear_1_1453" x1="53.6566" y1="54.5019" x2="53.6566" y2="-0.0200959" gradientUnits="userSpaceOnUse">
<stop stop-color="#4C83FF"/>
<stop offset="0.53" stop-color="#2AFADF"/>
<stop offset="1" stop-color="white"/>
</linearGradient>
<linearGradient id="paint7_linear_1_1453" x1="1458.12" y1="1306.15" x2="1286.83" y2="1425.98" gradientUnits="userSpaceOnUse">
<stop stop-color="#4C83FF"/>
<stop offset="0.53" stop-color="#2AFADF"/>
<stop offset="1" stop-color="white"/>
</linearGradient>
<linearGradient id="paint8_linear_1_1453" x1="3160.91" y1="1335.26" x2="5796.17" y2="1335.26" gradientUnits="userSpaceOnUse">
<stop stop-color="#4C83FF"/>
<stop offset="1" stop-color="#2AFADF"/>
</linearGradient>
<linearGradient id="paint9_linear_1_1453" x1="61.3826" y1="45.8587" x2="61.3826" y2="19.9403" gradientUnits="userSpaceOnUse">
<stop stop-color="#FFD555"/>
<stop offset="1" stop-color="#FFBFDB"/>
</linearGradient>
<linearGradient id="paint10_linear_1_1453" x1="65.8431" y1="12.2413" x2="51.6601" y2="45.5654" gradientUnits="userSpaceOnUse">
<stop stop-color="white"/>
<stop offset="0.98" stop-color="white" stop-opacity="0"/>
</linearGradient>
<linearGradient id="paint11_linear_1_1453" x1="4633.55" y1="838.586" x2="4094.78" y2="2501.73" gradientUnits="userSpaceOnUse">
<stop stop-color="white"/>
<stop offset="0.98" stop-color="white" stop-opacity="0"/>
</linearGradient>
<linearGradient id="paint12_linear_1_1453" x1="54.6139" y1="60.5899" x2="62.4801" y2="45.5258" gradientUnits="userSpaceOnUse">
<stop stop-color="white"/>
<stop offset="1" stop-color="#CA87DF" stop-opacity="0"/>
</linearGradient>
<clipPath id="clip0_1_1453">
<rect width="90" height="108" fill="white"/>
</clipPath>
</defs>
</svg>
