<svg width="35" height="28" viewBox="0 0 35 28" fill="none" xmlns="http://www.w3.org/2000/svg">
<g clip-path="url(#clip0_3_3790)">
<path d="M6.36311 27.0718V25.271C6.36311 24.5806 5.94283 24.1305 5.22246 24.1305C4.86234 24.1305 4.47215 24.2506 4.20199 24.6408C3.99199 24.3106 3.69189 24.1305 3.24168 24.1305C2.94145 24.1305 2.64148 24.2205 2.40127 24.5507V24.1906H1.771V27.0718H2.40127V25.481C2.40127 24.9709 2.67143 24.7307 3.0917 24.7307C3.5117 24.7307 3.72197 25.0009 3.72197 25.481V27.0718H4.35225V25.481C4.35225 24.9709 4.65221 24.7307 5.0424 24.7307C5.46268 24.7307 5.67268 25.0009 5.67268 25.481V27.0718H6.36311ZM15.697 24.1906H14.6767V23.3202H14.0464V24.1906H13.4762V24.7607H14.0463V26.0814C14.0463 26.7417 14.3164 27.1318 15.0368 27.1318C15.307 27.1318 15.6069 27.0418 15.8172 26.9218L15.637 26.3815C15.457 26.5015 15.247 26.5316 15.0968 26.5316C14.7967 26.5316 14.6767 26.3515 14.6767 26.0513V24.7607H15.697V24.1906ZM21.0395 24.1304C20.6793 24.1304 20.4393 24.3106 20.2891 24.5507V24.1906H19.6589V27.0718H20.2891V25.4511C20.2891 24.9709 20.4991 24.7008 20.8893 24.7008C21.0094 24.7008 21.1595 24.7309 21.2795 24.7608L21.4596 24.1606C21.3396 24.1305 21.1595 24.1305 21.0395 24.1305V24.1304ZM12.9659 24.4306C12.6657 24.2205 12.2456 24.1305 11.7954 24.1305C11.0751 24.1305 10.595 24.4907 10.595 25.0609C10.595 25.5412 10.9551 25.8112 11.5854 25.9013L11.8854 25.9314C12.2156 25.9913 12.3957 26.0814 12.3957 26.2315C12.3957 26.4415 12.1556 26.5916 11.7353 26.5916C11.3152 26.5916 10.985 26.4415 10.7749 26.2915L10.4748 26.7717C10.805 27.0117 11.2552 27.1318 11.7053 27.1318C12.5457 27.1318 13.026 26.7417 13.026 26.2014C13.026 25.6912 12.6358 25.421 12.0354 25.3311L11.7353 25.301C11.4652 25.2709 11.2552 25.211 11.2552 25.031C11.2552 24.8208 11.4652 24.7008 11.7954 24.7008C12.1556 24.7008 12.5157 24.8508 12.6958 24.9409L12.9659 24.4306ZM29.7133 24.1305C29.353 24.1305 29.113 24.3106 28.9629 24.5507V24.1906H28.3326V27.0718H28.9629V25.4511C28.9629 24.9709 29.173 24.7008 29.563 24.7008C29.6832 24.7008 29.8333 24.7309 29.9534 24.7608L30.1334 24.1606C30.0134 24.1305 29.8333 24.1305 29.7133 24.1305ZM21.6697 25.6312C21.6697 26.5015 22.2699 27.1318 23.2004 27.1318C23.6206 27.1318 23.9207 27.0418 24.2208 26.8017L23.9207 26.2915C23.6806 26.4716 23.4405 26.5615 23.1704 26.5615C22.6601 26.5615 22.3 26.2014 22.3 25.6312C22.3 25.091 22.6601 24.7307 23.1704 24.7008C23.4405 24.7008 23.6806 24.7908 23.9207 24.9709L24.2208 24.4607C23.9207 24.2205 23.6206 24.1305 23.2004 24.1305C22.2699 24.1305 21.6697 24.7608 21.6697 25.6312ZM27.4923 25.6312V24.1906H26.862V24.5507C26.6519 24.2807 26.3518 24.1305 25.9616 24.1305C25.1513 24.1305 24.521 24.7608 24.521 25.6312C24.521 26.5015 25.1513 27.1318 25.9616 27.1318C26.3817 27.1318 26.682 26.9818 26.862 26.7117V27.0718H27.4923V25.6312ZM25.1812 25.6312C25.1812 25.1209 25.5114 24.7008 26.0516 24.7008C26.5618 24.7008 26.9221 25.091 26.9221 25.6312C26.9221 26.1414 26.5618 26.5615 26.0516 26.5615C25.5114 26.5315 25.1812 26.1414 25.1812 25.6312ZM17.648 24.1305C16.8076 24.1305 16.2073 24.7307 16.2073 25.6312C16.2073 26.5316 16.8075 27.1318 17.6779 27.1318C18.0981 27.1318 18.5184 27.0117 18.8485 26.7417L18.5483 26.2915C18.3082 26.4716 18.0081 26.5916 17.708 26.5916C17.3178 26.5916 16.9276 26.4116 16.8375 25.9012H18.9686V25.6612C18.9987 24.7307 18.4583 24.1305 17.6479 24.1305H17.648ZM17.648 24.6707C18.0381 24.6707 18.3084 24.9109 18.3682 25.3611H16.8676C16.9276 24.9709 17.1978 24.6707 17.648 24.6707ZM33.2848 25.6312V23.05H32.6545V24.5507C32.4444 24.2807 32.1443 24.1305 31.7541 24.1305C30.9438 24.1305 30.3135 24.7608 30.3135 25.6312C30.3135 26.5015 30.9438 27.1318 31.7541 27.1318C32.1744 27.1318 32.4745 26.9818 32.6545 26.7117V27.0718H33.2848V25.6312ZM30.9738 25.6312C30.9738 25.1209 31.3039 24.7008 31.8442 24.7008C32.3544 24.7008 32.7146 25.091 32.7146 25.6312C32.7146 26.1414 32.3544 26.5615 31.8442 26.5615C31.3039 26.5315 30.9738 26.1414 30.9738 25.6312ZM9.90453 25.6312V24.1906H9.27426V24.5507C9.06412 24.2807 8.76402 24.1305 8.37383 24.1305C7.5635 24.1305 6.93322 24.7608 6.93322 25.6312C6.93322 26.5015 7.5635 27.1318 8.37383 27.1318C8.7941 27.1318 9.0942 26.9818 9.27426 26.7117V27.0718H9.90453V25.6312ZM7.5635 25.6312C7.5635 25.1209 7.89367 24.7008 8.43385 24.7008C8.94408 24.7008 9.30434 25.091 9.30434 25.6312C9.30434 26.1414 8.94408 26.5615 8.43385 26.5615C7.89367 26.5315 7.5635 26.1414 7.5635 25.6312Z" fill="white"/>
<path opacity="0.5" d="M12.7554 2.31091H22.2095V19.2984H12.7554V2.31091Z" fill="white"/>
<path d="M13.3559 10.8047C13.3559 7.35328 14.9766 4.29187 17.4676 2.31096C15.6369 0.870352 13.326 0 10.8049 0C4.83205 0 0 4.83205 0 10.8047C0 16.7773 4.83205 21.6095 10.8047 21.6095C13.3258 21.6095 15.6368 20.7391 17.4676 19.2984C14.9766 17.3476 13.3559 14.2562 13.3559 10.8047Z" fill="white"/>
<path d="M34.9676 10.8047C34.9676 16.7773 30.1355 21.6095 24.1628 21.6095C21.6418 21.6095 19.3308 20.7391 17.5 19.2984C20.0211 17.3176 21.6118 14.2562 21.6118 10.8047C21.6118 7.35328 19.991 4.29187 17.5 2.31096C19.3307 0.870352 21.6418 0 24.1628 0C30.1355 0 34.9677 4.86213 34.9677 10.8047H34.9676Z" fill="white"/>
</g>
<defs>
<clipPath id="clip0_3_3790">
<rect width="35" height="27.207" fill="white"/>
</clipPath>
</defs>
</svg>
