<svg width="82" height="14" viewBox="0 0 82 14" fill="none" xmlns="http://www.w3.org/2000/svg">
<g clip-path="url(#clip0_3_3805)">
<path d="M43.299 0.0584717C39.4581 0.0584717 36.3418 3.059 36.3418 6.76213C36.3418 10.6994 39.3228 13.6424 43.299 13.6424C47.176 13.6424 50.2373 10.6603 50.2373 6.83949C50.2373 3.04122 47.1965 0.0584717 43.299 0.0584717Z" fill="url(#paint0_linear_3_3805)"/>
<path d="M43.299 0.0584717C39.4581 0.0584717 36.3418 3.059 36.3418 6.76213C36.3418 10.6994 39.3228 13.6424 43.299 13.6424C47.176 13.6424 50.2373 10.6603 50.2373 6.83949C50.2373 3.04122 47.1965 0.0584717 43.299 0.0584717Z" fill="#9C9CA0"/>
<path d="M3.80361 0.302996H0.0634766V13.3484H3.78407C5.75815 13.3484 7.18579 12.8807 8.43821 11.8432C9.92414 10.6108 10.8053 8.75252 10.8053 6.83193C10.8053 2.98049 7.92811 0.302996 3.80361 0.302996ZM6.77803 10.1009C5.97388 10.8264 4.93847 11.14 3.29303 11.14H2.60948V2.51203H3.29303C4.93847 2.51203 5.93416 2.80576 6.77803 3.56778C7.65809 4.3503 8.18292 5.56205 8.18292 6.81335C8.18292 8.06737 7.65809 9.32139 6.77803 10.1009ZM11.9799 13.3484H14.5219V0.302996H11.9802V13.3484H11.9799ZM20.7449 5.30708C19.2172 4.74109 18.7676 4.36776 18.7676 3.66612C18.7676 2.84387 19.5681 2.21846 20.6653 2.21846C21.4282 2.21846 22.0541 2.53125 22.7211 3.27229L24.0496 1.53412C22.9541 0.57366 21.6439 0.0853437 20.2145 0.0853437C17.9086 0.0853437 16.1467 1.69011 16.1467 3.82019C16.1467 5.6213 16.9676 6.5398 19.3549 7.40272C20.353 7.75298 20.8604 7.98665 21.1154 8.14633C21.6239 8.47897 21.8793 8.94679 21.8793 9.49404C21.8793 10.552 21.0374 11.3333 19.9012 11.3333C18.6882 11.3333 17.7113 10.7276 17.1241 9.59318L15.4828 11.1794C16.6542 12.8983 18.063 13.6637 20.0015 13.6637C22.6421 13.6637 24.4993 11.9009 24.4993 9.37825C24.4993 7.30439 23.6409 6.36475 20.7449 5.30708ZM25.3011 6.83209C25.3011 10.6702 28.3146 13.6427 32.1887 13.6427C33.284 13.6427 34.2229 13.4262 35.3783 12.8805V9.8861C34.3597 10.9044 33.4596 11.3141 32.3049 11.3141C29.743 11.3141 27.9225 9.45528 27.9225 6.81335C27.9225 4.31075 29.7998 2.33474 32.1887 2.33474C33.3997 2.33474 34.3206 2.76476 35.3783 3.80145V0.807328C34.2632 0.241977 33.3423 0.00878906 32.2469 0.00878906C28.3924 0.00878906 25.3011 3.04135 25.3011 6.83209ZM55.9953 9.06594L52.5131 0.302996H49.735L55.2732 13.6816H56.6414L62.2762 0.302836H59.5188L55.9953 9.06578V9.06594ZM63.433 13.3485H70.6504V11.14H65.9756V7.61637H70.4715V5.4075H65.9756V2.51187H70.6504V0.303156H63.4328V13.3485H63.433ZM80.7225 4.15299C80.7225 1.70917 79.0425 0.302996 76.1063 0.302996H72.3303V13.3484H74.876V8.10533H75.2091L78.7286 13.3484H81.8586L77.7479 7.8534C79.6679 7.4607 80.7225 6.1495 80.7225 4.15299ZM75.6164 6.30741H74.876V2.35444H75.6571C77.245 2.35444 78.1054 3.02149 78.1054 4.29105C78.1054 5.60064 77.245 6.30741 75.6164 6.30741Z" fill="white"/>
</g>
<defs>
<linearGradient id="paint0_linear_3_3805" x1="39.0395" y1="1.28959" x2="48.4286" y2="11.2062" gradientUnits="userSpaceOnUse">
<stop stop-color="#F34F26"/>
<stop offset="1" stop-color="#F69E35"/>
</linearGradient>
<clipPath id="clip0_3_3805">
<rect width="82" height="13.7734" fill="white"/>
</clipPath>
</defs>
</svg>
