<svg width="42" height="14" viewBox="0 0 42 14" fill="none" xmlns="http://www.w3.org/2000/svg">
<g clip-path="url(#clip0_3_3802)">
<path d="M21.7214 4.33587C21.6974 6.22521 23.4052 7.27948 24.6916 7.90636C26.0133 8.54949 26.4572 8.96194 26.452 9.53714C26.4421 10.4173 25.3977 10.8058 24.4204 10.8209C22.7153 10.8473 21.7238 10.3606 20.9357 9.99242L20.3214 12.8666C21.1122 13.231 22.5765 13.5488 24.0949 13.5627C27.6591 13.5627 29.991 11.8033 30.0036 9.07547C30.0175 5.61342 25.2149 5.4218 25.2477 3.87436C25.2591 3.40514 25.7068 2.90442 26.6879 2.77711C27.1735 2.7128 28.5141 2.66358 30.0339 3.36347L30.6305 0.582612C29.8131 0.285003 28.7626 2.57492e-05 27.4547 2.57492e-05C24.1 2.57492e-05 21.7404 1.78338 21.7214 4.33587ZM36.3625 0.239556C35.7116 0.239556 35.1632 0.619197 34.9184 1.20178L29.8271 13.3585H33.3887L34.0974 11.3997H38.4497L38.8608 13.3585H42L39.2606 0.239556H36.3625ZM36.8607 3.78347L37.8886 8.70978H35.0736L36.8607 3.78347ZM17.4031 0.23972L14.5957 13.3583H17.9896L20.7957 0.239392H17.4031V0.23972ZM12.3823 0.239392L8.8497 9.16882L7.42071 1.5765C7.25304 0.728955 6.59088 0.239556 5.85556 0.239556H0.0808828L0 0.620509C1.18552 0.87776 2.53247 1.29267 3.34852 1.73663C3.84792 2.00782 3.99033 2.24489 4.15439 2.88933L6.86093 13.3585H10.4475L15.9462 0.239556H12.3823" fill="white"/>
</g>
<defs>
<clipPath id="clip0_3_3802">
<rect width="42" height="13.6172" fill="white"/>
</clipPath>
</defs>
</svg>
