<svg width="16" height="19" viewBox="0 0 16 19" fill="none" xmlns="http://www.w3.org/2000/svg">
<g clip-path="url(#clip0_3_3796)">
<path d="M13.5733 1.46921C12.7024 0.476588 11.1281 0.0510254 9.1142 0.0510254H3.2692C3.06994 0.0510328 2.87721 0.122122 2.72568 0.251511C2.57414 0.380901 2.47374 0.560103 2.44251 0.7569L0.00875703 16.1923C-0.039618 16.4967 0.19607 16.7723 0.50457 16.7723H4.11307L5.01932 11.0242L4.9912 11.2042C5.05576 10.7978 5.40326 10.4982 5.81476 10.4982H7.52951C10.8981 10.4982 13.5358 9.1299 14.3063 5.17184C14.3292 5.05478 14.349 4.94084 14.3661 4.82953C14.2689 4.77803 14.2689 4.77803 14.3661 4.82953C14.5956 3.36659 14.3646 2.37078 13.5733 1.46921Z" fill="#27346A"/>
<path d="M6.40007 4.30253C6.49872 4.25555 6.60662 4.23121 6.71588 4.23128H11.2983C11.8409 4.23128 12.347 4.26659 12.8095 4.34103C12.9389 4.36166 13.0677 4.3863 13.1956 4.4149C13.3768 4.4549 13.556 4.50386 13.7324 4.56159C13.9598 4.63753 14.1716 4.72596 14.3662 4.82953C14.5956 3.36603 14.3646 2.37078 13.5733 1.46921C12.7019 0.476588 11.1281 0.0510254 9.11419 0.0510254H3.26869C2.85713 0.0510254 2.50701 0.35065 2.44251 0.7569L0.00875737 16.1918C-0.0396176 16.4966 0.19607 16.7719 0.50407 16.7719H4.11307L5.99326 4.84878C6.01174 4.73158 6.05843 4.62063 6.12929 4.52548C6.20016 4.43032 6.29308 4.35381 6.40007 4.30253Z" fill="white"/>
<path d="M14.3059 5.17178C13.5354 9.12928 10.8978 10.4981 7.52908 10.4981H5.81383C5.40233 10.4981 5.05477 10.7978 4.99083 11.2041L3.86339 18.3513C3.82127 18.6177 4.02727 18.859 4.29677 18.859H7.33864C7.51289 18.859 7.68141 18.7968 7.81388 18.6836C7.94636 18.5704 8.0341 18.4136 8.06133 18.2415L8.09095 18.0865L8.66427 14.453L8.7012 14.2522C8.72843 14.0801 8.81617 13.9234 8.94863 13.8102C9.08109 13.697 9.24959 13.6348 9.42383 13.6347H9.87908C12.8258 13.6347 15.1331 12.4376 15.8073 8.97534C16.0888 7.52847 15.9431 6.32047 15.1986 5.47197C14.9728 5.21497 14.6924 5.00272 14.3657 4.82947C14.348 4.94134 14.3288 5.05472 14.3059 5.17178Z" fill="white"/>
<path d="M13.5593 4.50814C13.4391 4.47306 13.3179 4.442 13.1956 4.41501C13.0677 4.38688 12.9389 4.36241 12.8096 4.34164C12.3466 4.2667 11.8408 4.23133 11.2977 4.23133H6.7159C6.60655 4.23108 6.49857 4.25563 6.40009 4.30314C6.29298 4.35427 6.19995 4.43073 6.12905 4.52591C6.05816 4.6211 6.01153 4.73213 5.99321 4.84939L5.01934 11.0243L4.99121 11.2043C5.05527 10.798 5.40277 10.4983 5.81434 10.4983H7.52959C10.8982 10.4983 13.5358 9.13001 14.3063 5.17195C14.3293 5.05489 14.3485 4.94145 14.3662 4.82964C14.1711 4.72664 13.9599 4.63764 13.7325 4.5622C13.6751 4.54317 13.6174 4.52515 13.5593 4.50814" fill="#9C9CA0"/>
</g>
<defs>
<clipPath id="clip0_3_3796">
<rect width="16" height="18.875" fill="white"/>
</clipPath>
</defs>
</svg>
