<svg width="41" height="30" viewBox="0 0 41 30" fill="none" xmlns="http://www.w3.org/2000/svg">
<path d="M9.10503 11.9224C8.65969 11.9224 8.23232 11.9903 7.80694 12.0522C7.94474 11.5889 8.08653 11.1176 8.3142 10.6942C8.54186 10.0791 8.89734 9.54593 9.25082 9.00872C9.54638 8.42758 10.0676 8.03416 10.451 7.53689C10.8525 7.0536 11.3996 6.73208 11.833 6.33067C12.2584 5.91129 12.8156 5.7016 13.2589 5.40603C13.7222 5.14042 14.1256 4.84686 14.557 4.70706L15.6334 4.26372L16.58 3.87029L15.6114 0L14.4192 0.287575C14.0378 0.383434 13.5724 0.495269 13.0432 0.629072C12.502 0.728925 11.9249 1.00252 11.2818 1.25215C10.6468 1.53574 9.91184 1.72745 9.22885 2.18278C8.54186 2.61814 7.74903 2.98161 7.05006 3.56475C6.37306 4.16586 5.55626 4.68709 4.95315 5.45196C4.29412 6.16691 3.64308 6.9178 3.13783 7.77254C2.55269 8.58734 2.15528 9.48202 1.7359 10.3667C1.35645 11.2514 1.05091 12.1561 0.801273 13.0348C0.327971 14.7962 0.116283 16.4697 0.0344038 17.9016C-0.0334961 19.3355 0.006445 20.5277 0.0903213 21.3905C0.120277 21.7979 0.176195 22.1933 0.216136 22.4669L0.266062 22.8024L0.317986 22.7904C0.673184 24.4496 1.49086 25.9744 2.67644 27.1883C3.86201 28.4022 5.36702 29.2557 7.01739 29.6499C8.66775 30.0442 10.396 29.9632 12.0023 29.4163C13.6085 28.8694 15.0271 27.8789 16.0939 26.5594C17.1608 25.2399 17.8323 23.6454 18.0307 21.9602C18.2292 20.2751 17.9465 18.5681 17.2153 17.0369C16.4842 15.5057 15.3345 14.2128 13.8993 13.3077C12.464 12.4026 10.8018 11.9223 9.10503 11.9224ZM31.0726 11.9224C30.6273 11.9224 30.1999 11.9903 29.7746 12.0522C29.9124 11.5889 30.0541 11.1176 30.2818 10.6942C30.5095 10.0791 30.865 9.54593 31.2184 9.00872C31.514 8.42758 32.0352 8.03416 32.4187 7.53689C32.8201 7.0536 33.3673 6.73208 33.8006 6.33067C34.226 5.91129 34.7832 5.7016 35.2265 5.40603C35.6898 5.14042 36.0932 4.84686 36.5246 4.70706L37.601 4.26372L38.5476 3.87029L37.5791 0L36.3868 0.287575C36.0054 0.383434 35.5401 0.495269 35.0108 0.629072C34.4696 0.728925 33.8925 1.00252 33.2494 1.25215C32.6164 1.53773 31.8795 1.72745 31.1965 2.18478C30.5095 2.62014 29.7166 2.9836 29.0177 3.56674C28.3407 4.16786 27.5239 4.68909 26.9208 5.45196C26.2617 6.16691 25.6107 6.9178 25.1054 7.77254C24.5203 8.58734 24.1229 9.48202 23.7035 10.3667C23.3241 11.2514 23.0185 12.1561 22.7689 13.0348C22.2956 14.7962 22.0839 16.4697 22.002 17.9016C21.9341 19.3355 21.9741 20.5277 22.0579 21.3905C22.0879 21.7979 22.1438 22.1933 22.1837 22.4669L22.2337 22.8024L22.2856 22.7904C22.6408 24.4496 23.4585 25.9744 24.644 27.1883C25.8296 28.4022 27.3346 29.2557 28.985 29.6499C30.6354 30.0442 32.3636 29.9632 33.9699 29.4163C35.5761 28.8694 36.9947 27.8789 38.0616 26.5594C39.1284 25.2399 39.7999 23.6454 39.9983 21.9602C40.1968 20.2751 39.9141 18.5681 39.183 17.0369C38.4518 15.5057 37.3021 14.2128 35.8669 13.3077C34.4316 12.4026 32.7695 11.9223 31.0726 11.9224Z" fill="#0019FF"/>
</svg>
