<svg width="108" height="72" viewBox="0 0 108 72" fill="none" xmlns="http://www.w3.org/2000/svg">
<path d="M107.49 25.0017V40.8036C107.49 41.2321 107.133 41.6607 106.539 42.0356L51.3224 70.7469L50.1337 71.3362C48.8261 72.0325 46.7458 71.9789 45.4382 71.3362L0.979969 48.0886C0.326171 47.7672 0.0289917 47.2851 0.0289917 46.8566V31.0546L25.5271 29.6084L32.4811 29.2334L57.3254 16.2705C58.633 15.6277 60.7133 15.6277 62.0209 16.2705L81.4565 26.448L107.49 25.0017Z" fill="url(#paint0_linear_1_1409)"/>
<path d="M49.7176 48.1955H47.6374V71.8716C46.8647 71.8716 46.0326 71.6574 45.4382 71.3895L0.979969 48.0884C0.326172 47.767 0.0289917 47.2849 0.0289917 46.8564V31.0545L25.5271 29.6082L49.7176 48.1955Z" fill="url(#paint1_linear_1_1409)"/>
<path d="M0.980697 32.2868L45.4389 55.588C46.7465 56.2843 48.8268 56.2843 50.1344 55.588L106.539 26.2339C107.847 25.5375 107.847 24.4662 106.539 23.7698L62.0216 0.522267C60.714 -0.174089 58.6338 -0.174089 57.3262 0.522267L0.980697 29.8228C-0.326899 30.5191 -0.326899 31.5905 0.980697 32.2868Z" fill="url(#paint2_linear_1_1409)"/>
<path opacity="0.4" d="M74.7411 19.0024C74.6222 19.056 74.5033 19.1631 74.3845 19.2167L39.7332 37.2684C38.0095 38.179 35.216 38.2326 33.3735 37.3755C33.3141 37.322 33.2546 37.322 33.1358 37.2684C31.3527 36.3042 31.3527 34.8044 33.1358 33.8402L67.8465 15.7885C69.689 14.8243 72.6014 14.8779 74.3845 15.7885C76.0487 16.6455 76.1675 18.0383 74.7411 19.0024Z" fill="url(#paint3_linear_1_1409)"/>
<path d="M74.7406 19.003C74.6218 19.0566 74.5029 19.1637 74.384 19.2173L39.7328 37.269C38.0091 38.1796 35.2156 38.2332 33.3731 37.3761C33.492 37.3225 33.6108 37.2154 33.7297 37.1618L68.381 19.1101C70.1641 18.1995 72.8981 18.146 74.7406 19.003Z" fill="#00FF47"/>
<path d="M6.03226 40.4284V40.9105C6.03226 41.6604 5.4379 41.9818 4.72467 41.6069L4.18974 41.3926C3.4765 41.0176 2.88214 40.107 2.88214 39.3035V38.8215C2.88214 38.0715 3.4765 37.7501 4.18974 38.1251L4.66523 38.3394C5.4379 38.7679 6.03226 39.6785 6.03226 40.4284Z" fill="url(#paint4_linear_1_1409)"/>
<path d="M6.03226 46.4825V46.9646C6.03226 47.7145 5.4379 48.0359 4.72467 47.6609L4.18974 47.3931C3.4765 47.0181 2.88214 46.1075 2.88214 45.3041V44.822C2.88214 44.072 3.4765 43.7507 4.18974 44.1256L4.66523 44.3399C5.4379 44.7684 6.03226 45.7326 6.03226 46.4825Z" fill="#00FF47"/>
<path opacity="0.7" d="M69.1534 20.5569C69.1534 21.039 68.7374 21.414 68.2024 21.414C67.6675 21.414 67.2515 21.039 67.2515 20.5569C67.2515 20.0748 67.6675 19.6998 68.2024 19.6998C68.6779 19.6998 69.1534 20.0748 69.1534 20.5569Z" fill="url(#paint5_linear_1_1409)"/>
<path opacity="0.7" d="M41.278 12.7908C41.278 13.2193 40.9214 13.5407 40.4459 13.5407C39.9704 13.5407 39.6138 13.2193 39.6138 12.7908C39.6138 12.3622 39.9704 12.0409 40.4459 12.0409C40.8619 11.9873 41.278 12.3622 41.278 12.7908Z" fill="#00FF47"/>
<path opacity="0.4" d="M58.6336 16.6454C58.6336 17.1275 58.2175 17.5025 57.6826 17.5025C57.1477 17.5025 56.7316 17.1275 56.7316 16.6454C56.7316 16.1633 57.1477 15.7884 57.6826 15.7884C58.2175 15.7884 58.6336 16.1633 58.6336 16.6454Z" fill="#00FF47"/>
<path opacity="0.7" d="M45.498 27.4111C45.498 27.8932 45.0819 28.2681 44.547 28.2681C44.0121 28.2681 43.596 27.8932 43.596 27.4111C43.596 26.929 44.0121 26.554 44.547 26.554C45.0819 26.5004 45.498 26.929 45.498 27.4111Z" fill="#00FF47"/>
<defs>
<linearGradient id="paint0_linear_1_1409" x1="62.3827" y1="80.895" x2="116.397" y2="13.1142" gradientUnits="userSpaceOnUse">
<stop offset="0.00537634" stop-color="#4B5EFD"/>
<stop offset="1" stop-color="#182DF3"/>
</linearGradient>
<linearGradient id="paint1_linear_1_1409" x1="-13.4154" y1="45.2773" x2="83.6631" y2="80.8532" gradientUnits="userSpaceOnUse">
<stop stop-color="#4D60FD"/>
<stop offset="1" stop-color="#005BEA"/>
</linearGradient>
<linearGradient id="paint2_linear_1_1409" x1="124.765" y1="24.7518" x2="-5.34598" y2="28.4777" gradientUnits="userSpaceOnUse">
<stop offset="0.00537634" stop-color="#596AFF"/>
<stop offset="1" stop-color="#182DF2"/>
</linearGradient>
<linearGradient id="paint3_linear_1_1409" x1="31.7762" y1="26.5175" x2="75.7256" y2="26.5175" gradientUnits="userSpaceOnUse">
<stop stop-color="#200E40"/>
<stop offset="1" stop-color="#1F0C42"/>
</linearGradient>
<linearGradient id="paint4_linear_1_1409" x1="0.237345" y1="39.8628" x2="3.35377" y2="39.8628" gradientUnits="userSpaceOnUse">
<stop stop-color="#200E40"/>
<stop offset="1" stop-color="#1F0C42"/>
</linearGradient>
<linearGradient id="paint5_linear_1_1409" x1="68.1624" y1="25.3668" x2="68.1624" y2="17.8569" gradientUnits="userSpaceOnUse">
<stop stop-color="#4C83FF"/>
<stop offset="0.4104" stop-color="#2AFADF"/>
<stop offset="1" stop-color="white" stop-opacity="0"/>
</linearGradient>
</defs>
</svg>
