<svg width="25" height="25" viewBox="0 0 25 25" fill="none" xmlns="http://www.w3.org/2000/svg">
<path fill-rule="evenodd" clip-rule="evenodd" d="M12.2278 2.08325C17.8215 2.08325 22.3715 6.63325 22.3715 12.227C22.3715 14.8661 21.3588 17.2731 19.7014 19.0796L22.9626 22.334C23.2678 22.6392 23.2688 23.1329 22.9636 23.4381C22.8115 23.5923 22.6105 23.6684 22.4105 23.6684C22.2115 23.6684 22.0115 23.5923 21.8584 23.4402L18.5579 20.1489C16.8216 21.5393 14.6202 22.3718 12.2278 22.3718C6.63405 22.3718 2.08301 17.8208 2.08301 12.227C2.08301 6.63325 6.63405 2.08325 12.2278 2.08325ZM12.2278 3.64575C7.49551 3.64575 3.64551 7.49471 3.64551 12.227C3.64551 16.9593 7.49551 20.8093 12.2278 20.8093C16.959 20.8093 20.8091 16.9593 20.8091 12.227C20.8091 7.49471 16.959 3.64575 12.2278 3.64575Z" fill="white"/>
</svg>
