<svg width="99" height="111" viewBox="0 0 99 111" fill="none" xmlns="http://www.w3.org/2000/svg">
<g clip-path="url(#clip0_1_1801)">
<path d="M35.5409 111L0 90.1958V73.4893L35.5409 94.2937V111Z" fill="url(#paint0_linear_1_1801)"/>
<path d="M35.5409 111L71.0818 90.1958L71.1262 73.4893L35.5409 94.2937V111Z" fill="url(#paint1_linear_1_1801)"/>
<path d="M35.5409 94.2931L0 73.4887L35.5409 52.6843L71.1262 73.4887L35.5409 94.2931Z" fill="url(#paint2_linear_1_1801)"/>
<path d="M35.5409 90.1062L0 69.3018V52.5952L35.5853 73.3996L35.5409 90.1062Z" fill="url(#paint3_linear_1_1801)"/>
<path d="M35.5409 90.1062L71.0818 69.3018L71.1262 52.5952L35.5853 73.3996L35.5409 90.1062Z" fill="url(#paint4_linear_1_1801)"/>
<path d="M35.5853 73.3994L0 52.5949L35.5853 31.8356L71.1262 52.5949L35.5853 73.3994Z" fill="url(#paint5_linear_1_1801)"/>
<path opacity="0.8" d="M42.3381 86.1422V81.9093C42.3381 80.7385 42.96 79.6577 43.9374 79.0723L54.3775 72.903C55.6659 72.1375 56.4211 70.7866 56.4211 69.2555V61.1949" stroke="#FBF8FF" stroke-width="0.5618" stroke-miterlimit="10"/>
<path opacity="0.8" d="M64.4623 84.9718L64.4179 81.5044C64.4179 81.1442 64.018 80.919 63.707 81.0992L51.9785 87.9889C51.6231 88.1691 51.2233 87.9439 51.2233 87.5386V86.2327C51.2233 85.5572 50.8235 84.9718 50.2459 84.6566L47.2694 83.2607" stroke="#FBF8FF" stroke-width="0.5618" stroke-miterlimit="10"/>
<path d="M61.93 88.4398L66.9501 85.4677V82.7208L61.93 85.6929V88.4398Z" fill="url(#paint6_linear_1_1801)"/>
<path opacity="0.8" d="M5.68652 84.8822V77.8123C5.68652 77.0918 6.08636 76.4164 6.70832 76.0561L9.37389 74.6151" stroke="#FBF8FF" stroke-width="0.5618" stroke-miterlimit="10"/>
<path d="M8.21885 88.7102L3.1987 85.7831V82.9912L8.21885 85.9633V88.7102Z" fill="url(#paint7_linear_1_1801)"/>
<path opacity="0.8" d="M26.5224 99.0212V105.866" stroke="#FBF8FF" stroke-width="0.5618" stroke-miterlimit="10"/>
<path d="M29.0547 100.869L24.0345 97.8966V95.1497L29.0547 98.0767V100.869Z" fill="url(#paint8_linear_1_1801)"/>
<path d="M45.2702 60.7453L24.0345 48.3617V17.1551L29.188 15.579L45.2702 24.9905V60.7453Z" fill="url(#paint9_linear_1_1801)"/>
<path d="M29.188 15.579V20.1722L24.0345 17.1551L29.188 15.579Z" fill="url(#paint10_linear_1_1801)"/>
<path d="M41.5829 32.3309L27.8552 24.3153V23.0544L41.5829 31.115V32.3309Z" fill="url(#paint11_linear_1_1801)"/>
<path d="M43.3155 36.788L25.9893 26.611V25.3951L43.3155 35.5272V36.788Z" fill="url(#paint12_linear_1_1801)"/>
<path d="M43.3155 40.2108L25.9893 30.0337V28.8179L43.3155 38.9499V40.2108Z" fill="url(#paint13_linear_1_1801)"/>
<path d="M43.3155 43.6335L25.9893 33.4564V32.2406L43.3155 42.3726V43.6335Z" fill="url(#paint14_linear_1_1801)"/>
<path d="M43.3155 47.0561L25.9893 36.9241V35.6632L43.3155 45.7952V47.0561Z" fill="url(#paint15_linear_1_1801)"/>
<path d="M43.3155 50.4786L25.9893 40.3466V39.0857L43.3155 49.2177V50.4786Z" fill="url(#paint16_linear_1_1801)"/>
<path d="M43.3155 53.8998L25.9893 43.7678V42.507L43.3155 52.684V53.8998Z" fill="url(#paint17_linear_1_1801)"/>
<path d="M45.4479 62.2313L22.3019 48.677C21.8576 48.4068 21.9021 47.9114 22.4352 47.5962C22.9683 47.281 23.768 47.236 24.2566 47.5061L47.4026 61.0605C47.8469 61.3307 47.8025 61.8261 47.2694 62.1413C46.7363 62.4565 45.9366 62.5015 45.4479 62.2313Z" fill="url(#paint18_linear_1_1801)"/>
<path opacity="0.7" d="M22.3019 48.6773C22.3019 48.6773 21.9465 48.4972 21.9909 48.182C20.8358 41.2472 17.5483 20.1726 17.5483 20.1726L55.888 36.7891L47.5359 61.9615C47.5359 61.9615 46.8251 62.7721 45.4479 62.2768L22.3019 48.6773Z" fill="url(#paint19_linear_1_1801)"/>
</g>
<defs>
<linearGradient id="paint0_linear_1_1801" x1="-2.8835" y1="100.29" x2="63.4827" y2="89.3715" gradientUnits="userSpaceOnUse">
<stop offset="0.00537634" stop-color="#2586FA"/>
<stop offset="1" stop-color="#2253F7"/>
</linearGradient>
<linearGradient id="paint1_linear_1_1801" x1="28.3164" y1="92.2369" x2="107.19" y2="84.4272" gradientUnits="userSpaceOnUse">
<stop offset="0.00537634" stop-color="#009DF5"/>
<stop offset="1" stop-color="#3866FA"/>
</linearGradient>
<linearGradient id="paint2_linear_1_1801" x1="-27.2218" y1="73.49" x2="43.8723" y2="73.49" gradientUnits="userSpaceOnUse">
<stop offset="0.00537634" stop-color="#00C6FB"/>
<stop offset="1" stop-color="#005BEA"/>
</linearGradient>
<linearGradient id="paint3_linear_1_1801" x1="-11.4992" y1="28.6791" x2="44.4019" y2="107.986" gradientUnits="userSpaceOnUse">
<stop stop-color="#0396FF"/>
<stop offset="0.0997939" stop-color="#109CFF"/>
<stop offset="0.2851" stop-color="#33ACFF"/>
<stop offset="0.5356" stop-color="#6BC6FF"/>
<stop offset="0.8384" stop-color="#B7EAFF"/>
<stop offset="1" stop-color="#E3FEFF"/>
</linearGradient>
<linearGradient id="paint4_linear_1_1801" x1="35.8062" y1="58.095" x2="110.012" y2="112.775" gradientUnits="userSpaceOnUse">
<stop stop-color="#0396FF"/>
<stop offset="0.1666" stop-color="#36AEFF"/>
<stop offset="0.3853" stop-color="#73CAFF"/>
<stop offset="0.5859" stop-color="#A3E0FF"/>
<stop offset="0.7616" stop-color="#C6F1FF"/>
<stop offset="0.9057" stop-color="#DBFAFF"/>
<stop offset="1" stop-color="#E3FEFF"/>
</linearGradient>
<linearGradient id="paint5_linear_1_1801" x1="15.3646" y1="35.0613" x2="90.4664" y2="98.5909" gradientUnits="userSpaceOnUse">
<stop stop-color="#0396FF"/>
<stop offset="0.1666" stop-color="#36AEFF"/>
<stop offset="0.3853" stop-color="#73CAFF"/>
<stop offset="0.5859" stop-color="#A3E0FF"/>
<stop offset="0.7616" stop-color="#C6F1FF"/>
<stop offset="0.9057" stop-color="#DBFAFF"/>
<stop offset="1" stop-color="#E3FEFF"/>
</linearGradient>
<linearGradient id="paint6_linear_1_1801" x1="66.9611" y1="85.5749" x2="14.1462" y2="85.5749" gradientUnits="userSpaceOnUse">
<stop offset="0.00629782" stop-color="#55FF94"/>
<stop offset="1" stop-color="#E9FFF9"/>
</linearGradient>
<linearGradient id="paint7_linear_1_1801" x1="3.18235" y1="85.8627" x2="55.9972" y2="85.8627" gradientUnits="userSpaceOnUse">
<stop offset="0.00629782" stop-color="#55FF94"/>
<stop offset="1" stop-color="#E9FFF9"/>
</linearGradient>
<linearGradient id="paint8_linear_1_1801" x1="24.0215" y1="98.0024" x2="76.8363" y2="98.0024" gradientUnits="userSpaceOnUse">
<stop offset="0.00629782" stop-color="#55FF94"/>
<stop offset="1" stop-color="#E9FFF9"/>
</linearGradient>
<linearGradient id="paint9_linear_1_1801" x1="15.5234" y1="-20.2161" x2="33.3952" y2="79.2484" gradientUnits="userSpaceOnUse">
<stop offset="0.00537634" stop-color="#D4FFF1"/>
<stop offset="0.1172" stop-color="#C5FFEA"/>
<stop offset="0.5207" stop-color="#94FFD5"/>
<stop offset="0.8277" stop-color="#75FFC7"/>
<stop offset="1" stop-color="#6AFFC2"/>
</linearGradient>
<linearGradient id="paint10_linear_1_1801" x1="35.6002" y1="37.028" x2="23.0669" y2="10.8062" gradientUnits="userSpaceOnUse">
<stop offset="0.00537634" stop-color="#00C6FB"/>
<stop offset="1" stop-color="#005BEA"/>
</linearGradient>
<linearGradient id="paint11_linear_1_1801" x1="58.2819" y1="81.9573" x2="22.0475" y2="6.14899" gradientUnits="userSpaceOnUse">
<stop offset="0.00537634" stop-color="#00C6FB"/>
<stop offset="1" stop-color="#005BEA"/>
</linearGradient>
<linearGradient id="paint12_linear_1_1801" x1="63.873" y1="98.3858" x2="18.925" y2="4.3472" gradientUnits="userSpaceOnUse">
<stop offset="0.00537634" stop-color="#00C6FB"/>
<stop offset="1" stop-color="#005BEA"/>
</linearGradient>
<linearGradient id="paint13_linear_1_1801" x1="63.873" y1="101.811" x2="18.925" y2="7.77254" gradientUnits="userSpaceOnUse">
<stop offset="0.00537634" stop-color="#00C6FB"/>
<stop offset="1" stop-color="#005BEA"/>
</linearGradient>
<linearGradient id="paint14_linear_1_1801" x1="63.873" y1="105.236" x2="18.9249" y2="11.1979" gradientUnits="userSpaceOnUse">
<stop offset="0.00537634" stop-color="#00C6FB"/>
<stop offset="1" stop-color="#005BEA"/>
</linearGradient>
<linearGradient id="paint15_linear_1_1801" x1="63.873" y1="108.662" x2="18.925" y2="14.6231" gradientUnits="userSpaceOnUse">
<stop offset="0.00537634" stop-color="#00C6FB"/>
<stop offset="1" stop-color="#005BEA"/>
</linearGradient>
<linearGradient id="paint16_linear_1_1801" x1="63.873" y1="112.087" x2="18.9249" y2="18.0482" gradientUnits="userSpaceOnUse">
<stop offset="0.00537634" stop-color="#00C6FB"/>
<stop offset="1" stop-color="#005BEA"/>
</linearGradient>
<linearGradient id="paint17_linear_1_1801" x1="63.873" y1="115.511" x2="18.925" y2="21.4721" gradientUnits="userSpaceOnUse">
<stop offset="0.00537634" stop-color="#00C6FB"/>
<stop offset="1" stop-color="#005BEA"/>
</linearGradient>
<linearGradient id="paint18_linear_1_1801" x1="22.009" y1="54.8897" x2="47.7206" y2="54.8897" gradientUnits="userSpaceOnUse">
<stop offset="0.00537634" stop-color="#00C6FB"/>
<stop offset="1" stop-color="#005BEA"/>
</linearGradient>
<linearGradient id="paint19_linear_1_1801" x1="28.887" y1="54.676" x2="36.034" y2="31.4139" gradientUnits="userSpaceOnUse">
<stop offset="0.000460737" stop-color="white"/>
<stop offset="0.4916" stop-color="#6ADFFF" stop-opacity="0.56"/>
<stop offset="1" stop-color="white" stop-opacity="0"/>
</linearGradient>
<clipPath id="clip0_1_1801">
<rect width="99" height="111" fill="white"/>
</clipPath>
</defs>
</svg>
