<svg width="97" height="111" viewBox="0 0 97 111" fill="none" xmlns="http://www.w3.org/2000/svg">
<g clip-path="url(#clip0_1_1761)">
<path d="M54.3166 88.286V98.0919L54.2496 98.1252C53.8139 101.327 51.5014 104.462 47.2452 106.897C40.3413 110.9 30.3206 111.967 21.7076 110.166C20.1994 109.866 18.7583 109.432 17.3843 108.965C15.7756 108.398 14.2675 107.731 12.8934 106.931C10.648 105.663 8.93877 104.162 7.76578 102.595C7.69876 102.495 7.59821 102.394 7.53119 102.261C6.32469 100.56 5.72144 98.7589 5.72144 96.9912V88.286L20.434 84.0501C26.5001 82.5492 33.4039 82.5492 39.4699 84.0501L54.3166 88.286Z" fill="url(#paint0_linear_1_1761)"/>
<path d="M47.2451 98.526C46.977 98.6594 46.7424 98.8261 46.4743 98.9596C44.1954 100.16 41.6148 101.094 38.8666 101.695C33.3704 102.929 27.2373 102.962 21.7075 101.795C20.1994 101.494 18.7583 101.061 17.3507 100.594C15.8091 100.06 14.3345 99.3932 12.9939 98.626C12.9604 98.5927 12.8934 98.5927 12.8599 98.5593C10.6144 97.2919 8.90524 95.791 7.73225 94.2234C3.84464 89.087 5.48682 82.8832 12.7593 78.6807C22.2102 73.2108 37.6266 73.2108 47.1446 78.6807C56.6625 84.1507 56.7295 93.056 47.2451 98.526Z" fill="url(#paint1_linear_1_1761)"/>
<path opacity="0.5" d="M47.2451 98.5256C46.977 98.659 46.7424 98.8258 46.4743 98.9592C44.1953 100.16 41.6148 101.094 38.8666 101.694C35.9844 102.328 32.9682 102.661 29.9184 102.628C32.8341 102.628 35.7498 102.295 38.5315 101.694C41.2796 101.094 43.8602 100.16 46.1727 98.9592C46.4408 98.8258 46.7089 98.6924 46.9435 98.5256C56.3944 93.0556 56.3609 84.1503 46.8429 78.6803C42.1175 75.9787 35.9509 74.6112 29.7844 74.5779C36.0515 74.5445 42.3521 75.912 47.1781 78.6803C56.6625 84.1503 56.7295 93.0556 47.2451 98.5256Z" fill="url(#paint2_linear_1_1761)"/>
<path d="M43.6256 93.7229C43.0559 94.0565 42.4861 94.3567 41.8494 94.6235C39.7045 95.5907 37.258 96.2578 34.7444 96.6247C28.4103 97.5252 21.4394 96.558 16.4458 93.7229C8.90523 89.387 8.87172 82.3828 16.3453 78.0469C23.8189 73.7109 35.9844 73.7109 43.4915 78.0469C51.0657 82.3828 51.0992 89.387 43.6256 93.7229Z" fill="url(#paint3_linear_1_1761)"/>
<path d="M40.5759 91.4878C40.1402 91.7546 39.671 91.9881 39.2018 92.1882C37.5261 92.9554 35.6493 93.4557 33.7055 93.7559C28.8125 94.4563 23.3833 93.7225 19.5292 91.4878C13.6978 88.1191 13.6642 82.6825 19.4621 79.3472C25.26 75.9785 34.6774 75.9785 40.5089 79.3472C46.3068 82.7159 46.3403 88.1525 40.5759 91.4878Z" fill="url(#paint4_linear_1_1761)"/>
<path opacity="0.5" d="M44.8656 85.9845C44.6645 83.95 43.1899 81.9488 40.5088 80.3811C34.6774 77.0125 25.26 77.0125 19.4621 80.3811C16.8145 81.9154 15.3734 83.8833 15.1723 85.9178C14.9377 83.5497 16.3453 81.1483 19.4621 79.3472C25.26 75.9785 34.6774 75.9785 40.5088 79.3472C43.6591 81.1816 45.1002 83.6164 44.8656 85.9845Z" fill="url(#paint5_linear_1_1761)"/>
<path opacity="0.8" d="M30.2536 92.6887C26.9022 92.6887 23.7519 91.9215 21.4059 90.5874C19.0264 89.2199 17.6859 87.3855 17.6859 85.4176C17.6859 83.4831 18.9929 81.6487 21.3389 80.2812C23.6848 78.9137 26.8351 78.1799 30.1865 78.1799C33.5379 78.1799 36.6882 78.9471 39.0342 80.2812C41.4137 81.6487 42.7542 83.4831 42.7542 85.451C42.7542 87.3855 41.4472 89.2199 39.1012 90.5874C38.7326 90.7875 38.3639 90.9876 37.9617 91.1878C36.5877 91.8215 35.0125 92.2551 33.3368 92.4885C32.3314 92.622 31.2925 92.6887 30.2536 92.6887ZM30.1865 78.3133C26.8687 78.3133 23.7519 79.0471 21.4059 80.4146C19.0934 81.7488 17.8199 83.5498 17.8199 85.4176C17.8199 87.3188 19.1269 89.1199 21.4729 90.454C23.8189 91.8215 26.9357 92.5553 30.2536 92.5553C31.2925 92.5553 32.2979 92.4885 33.2698 92.3551C34.9455 92.1217 36.4871 91.6881 37.8612 91.0544C38.2634 90.8542 38.6655 90.6875 39.0007 90.454C41.3131 89.1199 42.5867 87.3188 42.5867 85.451C42.5867 83.5498 41.2796 81.7488 38.9337 80.4146C36.6212 79.0471 33.5044 78.3133 30.1865 78.3133Z" fill="url(#paint6_linear_1_1761)"/>
<path opacity="0.3" d="M32.9346 65.0061C32.9346 65.2062 32.7671 65.4063 32.5325 65.4063C32.3314 65.4063 32.1303 65.2395 32.1303 65.0061C32.1303 64.806 32.2979 64.6058 32.5325 64.6058C32.7671 64.6392 32.9346 64.806 32.9346 65.0061Z" fill="url(#paint7_linear_1_1761)"/>
<path opacity="0.3" d="M32.1974 69.3421C32.1974 69.6089 31.9628 69.8424 31.6947 69.8424C31.4266 69.8424 31.192 69.6089 31.192 69.3421C31.192 69.0753 31.4266 68.8418 31.6947 68.8418C31.9963 68.8418 32.1974 69.0753 32.1974 69.3421Z" fill="url(#paint8_linear_1_1761)"/>
<path opacity="0.3" d="M45.3348 73.7447C45.3348 74.0783 45.0667 74.3117 44.7651 74.3117C44.43 74.3117 44.1954 74.0449 44.1954 73.7447C44.1954 73.4112 44.4635 73.1777 44.7651 73.1777C45.0667 73.1777 45.3348 73.4112 45.3348 73.7447Z" fill="url(#paint9_linear_1_1761)"/>
<path opacity="0.3" d="M11.9885 70.7097C11.9885 71.0433 11.7204 71.3101 11.3853 71.3101C11.0502 71.3101 10.782 71.0433 10.782 70.7097C10.782 70.3762 11.0502 70.1094 11.3853 70.1094C11.7204 70.1094 11.9885 70.3762 11.9885 70.7097Z" fill="url(#paint10_linear_1_1761)"/>
<path opacity="0.3" d="M21.9757 81.0817C21.9757 81.4819 21.6405 81.8155 21.2383 81.8155C20.8362 81.8155 20.501 81.4819 20.501 81.0817C20.501 80.6814 20.8362 80.3479 21.2383 80.3479C21.6405 80.3479 21.9757 80.6481 21.9757 81.0817Z" fill="url(#paint11_linear_1_1761)"/>
<path opacity="0.3" d="M28.4103 87.0526C28.4103 87.3195 28.2092 87.5196 27.9411 87.5196C27.673 87.5196 27.4719 87.3195 27.4719 87.0526C27.4719 86.7858 27.673 86.5857 27.9411 86.5857C28.2092 86.5857 28.4103 86.7858 28.4103 87.0526Z" fill="url(#paint12_linear_1_1761)"/>
<path opacity="0.4" d="M41.7153 84.3847C41.7153 84.5848 41.7153 84.7516 41.6818 84.9517C41.4807 86.3192 40.5758 87.6533 38.9336 88.754C38.7326 88.8874 38.565 88.9875 38.3639 89.1209C37.8612 89.4211 37.325 89.6545 36.7887 89.888C36.085 90.1548 35.3812 90.3883 34.6103 90.5884C33.9066 90.7552 33.1692 90.8886 32.4319 90.9553C32.3984 90.9553 32.3649 90.9553 32.2979 90.9553C30.8568 91.1221 29.3822 91.1221 27.9411 90.9553C27.9076 90.9553 27.8741 90.9553 27.8405 90.9553C27.0697 90.8553 26.2989 90.7218 25.5616 90.5551C24.8578 90.3883 24.154 90.1548 23.4837 89.888C22.9475 89.6545 22.4113 89.4211 21.9421 89.1542C21.674 89.0208 21.4394 88.8541 21.2048 88.6873C19.6296 87.5866 18.7248 86.2859 18.5572 84.9184C18.5237 84.7516 18.5237 84.5848 18.5237 84.4181V54.0331V44.5274C18.5237 42.8264 19.6296 41.092 21.8751 39.7913C26.3994 37.1897 33.739 37.1897 38.2634 39.7913C40.7769 41.2255 41.9164 43.1933 41.6483 45.0944L41.7153 84.3847Z" fill="url(#paint13_linear_1_1761)"/>
<path opacity="0.4" d="M46.2397 75.5457C46.2397 75.8125 46.2397 76.0793 46.1727 76.3128C45.9045 78.1806 44.6645 80.015 42.3856 81.5493C42.1175 81.7161 41.8494 81.8828 41.5813 82.0496C40.911 82.4498 40.1737 82.7834 39.4028 83.1169C38.4645 83.4838 37.459 83.8173 36.4201 84.0508C35.4482 84.2843 34.4428 84.451 33.4374 84.5844C33.3703 84.5844 33.3368 84.5844 33.2698 84.6178C31.2925 84.8179 29.2817 84.8179 27.3043 84.6178C27.2373 84.6178 27.2038 84.6178 27.1368 84.5844C26.0643 84.451 25.0254 84.2843 24.02 84.0174C23.0481 83.784 22.0762 83.4838 21.1713 83.0835C20.434 82.7834 19.6967 82.4498 19.0599 82.0496C18.6913 81.8495 18.3561 81.6493 18.0545 81.4159C15.8761 79.915 14.6696 78.0805 14.4015 76.2461C14.368 76.0126 14.368 75.7792 14.368 75.5457V33.7539V51.1644C14.368 48.7963 15.8761 46.4615 18.9929 44.6605C25.193 41.0583 35.2806 41.0583 41.5477 44.6605C44.9997 46.6617 46.5748 49.3299 46.2062 51.9315L46.2397 75.5457Z" fill="url(#paint14_linear_1_1761)"/>
<path opacity="0.4" d="M9.70961 70.5087C9.70961 70.6755 9.70961 70.8756 9.70961 71.0424C9.6761 72.3765 9.54204 73.6773 9.30745 74.7446C9.27393 74.878 9.24042 74.9781 9.24042 75.1115C9.17339 75.3783 9.10636 75.6451 9.00582 75.8453C8.90528 76.1121 8.80474 76.3456 8.7042 76.5123C8.60365 76.6791 8.50311 76.8125 8.40257 76.8792C8.40257 76.8792 8.40257 76.8792 8.36906 76.8792C8.16797 77.046 7.96689 77.0126 7.76581 76.8792C7.66527 76.7792 7.56473 76.6457 7.43067 76.479C7.33013 76.3122 7.22959 76.0787 7.12905 75.8453C7.06202 75.6451 6.99499 75.3783 6.89445 75.1115C6.86093 74.9781 6.82742 74.8113 6.79391 74.6779C6.55931 73.6106 6.45877 72.3432 6.42525 71.0424C6.42525 70.8756 6.42525 70.7088 6.42525 70.5421L6.2912 51.3973L6.42525 53.3651C6.42525 51.6974 6.59282 50.0298 6.89445 48.7623C7.53121 46.2275 8.57014 46.2275 9.2069 48.7623C9.57556 50.1632 9.70961 52.0643 9.6761 53.8988L9.70961 70.5087Z" fill="url(#paint15_linear_1_1761)"/>
<path opacity="0.3" d="M76.8919 1.776L45.791 87.761C45.5899 89.7622 44.1488 91.7634 41.5013 93.2976C41.0656 93.5645 40.5964 93.7979 40.1272 93.9981C38.4515 94.7652 36.5747 95.2655 34.6309 95.5657C29.7379 96.2661 24.3086 95.5323 20.4545 93.2976C18.1756 91.9635 16.768 90.3292 16.2653 88.6282L-22.1081 2.40971L76.8919 1.776Z" fill="url(#paint16_linear_1_1761)"/>
<path opacity="0.8" d="M28.7789 76.9467C21.2048 76.9467 14.0663 75.2456 8.67059 72.1438C3.24134 69.0086 0.258606 64.8727 0.258606 60.4367C0.258606 56.0341 3.20783 51.8983 8.53653 48.7964C13.8652 45.6946 21.0037 43.9935 28.5778 43.9935C36.152 43.9935 43.2904 45.6946 48.6862 48.7964C54.1154 51.9316 57.0981 56.0675 57.0981 60.5035C57.0981 64.9061 54.1489 69.0419 48.8202 72.1438C48.0159 72.6107 47.1445 73.0777 46.2061 73.4779C43.0893 74.8788 39.5369 75.8794 35.7163 76.4464C33.4373 76.7799 31.1249 76.9467 28.7789 76.9467ZM28.5778 44.3271C21.0372 44.3271 13.9993 46.0281 8.7041 49.0966C3.44242 52.1318 0.560231 56.1675 0.560231 60.4701C0.560231 64.7727 3.50945 68.8418 8.83816 71.9103C14.1669 74.9788 21.2383 76.6798 28.7789 76.6798C31.0914 76.6798 33.4038 76.5131 35.6493 76.1795C39.4698 75.6125 42.9888 74.6453 46.0721 73.2444C46.977 72.8109 47.8483 72.3773 48.6526 71.9103C53.9143 68.8752 56.7965 64.8394 56.7965 60.5368C56.7965 56.2342 53.8473 52.1651 48.5186 49.0966C43.1899 45.9947 36.1185 44.3271 28.5778 44.3271Z" fill="url(#paint17_linear_1_1761)"/>
<path d="M4.17981 39.1565C4.17981 39.1898 4.17981 39.1898 4.17981 39.2232C4.68252 42.5919 7.16255 45.9272 11.6534 48.4954C11.821 48.5955 11.955 48.6622 12.1226 48.7623C12.1561 48.7956 12.2231 48.829 12.2567 48.829C12.3572 48.8957 12.4577 48.929 12.5583 48.9957C12.6253 49.0291 12.6923 49.0624 12.7594 49.0958C12.8599 49.1292 12.9605 49.1959 13.061 49.2292C13.128 49.2626 13.195 49.2959 13.2621 49.3293C13.3626 49.3626 13.4632 49.4293 13.5302 49.4627C13.5972 49.496 13.6642 49.5294 13.7313 49.5628C13.8318 49.5961 13.9324 49.6628 13.9994 49.6962C14.0664 49.7295 14.1334 49.7629 14.2005 49.7962C14.301 49.8296 14.4015 49.8629 14.4686 49.9296C14.5356 49.963 14.6026 49.9963 14.7032 50.0297C14.8037 50.0631 14.9043 50.0964 15.0048 50.1631C15.0718 50.1965 15.1389 50.2298 15.2394 50.2632C15.3064 50.2965 15.3734 50.3299 15.4405 50.3299C15.608 50.3966 15.8091 50.4633 15.9767 50.53C16.0437 50.5634 16.0772 50.5634 16.1108 50.5967C16.3454 50.6634 16.5799 50.7635 16.781 50.8302C16.8481 50.8635 16.8816 50.8635 16.9486 50.8635C17.1497 50.9302 17.3173 50.9969 17.5183 51.0637C17.5854 51.097 17.6524 51.097 17.6859 51.1304C17.9205 51.1971 18.1551 51.2638 18.3897 51.3305C18.4232 51.3305 18.4567 51.3638 18.5238 51.3638C18.6913 51.3972 18.8589 51.4639 19.0265 51.4972C19.0935 51.5306 19.1605 51.5306 19.2611 51.564C19.3951 51.5973 19.5292 51.6307 19.6632 51.664C19.7303 51.6974 19.8308 51.6974 19.8978 51.7307C20.0319 51.7641 20.1659 51.7974 20.3 51.8308C20.367 51.8641 20.4676 51.8641 20.5346 51.8975C20.6686 51.9308 20.8027 51.9642 20.9368 51.9975C21.0038 52.0309 21.1043 52.0309 21.1714 52.0643C21.3054 52.0976 21.4059 52.0976 21.54 52.131C21.6405 52.1643 21.7076 52.1643 21.8081 52.1977C21.9422 52.231 22.0427 52.231 22.1768 52.2644C22.2773 52.2644 22.3443 52.2977 22.4449 52.2977C22.5789 52.3311 22.713 52.3311 22.847 52.3644C22.9141 52.3644 22.9811 52.3978 23.0816 52.3978C23.2492 52.4311 23.4168 52.4645 23.5843 52.4645C23.6179 52.4645 23.6514 52.4645 23.6849 52.4645C24.0871 52.5312 24.5227 52.5646 24.9249 52.6313C24.9584 52.6313 25.0254 52.6313 25.059 52.6313C25.2265 52.6313 25.3941 52.6646 25.5617 52.6646C25.6287 52.6646 25.6957 52.6646 25.7628 52.698C25.8968 52.698 26.0309 52.7313 26.1984 52.7313C26.2655 52.7313 26.366 52.7313 26.433 52.7313C26.5671 52.7313 26.7011 52.7647 26.8352 52.7647C26.9022 52.7647 27.0028 52.7647 27.0698 52.7647C27.2038 52.7647 27.3044 52.798 27.4384 52.798C27.539 52.798 27.606 52.798 27.7066 52.798C27.8406 52.798 27.9412 52.798 28.0752 52.798C28.1757 52.798 28.2763 52.798 28.3768 52.798C28.4774 52.798 28.6114 52.798 28.712 52.798C28.8125 52.798 28.8795 52.798 28.9801 52.798C29.1141 52.798 29.2147 52.798 29.3487 52.798C29.4493 52.798 29.5163 52.798 29.6168 52.798H30.2536C30.3877 52.798 30.4882 52.798 30.6223 52.798C30.7228 52.798 30.7898 52.798 30.8904 52.798C31.0244 52.798 31.125 52.798 31.259 52.798C31.3596 52.798 31.4266 52.798 31.5271 52.798C31.6612 52.798 31.7952 52.798 31.9628 52.798C32.0634 52.798 32.1304 52.798 32.2309 52.798C32.365 52.798 32.5326 52.798 32.6666 52.7647C32.7336 52.7647 32.8342 52.7647 32.9012 52.7647C33.1023 52.7647 33.2699 52.7313 33.4709 52.7313C33.5045 52.7313 33.538 52.7313 33.5715 52.7313C33.8061 52.698 34.0072 52.698 34.2418 52.6646C34.2753 52.6646 34.3423 52.6646 34.3758 52.6646C34.5769 52.6313 34.778 52.6313 35.0126 52.5979C35.0796 52.5979 35.1466 52.5979 35.2137 52.5646C35.4147 52.5312 35.6158 52.5312 35.8169 52.4978C35.8504 52.4978 35.9175 52.4978 35.951 52.4645C36.1856 52.4311 36.4537 52.3978 36.6883 52.3644C36.7553 52.3644 36.7888 52.3311 36.8558 52.3311C37.0569 52.2977 37.2245 52.2644 37.4256 52.231C37.4926 52.231 37.5932 52.1977 37.6602 52.1977C37.7607 52.1643 37.8948 52.1643 37.9953 52.131C38.0959 52.0976 38.1629 52.0976 38.2634 52.0643C38.364 52.0309 38.498 52.0309 38.5986 51.9975C38.6991 51.9642 38.7661 51.9642 38.8667 51.9308C38.9672 51.8975 39.1013 51.8975 39.2018 51.8641C39.3024 51.8308 39.3694 51.8308 39.4699 51.7974C39.5705 51.7641 39.7045 51.7307 39.8051 51.7307C39.9056 51.6974 39.9726 51.6974 40.0732 51.664C40.1737 51.6307 40.3078 51.5973 40.4083 51.564C40.4753 51.5306 40.5759 51.5306 40.6429 51.4972C40.777 51.4639 40.8775 51.4305 41.0116 51.3972C41.0786 51.3638 41.1456 51.3638 41.2127 51.3305C41.3467 51.2971 41.5143 51.2304 41.6483 51.1971C41.6818 51.1971 41.7489 51.1637 41.7824 51.1637C41.9835 51.097 42.151 51.0303 42.3521 50.9969C42.3856 50.9969 42.3856 50.9969 42.3856 50.9636C42.5867 50.8969 42.8213 50.8302 43.0224 50.7635C43.0894 50.7301 43.1565 50.7301 43.2235 50.6968C43.3911 50.6301 43.5586 50.5633 43.7262 50.4966C43.7932 50.4633 43.8267 50.4633 43.8938 50.4299C44.0948 50.3299 44.3294 50.2632 44.5305 50.1631C44.564 50.1298 44.6311 50.1298 44.6646 50.0964C44.8321 50.0297 44.9997 49.963 45.2008 49.8629C45.2678 49.8296 45.3349 49.7962 45.4019 49.7962C45.5695 49.7295 45.737 49.6295 45.9381 49.5628C45.9716 49.5294 46.0051 49.5294 46.0386 49.5294C46.2397 49.4293 46.4408 49.3293 46.6419 49.2292C46.7089 49.1959 46.7424 49.1625 46.8095 49.1625C46.977 49.0958 47.1111 48.9957 47.2787 48.929C47.3457 48.8957 47.3792 48.8623 47.4462 48.829C47.6473 48.7289 47.8484 48.6289 48.016 48.4954C48.15 48.4287 48.2841 48.3287 48.3846 48.262C48.4516 48.2286 48.5522 48.1619 48.6192 48.1286C48.6862 48.0952 48.7533 48.0285 48.8203 47.9951C48.8873 47.9284 48.9879 47.8951 49.0549 47.8284C49.1219 47.795 49.189 47.7283 49.256 47.695C49.323 47.6283 49.4235 47.5949 49.4906 47.5282C49.5576 47.4948 49.6246 47.4281 49.6917 47.3948C49.7587 47.3281 49.8592 47.2947 49.9263 47.228C49.9933 47.1947 50.0603 47.128 50.0938 47.0946C50.1609 47.0279 50.2279 46.9945 50.2949 46.9278C50.3619 46.8945 50.429 46.8278 50.4625 46.7944C50.5295 46.7277 50.5965 46.6944 50.6636 46.6277C50.7306 46.5943 50.7641 46.5276 50.8311 46.4942C50.8982 46.4275 50.9652 46.3942 51.0322 46.3275C51.0992 46.2941 51.1328 46.2274 51.1998 46.1941C51.2668 46.1274 51.3338 46.094 51.4009 46.0273C51.4679 45.9939 51.5014 45.9272 51.5684 45.8939L51.602 45.8605C51.7025 45.7938 51.7695 45.6938 51.8365 45.6271C51.8701 45.5937 51.8701 45.5937 51.9036 45.5603C52.0041 45.4603 52.1047 45.3602 52.1717 45.2935L52.2052 45.2602C52.2722 45.1935 52.3728 45.0934 52.4398 45.0267C52.4733 44.9933 52.4733 44.9933 52.5068 44.96C52.6074 44.8599 52.6744 44.7599 52.7414 44.6598L52.7749 44.6264C52.842 44.5597 52.909 44.4597 52.976 44.3596C53.0095 44.3263 53.0095 44.3263 53.043 44.2929C53.0766 44.2596 53.1101 44.1929 53.1436 44.1595C53.2106 44.0928 53.2441 44.0261 53.3112 43.926C53.3447 43.8927 53.3782 43.826 53.4117 43.7926C53.4787 43.7259 53.5122 43.6592 53.5793 43.5925C53.6128 43.5591 53.6463 43.4924 53.6798 43.4591C53.7133 43.3924 53.7804 43.2923 53.8139 43.2256C53.8474 43.1923 53.8809 43.1255 53.9144 43.0922C53.9479 42.9921 54.0149 42.9254 54.0485 42.8587C54.082 42.8254 54.082 42.792 54.1155 42.7253C54.149 42.6586 54.1825 42.5919 54.216 42.5252C54.2495 42.4918 54.2495 42.4251 54.2831 42.3918C54.3166 42.3251 54.3501 42.225 54.4171 42.1583C54.4506 42.1249 54.4506 42.0916 54.4841 42.0582C54.5512 41.9248 54.5847 41.8248 54.6517 41.6914C54.6517 41.658 54.6517 41.658 54.6852 41.6246C54.7187 41.5246 54.7523 41.4245 54.7858 41.3245C54.8193 41.2911 54.8193 41.2244 54.8528 41.1911C54.8863 41.1243 54.8863 41.0576 54.9198 40.9909C54.9533 40.9242 54.9533 40.8909 54.9533 40.8242C54.9869 40.7575 54.9869 40.6908 55.0204 40.624C55.0539 40.5573 55.0539 40.524 55.0539 40.4573C55.0874 40.3906 55.0874 40.3239 55.1209 40.2572C55.1209 40.1904 55.1544 40.1571 55.1544 40.0904C55.1544 40.0237 55.1879 39.957 55.1879 39.8903L55.2214 39.7235C55.2214 39.6568 55.255 39.5901 55.255 39.5234C55.255 39.49 55.255 39.49 55.255 39.4567C55.255 39.4233 55.255 39.39 55.255 39.3566C55.2885 39.6901 55.322 39.9903 55.3555 40.3239C55.3555 40.524 55.3555 40.7575 55.3555 40.9576C55.3555 42.3584 55.3555 43.7259 55.3555 45.1268C55.3555 45.1935 55.3555 45.2602 55.3555 45.3602C55.3555 45.3936 55.3555 45.3936 55.3555 45.4269C55.3555 45.4936 55.3555 45.5603 55.3555 45.6271C55.3555 45.6938 55.3555 45.7271 55.3555 45.7938C55.3555 45.8605 55.3555 45.9272 55.322 45.9939C55.322 46.0606 55.322 46.094 55.2885 46.1607C55.2885 46.2274 55.255 46.2941 55.255 46.3608C55.255 46.4275 55.255 46.4609 55.2214 46.5276C55.2214 46.5943 55.1879 46.661 55.1879 46.7277C55.1879 46.7611 55.1879 46.7944 55.1544 46.8611V46.8945C55.1544 46.9612 55.1209 47.0279 55.1209 47.0946C55.1209 47.1613 55.0874 47.1947 55.0874 47.2614C55.0874 47.3281 55.0539 47.3948 55.0204 47.4615C55.0204 47.5282 54.9869 47.5615 54.9869 47.6283C54.9533 47.695 54.9533 47.7617 54.9198 47.8284C54.9198 47.8951 54.8863 47.9284 54.8863 47.9951C54.8528 48.0618 54.8528 48.1286 54.8193 48.1953C54.8193 48.2286 54.7858 48.2953 54.7858 48.3287C54.7523 48.4287 54.7187 48.5288 54.6517 48.6289C54.6517 48.6622 54.6517 48.6622 54.6182 48.6956C54.5847 48.829 54.5177 48.929 54.4506 49.0625C54.4171 49.0958 54.4171 49.1292 54.3836 49.1625C54.3501 49.2292 54.3166 49.3293 54.2495 49.396C54.216 49.4293 54.1825 49.496 54.1825 49.5294C54.149 49.5961 54.1155 49.6628 54.082 49.7295V49.7629C54.0485 49.7962 54.0485 49.8296 54.015 49.8629C53.9814 49.9296 53.9144 50.0297 53.8809 50.0964C53.8474 50.1298 53.8139 50.1965 53.7804 50.2298C53.7468 50.2965 53.6798 50.3632 53.6463 50.4633C53.6128 50.4966 53.5793 50.5634 53.5458 50.5967C53.5122 50.6634 53.4452 50.7301 53.3782 50.8302C53.3447 50.8635 53.3112 50.9302 53.2776 50.9636C53.2106 51.0303 53.1771 51.1304 53.1101 51.1971C53.0766 51.2304 53.0766 51.2638 53.043 51.2971L53.0095 51.3305C52.976 51.3638 52.976 51.3638 52.9425 51.3972C52.8755 51.4972 52.8085 51.564 52.7414 51.664L52.7079 51.6974C52.6409 51.7974 52.5403 51.8975 52.4733 51.9975C52.4398 52.0309 52.4398 52.0309 52.4063 52.0643C52.3393 52.131 52.2387 52.231 52.1717 52.2977L52.1382 52.3311C52.0376 52.4311 51.9371 52.5312 51.8701 52.5979C51.8365 52.6313 51.8365 52.6313 51.803 52.6646C51.736 52.7313 51.6355 52.8314 51.5349 52.8981L51.5014 52.9314C51.5014 52.9314 51.5014 52.9314 51.4679 52.9648C51.4344 52.9981 51.3674 53.0649 51.3338 53.0982C51.2668 53.1649 51.1998 53.1983 51.1663 53.265C51.0992 53.2983 51.0657 53.365 50.9987 53.3984C50.9317 53.4651 50.8646 53.4985 50.7976 53.5652C50.7306 53.5985 50.6636 53.6652 50.63 53.6986C50.563 53.7653 50.496 53.7986 50.429 53.8653C50.3619 53.8987 50.2949 53.9654 50.2614 53.9987C50.1944 54.0655 50.1273 54.0988 50.0603 54.1655C49.9933 54.1989 49.9263 54.2656 49.8592 54.2989C49.7922 54.3656 49.7252 54.399 49.6581 54.4657C49.5911 54.4991 49.5241 54.5658 49.4571 54.5991C49.39 54.6325 49.323 54.6992 49.2225 54.7325C49.1554 54.7659 49.0884 54.8326 49.0214 54.8659C48.9544 54.8993 48.8873 54.966 48.7868 54.9993C48.7198 55.0327 48.6527 55.0994 48.5522 55.1328C48.4852 55.1661 48.3846 55.2328 48.3176 55.2662C48.2841 55.2662 48.2841 55.2995 48.2506 55.2995C48.15 55.3662 48.0495 55.4329 47.9489 55.4997C47.7479 55.5997 47.5468 55.7331 47.3792 55.8332C47.3122 55.8665 47.2787 55.8999 47.2116 55.9332C47.0441 56 46.91 56.1 46.7424 56.1667C46.6754 56.2001 46.6419 56.2334 46.5749 56.2334C46.3738 56.3335 46.1727 56.4335 45.9716 56.5336C45.9381 56.5336 45.9046 56.567 45.8711 56.6003C45.7035 56.667 45.5359 56.7671 45.3684 56.8338C45.3013 56.8671 45.2343 56.9005 45.1673 56.9338C44.9997 57.0006 44.8321 57.0673 44.6646 57.134C44.6311 57.1673 44.564 57.1673 44.5305 57.2007C44.3294 57.3007 44.0948 57.3674 43.8938 57.4675C43.8267 57.5009 43.7932 57.5009 43.7262 57.5342C43.5586 57.6009 43.3911 57.6676 43.2235 57.701C43.1565 57.7343 43.0894 57.7343 43.0224 57.7677C42.8213 57.8344 42.6202 57.9011 42.4191 57.9678H42.3856C42.1846 58.0345 42.017 58.1012 41.8159 58.1346C41.7489 58.1679 41.6818 58.1679 41.6483 58.2013C41.5143 58.2346 41.3802 58.268 41.2462 58.3347C41.1791 58.368 41.0786 58.368 41.0116 58.4014C40.911 58.4348 40.777 58.4681 40.6764 58.5015C40.5759 58.5348 40.5089 58.5348 40.4083 58.5682C40.3078 58.6015 40.1737 58.6349 40.0732 58.6682C39.9726 58.7016 39.9056 58.7016 39.8051 58.7349C39.7045 58.7683 39.5705 58.8016 39.4699 58.8016C39.3694 58.835 39.2688 58.835 39.2018 58.8683C39.1013 58.9017 39.0007 58.9017 38.8667 58.9351C38.7661 58.9684 38.6991 58.9684 38.5986 59.0018C38.498 59.0351 38.3975 59.0351 38.2634 59.0685C38.1629 59.1018 38.0623 59.1018 37.9953 59.1352C37.8948 59.1685 37.7607 59.1685 37.6602 59.2019L37.5261 59.2352C37.4926 59.2352 37.4591 59.2352 37.3921 59.2686C37.191 59.3019 37.0234 59.3353 36.8223 59.3686C36.7553 59.3686 36.6883 59.402 36.6548 59.402C36.4202 59.4354 36.1856 59.4687 35.9175 59.5021C35.8504 59.5021 35.8169 59.5021 35.7499 59.5354C35.5488 59.5688 35.3477 59.6021 35.1466 59.6021C35.0796 59.6021 35.0126 59.6355 34.912 59.6355C34.711 59.6688 34.5099 59.6688 34.3088 59.7022C34.2753 59.7022 34.2418 59.7022 34.2082 59.7022H34.1747C33.9401 59.7355 33.7391 59.7355 33.5045 59.7689C33.4709 59.7689 33.4374 59.7689 33.4039 59.7689L32.8677 59.8022C32.8007 59.8022 32.7001 59.8022 32.6331 59.8022C32.499 59.8022 32.3315 59.8356 32.1974 59.8356C32.0969 59.8356 32.0298 59.8356 31.9293 59.8356C31.7952 59.8356 31.6612 59.8356 31.4936 59.8689C31.4601 59.8689 31.3931 59.8689 31.3596 59.8689C31.3261 59.8689 31.259 59.8689 31.2255 59.8689C31.0915 59.8689 30.9909 59.8689 30.8569 59.8689C30.7563 59.8689 30.6558 59.8689 30.5887 59.8689C30.4547 59.8689 30.3542 59.8689 30.2201 59.8689C30.1196 59.8689 30.019 59.8689 29.952 59.8689H29.5833C29.4828 59.8689 29.3823 59.8689 29.3152 59.8689C29.1812 59.8689 29.0806 59.8689 28.9466 59.8689C28.8795 59.8689 28.8125 59.8689 28.7455 59.8689H28.6785C28.5779 59.8689 28.4439 59.8689 28.3433 59.8689C28.2428 59.8689 28.1422 59.8689 28.0417 59.8689C27.9076 59.8689 27.8071 59.8689 27.7066 59.8689C27.606 59.8689 27.539 59.8689 27.4384 59.8689C27.3044 59.8689 27.2038 59.8689 27.0698 59.8356C26.9692 59.8356 26.9022 59.8356 26.8017 59.8022C26.6676 59.8022 26.5336 59.7689 26.433 59.7689C26.366 59.7689 26.299 59.7689 26.2319 59.7355H26.1984C26.0644 59.7355 25.9303 59.7022 25.7963 59.7022C25.7292 59.7022 25.6622 59.7022 25.5952 59.6688C25.4276 59.6688 25.26 59.6355 25.126 59.6355C25.0925 59.6355 25.0254 59.6355 24.9919 59.6021C24.5898 59.5688 24.1541 59.5021 23.7519 59.4354C23.7184 59.4354 23.6849 59.4354 23.6514 59.4354C23.4838 59.402 23.3162 59.402 23.1487 59.3686C23.0816 59.3686 22.9811 59.3353 22.9141 59.3353C22.78 59.3019 22.646 59.3019 22.5119 59.2686C22.4114 59.2686 22.3443 59.2352 22.2438 59.2352C22.1097 59.2019 22.0092 59.2019 21.8751 59.1685C21.7746 59.1685 21.7076 59.1352 21.607 59.1352C21.473 59.1018 21.3724 59.1018 21.2384 59.0685C21.2049 59.0685 21.1714 59.0685 21.1714 59.0351C21.1378 59.0351 21.0708 59.0018 21.0038 59.0018C20.8697 58.9684 20.7357 58.9351 20.6016 58.9017C20.5346 58.8683 20.434 58.8683 20.367 58.835C20.233 58.8016 20.0989 58.7683 19.9649 58.7349C19.8978 58.7016 19.7973 58.7016 19.7303 58.6682C19.5962 58.6349 19.4621 58.6015 19.3281 58.5682C19.2611 58.5348 19.194 58.5348 19.0935 58.5015C18.9259 58.4681 18.7584 58.4014 18.5908 58.368C18.5573 58.368 18.5238 58.3347 18.4902 58.3347C18.2556 58.268 18.021 58.2013 17.7864 58.1346C17.7194 58.1012 17.6524 58.1012 17.6189 58.0679C17.4178 58.0012 17.2502 57.9345 17.0491 57.9011C17.0156 57.8677 16.9486 57.8677 16.8816 57.8344C16.647 57.7677 16.4124 57.6676 16.2113 57.6009C16.1778 57.5676 16.1108 57.5676 16.0772 57.5342C15.9097 57.4675 15.7086 57.4008 15.541 57.3341C15.5075 57.3341 15.474 57.3007 15.4405 57.3007C15.407 57.3007 15.3735 57.2674 15.3399 57.2674C15.2729 57.234 15.1724 57.2007 15.1053 57.1673C15.0048 57.134 14.9043 57.1006 14.8372 57.0339C14.7702 57.0006 14.7032 56.9672 14.6026 56.9338C14.5021 56.9005 14.4015 56.8671 14.3345 56.8004C14.2675 56.7671 14.2005 56.7337 14.0999 56.7004C13.9994 56.667 13.8988 56.6003 13.8318 56.567C13.7648 56.5336 13.6978 56.5003 13.6307 56.4669C13.5302 56.4335 13.4296 56.3668 13.3626 56.3335C13.2956 56.3001 13.2286 56.2668 13.1615 56.2334C13.061 56.2001 12.9605 56.1334 12.8599 56.1C12.7929 56.0667 12.7259 56.0333 12.6588 56C12.5583 55.9332 12.4577 55.8999 12.3572 55.8332C12.2902 55.7998 12.2567 55.7665 12.1896 55.7331C12.0221 55.6331 11.888 55.5664 11.7204 55.4663C6.65984 52.5646 4.1463 48.7289 4.1463 44.9266C4.1463 43.7593 4.1463 42.5919 4.1463 41.4245C4.1463 41.2244 4.1463 41.0576 4.1463 40.8575C4.1463 40.5573 4.1463 40.2572 4.1463 39.957L4.17981 39.1565Z" fill="url(#paint18_linear_1_1761)"/>
<path d="M55.4224 40.9248C55.2549 44.5937 52.7749 48.2292 47.9824 50.9975C37.9952 56.801 21.741 56.801 11.6868 50.9975C6.09002 47.7622 3.57647 43.4263 4.21324 39.2238C4.68243 35.8884 7.16246 32.6198 11.5863 30.0516C11.6533 30.0182 11.7203 29.9849 11.7874 29.9182C21.808 24.2481 37.8947 24.2815 47.8818 30.0516C52.3727 32.6532 54.8862 35.9551 55.3554 39.3238C55.3889 39.6574 55.4224 39.9575 55.456 40.2911C55.4224 40.4912 55.4224 40.7247 55.4224 40.9248Z" fill="url(#paint19_linear_1_1761)"/>
<path d="M44.631 31.9194C52.909 36.689 52.9425 44.3936 44.7316 49.1298C36.5207 53.8993 23.1821 53.8993 14.9042 49.1298C6.62629 44.3602 6.59278 36.6556 14.8037 31.9194C23.0146 27.1499 36.3866 27.1499 44.631 31.9194Z" fill="url(#paint20_linear_1_1761)"/>
<path d="M55.4225 40.9248C55.2549 44.5937 52.7749 48.2292 47.9824 50.9975C37.9952 56.801 21.741 56.801 11.6868 50.9975C6.09002 47.7623 3.57647 43.4263 4.21324 39.2238C4.68243 35.8885 7.16246 32.6198 11.5863 30.0516C11.6533 30.0183 11.7204 29.9849 11.7874 29.9182C13.1614 30.085 14.7366 30.4185 16.3118 31.1523C15.809 31.3858 15.3063 31.6526 14.8371 31.9194C6.62624 36.6889 6.65975 44.3936 14.9377 49.1298C23.2156 53.8993 36.5541 53.8993 44.765 49.1298C47.9153 47.2953 49.8592 45.0273 50.5629 42.6592C52.2051 42.0255 53.8473 41.2584 55.4225 40.2911C55.4225 40.4912 55.4225 40.7247 55.4225 40.9248Z" fill="url(#paint21_linear_1_1761)"/>
<path opacity="0.2" d="M50.4624 42.6928C49.6916 44.9608 47.7813 47.1287 44.7316 48.8631C36.5207 53.6327 23.1821 53.6327 14.9042 48.8631C6.62629 44.0936 6.59277 36.389 14.8037 31.6528C15.2058 31.4193 15.608 31.2192 16.0102 30.9857C18.2891 31.9196 20.6016 33.5873 22.3778 36.389C26.8016 43.3932 39.1683 46.8953 50.4624 42.6928Z" fill="url(#paint22_linear_1_1761)"/>
<path opacity="0.8" d="M55.456 40.9252C55.2884 44.594 52.8084 48.2295 48.0159 50.9979C42.9553 53.933 36.3196 55.3672 29.6503 55.3338C36.152 55.3005 42.6202 53.8663 47.5467 50.9979C52.3727 48.1962 54.8528 44.594 54.9868 40.9252C54.9868 40.6917 54.9868 40.4916 54.9868 40.2914C54.9868 39.9579 54.9533 39.6577 54.8863 39.3242C54.3836 35.9555 51.9035 32.6202 47.4127 30.052C42.4526 27.1836 35.9509 25.7494 29.4492 25.716C36.085 25.6827 42.7542 27.1169 47.8484 30.052C52.3392 32.6535 54.8528 35.9555 55.322 39.3242C55.3555 39.6244 55.389 39.9579 55.4225 40.2914C55.456 40.4916 55.456 40.725 55.456 40.9252Z" fill="url(#paint23_linear_1_1761)"/>
<path d="M29.6503 35.7553V34.8881C29.6503 34.6546 29.4492 34.4545 29.0806 34.221L27.673 33.4205V34.2877L29.0806 35.0882C29.4827 35.3217 29.6503 35.5552 29.6503 35.7553Z" fill="url(#paint24_linear_1_1761)"/>
<path d="M38.7996 33.7876L35.6828 35.5887V36.4559L38.7996 34.6548V33.7876Z" fill="url(#paint25_linear_1_1761)"/>
<path d="M39.1348 37.623V38.4902L42.2851 36.6558L42.3186 35.7886L39.1348 37.623Z" fill="url(#paint26_linear_1_1761)"/>
<path d="M25.9638 37.6228C25.9303 37.5894 25.8632 37.5561 25.7627 37.4894V38.3566C25.8632 38.3899 25.8968 38.4566 25.9638 38.49V37.6228Z" fill="#643939"/>
<path d="M29.5833 40.0242L33.4373 37.7896C33.5044 37.8229 33.6719 37.923 33.9401 38.0897C34.2082 38.2565 34.4428 38.3899 34.6439 38.49C34.6774 38.49 34.6774 38.5233 34.7109 38.5233C34.8784 38.6234 35.0795 38.7568 35.3476 38.9236C35.6158 39.1237 35.8504 39.2905 36.0179 39.4239C36.1855 39.5573 36.3531 39.7574 36.5206 39.9575C36.6882 40.1576 36.7552 40.3578 36.7887 40.5245C36.7887 40.5579 36.7887 40.5579 36.7887 40.5912C36.7887 40.2911 36.7887 40.0242 36.7887 39.7241C36.7887 39.6907 36.7887 39.6907 36.7887 39.6573C36.7887 39.4906 36.6882 39.2905 36.5206 39.0903C36.3531 38.8902 36.1855 38.7234 36.0179 38.5567C35.8504 38.4233 35.6158 38.2565 35.3476 38.0564C35.113 37.8896 34.8784 37.7562 34.7109 37.6561C34.6774 37.6561 34.6439 37.6228 34.6439 37.6228C34.4428 37.5227 34.2417 37.3893 33.9401 37.2225C33.6719 37.0558 33.5044 36.9557 33.4373 36.9224L29.5833 39.157V40.0242Z" fill="url(#paint27_linear_1_1761)"/>
<path d="M18.4231 43.3934C18.7248 43.5602 18.9594 43.6936 19.0934 43.7936V42.9264C18.9258 42.8264 18.7248 42.693 18.4231 42.5262C18.1215 42.3594 17.8869 42.226 17.7194 42.126L15.2058 40.6918V41.559L17.7529 43.0265C17.8869 43.0932 18.1215 43.2266 18.4231 43.3934Z" fill="url(#paint28_linear_1_1761)"/>
<path d="M41.6482 40.7918C41.6482 40.8252 41.6482 40.8585 41.6482 40.8919V40.9252C41.6482 40.9586 41.6147 40.992 41.6147 41.0587C41.6147 41.0587 41.6147 41.0587 41.6147 41.092C41.6147 41.1254 41.5812 41.1587 41.5812 41.1921C41.5812 41.2254 41.5477 41.2921 41.5142 41.3255C41.5142 41.3255 41.5142 41.3588 41.4807 41.3588C41.4807 41.3922 41.4471 41.4255 41.4471 41.4589C41.4471 41.4923 41.4136 41.4923 41.4136 41.5256C41.3801 41.559 41.3801 41.5923 41.3466 41.5923C41.3466 41.6257 41.3131 41.6257 41.3131 41.659C41.3131 41.6924 41.2796 41.6924 41.2796 41.7257C41.2461 41.7591 41.2125 41.7924 41.2125 41.8258C41.179 41.8591 41.179 41.8591 41.1455 41.8925C41.112 41.9258 41.0785 41.9592 41.045 41.9926C41.0115 42.0259 40.9779 42.0593 40.9444 42.0926C40.9444 42.0926 40.9444 42.0926 40.9109 42.126C40.8774 42.1593 40.8104 42.1927 40.7769 42.226L40.7433 42.2594C40.6763 42.2927 40.6428 42.3261 40.5758 42.3928C40.5088 42.4595 40.4082 42.4929 40.3412 42.5596C40.3077 42.5596 40.3077 42.5929 40.2742 42.5929C40.2406 42.6263 40.1736 42.6596 40.1401 42.693C40.0731 42.7263 40.0396 42.7597 39.9725 42.793C39.939 42.8264 39.872 42.8264 39.8385 42.8597C39.7714 42.8931 39.7379 42.9264 39.6709 42.9264C39.6374 42.9598 39.5704 42.9598 39.5368 42.9932C39.4698 43.0265 39.4363 43.0265 39.3693 43.0599C39.3358 43.0932 39.2687 43.0932 39.2352 43.1266C39.1682 43.1599 39.1347 43.1599 39.0677 43.1933C39.0341 43.1933 38.9671 43.2266 38.9336 43.2266C38.8331 43.26 38.766 43.2933 38.6655 43.2933C38.632 43.2933 38.632 43.2933 38.5985 43.3267C38.4979 43.36 38.3639 43.3934 38.2633 43.3934C38.1628 43.3934 38.0957 43.4267 37.9952 43.4267C37.9952 43.4267 37.9617 43.4267 37.9282 43.4267C37.8612 43.4267 37.7606 43.4601 37.6936 43.4601C37.6601 43.4601 37.6601 43.4601 37.6266 43.4601C37.526 43.4601 37.4255 43.4601 37.3584 43.4935C37.2579 43.4935 37.1574 43.4935 37.0568 43.4935C37.0233 43.4935 37.0233 43.4935 36.9898 43.4935C36.9563 43.4935 36.8892 43.4935 36.8557 43.4935C36.7552 43.4935 36.6882 43.4935 36.5876 43.4935C36.5206 43.4935 36.4536 43.4935 36.3865 43.4935C36.353 43.4935 36.353 43.4935 36.3195 43.4935C36.219 43.4935 36.1184 43.4601 36.0179 43.4601C35.8838 43.4268 35.7833 43.4268 35.6492 43.3934V44.2606C35.7833 44.2939 35.8838 44.2939 36.0179 44.3273C36.0179 44.3273 36.0179 44.3273 36.0514 44.3273C36.1519 44.3273 36.2525 44.3606 36.3195 44.3606C36.353 44.3606 36.353 44.3606 36.3865 44.3606C36.4201 44.3606 36.4536 44.3606 36.5206 44.3606C36.5541 44.3606 36.5541 44.3606 36.5876 44.3606C36.6882 44.3606 36.7552 44.3606 36.8557 44.3606C36.8892 44.3606 36.9228 44.3606 36.9563 44.3606H36.9898C37.1238 44.3606 37.2244 44.3606 37.3584 44.3606C37.3584 44.3606 37.3584 44.3606 37.392 44.3606C37.4925 44.3606 37.593 44.3606 37.6601 44.3273C37.6936 44.3273 37.6936 44.3273 37.7271 44.3273C37.7606 44.3273 37.7606 44.3273 37.7941 44.3273C37.8611 44.3273 37.9282 44.3273 37.9617 44.2939H37.9952C38.0957 44.2939 38.1628 44.2606 38.2633 44.2606C38.2633 44.2606 38.2633 44.2606 38.2968 44.2606C38.3974 44.2272 38.5314 44.2272 38.632 44.1939C38.6655 44.1939 38.6655 44.1939 38.699 44.1605C38.7995 44.1272 38.9001 44.1272 38.9671 44.0938H39.0006C39.0341 44.0938 39.0677 44.0605 39.1012 44.0605C39.1682 44.0271 39.2017 44.0271 39.2687 43.9938C39.3023 43.9938 39.3693 43.9604 39.4028 43.9271C39.4698 43.8937 39.5033 43.8937 39.5704 43.8603C39.6039 43.827 39.6709 43.827 39.7044 43.7936C39.7714 43.7603 39.805 43.7269 39.872 43.7269C39.9055 43.6936 39.939 43.6936 40.006 43.6602C40.0731 43.6269 40.1066 43.5935 40.1736 43.5602C40.2071 43.5602 40.2071 43.5268 40.2406 43.5268C40.2742 43.5268 40.2742 43.4935 40.3077 43.4935C40.3412 43.4935 40.3412 43.4601 40.3747 43.4601C40.4417 43.4268 40.5423 43.36 40.6093 43.2933C40.6763 43.26 40.7098 43.2266 40.7769 43.1599L40.8104 43.1266C40.8774 43.0932 40.9109 43.0599 40.9444 42.9932C40.9444 42.9932 40.9444 42.9932 40.9779 42.9598C41.0115 42.9265 41.0115 42.9265 41.045 42.8931L41.0785 42.8597C41.112 42.8264 41.1455 42.793 41.179 42.7597C41.2125 42.7263 41.2125 42.7263 41.2461 42.693C41.2796 42.6596 41.3131 42.6263 41.3131 42.5929L41.3466 42.5596C41.3466 42.5596 41.3466 42.5596 41.3466 42.5262C41.3466 42.4929 41.3801 42.4929 41.3801 42.4595C41.4136 42.4261 41.4136 42.3928 41.4471 42.3594C41.4471 42.3261 41.4807 42.3261 41.4807 42.2927L41.5142 42.2594C41.5142 42.2594 41.5142 42.226 41.5477 42.226C41.5477 42.226 41.5477 42.1927 41.5812 42.1927C41.6147 42.1593 41.6147 42.0926 41.6482 42.0593C41.6482 42.0259 41.6817 41.9926 41.6817 41.9592C41.6817 41.9592 41.6817 41.9592 41.6817 41.9258C41.6817 41.8925 41.7153 41.8591 41.7153 41.8258V41.7924C41.7153 41.7591 41.7153 41.7257 41.7153 41.6924V41.659C41.7153 41.6257 41.7153 41.6257 41.7153 41.5923V41.559C41.7153 41.2588 41.7153 40.992 41.7153 40.6918C41.7153 40.7251 41.7153 40.7585 41.7153 40.7918C41.6482 40.7585 41.6482 40.7585 41.6482 40.7918Z" fill="url(#paint29_linear_1_1761)"/>
<path d="M28.2762 41.4922C28.6113 41.6923 28.8794 41.8258 29.114 41.9592C29.3151 42.0926 29.6167 42.2594 29.9519 42.4928C30.287 42.7263 30.5887 42.9264 30.7897 43.0932C30.9908 43.26 31.1919 43.4601 31.393 43.6935C31.5941 43.927 31.6946 44.1271 31.7281 44.3273C31.7281 44.3606 31.7281 44.4273 31.7281 44.4607V43.5935C31.7281 43.5601 31.7281 43.4934 31.7281 43.4601C31.6946 43.26 31.5941 43.0598 31.393 42.8264C31.1919 42.5929 30.9908 42.3928 30.7897 42.226C30.5887 42.0592 30.3205 41.8591 29.9519 41.6256C29.6167 41.3922 29.3151 41.2254 29.114 41.092C28.913 40.9586 28.6113 40.8252 28.2762 40.625C27.9411 40.4249 27.74 40.3249 27.6729 40.2915L23.4167 42.7597V43.6268L27.6729 41.1587C27.74 41.192 27.9411 41.2921 28.2762 41.4922Z" fill="url(#paint30_linear_1_1761)"/>
<path d="M22.5453 45.8281V44.961C21.875 44.5607 21.3723 44.2605 21.0037 44.0604L17.8198 45.8949L15.876 44.7608V45.628L17.8198 46.762L21.0037 44.9276C21.3723 45.1611 21.875 45.4613 22.5453 45.8281Z" fill="url(#paint31_linear_1_1761)"/>
<path d="M36.6212 45.0605C36.6212 45.0939 36.6212 45.1606 36.5877 45.1939C36.5877 45.2273 36.5542 45.2606 36.5542 45.294V45.3274C36.5542 45.3607 36.5207 45.3941 36.5207 45.3941C36.5207 45.3941 36.5207 45.4274 36.4872 45.4274C36.4872 45.4608 36.4537 45.4941 36.4537 45.4941C36.4537 45.4941 36.4537 45.5275 36.4201 45.5275C36.4201 45.5608 36.3866 45.5608 36.3866 45.5942C36.3866 45.6275 36.3531 45.6275 36.3531 45.6609C36.3531 45.6942 36.3196 45.6942 36.3196 45.7276C36.3196 45.761 36.2861 45.7609 36.2861 45.7943C36.2861 45.7943 36.2861 45.8277 36.2526 45.8277C36.2191 45.861 36.1855 45.8944 36.152 45.9277L36.1185 45.9611C36.085 45.9944 36.0515 46.0278 36.018 46.0611L35.9845 46.0945C35.9509 46.1278 35.9174 46.1612 35.8839 46.1945L35.8504 46.2279C35.7834 46.2613 35.7499 46.328 35.6828 46.3613L35.6493 46.3947C35.6158 46.428 35.5488 46.4614 35.5153 46.4947C35.4818 46.4947 35.4817 46.5281 35.4482 46.5281C35.4147 46.5614 35.3477 46.5948 35.3142 46.6281C35.2807 46.6615 35.2472 46.6615 35.2136 46.6948C35.1801 46.6948 35.1466 46.7282 35.1131 46.7282C35.0796 46.7616 35.0461 46.7616 35.0126 46.7949C34.979 46.7949 34.9455 46.8283 34.9455 46.8283C34.912 46.8616 34.845 46.8616 34.8115 46.895C34.778 46.895 34.778 46.9283 34.7444 46.9283C34.6774 46.9617 34.6104 46.995 34.5098 47.0284C34.4093 47.0617 34.3423 47.0951 34.2417 47.1618C34.2082 47.1618 34.1747 47.1951 34.1412 47.1951C34.0742 47.2285 34.0071 47.2618 33.9736 47.2618C33.9401 47.2618 33.9066 47.2952 33.8731 47.2952C33.8061 47.3286 33.7725 47.3286 33.7055 47.3619C33.672 47.3619 33.6385 47.3953 33.605 47.3953C33.5379 47.4286 33.5044 47.4286 33.4374 47.462C33.4039 47.462 33.3704 47.4953 33.3369 47.4953C33.2028 47.5287 33.1023 47.562 32.9682 47.5954C32.9347 47.5954 32.9347 47.5954 32.9012 47.5954C32.7671 47.6287 32.6331 47.6621 32.5325 47.6954C32.4655 47.7288 32.365 47.7288 32.2979 47.7288C32.1974 47.7622 32.0968 47.7621 31.9963 47.7621C31.9628 47.7621 31.9293 47.7621 31.8958 47.7621C31.8287 47.7621 31.7617 47.7955 31.6612 47.7955C31.6277 47.7955 31.5941 47.7955 31.5606 47.7955C31.5271 47.7955 31.4936 47.7955 31.4266 47.7955C31.3931 47.7955 31.3595 47.7955 31.2925 47.7955C31.259 47.7955 31.192 47.7955 31.1585 47.7955C31.1249 47.7955 31.0914 47.7955 31.0579 47.7955C31.0244 47.7955 31.0244 47.7955 30.9909 47.7955C30.9239 47.7955 30.8903 47.7955 30.8233 47.7955C30.7898 47.7955 30.7563 47.7955 30.7563 47.7955C30.6893 47.7955 30.6557 47.7955 30.5887 47.7955C30.4547 47.7955 30.3206 47.7955 30.1866 47.7621C30.153 47.7621 30.153 47.7621 30.1195 47.7621C30.086 47.7621 30.019 47.7621 29.952 47.7621C29.9184 47.7621 29.8849 47.7621 29.8514 47.7621C29.7844 47.7621 29.7174 47.7622 29.6503 47.7288C29.6168 47.7288 29.6168 47.7288 29.5833 47.7288C29.4828 47.7288 29.3822 47.6954 29.2817 47.6954C29.2482 47.6954 29.2147 47.6954 29.2147 47.6954C29.1476 47.6954 29.0806 47.6621 29.0136 47.6621C28.9801 47.6621 28.9465 47.6621 28.913 47.6287C28.8125 47.5954 28.6784 47.5954 28.5779 47.562C28.4103 47.5287 28.2427 47.462 28.0417 47.4286C27.9076 47.3953 27.74 47.3286 27.606 47.2952C27.5725 47.2952 27.539 47.2618 27.5054 47.2618C27.3714 47.2285 27.2373 47.1618 27.1033 47.1284H27.0698C26.9022 47.0617 26.7681 46.995 26.6006 46.9617C25.9638 46.6948 25.2935 46.3947 24.5562 45.9944L21.3389 47.8622L19.3951 46.7282V47.5954L21.3389 48.7294L24.5562 46.8616C25.2935 47.2285 25.9638 47.562 26.6006 47.8289C26.6341 47.8622 26.7011 47.8622 26.7346 47.8956C26.8352 47.9289 26.9357 47.9623 27.0698 48.029H27.1033C27.2373 48.0623 27.3714 48.129 27.5054 48.1624C27.539 48.1624 27.5725 48.1957 27.606 48.1957C27.74 48.2291 27.8741 48.2958 28.0417 48.3292C28.2092 48.3625 28.3768 48.4292 28.5779 48.4626C28.6784 48.4959 28.8125 48.5293 28.913 48.5293H28.9465H28.9801C29.0471 48.5293 29.1141 48.5626 29.1811 48.5626C29.2147 48.5626 29.2482 48.5626 29.2817 48.5626C29.3822 48.5626 29.4828 48.596 29.5833 48.596H29.6168C29.6838 48.596 29.7509 48.6293 29.8179 48.6293C29.8514 48.6293 29.8849 48.6293 29.9184 48.6293C29.952 48.6293 30.019 48.6293 30.0525 48.6293H30.086H30.1195C30.2536 48.6293 30.3876 48.6627 30.5217 48.6627C30.5552 48.6627 30.5552 48.6627 30.5552 48.6627C30.5887 48.6627 30.6222 48.6627 30.6558 48.6627C30.6893 48.6627 30.7228 48.6627 30.7563 48.6627C30.7898 48.6627 30.8568 48.6627 30.8903 48.6627C30.9239 48.6627 30.9574 48.6627 30.9909 48.6627C31.0244 48.6627 31.0579 48.6627 31.0579 48.6627C31.1249 48.6627 31.1585 48.6627 31.2255 48.6627C31.259 48.6627 31.2925 48.6627 31.326 48.6627C31.3595 48.6627 31.4266 48.6627 31.4936 48.6627H31.5271C31.5606 48.6627 31.5606 48.6627 31.5941 48.6627C31.6612 48.6627 31.7617 48.6293 31.8287 48.6293C31.8623 48.6293 31.8958 48.6293 31.8958 48.6293C32.0633 48.596 32.2644 48.5626 32.4655 48.5293C32.5996 48.4959 32.7336 48.4626 32.8342 48.4292C32.8677 48.4292 32.8677 48.4292 32.9012 48.3959C33.0352 48.3625 33.1358 48.3292 33.2698 48.2958H33.3033C33.3369 48.2958 33.3369 48.2958 33.3704 48.2625C33.4374 48.2291 33.4709 48.2291 33.5379 48.1957C33.5715 48.1957 33.605 48.1624 33.6385 48.1624C33.7055 48.129 33.739 48.129 33.8061 48.0957C33.8396 48.0957 33.8731 48.0623 33.9066 48.0623C33.9736 48.029 34.0407 48.029 34.0742 47.9956C34.1077 47.9956 34.1412 47.9623 34.1747 47.9623C34.2753 47.9289 34.3423 47.8956 34.4428 47.8289C34.5098 47.7955 34.5769 47.7622 34.6774 47.7288C34.7109 47.7288 34.7109 47.6954 34.7444 47.6954C34.8115 47.6621 34.845 47.6287 34.8785 47.6287C34.912 47.6287 34.912 47.5954 34.9455 47.5954C34.979 47.562 35.0461 47.562 35.0796 47.5287C35.1131 47.5287 35.1131 47.4953 35.1466 47.4953C35.1801 47.4953 35.1801 47.462 35.2136 47.462L35.2472 47.4286C35.2807 47.3953 35.3477 47.3619 35.3812 47.3619C35.4147 47.3619 35.4147 47.3286 35.4482 47.3286C35.4817 47.2952 35.5488 47.2619 35.5823 47.2285L35.6158 47.1951C35.6828 47.1618 35.7163 47.0951 35.7834 47.0617L35.8169 47.0284C35.8504 46.995 35.8839 46.9617 35.9174 46.9283C35.9174 46.9283 35.9174 46.9283 35.9509 46.895L35.9845 46.8616C36.018 46.8283 36.0515 46.7949 36.085 46.7615C36.085 46.7282 36.1185 46.7282 36.1185 46.7282C36.152 46.6948 36.1855 46.6615 36.2191 46.6281C36.2191 46.6281 36.2191 46.5948 36.2526 46.5948C36.2526 46.5614 36.2861 46.5614 36.2861 46.5281C36.3196 46.4947 36.3196 46.4947 36.3196 46.4614C36.3196 46.428 36.3531 46.428 36.3531 46.3947C36.3531 46.3613 36.3866 46.3613 36.3866 46.328C36.3866 46.328 36.3866 46.2946 36.4201 46.2946C36.4201 46.2612 36.4537 46.2279 36.4537 46.2279C36.4537 46.2279 36.4537 46.1945 36.4872 46.1945C36.4872 46.1945 36.4872 46.1612 36.5207 46.1612V46.1278V46.0945C36.5207 46.0611 36.5542 46.0278 36.5542 45.9944C36.5542 45.9944 36.5542 45.9944 36.5542 45.9611C36.5542 45.9277 36.5542 45.861 36.5877 45.8277C36.5877 45.8277 36.5877 45.8277 36.5877 45.7943C36.5877 45.7609 36.5877 45.7276 36.5877 45.6942V45.6609C36.5877 45.3607 36.5877 45.0939 36.5877 44.7937C36.6212 44.9271 36.6212 44.9938 36.6212 45.0605C36.6212 45.0605 36.6212 45.0272 36.6212 45.0605Z" fill="url(#paint32_linear_1_1761)"/>
<path opacity="0.9" d="M36.5877 45.1941C36.4536 45.8278 35.7498 46.4616 34.4763 47.0953C33.806 47.3955 33.1693 47.6289 32.499 47.7623C31.8287 47.8958 31.1919 47.9625 30.5552 47.9291C29.9184 47.8958 29.2816 47.829 28.5778 47.6623C27.9076 47.4955 27.2373 47.2954 26.6005 47.0286C25.9638 46.7617 25.2935 46.4616 24.5562 46.0613L21.3389 47.9291L19.395 46.7951L22.5453 44.9607C21.8751 44.5604 21.3724 44.2602 21.0037 44.0601L17.8199 45.8946L15.8761 44.7605L19.0934 42.8927C18.9259 42.7927 18.7248 42.6593 18.4231 42.4925C18.1215 42.3257 17.8869 42.1923 17.7194 42.0923L15.2058 40.6914L17.8869 39.5908L19.2945 40.3912C19.7302 40.6247 20.1659 40.6581 20.6686 40.458L25.7292 37.5229L25.9303 37.6563C25.8967 37.6229 25.8297 37.5896 25.7292 37.5229L29.3487 35.4216C29.8179 35.0214 29.7173 34.6545 29.0806 34.2876L27.673 33.4871L29.7508 32.2864L32.4319 33.854C32.9682 34.1542 33.4038 34.3876 33.672 34.5544L36.8558 32.72L38.7996 33.854L35.6828 35.6551C36.3866 36.0553 36.9228 36.3221 37.2579 36.5223L40.3412 34.7212L42.285 35.8552L39.1012 37.6896C39.7045 38.1232 40.2072 38.4901 40.6093 38.8903C40.978 39.2572 41.2796 39.6575 41.4807 40.0577C41.6818 40.458 41.6818 40.8582 41.5477 41.2251C41.4137 41.6253 41.0785 41.9922 40.5758 42.3257C39.2017 43.293 37.5596 43.5932 35.6493 43.2596C36.4201 43.8933 36.7217 44.5604 36.5877 45.1941ZM30.22 44.9607C30.4881 44.8939 30.7563 44.7939 30.9908 44.6605C31.2925 44.4937 31.4936 44.2936 31.5941 44.0935C31.6946 43.8933 31.7282 43.6932 31.6946 43.4931C31.6611 43.293 31.5606 43.0929 31.3595 42.8594C31.1584 42.6259 30.9573 42.4258 30.7562 42.259C30.5552 42.0923 30.2871 41.8921 29.9184 41.6587C29.5833 41.4252 29.2816 41.2584 29.0806 41.125C28.8795 40.9916 28.5778 40.8582 28.2427 40.6581C27.9076 40.458 27.7065 40.3579 27.6395 40.3245L23.3832 42.7927C23.4502 42.826 23.6178 42.9261 23.8524 43.0595C24.087 43.1929 24.2881 43.3263 24.4556 43.4264C24.6232 43.5265 24.8578 43.6599 25.1594 43.7933C25.4611 43.9601 25.7292 44.0935 25.9638 44.1935C26.1984 44.2936 26.4665 44.427 26.8016 44.5604C27.1368 44.6938 27.4049 44.7939 27.673 44.8606C27.9411 44.9273 28.2092 44.994 28.5443 45.0607C28.846 45.1274 29.1476 45.1274 29.4157 45.1274C29.6838 45.0607 29.9519 45.0274 30.22 44.9607ZM33.9736 37.2227C33.7055 37.0559 33.5379 36.9558 33.4709 36.9225L29.6168 39.1572C29.6503 39.1905 29.8179 39.2572 30.0525 39.424C30.1865 39.4907 30.2871 39.5574 30.3876 39.6241C30.4881 39.6908 30.5552 39.7242 30.6557 39.7575C30.7898 39.8242 31.0244 39.9577 31.326 40.1244C31.6276 40.2912 31.8622 40.3912 32.0968 40.4913C32.3314 40.5914 32.566 40.6914 32.9011 40.7915C33.2028 40.8915 33.5044 40.9583 33.739 41.025C34.0071 41.0583 34.2752 41.0917 34.5433 41.0917C34.8114 41.0917 35.1131 41.0917 35.3812 40.9916C35.6493 40.9249 35.9174 40.8248 36.152 40.6914C36.4201 40.5247 36.6212 40.3579 36.7217 40.1578C36.8223 39.9577 36.8893 39.7909 36.8558 39.6241C36.8558 39.4574 36.7552 39.2572 36.5877 39.0571C36.4201 38.857 36.2525 38.6902 36.085 38.5235C35.9174 38.39 35.6828 38.2233 35.4147 38.0232C35.1801 37.8564 34.9455 37.723 34.7779 37.6229C34.7444 37.6229 34.7109 37.5896 34.7109 37.5896C34.4763 37.4895 34.2417 37.3561 33.9736 37.2227Z" fill="url(#paint33_linear_1_1761)"/>
<path opacity="0.8" d="M50.8311 41.358C50.5294 38.4896 48.4516 35.688 44.631 33.4866C36.3531 28.7505 23.0145 28.7171 14.8036 33.4866C11.0501 35.6546 9.03926 38.4229 8.70412 41.2913C8.33547 37.9226 10.3463 34.5206 14.8036 31.9524C23.0145 27.1829 36.3531 27.1829 44.631 31.9524C49.1219 34.4872 51.1997 37.956 50.8311 41.358Z" fill="url(#paint34_linear_1_1761)"/>
<path opacity="0.8" d="M29.5833 52.8654C24.2546 52.8321 18.9594 51.6313 14.9042 49.2966C6.62629 44.5271 6.59277 36.8224 14.8037 32.0863C18.8589 29.7515 24.1205 28.5508 29.4492 28.5175C24.2211 28.5842 19.0264 29.7849 15.0718 32.0863C6.86088 36.8558 6.8944 44.5604 15.1723 49.2966C19.1605 51.598 24.3551 52.7653 29.5833 52.8654Z" fill="url(#paint35_linear_1_1761)"/>
</g>
<defs>
<linearGradient id="paint0_linear_1_1761" x1="109.67" y1="96.5763" x2="19.0247" y2="97.0328" gradientUnits="userSpaceOnUse">
<stop offset="0.00537634" stop-color="#00C6FB"/>
<stop offset="1" stop-color="#3B5FF9"/>
</linearGradient>
<linearGradient id="paint1_linear_1_1761" x1="0.00341481" y1="87.3261" x2="77.5649" y2="90.6709" gradientUnits="userSpaceOnUse">
<stop offset="0.00537634" stop-color="#2782FA"/>
<stop offset="1" stop-color="#1F34F4"/>
</linearGradient>
<linearGradient id="paint2_linear_1_1761" x1="74.4496" y1="66.5258" x2="48.9769" y2="80.8548" gradientUnits="userSpaceOnUse">
<stop stop-color="#001563" stop-opacity="0"/>
<stop offset="1" stop-color="#1C22A3"/>
</linearGradient>
<linearGradient id="paint3_linear_1_1761" x1="98.0868" y1="106.673" x2="-13.9429" y2="72.1398" gradientUnits="userSpaceOnUse">
<stop stop-color="#0396FF"/>
<stop offset="0.1666" stop-color="#36AEFF"/>
<stop offset="0.3853" stop-color="#73CAFF"/>
<stop offset="0.5859" stop-color="#A3E0FF"/>
<stop offset="0.7616" stop-color="#C6F1FF"/>
<stop offset="0.9057" stop-color="#DBFAFF"/>
<stop offset="1" stop-color="#E3FEFF"/>
</linearGradient>
<linearGradient id="paint4_linear_1_1761" x1="30.0029" y1="109.464" x2="30.0029" y2="79.8042" gradientUnits="userSpaceOnUse">
<stop offset="0.00537634" stop-color="#00C6FB"/>
<stop offset="1" stop-color="#005BEA"/>
</linearGradient>
<linearGradient id="paint5_linear_1_1761" x1="46.3326" y1="86.975" x2="40.2499" y2="85.4286" gradientUnits="userSpaceOnUse">
<stop stop-color="#001563" stop-opacity="0"/>
<stop offset="1" stop-color="#1C22A3"/>
</linearGradient>
<linearGradient id="paint6_linear_1_1761" x1="30.2208" y1="82.7958" x2="30.2208" y2="107.778" gradientUnits="userSpaceOnUse">
<stop stop-color="#B3FFAB" stop-opacity="0"/>
<stop offset="1" stop-color="#12FFF7"/>
</linearGradient>
<linearGradient id="paint7_linear_1_1761" x1="32.5368" y1="67.1427" x2="32.5368" y2="63.8162" gradientUnits="userSpaceOnUse">
<stop stop-color="#4C83FF"/>
<stop offset="0.4104" stop-color="#2AFADF"/>
<stop offset="1" stop-color="white" stop-opacity="0"/>
</linearGradient>
<linearGradient id="paint8_linear_1_1761" x1="31.6974" y1="72.1393" x2="31.6974" y2="67.77" gradientUnits="userSpaceOnUse">
<stop stop-color="#4C83FF"/>
<stop offset="0.4104" stop-color="#2AFADF"/>
<stop offset="1" stop-color="white" stop-opacity="0"/>
</linearGradient>
<linearGradient id="paint9_linear_1_1761" x1="44.7521" y1="76.903" x2="44.7521" y2="71.9615" gradientUnits="userSpaceOnUse">
<stop stop-color="#4C83FF"/>
<stop offset="0.4104" stop-color="#2AFADF"/>
<stop offset="1" stop-color="white" stop-opacity="0"/>
</linearGradient>
<linearGradient id="paint10_linear_1_1761" x1="11.3948" y1="73.9651" x2="11.3948" y2="68.8659" gradientUnits="userSpaceOnUse">
<stop stop-color="#4C83FF"/>
<stop offset="0.4104" stop-color="#2AFADF"/>
<stop offset="1" stop-color="white" stop-opacity="0"/>
</linearGradient>
<linearGradient id="paint11_linear_1_1761" x1="21.2367" y1="85.0794" x2="21.2367" y2="78.815" gradientUnits="userSpaceOnUse">
<stop stop-color="#4C83FF"/>
<stop offset="0.4104" stop-color="#2AFADF"/>
<stop offset="1" stop-color="white" stop-opacity="0"/>
</linearGradient>
<linearGradient id="paint12_linear_1_1761" x1="27.9527" y1="89.6287" x2="27.9527" y2="85.6073" gradientUnits="userSpaceOnUse">
<stop stop-color="#4C83FF"/>
<stop offset="0.4104" stop-color="#2AFADF"/>
<stop offset="1" stop-color="white" stop-opacity="0"/>
</linearGradient>
<linearGradient id="paint13_linear_1_1761" x1="29.1757" y1="84.8035" x2="30.102" y2="56.2626" gradientUnits="userSpaceOnUse">
<stop stop-color="#6AF6C3"/>
<stop offset="1" stop-color="white" stop-opacity="0"/>
</linearGradient>
<linearGradient id="paint14_linear_1_1761" x1="30.3113" y1="60.516" x2="30.3113" y2="81.7654" gradientUnits="userSpaceOnUse">
<stop stop-color="#2AFADF"/>
<stop offset="1" stop-color="white" stop-opacity="0"/>
</linearGradient>
<linearGradient id="paint15_linear_1_1761" x1="8.00707" y1="41.3255" x2="8.00707" y2="74.4697" gradientUnits="userSpaceOnUse">
<stop stop-color="#2AFADF"/>
<stop offset="1" stop-color="white" stop-opacity="0"/>
</linearGradient>
<linearGradient id="paint16_linear_1_1761" x1="27.392" y1="99.0537" x2="27.392" y2="38.2168" gradientUnits="userSpaceOnUse">
<stop stop-color="#4C83FF"/>
<stop offset="0.0001" stop-color="#6BF9C3"/>
<stop offset="0.4104" stop-color="#2AFADF"/>
<stop offset="1" stop-color="white" stop-opacity="0"/>
</linearGradient>
<linearGradient id="paint17_linear_1_1761" x1="28.684" y1="54.5106" x2="28.684" y2="111.161" gradientUnits="userSpaceOnUse">
<stop stop-color="#B3FFAB" stop-opacity="0"/>
<stop offset="1" stop-color="#12FFF7"/>
</linearGradient>
<linearGradient id="paint18_linear_1_1761" x1="75.7635" y1="42.2307" x2="15.5969" y2="49.9311" gradientUnits="userSpaceOnUse">
<stop offset="0.00537634" stop-color="#00C6FB"/>
<stop offset="1" stop-color="#005BEA"/>
</linearGradient>
<linearGradient id="paint19_linear_1_1761" x1="-17.6738" y1="19.3376" x2="55.3373" y2="52.2718" gradientUnits="userSpaceOnUse">
<stop offset="0.00537634" stop-color="#00C6FB"/>
<stop offset="1" stop-color="#224EF6"/>
</linearGradient>
<linearGradient id="paint20_linear_1_1761" x1="93.2005" y1="62.1702" x2="-2.43537" y2="29.2173" gradientUnits="userSpaceOnUse">
<stop offset="0.00537634" stop-color="#00C6FB"/>
<stop offset="1" stop-color="#005BEA"/>
</linearGradient>
<linearGradient id="paint21_linear_1_1761" x1="-18.9881" y1="22.2511" x2="54.0231" y2="55.1854" gradientUnits="userSpaceOnUse">
<stop offset="0.00537634" stop-color="#00C6FB"/>
<stop offset="1" stop-color="#005BEA"/>
</linearGradient>
<linearGradient id="paint22_linear_1_1761" x1="35.5127" y1="41.7418" x2="77.2873" y2="41.7418" gradientUnits="userSpaceOnUse">
<stop stop-color="#733ADC"/>
<stop offset="1" stop-color="#382251"/>
</linearGradient>
<linearGradient id="paint23_linear_1_1761" x1="29.4607" y1="40.5263" x2="55.4478" y2="40.5263" gradientUnits="userSpaceOnUse">
<stop stop-color="#B3FFAB" stop-opacity="0"/>
<stop offset="1" stop-color="#12FFF7"/>
</linearGradient>
<linearGradient id="paint24_linear_1_1761" x1="27.6948" y1="34.605" x2="29.6651" y2="34.605" gradientUnits="userSpaceOnUse">
<stop stop-color="#733ADC"/>
<stop offset="1" stop-color="#382251"/>
</linearGradient>
<linearGradient id="paint25_linear_1_1761" x1="35.6916" y1="35.1149" x2="38.8051" y2="35.1149" gradientUnits="userSpaceOnUse">
<stop stop-color="#733ADC"/>
<stop offset="1" stop-color="#382251"/>
</linearGradient>
<linearGradient id="paint26_linear_1_1761" x1="39.1273" y1="37.1464" x2="42.3042" y2="37.1464" gradientUnits="userSpaceOnUse">
<stop stop-color="#733ADC"/>
<stop offset="1" stop-color="#382251"/>
</linearGradient>
<linearGradient id="paint27_linear_1_1761" x1="29.5967" y1="38.7264" x2="36.8012" y2="38.7264" gradientUnits="userSpaceOnUse">
<stop stop-color="#733ADC"/>
<stop offset="1" stop-color="#382251"/>
</linearGradient>
<linearGradient id="paint28_linear_1_1761" x1="15.2024" y1="42.2381" x2="19.1089" y2="42.2381" gradientUnits="userSpaceOnUse">
<stop stop-color="#733ADC"/>
<stop offset="1" stop-color="#382251"/>
</linearGradient>
<linearGradient id="paint29_linear_1_1761" x1="35.6595" y1="42.4065" x2="41.6493" y2="42.4065" gradientUnits="userSpaceOnUse">
<stop stop-color="#733ADC"/>
<stop offset="1" stop-color="#382251"/>
</linearGradient>
<linearGradient id="paint30_linear_1_1761" x1="23.4007" y1="42.3789" x2="31.7219" y2="42.3789" gradientUnits="userSpaceOnUse">
<stop stop-color="#733ADC"/>
<stop offset="1" stop-color="#382251"/>
</linearGradient>
<linearGradient id="paint31_linear_1_1761" x1="15.8952" y1="45.4331" x2="22.5564" y2="45.4331" gradientUnits="userSpaceOnUse">
<stop stop-color="#733ADC"/>
<stop offset="1" stop-color="#382251"/>
</linearGradient>
<linearGradient id="paint32_linear_1_1761" x1="19.3937" y1="46.8501" x2="36.6159" y2="46.8501" gradientUnits="userSpaceOnUse">
<stop stop-color="#733ADC"/>
<stop offset="1" stop-color="#382251"/>
</linearGradient>
<linearGradient id="paint33_linear_1_1761" x1="32.6068" y1="40.098" x2="59.7064" y2="40.098" gradientUnits="userSpaceOnUse">
<stop stop-color="#FEFEFE"/>
<stop offset="1" stop-color="#AAABAA"/>
</linearGradient>
<linearGradient id="paint34_linear_1_1761" x1="-1.17895" y1="34.849" x2="41.0009" y2="34.849" gradientUnits="userSpaceOnUse">
<stop stop-color="#3767FA"/>
<stop offset="1" stop-color="#12FFF7"/>
</linearGradient>
<linearGradient id="paint35_linear_1_1761" x1="21.3088" y1="40.9924" x2="0.421334" y2="41.8187" gradientUnits="userSpaceOnUse">
<stop stop-color="#B3FFAB" stop-opacity="0"/>
<stop offset="1" stop-color="#12FFF7"/>
</linearGradient>
<clipPath id="clip0_1_1761">
<rect width="97" height="111" fill="white"/>
</clipPath>
</defs>
</svg>
