<svg width="98" height="110" viewBox="0 0 98 110" fill="none" xmlns="http://www.w3.org/2000/svg">
<path d="M44.4377 96.1661L46 109.315C45.0453 109.879 43.8736 109.879 42.9189 109.315L11.5 91.0454C10.6321 90.5246 10.0679 89.5699 10.0679 88.5718V77.0718L44.4377 96.1661Z" fill="url(#paint0_linear_1_1827)"/>
<path d="M76.6811 78.0696V89.5696C76.6811 90.6111 76.1604 91.5224 75.2491 92.0432L45.9566 109.358C45.3057 109.749 44.4811 109.271 44.4811 108.49V95.2111L76.6811 78.0696Z" fill="url(#paint1_linear_1_1827)"/>
<path d="M76.2038 79.0244L46.3472 96.7301C45.0019 97.5112 43.3094 97.5112 41.9642 96.7301L10.7623 78.4169C9.89435 77.8961 9.89435 76.5942 10.8057 76.1169L41.2264 59.3659C42.6151 58.6282 44.2642 58.6716 45.6094 59.4961L76.2472 77.3754C76.8113 77.7659 76.8113 78.6773 76.2038 79.0244Z" fill="url(#paint2_linear_1_1827)"/>
<path d="M44.4377 78.4599L46 91.609C45.0453 92.1731 43.8736 92.1731 42.9189 91.609L11.5 73.3392C10.6321 72.8184 10.0679 71.8637 10.0679 70.8656V59.3656L44.4377 78.4599Z" fill="url(#paint3_linear_1_1827)"/>
<path d="M76.6811 60.408V71.908C76.6811 72.9495 76.1604 73.8608 75.2491 74.3815L45.9566 91.6967C45.3057 92.0872 44.4811 91.6099 44.4811 90.8287V77.5495L76.6811 60.408Z" fill="url(#paint4_linear_1_1827)"/>
<path d="M76.2038 61.3626L46.3472 79.0683C45.0019 79.8494 43.3095 79.8494 41.9642 79.0683L10.7189 60.7551C9.85097 60.2343 9.85097 58.9324 10.7623 58.4551L41.183 41.6607C42.5717 40.923 44.2208 40.9664 45.5661 41.7909L76.2038 59.6702C76.8114 60.0608 76.8114 60.9721 76.2038 61.3626Z" fill="url(#paint5_linear_1_1827)"/>
<path d="M71.3868 60.7981L45.9133 75.8999C44.7416 76.5943 43.3529 76.5943 42.1812 75.8999L15.5359 60.2773C14.7982 59.8433 14.7982 58.7584 15.5793 58.3245L41.5302 44.0471C42.7019 43.3962 44.134 43.4396 45.2623 44.1339L71.4302 59.366C71.9076 59.7131 71.9076 60.4943 71.3868 60.7981Z" fill="url(#paint6_linear_1_1827)"/>
<path d="M35.4113 75.2053C35.4113 75.2053 36.4962 75.8562 38.1453 76.7675C38.9698 77.2449 39.9245 77.809 40.966 78.4166C41.2264 78.5468 41.4868 78.7204 41.7472 78.8939C42.0075 79.0675 42.2679 79.1977 42.5717 79.2845C43.1358 79.5015 43.7868 79.5883 44.3943 79.5449C45.0019 79.5015 45.6528 79.3279 46.1736 78.9807C46.6943 78.677 47.2585 78.3732 47.7792 78.0694C48.8207 77.4619 49.7755 76.8977 50.6 76.4204C52.249 75.4656 53.3339 74.8147 53.3339 74.8147C53.3339 74.8147 52.249 75.4656 50.6 76.4638C49.7755 76.9411 48.8207 77.5053 47.8226 78.1128C47.3019 78.4166 46.7811 78.7204 46.2604 79.0675C45.6962 79.3713 45.0887 79.5883 44.4377 79.6317C43.7868 79.6751 43.1358 79.5883 42.5717 79.3279C42.2679 79.2411 42.0075 79.0675 41.7472 78.8939C41.4868 78.7204 41.2264 78.5902 40.966 78.4166C39.9245 77.809 38.9698 77.2449 38.1453 76.7675C36.5396 75.8562 35.4113 75.2053 35.4113 75.2053Z" fill="#DCCAFF"/>
<path d="M47.6925 83.8851C47.6925 83.8851 49.9057 83.0172 51.034 81.6719C51.5114 81.1077 51.2944 79.5889 50.1661 79.7191C49.6887 79.7625 48.9076 79.8492 47.6925 80.4134V83.8851Z" fill="url(#paint7_linear_1_1827)"/>
<path d="M47.6925 81.1948V80.3702C47.6925 80.3702 49.6887 82.1061 47.6925 83.8419V81.1948Z" fill="url(#paint8_linear_1_1827)"/>
<path d="M47.6925 88.1373C47.6925 88.1373 49.9057 87.2694 51.034 85.9241C51.5114 85.3599 51.2944 83.8411 50.1661 83.9713C49.6887 84.0147 48.9076 84.1014 47.6925 84.6656V88.1373Z" fill="url(#paint9_linear_1_1827)"/>
<path d="M47.6925 85.4473V84.6228C47.6925 84.6228 49.6887 86.3587 47.6925 88.0945V85.4473Z" fill="url(#paint10_linear_1_1827)"/>
<path d="M40.6189 83.9283C40.6189 83.9283 38.4057 83.0604 37.2774 81.7151C36.8 81.151 37.017 79.6321 38.1453 79.7623C38.6227 79.8057 39.4038 79.8925 40.6189 80.4566V83.9283Z" fill="url(#paint11_linear_1_1827)"/>
<path d="M40.6188 81.2375V80.413C40.6188 80.413 38.6226 82.1488 40.6188 83.8847V81.2375Z" fill="url(#paint12_linear_1_1827)"/>
<path d="M40.6189 88.181C40.6189 88.181 38.4057 87.3131 37.2774 85.9678C36.8 85.4036 37.017 83.8848 38.1453 84.015C38.6227 84.0584 39.4038 84.1451 40.6189 84.7093V88.181Z" fill="url(#paint13_linear_1_1827)"/>
<path d="M40.6188 85.4905V84.666C40.6188 84.666 38.6226 86.4019 40.6188 88.1377V85.4905Z" fill="url(#paint14_linear_1_1827)"/>
<path d="M40.6189 85.5342L41.9641 86.3153C43.3094 87.0964 45.0019 87.0964 46.3472 86.3153L47.6924 85.5342L48.1264 85.7078L46.5641 87.1832L43.3528 87.6606L41.7906 87.0096L40.1849 85.7078L40.6189 85.5342Z" fill="url(#paint15_linear_1_1827)"/>
<path d="M48.083 85.7075L46.3038 86.749C44.9585 87.5302 43.266 87.5302 41.9208 86.749L40.1415 85.7075V87.0528L41.9208 88.0943C43.266 88.8754 44.9585 88.8754 46.3038 88.0943L48.083 87.0528V85.7075Z" fill="url(#paint16_linear_1_1827)"/>
<path d="M40.6189 81.2808L41.9641 82.0619C43.3094 82.843 45.0019 82.843 46.3472 82.0619L47.6924 81.2808L48.1264 81.4543L46.5641 82.9298L43.3528 83.4072L41.7906 82.7562L40.1849 81.4543L40.6189 81.2808Z" fill="url(#paint17_linear_1_1827)"/>
<path d="M48.083 81.4548L46.3038 82.4963C44.9585 83.2775 43.266 83.2775 41.9208 82.4963L40.1415 81.4548V82.8001L41.9208 83.8416C43.266 84.6228 44.9585 84.6228 46.3038 83.8416L48.083 82.8001V81.4548Z" fill="url(#paint18_linear_1_1827)"/>
<path d="M47.9962 101.807C47.9962 101.807 50.2094 100.939 51.3377 99.5941C51.815 99.03 51.5981 97.5111 50.4698 97.6413C49.9924 97.6847 49.2113 97.7715 47.9962 98.3356V101.807Z" fill="url(#paint19_linear_1_1827)"/>
<path d="M47.9962 99.1606V98.3361C47.9962 98.3361 49.9924 100.072 47.9962 101.808V99.1606Z" fill="url(#paint20_linear_1_1827)"/>
<path d="M47.9962 106.06C47.9962 106.06 50.2094 105.192 51.3377 103.847C51.815 103.283 51.5981 101.764 50.4698 101.894C49.9924 101.938 49.2113 102.025 47.9962 102.589V106.06Z" fill="url(#paint21_linear_1_1827)"/>
<path d="M47.9962 103.37V102.545C47.9962 102.545 49.9924 104.281 47.9962 106.017V103.37Z" fill="url(#paint22_linear_1_1827)"/>
<path d="M40.9661 101.851C40.9661 101.851 38.7529 100.983 37.6246 99.6377C37.1472 99.0736 37.3642 97.5547 38.4925 97.6849C38.9698 97.7283 39.751 97.8151 40.9661 98.3792V101.851Z" fill="url(#paint23_linear_1_1827)"/>
<path d="M40.9661 99.1606V98.3361C40.9661 98.3361 38.9698 100.072 40.9661 101.808V99.1606Z" fill="url(#paint24_linear_1_1827)"/>
<path d="M40.9661 106.104C40.9661 106.104 38.7529 105.236 37.6246 103.89C37.1472 103.326 37.3642 101.807 38.4925 101.938C38.9698 101.981 39.751 102.068 40.9661 102.632V106.104Z" fill="url(#paint25_linear_1_1827)"/>
<path d="M40.9661 103.413V102.589C40.9661 102.589 38.9698 104.324 40.9661 106.06V103.413Z" fill="url(#paint26_linear_1_1827)"/>
<path d="M40.9226 103.413L42.2679 104.194C43.6132 104.975 45.3057 104.975 46.6509 104.194L47.9962 103.413L48.4302 103.587L46.8679 105.062L43.6566 105.54L42.0943 104.889L40.4887 103.587L40.9226 103.413Z" fill="url(#paint27_linear_1_1827)"/>
<path d="M48.4302 103.587L46.6509 104.628C45.3057 105.41 43.6132 105.41 42.2679 104.628L40.4887 103.587V104.932L42.2679 105.974C43.6132 106.755 45.3057 106.755 46.6509 105.974L48.4302 104.932V103.587Z" fill="url(#paint28_linear_1_1827)"/>
<path d="M40.9226 99.1169L42.2679 99.8981C43.6132 100.679 45.3057 100.679 46.6509 99.8981L47.9962 99.1169L48.4302 99.2905L46.8679 100.766L43.6566 101.243L42.0943 100.592L40.4887 99.2905L40.9226 99.1169Z" fill="url(#paint29_linear_1_1827)"/>
<path d="M48.4302 99.2902L46.6509 100.332C45.3057 101.113 43.6132 101.113 42.2679 100.332L40.4887 99.2902V100.635L42.2679 101.677C43.6132 102.458 45.3057 102.458 46.6509 101.677L48.4302 100.635V99.2902Z" fill="url(#paint30_linear_1_1827)"/>
<path d="M22.9566 74.4244C22.9566 75.2923 22.3491 75.6395 21.6113 75.2055C20.8736 74.7716 20.2661 73.73 20.2661 72.8621C20.2661 71.9942 20.8736 71.647 21.6113 72.081C22.3491 72.515 22.9566 73.5565 22.9566 74.4244Z" fill="url(#paint31_linear_1_1827)"/>
<path d="M27.307 78.0649C27.8242 77.7625 27.8121 76.7794 27.2799 75.869C26.7476 74.9586 25.8968 74.4657 25.3796 74.7681C24.8623 75.0705 24.8744 76.0537 25.4067 76.9641C25.9389 77.8745 26.7897 78.3674 27.307 78.0649Z" fill="#987EF5"/>
<path d="M32.3736 79.9359C32.3736 80.8038 31.7661 81.151 31.0283 80.717C30.2906 80.283 29.683 79.2415 29.683 78.3736C29.683 77.5057 30.2906 77.1585 31.0283 77.5925C31.7661 78.0264 32.3736 79.0679 32.3736 79.9359Z" fill="url(#paint32_linear_1_1827)"/>
<path d="M22.3057 91.4361C22.3057 92.304 21.6981 92.6512 20.9604 92.2172C20.2227 91.7833 19.6151 90.7418 19.6151 89.8738C19.6151 89.0059 20.2227 88.6587 20.9604 89.0927C21.6981 89.5267 22.3057 90.5682 22.3057 91.4361Z" fill="url(#paint33_linear_1_1827)"/>
<path d="M27.0358 94.2135C27.0358 95.0814 26.4283 95.4285 25.6905 94.9946C24.9528 94.5606 24.3452 93.5191 24.3452 92.6512C24.3452 91.7833 24.9528 91.4361 25.6905 91.8701C26.4283 92.304 27.0358 93.3455 27.0358 94.2135Z" fill="url(#paint34_linear_1_1827)"/>
<path d="M31.3409 97.8068C31.8582 97.5044 31.8461 96.5212 31.3138 95.6108C30.7816 94.7004 29.9308 94.2075 29.4135 94.5099C28.8963 94.8123 28.9084 95.7955 29.4406 96.7059C29.9729 97.6163 30.8236 98.1092 31.3409 97.8068Z" fill="#987EF5"/>
<path d="M66.6566 90.0039L58.1075 94.9511V92.8681L66.6566 87.9209V90.0039Z" fill="url(#paint35_linear_1_1827)"/>
<path d="M66.6566 93.9525L58.1075 98.8996V96.86L66.6566 91.9128V93.9525Z" fill="url(#paint36_linear_1_1827)"/>
<path opacity="0.2" d="M66.6566 90.0039L65.0076 88.8756L66.6566 87.9209V90.0039Z" fill="url(#paint37_linear_1_1827)"/>
<path opacity="0.2" d="M66.6566 93.9525L65.0076 92.8676L66.6566 91.9128V93.9525Z" fill="url(#paint38_linear_1_1827)"/>
<path d="M66.3528 72.6889L57.7603 77.636V75.553L66.3528 70.6058V72.6889Z" fill="url(#paint39_linear_1_1827)"/>
<path d="M66.3528 76.6376L57.7603 81.5848V79.5017L66.3528 74.5546V76.6376Z" fill="url(#paint40_linear_1_1827)"/>
<path opacity="0.2" d="M66.3528 72.6888L64.7038 71.5605L66.3528 70.6058V72.6888Z" fill="url(#paint41_linear_1_1827)"/>
<path opacity="0.2" d="M66.3528 76.6376L64.7038 75.5093L66.3528 74.5546V76.6376Z" fill="url(#paint42_linear_1_1827)"/>
<path d="M28.2509 60.4942L42.9188 52.2489L58.4981 61.3187L43.8301 69.6074L28.2509 60.4942Z" fill="url(#paint43_linear_1_1827)"/>
<path d="M43.7435 54.7224L28.1642 45.6526L28.2944 27.4696L43.917 36.5828L43.7435 54.7224Z" fill="url(#paint44_linear_1_1827)"/>
<path d="M28.2943 27.4694L42.9623 19.2241L58.5849 28.3373L43.917 36.5826L28.2943 27.4694Z" fill="url(#paint45_linear_1_1827)"/>
<path d="M43.917 36.5827L58.5849 28.3374L58.4547 46.477L43.7434 54.7223L43.917 36.5827Z" fill="url(#paint46_linear_1_1827)"/>
<path opacity="0.7" d="M71.3434 60.7981L45.8698 75.9C45.8698 75.9 44.2208 77.1151 42.1378 75.9L15.4925 60.2774C15.4925 60.2774 14.9717 60.0604 14.9283 59.366V0L71.734 0.607547V59.9736C71.7774 59.9736 71.951 60.4509 71.3434 60.7981Z" fill="url(#paint47_linear_1_1827)"/>
<path d="M63.0113 52.4666C63.4187 52.4666 63.749 52.1557 63.749 51.7722C63.749 51.3887 63.4187 51.0779 63.0113 51.0779C62.6039 51.0779 62.2736 51.3887 62.2736 51.7722C62.2736 52.1557 62.6039 52.4666 63.0113 52.4666Z" fill="#F3FFFF"/>
<path d="M28.034 46.6509C28.4415 46.6509 28.7718 46.34 28.7718 45.9565C28.7718 45.5731 28.4415 45.2622 28.034 45.2622C27.6266 45.2622 27.2963 45.5731 27.2963 45.9565C27.2963 46.34 27.6266 46.6509 28.034 46.6509Z" fill="#F3FFFF"/>
<path d="M50.3396 35.9324C50.747 35.9324 51.0773 35.6215 51.0773 35.238C51.0773 34.8546 50.747 34.5437 50.3396 34.5437C49.9322 34.5437 49.6019 34.8546 49.6019 35.238C49.6019 35.6215 49.9322 35.9324 50.3396 35.9324Z" fill="#F3FFFF"/>
<path d="M41.1396 65.3547C41.547 65.3547 41.8773 65.0439 41.8773 64.6604C41.8773 64.2769 41.547 63.9661 41.1396 63.9661C40.7322 63.9661 40.4019 64.2769 40.4019 64.6604C40.4019 65.0439 40.7322 65.3547 41.1396 65.3547Z" fill="#F3FFFF"/>
<path d="M33.8925 32.5043C34.2999 32.5043 34.6302 32.1934 34.6302 31.8099C34.6302 31.4265 34.2999 31.1156 33.8925 31.1156C33.485 31.1156 33.1547 31.4265 33.1547 31.8099C33.1547 32.1934 33.485 32.5043 33.8925 32.5043Z" fill="#F3FFFF"/>
<path d="M55.9811 17.8792C56.3886 17.8792 56.7189 17.5683 56.7189 17.1848C56.7189 16.8013 56.3886 16.4905 55.9811 16.4905C55.5737 16.4905 55.2434 16.8013 55.2434 17.1848C55.2434 17.5683 55.5737 17.8792 55.9811 17.8792Z" fill="#F3FFFF"/>
<path d="M40.6189 51.2942C41.0263 51.2942 41.3566 50.9833 41.3566 50.5999C41.3566 50.2164 41.0263 49.9055 40.6189 49.9055C40.2115 49.9055 39.8812 50.2164 39.8812 50.5999C39.8812 50.9833 40.2115 51.2942 40.6189 51.2942Z" fill="#F3FFFF"/>
<defs>
<linearGradient id="paint0_linear_1_1827" x1="38.2097" y1="118.54" x2="20.4706" y2="76.5925" gradientUnits="userSpaceOnUse">
<stop offset="0.00537634" stop-color="#00C6FB"/>
<stop offset="0.1237" stop-color="#00B6F8"/>
<stop offset="0.5242" stop-color="#0085F1"/>
<stop offset="0.829" stop-color="#0066EC"/>
<stop offset="1" stop-color="#005BEA"/>
</linearGradient>
<linearGradient id="paint1_linear_1_1827" x1="31.3863" y1="88.9299" x2="86.7193" y2="98.008" gradientUnits="userSpaceOnUse">
<stop stop-color="#005BEA"/>
<stop offset="0.171" stop-color="#0066EC"/>
<stop offset="0.4758" stop-color="#0085F1"/>
<stop offset="0.8763" stop-color="#00B6F8"/>
<stop offset="0.9946" stop-color="#00C6FB"/>
</linearGradient>
<linearGradient id="paint2_linear_1_1827" x1="4.37782" y1="78.7748" x2="101.997" y2="77.0721" gradientUnits="userSpaceOnUse">
<stop offset="0.00677858" stop-color="#009FFC"/>
<stop offset="0.5586" stop-color="#1595F4"/>
<stop offset="1" stop-color="#2090F0"/>
</linearGradient>
<linearGradient id="paint3_linear_1_1827" x1="38.2097" y1="100.838" x2="20.4706" y2="58.8907" gradientUnits="userSpaceOnUse">
<stop offset="0.00537634" stop-color="#00C6FB"/>
<stop offset="0.1237" stop-color="#00B6F8"/>
<stop offset="0.5242" stop-color="#0085F1"/>
<stop offset="0.829" stop-color="#0066EC"/>
<stop offset="1" stop-color="#005BEA"/>
</linearGradient>
<linearGradient id="paint4_linear_1_1827" x1="31.3863" y1="71.2292" x2="86.7193" y2="80.3073" gradientUnits="userSpaceOnUse">
<stop stop-color="#005BEA"/>
<stop offset="0.171" stop-color="#0066EC"/>
<stop offset="0.4758" stop-color="#0085F1"/>
<stop offset="0.8763" stop-color="#00B6F8"/>
<stop offset="0.9946" stop-color="#00C6FB"/>
</linearGradient>
<linearGradient id="paint5_linear_1_1827" x1="4.37783" y1="61.0738" x2="101.997" y2="59.3712" gradientUnits="userSpaceOnUse">
<stop offset="0.00677858" stop-color="#009FFC"/>
<stop offset="0.5586" stop-color="#1595F4"/>
<stop offset="1" stop-color="#2090F0"/>
</linearGradient>
<linearGradient id="paint6_linear_1_1827" x1="10.1028" y1="60.5657" x2="93.389" y2="59.113" gradientUnits="userSpaceOnUse">
<stop offset="0.00537634" stop-color="#55FFB5"/>
<stop offset="0.588" stop-color="#6DFFCB"/>
<stop offset="1" stop-color="#78FFD6"/>
</linearGradient>
<linearGradient id="paint7_linear_1_1827" x1="47.6221" y1="79.6332" x2="50.7496" y2="83.9311" gradientUnits="userSpaceOnUse">
<stop stop-color="#005BEA"/>
<stop offset="0.9946" stop-color="#00C6FB"/>
</linearGradient>
<linearGradient id="paint8_linear_1_1827" x1="46.7317" y1="81.1101" x2="49.2435" y2="83.8598" gradientUnits="userSpaceOnUse">
<stop offset="0.00677858" stop-color="#009FFC"/>
<stop offset="0.5586" stop-color="#1595F4"/>
<stop offset="1" stop-color="#2090F0"/>
</linearGradient>
<linearGradient id="paint9_linear_1_1827" x1="47.6221" y1="83.8799" x2="50.7496" y2="88.1779" gradientUnits="userSpaceOnUse">
<stop stop-color="#005BEA"/>
<stop offset="0.9946" stop-color="#00C6FB"/>
</linearGradient>
<linearGradient id="paint10_linear_1_1827" x1="46.7317" y1="85.3572" x2="49.2435" y2="88.1069" gradientUnits="userSpaceOnUse">
<stop offset="0.00677858" stop-color="#009FFC"/>
<stop offset="0.5586" stop-color="#1595F4"/>
<stop offset="1" stop-color="#2090F0"/>
</linearGradient>
<linearGradient id="paint11_linear_1_1827" x1="40.6838" y1="79.6645" x2="36.715" y2="85.1186" gradientUnits="userSpaceOnUse">
<stop stop-color="#005BEA"/>
<stop offset="0.2283" stop-color="#006FED"/>
<stop offset="0.692" stop-color="#00A2F5"/>
<stop offset="0.9946" stop-color="#00C6FB"/>
</linearGradient>
<linearGradient id="paint12_linear_1_1827" x1="41.5742" y1="81.1409" x2="39.0623" y2="83.8906" gradientUnits="userSpaceOnUse">
<stop offset="0.00677858" stop-color="#009FFC"/>
<stop offset="0.5586" stop-color="#1595F4"/>
<stop offset="1" stop-color="#2090F0"/>
</linearGradient>
<linearGradient id="paint13_linear_1_1827" x1="40.6838" y1="83.9118" x2="36.5632" y2="89.5744" gradientUnits="userSpaceOnUse">
<stop stop-color="#005BEA"/>
<stop offset="0.9946" stop-color="#00C6FB"/>
</linearGradient>
<linearGradient id="paint14_linear_1_1827" x1="41.5742" y1="85.3886" x2="39.0623" y2="88.1382" gradientUnits="userSpaceOnUse">
<stop offset="0.00677858" stop-color="#009FFC"/>
<stop offset="0.5586" stop-color="#1595F4"/>
<stop offset="1" stop-color="#2090F0"/>
</linearGradient>
<linearGradient id="paint15_linear_1_1827" x1="42.2339" y1="86.5898" x2="50.1737" y2="86.4513" gradientUnits="userSpaceOnUse">
<stop offset="0.00537634" stop-color="#36BBC0"/>
<stop offset="1" stop-color="#78FFD6"/>
</linearGradient>
<linearGradient id="paint16_linear_1_1827" x1="43.4529" y1="85.8883" x2="47.6271" y2="88.9953" gradientUnits="userSpaceOnUse">
<stop offset="0.00537634" stop-color="#55FFB5"/>
<stop offset="0.588" stop-color="#6DFFCB"/>
<stop offset="1" stop-color="#78FFD6"/>
</linearGradient>
<linearGradient id="paint17_linear_1_1827" x1="42.2339" y1="82.3204" x2="50.1737" y2="82.1819" gradientUnits="userSpaceOnUse">
<stop offset="0.00537634" stop-color="#36BBC0"/>
<stop offset="1" stop-color="#78FFD6"/>
</linearGradient>
<linearGradient id="paint18_linear_1_1827" x1="43.4529" y1="81.6195" x2="47.6271" y2="84.7266" gradientUnits="userSpaceOnUse">
<stop offset="0.00537634" stop-color="#55FFB5"/>
<stop offset="0.588" stop-color="#6DFFCB"/>
<stop offset="1" stop-color="#78FFD6"/>
</linearGradient>
<linearGradient id="paint19_linear_1_1827" x1="47.9546" y1="97.5582" x2="51.0821" y2="101.856" gradientUnits="userSpaceOnUse">
<stop stop-color="#005BEA"/>
<stop offset="0.9946" stop-color="#00C6FB"/>
</linearGradient>
<linearGradient id="paint20_linear_1_1827" x1="47.0642" y1="99.0352" x2="49.5761" y2="101.785" gradientUnits="userSpaceOnUse">
<stop offset="0.00677858" stop-color="#009FFC"/>
<stop offset="0.5586" stop-color="#1595F4"/>
<stop offset="1" stop-color="#2090F0"/>
</linearGradient>
<linearGradient id="paint21_linear_1_1827" x1="47.9546" y1="101.806" x2="51.0821" y2="106.104" gradientUnits="userSpaceOnUse">
<stop stop-color="#005BEA"/>
<stop offset="0.9946" stop-color="#00C6FB"/>
</linearGradient>
<linearGradient id="paint22_linear_1_1827" x1="47.0642" y1="103.282" x2="49.5761" y2="106.032" gradientUnits="userSpaceOnUse">
<stop offset="0.00677858" stop-color="#009FFC"/>
<stop offset="0.5586" stop-color="#1595F4"/>
<stop offset="1" stop-color="#2090F0"/>
</linearGradient>
<linearGradient id="paint23_linear_1_1827" x1="40.9953" y1="97.5898" x2="37.171" y2="102.845" gradientUnits="userSpaceOnUse">
<stop stop-color="#005BEA"/>
<stop offset="0.2353" stop-color="#0070ED"/>
<stop offset="0.7174" stop-color="#00A5F6"/>
<stop offset="0.9946" stop-color="#00C6FB"/>
</linearGradient>
<linearGradient id="paint24_linear_1_1827" x1="41.8857" y1="99.0668" x2="39.3738" y2="101.816" gradientUnits="userSpaceOnUse">
<stop offset="0.00677858" stop-color="#009FFC"/>
<stop offset="0.5586" stop-color="#1595F4"/>
<stop offset="1" stop-color="#2090F0"/>
</linearGradient>
<linearGradient id="paint25_linear_1_1827" x1="40.9953" y1="101.837" x2="37.3222" y2="106.885" gradientUnits="userSpaceOnUse">
<stop stop-color="#005BEA"/>
<stop offset="0.173" stop-color="#0067EC"/>
<stop offset="0.484" stop-color="#0086F1"/>
<stop offset="0.8948" stop-color="#00B9F9"/>
<stop offset="0.9946" stop-color="#00C6FB"/>
</linearGradient>
<linearGradient id="paint26_linear_1_1827" x1="41.8857" y1="103.314" x2="39.3739" y2="106.064" gradientUnits="userSpaceOnUse">
<stop offset="0.00677858" stop-color="#009FFC"/>
<stop offset="0.5586" stop-color="#1595F4"/>
<stop offset="1" stop-color="#2090F0"/>
</linearGradient>
<linearGradient id="paint27_linear_1_1827" x1="42.5675" y1="104.457" x2="50.5073" y2="104.319" gradientUnits="userSpaceOnUse">
<stop offset="0.00537634" stop-color="#36BBC0"/>
<stop offset="1" stop-color="#78FFD6"/>
</linearGradient>
<linearGradient id="paint28_linear_1_1827" x1="43.7864" y1="103.756" x2="47.9607" y2="106.863" gradientUnits="userSpaceOnUse">
<stop offset="0.00537634" stop-color="#55FFB5"/>
<stop offset="0.588" stop-color="#6DFFCB"/>
<stop offset="1" stop-color="#78FFD6"/>
</linearGradient>
<linearGradient id="paint29_linear_1_1827" x1="42.5675" y1="100.189" x2="50.5073" y2="100.05" gradientUnits="userSpaceOnUse">
<stop offset="0.00537634" stop-color="#36BBC0"/>
<stop offset="1" stop-color="#78FFD6"/>
</linearGradient>
<linearGradient id="paint30_linear_1_1827" x1="43.7864" y1="99.487" x2="47.9607" y2="102.594" gradientUnits="userSpaceOnUse">
<stop offset="0.00537634" stop-color="#55FFB5"/>
<stop offset="0.588" stop-color="#6DFFCB"/>
<stop offset="1" stop-color="#78FFD6"/>
</linearGradient>
<linearGradient id="paint31_linear_1_1827" x1="20.5847" y1="71.1538" x2="23.3405" y2="78.168" gradientUnits="userSpaceOnUse">
<stop offset="0.00537634" stop-color="#55FFB5"/>
<stop offset="0.588" stop-color="#6DFFCB"/>
<stop offset="1" stop-color="#78FFD6"/>
</linearGradient>
<linearGradient id="paint32_linear_1_1827" x1="29.9801" y1="76.6745" x2="32.736" y2="83.6886" gradientUnits="userSpaceOnUse">
<stop offset="0.00537634" stop-color="#55FFB5"/>
<stop offset="0.588" stop-color="#6DFFCB"/>
<stop offset="1" stop-color="#78FFD6"/>
</linearGradient>
<linearGradient id="paint33_linear_1_1827" x1="19.9363" y1="88.1601" x2="22.6921" y2="95.1743" gradientUnits="userSpaceOnUse">
<stop offset="0.00537634" stop-color="#55FFB5"/>
<stop offset="0.588" stop-color="#6DFFCB"/>
<stop offset="1" stop-color="#78FFD6"/>
</linearGradient>
<linearGradient id="paint34_linear_1_1827" x1="24.6552" y1="90.9392" x2="27.4111" y2="97.9534" gradientUnits="userSpaceOnUse">
<stop offset="0.00537634" stop-color="#55FFB5"/>
<stop offset="0.588" stop-color="#6DFFCB"/>
<stop offset="1" stop-color="#78FFD6"/>
</linearGradient>
<linearGradient id="paint35_linear_1_1827" x1="58.1062" y1="91.4412" x2="66.6732" y2="91.4412" gradientUnits="userSpaceOnUse">
<stop offset="0.00537634" stop-color="#55FFB5"/>
<stop offset="0.588" stop-color="#6DFFCB"/>
<stop offset="1" stop-color="#78FFD6"/>
</linearGradient>
<linearGradient id="paint36_linear_1_1827" x1="58.1062" y1="95.4052" x2="66.6732" y2="95.4052" gradientUnits="userSpaceOnUse">
<stop offset="0.00537634" stop-color="#55FFB5"/>
<stop offset="0.588" stop-color="#6DFFCB"/>
<stop offset="1" stop-color="#78FFD6"/>
</linearGradient>
<linearGradient id="paint37_linear_1_1827" x1="60.5501" y1="88.9681" x2="75.3739" y2="88.9681" gradientUnits="userSpaceOnUse">
<stop stop-color="#005BEA"/>
<stop offset="0.171" stop-color="#0066EC"/>
<stop offset="0.4758" stop-color="#0085F1"/>
<stop offset="0.8763" stop-color="#00B6F8"/>
<stop offset="0.9946" stop-color="#00C6FB"/>
</linearGradient>
<linearGradient id="paint38_linear_1_1827" x1="60.5501" y1="92.9321" x2="75.3739" y2="92.9321" gradientUnits="userSpaceOnUse">
<stop stop-color="#005BEA"/>
<stop offset="0.171" stop-color="#0066EC"/>
<stop offset="0.4758" stop-color="#0085F1"/>
<stop offset="0.8763" stop-color="#00B6F8"/>
<stop offset="0.9946" stop-color="#00C6FB"/>
</linearGradient>
<linearGradient id="paint39_linear_1_1827" x1="57.782" y1="74.1086" x2="66.349" y2="74.1086" gradientUnits="userSpaceOnUse">
<stop offset="0.00537634" stop-color="#55FFB5"/>
<stop offset="0.588" stop-color="#6DFFCB"/>
<stop offset="1" stop-color="#78FFD6"/>
</linearGradient>
<linearGradient id="paint40_linear_1_1827" x1="57.782" y1="78.0728" x2="66.349" y2="78.0728" gradientUnits="userSpaceOnUse">
<stop offset="0.00537634" stop-color="#55FFB5"/>
<stop offset="0.588" stop-color="#6DFFCB"/>
<stop offset="1" stop-color="#78FFD6"/>
</linearGradient>
<linearGradient id="paint41_linear_1_1827" x1="60.2259" y1="71.6355" x2="75.0497" y2="71.6355" gradientUnits="userSpaceOnUse">
<stop stop-color="#005BEA"/>
<stop offset="0.171" stop-color="#0066EC"/>
<stop offset="0.4758" stop-color="#0085F1"/>
<stop offset="0.8763" stop-color="#00B6F8"/>
<stop offset="0.9946" stop-color="#00C6FB"/>
</linearGradient>
<linearGradient id="paint42_linear_1_1827" x1="60.2259" y1="75.5997" x2="75.0497" y2="75.5997" gradientUnits="userSpaceOnUse">
<stop stop-color="#005BEA"/>
<stop offset="0.171" stop-color="#0066EC"/>
<stop offset="0.4758" stop-color="#0085F1"/>
<stop offset="0.8763" stop-color="#00B6F8"/>
<stop offset="0.9946" stop-color="#00C6FB"/>
</linearGradient>
<linearGradient id="paint43_linear_1_1827" x1="44.6975" y1="71.0697" x2="38.5951" y2="26.5406" gradientUnits="userSpaceOnUse">
<stop offset="0.00677858" stop-color="#52E5E7"/>
<stop offset="1" stop-color="#130CB7"/>
</linearGradient>
<linearGradient id="paint44_linear_1_1827" x1="43.218" y1="55.031" x2="18.6697" y2="8.00064" gradientUnits="userSpaceOnUse">
<stop offset="0.00677858" stop-color="#52E5E7"/>
<stop offset="1" stop-color="#130CB7"/>
</linearGradient>
<linearGradient id="paint45_linear_1_1827" x1="44.7648" y1="38.0541" x2="38.6623" y2="-6.47502" gradientUnits="userSpaceOnUse">
<stop offset="0.00677858" stop-color="#52E5E7"/>
<stop offset="1" stop-color="#130CB7"/>
</linearGradient>
<linearGradient id="paint46_linear_1_1827" x1="44.9339" y1="61.9055" x2="61.5533" y2="7.17587" gradientUnits="userSpaceOnUse">
<stop offset="0.00677858" stop-color="#52E5E7"/>
<stop offset="1" stop-color="#130CB7"/>
</linearGradient>
<linearGradient id="paint47_linear_1_1827" x1="42.6466" y1="70.5332" x2="43.9166" y2="-0.587714" gradientUnits="userSpaceOnUse">
<stop stop-color="white"/>
<stop offset="0.1451" stop-color="#6AF9BE" stop-opacity="0.9711"/>
<stop offset="1" stop-color="#5AB1C6" stop-opacity="0"/>
</linearGradient>
</defs>
</svg>
