<svg width="21" height="20" viewBox="0 0 21 20" fill="none" xmlns="http://www.w3.org/2000/svg">
<path d="M20.1705 7.16358L13.9718 6.2627L11.2008 0.645029C11.1251 0.49122 11.0006 0.366708 10.8468 0.291025C10.461 0.100595 9.99227 0.259286 9.7994 0.645029L7.0284 6.2627L0.829674 7.16358C0.658775 7.188 0.502525 7.26856 0.382896 7.39063C0.238272 7.53928 0.158577 7.73927 0.161324 7.94664C0.16407 8.15402 0.249034 8.35183 0.397545 8.49659L4.88241 12.8691L3.82284 19.0435C3.79799 19.1871 3.81388 19.3348 3.86872 19.4699C3.92355 19.6049 4.01513 19.7219 4.13306 19.8076C4.251 19.8932 4.39058 19.9441 4.53597 19.9545C4.68136 19.9649 4.82675 19.9343 4.95565 19.8662L10.5001 16.9512L16.0445 19.8662C16.1959 19.9468 16.3717 19.9736 16.5401 19.9443C16.9649 19.8711 17.2506 19.4683 17.1773 19.0435L16.1178 12.8691L20.6026 8.49659C20.7247 8.37696 20.8053 8.22071 20.8297 8.04981C20.8956 7.62257 20.5977 7.22706 20.1705 7.16358Z" fill="#00FF47"/>
</svg>
