<svg width="21" height="20" viewBox="0 0 21 20" fill="none" xmlns="http://www.w3.org/2000/svg">
<path d="M0.382896 7.39063C0.238272 7.53928 0.158577 7.73927 0.161324 7.94664C0.16407 8.15402 0.249034 8.35183 0.397545 8.49659L4.88241 12.8691L3.82284 19.0435L0.740654 7.73994M0.382896 7.39063L0.740003 7.7406C0.74022 7.74038 0.740437 7.74016 0.740654 7.73994M0.382896 7.39063C0.502525 7.26856 0.658775 7.188 0.829674 7.16358M0.382896 7.39063L0.829674 7.16358M0.740654 7.73994C0.688833 7.79353 0.660292 7.86545 0.66128 7.94002C0.662271 8.01489 0.692943 8.08629 0.746555 8.13855L0.746587 8.13858L5.23145 12.5111L5.41966 12.6946L5.3752 12.9537L4.31563 19.128L4.31552 19.1287C4.3066 19.1803 4.31231 19.2333 4.33199 19.2818C4.35168 19.3303 4.38455 19.3723 4.42689 19.403C4.46923 19.4338 4.51934 19.452 4.57154 19.4558C4.62373 19.4595 4.67592 19.4485 4.72219 19.4241L4.72297 19.4237L10.2674 16.5086L10.5001 16.3863L10.7328 16.5086L16.2772 19.4237L16.2794 19.4248C16.3305 19.452 16.3932 19.4624 16.4545 19.4517L16.4552 19.4516C16.6091 19.4251 16.7107 19.2799 16.6846 19.1284L16.6845 19.128L15.625 12.9537L15.5805 12.6946L15.7687 12.5111L20.2527 8.13949C20.2528 8.13934 20.2529 8.1392 20.2531 8.13906C20.2979 8.09494 20.3262 8.03891 20.3347 7.9791L20.3355 7.97357L20.3355 7.97357C20.3582 7.82635 20.2562 7.68217 20.0977 7.65826C20.0975 7.65822 20.0972 7.65819 20.097 7.65815L13.8999 6.75751L13.6397 6.71969L13.5233 6.48389L10.7524 0.866216L10.7521 0.865782C10.7252 0.811 10.6808 0.76661 10.626 0.739653L10.6254 0.739368C10.4883 0.671647 10.318 0.727218 10.2471 0.867649C10.2469 0.867978 10.2468 0.868306 10.2466 0.868635L7.47682 6.48389L7.36051 6.71969L7.10031 6.75751L0.901585 7.65839L0.900385 7.65856C0.840679 7.66709 0.784743 7.69523 0.740654 7.73994ZM0.829674 7.16358L7.0284 6.2627L0.829674 7.16358Z" stroke="#00FF47"/>
<path d="M5.5 12.543L1 8.04297L7.5 6.54297L10.5 1.04297L12 4.04297V17.043L10.5 16.043L4.5 19.543L5.5 12.543Z" fill="#00FF47"/>
</svg>
