<svg width="25" height="25" viewBox="0 0 25 25" fill="none" xmlns="http://www.w3.org/2000/svg">
<path d="M24.6281 5.14275C23.7583 5.52816 22.8239 5.78858 21.8416 5.90629C22.8552 5.29982 23.6135 4.34532 23.975 3.22087C23.0227 3.78649 21.9805 4.18462 20.8937 4.39796C20.1629 3.61761 19.1948 3.10038 18.1399 2.92657C17.085 2.75277 16.0022 2.93211 15.0596 3.43676C14.117 3.94141 13.3674 4.74312 12.9272 5.71744C12.487 6.69175 12.3807 7.78415 12.625 8.82504C10.6955 8.72816 8.80792 8.22665 7.08479 7.35306C5.36166 6.47948 3.84147 5.25333 2.62289 3.75421C2.20622 4.47296 1.96664 5.30629 1.96664 6.19379C1.96617 6.99274 2.16292 7.77946 2.53943 8.48413C2.91593 9.18881 3.46056 9.78966 4.12497 10.2334C3.35443 10.2089 2.60088 10.0006 1.92705 9.62608V9.68858C1.92698 10.8091 2.31459 11.8952 3.02412 12.7625C3.73365 13.6298 4.7214 14.225 5.81976 14.4469C5.10495 14.6404 4.35553 14.6689 3.6281 14.5302C3.93799 15.4944 4.54163 16.3376 5.35452 16.9416C6.16741 17.5457 7.14884 17.8804 8.16143 17.899C6.44251 19.2484 4.31965 19.9803 2.13435 19.9771C1.74724 19.9772 1.36047 19.9546 0.976013 19.9094C3.19422 21.3356 5.77637 22.0926 8.41351 22.0896C17.3406 22.0896 22.2208 14.6959 22.2208 8.28337C22.2208 8.07504 22.2156 7.86462 22.2062 7.65629C23.1555 6.9698 23.9749 6.11972 24.626 5.14587L24.6281 5.14275V5.14275Z" fill="white"/>
</svg>
