<svg width="18" height="22" viewBox="0 0 18 22" fill="none" xmlns="http://www.w3.org/2000/svg">
<path fill-rule="evenodd" clip-rule="evenodd" d="M18 17.811C18 21.3781 13.1083 21.7904 9.42969 21.7904L9.16645 21.7902C6.82277 21.7845 0.857178 21.6365 0.857178 17.7893C0.857178 14.295 5.55236 13.828 9.20294 13.8104L9.69292 13.8101C12.0364 13.8158 18 13.9638 18 17.811ZM9.42969 15.4333C4.81822 15.4333 2.48055 16.2255 2.48055 17.7893C2.48055 19.3672 4.81822 20.167 9.42969 20.167C14.0401 20.167 16.3767 19.3748 16.3767 17.811C16.3767 16.233 14.0401 15.4333 9.42969 15.4333ZM9.42969 0.285645C12.5985 0.285645 15.1754 2.86357 15.1754 6.0324C15.1754 9.20123 12.5985 11.7781 9.42969 11.7781H9.39506C6.23272 11.7683 3.67103 9.18932 3.68182 6.02915C3.68182 2.86357 6.25978 0.285645 9.42969 0.285645ZM9.42969 1.8311C7.11259 1.8311 5.22728 3.7153 5.22728 6.0324C5.21973 8.34192 7.09094 10.225 9.3983 10.2337L9.42969 11.0064V10.2337C11.7457 10.2337 13.6299 8.34841 13.6299 6.0324C13.6299 3.7153 11.7457 1.8311 9.42969 1.8311Z" fill="white"/>
</svg>
