<svg width="25" height="25" viewBox="0 0 25 25" fill="none" xmlns="http://www.w3.org/2000/svg">
<g clip-path="url(#clip0_1_3209)">
<path d="M24.4792 6.77812C24.3376 6.27316 24.0619 5.81598 23.6813 5.45521C23.2899 5.08333 22.8102 4.81733 22.2875 4.68229C20.3313 4.16666 12.4938 4.16666 12.4938 4.16666C9.22642 4.12949 5.95985 4.29299 2.71253 4.65625C2.18981 4.80126 1.71104 5.07321 1.31878 5.44791C0.933366 5.81875 0.654199 6.27604 0.508366 6.77708C0.158046 8.66431 -0.0121633 10.5806 3.25477e-05 12.5C-0.0124675 14.4177 0.157324 16.3333 0.508366 18.2229C0.651074 18.7219 0.929199 19.1771 1.31566 19.5448C1.70212 19.9125 2.18337 20.1781 2.71253 20.3187C4.69482 20.8333 12.4938 20.8333 12.4938 20.8333C15.7653 20.8706 19.036 20.7071 22.2875 20.3437C22.8102 20.2087 23.2899 19.9427 23.6813 19.5708C24.0667 19.2031 24.3407 18.7458 24.4782 18.2479C24.8376 16.3614 25.0124 14.4444 25 12.524C25.0271 10.5954 24.8525 8.66934 24.4792 6.77708V6.77812ZM10.0021 16.0667V8.93437L16.523 12.501L10.0021 16.0667Z" fill="white"/>
</g>
<defs>
<clipPath id="clip0_1_3209">
<rect width="25" height="25" fill="white"/>
</clipPath>
</defs>
</svg>
